<svg width="553" height="87" viewBox="0 0 553 87" fill="none" xmlns="http://www.w3.org/2000/svg">
<path d="M551.146 23.8809H13.0308C12.9023 23.8809 12.8105 23.7707 12.8105 23.6605C12.8105 23.5503 12.9206 23.44 13.0308 23.44H551.146C551.275 23.44 551.367 23.5503 551.367 23.6605C551.367 23.7707 551.256 23.8809 551.146 23.8809ZM540.171 34.0211C540.171 33.8925 540.061 33.8007 539.951 33.8007H1.83532C1.70685 33.8007 1.61508 33.9109 1.61508 34.0211C1.61508 34.1313 1.7252 34.2416 1.83532 34.2416H539.951C540.079 34.2416 540.171 34.1313 540.171 34.0211ZM540.171 44.6022C540.171 44.4736 540.061 44.3818 539.951 44.3818H1.83532C1.70685 44.3818 1.61508 44.492 1.61508 44.6022C1.61508 44.7124 1.7252 44.8226 1.83532 44.8226H539.951C540.079 44.8226 540.171 44.7124 540.171 44.6022ZM540.171 54.9628C540.171 54.8342 540.061 54.7424 539.951 54.7424H1.83532C1.70685 54.7424 1.61508 54.8526 1.61508 54.9628C1.61508 55.0731 1.7252 55.1833 1.83532 55.1833H539.951C540.079 55.1833 540.171 55.0731 540.171 54.9628ZM551.367 65.3235C551.367 65.1949 551.256 65.103 551.146 65.103H13.0308C12.9023 65.103 12.8105 65.2133 12.8105 65.3235C12.8105 65.4337 12.9206 65.5439 13.0308 65.5439H551.146C551.275 65.5439 551.367 65.4337 551.367 65.3235ZM551.367 27.1875C551.367 27.0589 551.256 26.9671 551.146 26.9671H13.0308C12.9023 26.9671 12.8105 27.0773 12.8105 27.1875C12.8105 27.2977 12.9206 27.4079 13.0308 27.4079H551.146C551.275 27.4079 551.367 27.2977 551.367 27.1875ZM540.171 37.5481C540.171 37.4196 540.061 37.3277 539.951 37.3277H1.83532C1.70685 37.3277 1.61508 37.4379 1.61508 37.5481C1.61508 37.6584 1.7252 37.7686 1.83532 37.7686H539.951C540.079 37.7686 540.171 37.6584 540.171 37.5481ZM540.171 47.9088C540.171 47.7802 540.061 47.6883 539.951 47.6883H1.83532C1.70685 47.6883 1.61508 47.7986 1.61508 47.9088C1.61508 48.019 1.7252 48.1292 1.83532 48.1292H539.951C540.079 48.1292 540.171 48.019 540.171 47.9088ZM551.367 58.4899C551.367 58.3613 551.256 58.2694 551.146 58.2694H13.0308C12.9023 58.2694 12.8105 58.3796 12.8105 58.4899C12.8105 58.6001 12.9206 58.7103 13.0308 58.7103H551.146C551.275 58.7103 551.367 58.6001 551.367 58.4899ZM513.669 86.0631L516.514 85.6223C517.009 85.5488 517.358 85.0712 517.285 84.5752C517.211 84.0792 516.734 83.7301 516.239 83.8036L513.394 84.2445C512.898 84.318 512.55 84.7956 512.623 85.2916C512.696 85.7508 513.082 86.0631 513.522 86.0631C513.577 86.0631 513.614 86.0631 513.669 86.0631ZM539.969 82.7565L547.788 81.6543C548.283 81.5809 548.632 81.1216 548.577 80.6256C548.503 80.1296 548.063 79.7622 547.549 79.8357L539.731 80.9379C539.235 81.0114 538.886 81.4706 538.941 81.9666C539.015 82.4259 539.4 82.7565 539.841 82.7565C539.877 82.7565 539.933 82.7565 539.969 82.7565ZM477.183 85.8427L492.838 83.8587C493.334 83.8036 493.701 83.326 493.627 82.83C493.554 82.334 493.095 81.985 492.6 82.0401L476.944 84.0241C476.449 84.0792 476.082 84.5568 476.155 85.0528C476.21 85.512 476.614 85.8611 477.073 85.8611C477.11 85.8611 477.146 85.8611 477.183 85.8611V85.8427ZM469.199 77.2456L477.018 76.1434C477.513 76.0699 477.862 75.6106 477.807 75.1146C477.734 74.6187 477.293 74.2513 476.779 74.3247L468.961 75.4269C468.465 75.5004 468.116 75.9597 468.172 76.4557C468.245 76.9149 468.63 77.2456 469.071 77.2456C469.108 77.2456 469.163 77.2456 469.199 77.2456ZM406.303 80.5521L410.341 80.1113L425.959 77.9069L429.868 77.466C430.364 77.4109 430.731 76.9516 430.676 76.4557C430.621 75.9597 430.162 75.5923 429.667 75.6474L425.721 76.0883L410.102 78.2926L406.101 78.7335C405.606 78.7886 405.238 79.2479 405.294 79.7439C405.349 80.2215 405.734 80.5705 406.211 80.5705C406.248 80.5705 406.285 80.5705 406.321 80.5705L406.303 80.5521ZM484.726 70.4119L488.635 69.9711C489.131 69.916 489.498 69.4567 489.443 68.9607C489.388 68.4647 488.929 68.0973 488.433 68.1524L484.524 68.5933C484.029 68.6484 483.662 69.1077 483.717 69.6037C483.772 70.0813 484.176 70.4119 484.634 70.4119C484.671 70.4119 484.708 70.4119 484.744 70.4119H484.726ZM296.422 85.1814L312.169 82.977C312.665 82.9035 313.014 82.4443 312.959 81.9483C312.885 81.4523 312.426 81.0849 311.931 81.1584L296.184 83.3628C295.688 83.4362 295.34 83.8955 295.395 84.3915C295.468 84.8507 295.853 85.1814 296.294 85.1814C296.331 85.1814 296.386 85.1814 296.422 85.1814ZM374.827 74.8207L390.482 72.8368C390.978 72.7817 391.345 72.3041 391.272 71.8081C391.198 71.3121 390.758 70.9631 390.244 71.0182L374.589 73.0021C374.093 73.0572 373.726 73.5348 373.799 74.0308C373.854 74.4901 374.258 74.8391 374.717 74.8391C374.754 74.8391 374.79 74.8391 374.827 74.8391V74.8207ZM413.901 69.7506L417.021 69.5302C417.535 69.4935 417.902 69.0526 417.865 68.5566C417.829 68.0606 417.388 67.6565 416.893 67.7116L413.773 67.932C413.259 67.9688 412.892 68.4096 412.928 68.9056C412.965 69.3832 413.369 69.7506 413.846 69.7506C413.864 69.7506 413.883 69.7506 413.92 69.7506H413.901ZM248.833 86.0631L276.766 82.7565L288.512 81.2135C289.008 81.14 289.375 80.6807 289.301 80.1848C289.228 79.6888 288.769 79.3214 288.274 79.3948L276.546 80.9379L248.631 84.2445C248.135 84.2996 247.768 84.7589 247.823 85.2732C247.878 85.7325 248.282 86.0815 248.741 86.0815C248.778 86.0815 248.814 86.0815 248.851 86.0815L248.833 86.0631ZM335.606 79.8908L339.516 79.45C339.516 79.45 339.699 79.4132 339.773 79.3765L355.208 72.598L366.807 71.0733C367.302 70.9998 367.669 70.5405 367.596 70.0446C367.523 69.5486 367.064 69.1812 366.568 69.2546L354.822 70.7977C354.822 70.7977 354.657 70.8345 354.565 70.8712L339.13 77.6497L335.35 78.0722C334.854 78.1273 334.487 78.5866 334.542 79.0826C334.597 79.5602 335.001 79.8908 335.46 79.8908C335.496 79.8908 335.533 79.8908 335.57 79.8908H335.606ZM217.907 85.6223L241.381 82.5361C241.877 82.4626 242.244 82.0034 242.17 81.5074C242.097 81.0114 241.638 80.644 241.143 80.7175L217.669 83.8036C217.173 83.8771 216.806 84.3364 216.88 84.8323C216.935 85.2916 217.338 85.6406 217.797 85.6406C217.834 85.6406 217.871 85.6406 217.926 85.6406L217.907 85.6223ZM296.239 75.4821L319.713 72.3959C320.208 72.3224 320.575 71.8632 320.502 71.3672C320.428 70.8712 319.97 70.5038 319.474 70.5773L296 73.6634C295.505 73.7369 295.138 74.1962 295.211 74.6921C295.266 75.1514 295.67 75.5004 296.129 75.5004C296.165 75.5004 296.202 75.5004 296.257 75.5004L296.239 75.4821ZM194.269 83.8587L209.924 81.6543C210.419 81.5809 210.768 81.1216 210.713 80.6256C210.64 80.1296 210.199 79.7622 209.685 79.8357L194.03 82.0401C193.534 82.1136 193.186 82.5728 193.241 83.0688C193.314 83.5281 193.7 83.8587 194.14 83.8587C194.177 83.8587 194.232 83.8587 194.269 83.8587ZM272.582 73.4981L288.31 71.5141C288.806 71.459 289.173 70.9998 289.099 70.4854C289.026 69.9711 288.586 69.622 288.072 69.6955L272.343 71.6795C271.847 71.7346 271.48 72.1938 271.554 72.7082C271.609 73.1674 272.013 73.5165 272.471 73.5165C272.508 73.5165 272.545 73.5165 272.582 73.5165V73.4981ZM147.119 84.9609L186.34 79.8908C186.835 79.8174 187.203 79.3581 187.129 78.8621C187.056 78.3661 186.597 77.9987 186.101 78.0722L146.881 83.1423C146.385 83.2158 146.018 83.675 146.091 84.171C146.146 84.6303 146.55 84.9793 147.009 84.9793C147.046 84.9793 147.082 84.9793 147.119 84.9793V84.9609ZM225.542 74.8207L264.671 69.7506C265.167 69.6772 265.534 69.2179 265.461 68.7219C265.387 68.2259 264.947 67.8769 264.433 67.932L225.304 73.0021C224.808 73.0756 224.441 73.5348 224.515 74.0308C224.57 74.4901 224.973 74.8391 225.432 74.8391C225.469 74.8391 225.506 74.8391 225.542 74.8391V74.8207ZM76.441 84.5201L92.0963 82.3157C92.5919 82.2422 92.9406 81.7829 92.8855 81.2869C92.8121 80.791 92.3533 80.4236 91.8577 80.497L76.2025 82.7014C75.7069 82.7749 75.3582 83.2342 75.4133 83.7302C75.4867 84.1894 75.8721 84.5201 76.3126 84.5201C76.3493 84.5201 76.4043 84.5201 76.441 84.5201ZM123.48 78.3478L131.299 77.2456C131.794 77.1721 132.143 76.7128 132.088 76.2169C132.015 75.7209 131.574 75.3535 131.06 75.4269L123.242 76.5291C122.746 76.6026 122.397 77.0619 122.452 77.5579C122.526 78.0171 122.911 78.3478 123.352 78.3478C123.389 78.3478 123.444 78.3478 123.48 78.3478ZM154.772 74.3799L170.428 72.1755C170.923 72.102 171.272 71.6427 171.217 71.1467C171.144 70.6508 170.685 70.3017 170.189 70.3568L154.534 72.5612C154.038 72.6347 153.69 73.094 153.745 73.59C153.818 74.0492 154.204 74.3799 154.644 74.3799C154.681 74.3799 154.736 74.3799 154.772 74.3799ZM26.3552 86.0631L37.1101 84.7405C37.6057 84.6854 37.9728 84.2261 37.9177 83.7118C37.8626 83.1974 37.4222 82.83 36.8899 82.9035L26.1349 84.2261C25.6394 84.2812 25.2723 84.7405 25.3274 85.2549C25.3825 85.7141 25.7862 86.0631 26.2451 86.0631C26.2818 86.0631 26.3185 86.0631 26.3552 86.0631ZM99.8047 76.5842L115.46 74.6003C115.955 74.5452 116.323 74.0676 116.249 73.5716C116.194 73.0756 115.735 72.7082 115.221 72.7817L99.5661 74.7656C99.0705 74.8207 98.7035 75.2983 98.7769 75.7943C98.8319 76.2536 99.2357 76.6026 99.6945 76.6026C99.7312 76.6026 99.768 76.6026 99.8047 76.6026V76.5842ZM14.2788 82.0585C14.2788 81.5441 13.875 81.14 13.3611 81.14H13.0124C12.4985 81.14 12.0948 81.5441 12.0948 82.0585C12.0948 82.5728 12.4985 82.977 13.0124 82.977H13.3611C13.875 82.977 14.2788 82.5728 14.2788 82.0585ZM84.0943 73.7185L91.9128 72.6163C92.4083 72.5429 92.757 72.0836 92.702 71.5876C92.6285 71.0916 92.1697 70.7242 91.6742 70.7977L83.8557 71.8999C83.3602 71.9734 83.0115 72.4326 83.0665 72.9286C83.14 73.3879 83.5254 73.7185 83.9659 73.7185C84.0026 73.7185 84.0576 73.7185 84.0943 73.7185ZM68.2372 70.8528L76.0556 69.9711C76.5512 69.916 76.9182 69.4567 76.8632 68.9607C76.8081 68.4647 76.3493 68.0973 75.8537 68.1524L68.0353 69.0342C67.5397 69.0893 67.1727 69.5486 67.2277 70.0446C67.2828 70.5222 67.6866 70.8528 68.1454 70.8528C68.1821 70.8528 68.2188 70.8528 68.2555 70.8528H68.2372ZM464.758 19.4905L467.951 19.0496C468.447 18.9761 468.796 18.5169 468.74 18.0209C468.667 17.5249 468.208 17.1575 467.713 17.231L464.519 17.6719C464.024 17.7454 463.675 18.2046 463.73 18.7006C463.785 19.1598 464.189 19.4905 464.629 19.4905C464.666 19.4905 464.721 19.4905 464.758 19.4905ZM538.446 9.79117L546.264 8.90942C546.76 8.85431 547.127 8.39506 547.072 7.89907C547.017 7.40308 546.576 7.03568 546.062 7.09079L538.244 7.97255C537.748 8.02766 537.381 8.48691 537.437 8.9829C537.492 9.46051 537.895 9.79117 538.354 9.79117C538.391 9.79117 538.428 9.79117 538.464 9.79117H538.446ZM28.9797 71.0916L42.2307 69.5486C42.7262 69.4935 43.0933 69.0342 43.0382 68.5382C42.9832 68.0422 42.5243 67.6748 42.0288 67.7299L28.7778 69.273C28.2823 69.3281 27.9152 69.7874 27.9703 70.2834C28.0253 70.7426 28.4291 71.0916 28.8879 71.0916C28.9246 71.0916 28.9613 71.0916 28.998 71.0916H28.9797ZM427.244 19.4905L436.494 18.1679C436.989 18.0944 437.338 17.6351 437.265 17.1208C437.191 16.6064 436.733 16.2758 436.219 16.3492L426.969 17.6719C426.473 17.7454 426.124 18.2046 426.198 18.719C426.271 19.1782 426.657 19.5089 427.097 19.5089C427.134 19.5089 427.189 19.5089 427.226 19.5089L427.244 19.4905ZM499.17 10.0116L514.825 8.02766C515.321 7.97255 515.688 7.49493 515.615 6.99894C515.541 6.50296 515.101 6.15393 514.587 6.20904L498.931 8.19299C498.436 8.2481 498.069 8.72572 498.142 9.22171C498.197 9.68095 498.601 10.03 499.06 10.03C499.097 10.03 499.133 10.03 499.17 10.03V10.0116ZM389.822 19.4905L397.2 18.3883C397.695 18.3148 398.044 17.8372 397.971 17.3412C397.897 16.8452 397.438 16.4962 396.924 16.5697L389.546 17.6719C389.051 17.7454 388.702 18.223 388.776 18.719C388.849 19.1782 389.234 19.5089 389.675 19.5089C389.712 19.5089 389.767 19.5089 389.803 19.5089L389.822 19.4905ZM459.876 10.2321L475.605 8.2481C476.1 8.19299 476.467 7.73374 476.394 7.21938C476.339 6.7234 475.88 6.37437 475.366 6.42948L459.637 8.41343C459.142 8.46854 458.775 8.92779 458.848 9.44214C458.903 9.90139 459.307 10.2504 459.766 10.2504C459.802 10.2504 459.839 10.2504 459.876 10.2504V10.2321ZM314.904 19.4905L318.722 18.8292C319.217 18.7373 319.547 18.2597 319.474 17.7637C319.382 17.2677 318.923 16.9371 318.41 17.0106L314.592 17.6719C314.097 17.7637 313.766 18.2413 313.84 18.7373C313.913 19.1782 314.298 19.5089 314.739 19.5089C314.794 19.5089 314.849 19.5089 314.904 19.5089V19.4905ZM334.34 16.8452L349.995 14.8613C350.491 14.8062 350.858 14.3285 350.785 13.8326C350.711 13.3366 350.252 12.9875 349.757 13.0427L334.101 15.0266C333.606 15.0817 333.239 15.5593 333.312 16.0553C333.367 16.5146 333.771 16.8636 334.23 16.8636C334.267 16.8636 334.303 16.8636 334.34 16.8636V16.8452ZM381.379 10.6729L397.035 8.68898C397.53 8.63387 397.897 8.15625 397.824 7.66026C397.769 7.16427 397.31 6.81524 396.796 6.87035L381.141 8.85431C380.645 8.90942 380.278 9.38704 380.352 9.88302C380.407 10.3423 380.81 10.6913 381.269 10.6913C381.306 10.6913 381.343 10.6913 381.379 10.6913V10.6729ZM412.672 6.70503L428.4 4.72107C428.896 4.66596 429.263 4.20671 429.189 3.69236C429.116 3.178 428.675 2.82897 428.162 2.90245L412.433 4.8864C411.937 4.94151 411.57 5.40076 411.644 5.91512C411.699 6.37437 412.103 6.7234 412.561 6.7234C412.598 6.7234 412.635 6.7234 412.672 6.7234V6.70503ZM255.733 17.2861L271.48 15.3022C271.976 15.247 272.343 14.7878 272.27 14.2734C272.215 13.7774 271.756 13.4101 271.242 13.4835L255.495 15.4675C254.999 15.5226 254.632 15.9818 254.706 16.4962C254.761 16.9554 255.164 17.3045 255.623 17.3045C255.66 17.3045 255.697 17.3045 255.733 17.3045V17.2861ZM287.136 13.3182L294.954 12.216C295.45 12.1425 295.798 11.6833 295.743 11.1873C295.67 10.6913 295.211 10.3239 294.716 10.3974L286.897 11.4996C286.402 11.5731 286.053 12.0323 286.108 12.5283C286.181 12.9875 286.567 13.3182 287.007 13.3182C287.044 13.3182 287.099 13.3182 287.136 13.3182ZM334.157 7.1459L349.812 5.16195C350.307 5.10684 350.674 4.62922 350.601 4.13323C350.528 3.63725 350.087 3.28822 349.573 3.34333L333.918 5.32728C333.422 5.38239 333.055 5.86001 333.129 6.356C333.184 6.81525 333.588 7.16427 334.046 7.16427C334.083 7.16427 334.12 7.16427 334.157 7.16427V7.1459ZM365.485 3.178L368.238 2.73712C368.734 2.66364 369.083 2.18602 369.009 1.69003C368.936 1.19405 368.459 0.845017 367.963 0.918497L365.21 1.35938C364.715 1.43285 364.366 1.91047 364.439 2.40646C364.513 2.86571 364.898 3.178 365.339 3.178C365.394 3.178 365.43 3.178 365.485 3.178ZM224.349 16.6248L247.823 13.5386C248.319 13.4652 248.686 13.0059 248.612 12.5099C248.539 12.0139 248.08 11.6465 247.585 11.72L224.111 14.8062C223.615 14.8796 223.248 15.3389 223.322 15.8349C223.377 16.2941 223.78 16.6432 224.239 16.6432C224.276 16.6432 224.313 16.6432 224.368 16.6432L224.349 16.6248ZM302.681 6.48459L326.155 3.39844C326.65 3.32496 327.017 2.86571 326.944 2.36972C326.87 1.87373 326.43 1.50633 325.916 1.57981L302.442 4.66596C301.947 4.73944 301.58 5.19869 301.653 5.69468C301.708 6.15393 302.112 6.50296 302.571 6.50296C302.607 6.50296 302.644 6.50296 302.699 6.50296L302.681 6.48459ZM145.743 17.0657L161.398 15.0817C161.894 15.0266 162.261 14.549 162.187 14.053C162.132 13.557 161.673 13.1896 161.159 13.2631L145.504 15.247C145.009 15.3022 144.641 15.7798 144.715 16.2758C144.77 16.735 145.174 17.084 145.633 17.084C145.669 17.084 145.706 17.084 145.743 17.084V17.0657ZM224.092 6.92546L239.839 4.72107C240.335 4.64759 240.684 4.18834 240.629 3.69236C240.555 3.19637 240.096 2.82897 239.601 2.90245L223.854 5.10684C223.358 5.18032 223.01 5.63957 223.065 6.13556C223.138 6.59481 223.524 6.92546 223.964 6.92546C224.001 6.92546 224.056 6.92546 224.092 6.92546ZM90.7932 19.2701L98.6117 18.3883C99.1072 18.3332 99.4743 17.8739 99.4192 17.378C99.3642 16.882 98.9237 16.5146 98.4098 16.5697L90.5914 17.4514C90.0958 17.5065 89.7287 17.9658 89.7838 18.4618C89.8389 18.9394 90.2426 19.2701 90.7015 19.2701C90.7382 19.2701 90.7749 19.2701 90.8116 19.2701H90.7932ZM114.285 16.1839L137.851 13.0978C138.346 13.0243 138.713 12.565 138.64 12.069C138.567 11.5731 138.126 11.2057 137.612 11.2791L114.047 14.3653C113.551 14.4388 113.184 14.898 113.258 15.394C113.313 15.8533 113.716 16.2023 114.175 16.2023C114.212 16.2023 114.249 16.2023 114.304 16.2023L114.285 16.1839ZM169.161 9.12986L176.98 8.02766C177.475 7.95418 177.824 7.49493 177.769 6.99894C177.696 6.50296 177.237 6.13556 176.741 6.20904L168.923 7.31123C168.427 7.38471 168.079 7.84396 168.134 8.33995C168.207 8.7992 168.592 9.12986 169.033 9.12986C169.07 9.12986 169.125 9.12986 169.161 9.12986ZM192.708 6.04371L216.182 2.95756C216.678 2.88408 217.045 2.42483 216.971 1.92884C216.898 1.43285 216.439 1.06546 215.944 1.13894L192.47 4.22508C191.974 4.29856 191.607 4.75781 191.681 5.2538C191.736 5.71305 192.14 6.06208 192.598 6.06208C192.635 6.06208 192.672 6.06208 192.727 6.06208L192.708 6.04371ZM35.7337 16.6432L74.8627 11.5731C75.3582 11.4996 75.7253 11.0403 75.6519 10.5443C75.5784 10.0484 75.1196 9.69932 74.6241 9.75443L35.4951 14.8245C34.9995 14.898 34.6325 15.3573 34.7059 15.8533C34.7609 16.3125 35.1647 16.6615 35.6235 16.6615C35.6603 16.6615 35.697 16.6615 35.7337 16.6615V16.6432ZM114.065 6.50296L143.32 2.75549C143.816 2.68201 144.183 2.22276 144.109 1.72677C144.036 1.23079 143.577 0.881757 143.081 0.936867L113.826 4.68433C113.331 4.75781 112.964 5.21706 113.037 5.71305C113.092 6.1723 113.496 6.52133 113.955 6.52133C113.992 6.52133 114.028 6.52133 114.065 6.52133V6.50296ZM82.6077 5.84164L90.5179 4.73944C91.0135 4.66596 91.3622 4.20671 91.3071 3.71073C91.2521 3.21474 90.7749 2.84734 90.2793 2.92082L82.3691 4.02302C81.8736 4.09649 81.5249 4.55574 81.5799 5.05173C81.635 5.51098 82.0388 5.84164 82.4792 5.84164C82.5159 5.84164 82.571 5.84164 82.6077 5.84164ZM59.0422 4.07812L68.384 2.75549C68.8795 2.68201 69.2282 2.22276 69.1732 1.72677C69.0998 1.23079 68.6409 0.881757 68.1454 0.936867L58.8036 2.2595C58.3081 2.33298 57.9594 2.79223 58.0144 3.28822C58.0879 3.74747 58.4733 4.07812 58.9137 4.07812C58.9504 4.07812 59.0055 4.07812 59.0422 4.07812ZM399.476 85.8978L406.762 80.3868C407.166 80.0745 407.239 79.5051 406.945 79.1009C406.633 78.6968 406.064 78.6233 405.661 78.9172L398.374 84.4282C397.971 84.7405 397.897 85.31 398.191 85.7141C398.374 85.9529 398.65 86.0815 398.925 86.0815C399.108 86.0815 399.31 86.0264 399.476 85.8978ZM477.44 75.978L485.167 70.2466C485.57 69.9527 485.662 69.3649 485.35 68.9607C485.057 68.5566 484.469 68.4647 484.065 68.777L476.339 74.5084C475.935 74.8024 475.843 75.3902 476.155 75.7943C476.339 76.0331 476.614 76.1617 476.889 76.1617C477.073 76.1617 477.275 76.1066 477.44 75.978ZM92.5368 82.3524L100.263 76.4005C100.667 76.0883 100.741 75.5188 100.429 75.1146C100.117 74.7105 99.5477 74.637 99.1439 74.9493L91.4172 80.9012C91.0135 81.2135 90.9401 81.7829 91.2521 82.1871C91.4356 82.4259 91.7109 82.5545 91.9862 82.5545C92.1881 82.5545 92.3716 82.4994 92.5368 82.3708V82.3524ZM170.85 72.0101L174.576 69.3649C174.998 69.0709 175.089 68.5015 174.796 68.079C174.502 67.6565 173.933 67.5646 173.511 67.8585L169.785 70.5038C169.363 70.7977 169.271 71.3672 169.565 71.7897C169.749 72.0469 170.024 72.1755 170.318 72.1755C170.501 72.1755 170.685 72.1204 170.85 72.0101ZM220.936 19.3068L224.661 16.4411C225.065 16.1288 225.139 15.5593 224.827 15.1552C224.515 14.7511 223.946 14.6776 223.542 14.9899L219.816 17.8556C219.412 18.1679 219.339 18.7373 219.651 19.1415C219.835 19.3803 220.11 19.5089 220.385 19.5089C220.587 19.5089 220.771 19.4538 220.936 19.3252V19.3068ZM295.34 12.0323L303.066 6.30089C303.47 6.00697 303.562 5.41913 303.25 5.01499C302.956 4.61085 302.369 4.519 301.965 4.83129L294.238 10.5627C293.835 10.8566 293.743 11.4445 294.055 11.8486C294.238 12.0874 294.514 12.216 294.789 12.216C294.972 12.216 295.174 12.1609 295.34 12.0323ZM75.2848 11.371L83.0115 5.63957C83.4153 5.34565 83.507 4.75781 83.195 4.35367C82.9014 3.94953 82.3141 3.85769 81.9103 4.16997L74.1836 9.90139C73.7798 10.1953 73.6881 10.7832 74.0001 11.1873C74.1836 11.4261 74.4589 11.5547 74.7342 11.5547C74.9177 11.5547 75.1196 11.4996 75.2848 11.371ZM91.197 19.1415L91.3805 18.921C91.6925 18.5353 91.6375 17.9474 91.2521 17.6351C90.8667 17.3228 90.2793 17.378 89.9673 17.7637L89.7838 17.9842C89.4718 18.3699 89.5269 18.9578 89.9123 19.2701C90.0775 19.417 90.2794 19.4721 90.4812 19.4721C90.7565 19.4721 91.0135 19.3619 91.197 19.1415ZM161.82 14.8796L169.547 8.92779C169.951 8.6155 170.024 8.04603 169.712 7.64189C169.4 7.23775 168.831 7.16427 168.427 7.47656L160.701 13.4284C160.297 13.7407 160.223 14.3102 160.535 14.7143C160.719 14.9531 160.994 15.0817 161.27 15.0817C161.471 15.0817 161.655 15.0266 161.82 14.898V14.8796ZM240.17 4.72107L242.923 2.51668C243.327 2.20439 243.382 1.61655 243.07 1.23079C242.758 0.826647 242.17 0.771537 241.785 1.08383L239.032 3.28822C238.628 3.60051 238.573 4.18834 238.885 4.57411C239.069 4.79455 239.326 4.92314 239.601 4.92314C239.803 4.92314 240.005 4.84966 240.17 4.72107ZM13.9484 82.8117L29.4202 70.9079C29.8239 70.5956 29.8974 70.0262 29.5853 69.622C29.2733 69.2179 28.7044 69.1444 28.3006 69.4567L12.8289 81.3604C12.4251 81.6727 12.3517 82.2422 12.6637 82.6463C12.8472 82.8851 13.1225 83.0137 13.3978 83.0137C13.5997 83.0137 13.7832 82.9586 13.9484 82.83V82.8117ZM92.3533 72.4694L96.6296 69.3832C97.0333 69.0893 97.1251 68.5198 96.8314 68.0973C96.5378 67.6932 95.9688 67.6013 95.5467 67.8953L91.2704 70.9814C90.8666 71.2753 90.7749 71.8448 91.0685 72.2673C91.2521 72.5245 91.5274 72.6531 91.821 72.6531C92.0045 72.6531 92.1881 72.598 92.3533 72.4878V72.4694ZM487.332 19.3252L499.611 9.84628C500.014 9.53399 500.088 8.96453 499.776 8.56039C499.464 8.15625 498.895 8.08277 498.491 8.39506L486.213 17.8739C485.809 18.1862 485.736 18.7557 486.048 19.1598C486.231 19.3986 486.506 19.5089 486.782 19.5089C486.984 19.5089 487.167 19.4538 487.351 19.3252H487.332ZM331.385 19.3252L334.762 16.6799C335.166 16.3676 335.239 15.7981 334.927 15.394C334.615 14.9899 334.046 14.9164 333.643 15.2287L330.266 17.8739C329.862 18.1862 329.789 18.7557 330.1 19.1598C330.284 19.3986 330.559 19.5089 330.816 19.5089C331.018 19.5089 331.22 19.4538 331.385 19.3068V19.3252ZM397.622 18.2413L413.094 6.55807C413.497 6.24578 413.571 5.67631 413.277 5.27217C412.983 4.86803 412.396 4.77618 411.992 5.08847L396.521 16.7717C396.117 17.084 396.044 17.6535 396.337 18.0576C396.521 18.2965 396.796 18.425 397.071 18.425C397.255 18.425 397.457 18.3699 397.622 18.2413ZM475.953 8.10114L483.24 2.59016C483.643 2.27787 483.717 1.7084 483.423 1.30427C483.111 0.900127 482.542 0.826647 482.138 1.12057L474.852 6.63155C474.448 6.94383 474.375 7.5133 474.669 7.91744C474.852 8.15625 475.127 8.28484 475.403 8.28484C475.586 8.28484 475.788 8.22973 475.953 8.10114ZM253.513 19.3252L256.174 17.1208C256.559 16.7901 256.614 16.2206 256.302 15.8349C255.972 15.4491 255.403 15.394 255.018 15.7063L252.356 17.9107C251.971 18.2413 251.916 18.8108 252.228 19.1966C252.411 19.417 252.668 19.5272 252.944 19.5272C253.146 19.5272 253.347 19.4538 253.531 19.3252H253.513ZM319.107 18.6822L334.487 6.99894C334.891 6.68666 334.964 6.11719 334.67 5.71305C334.358 5.30891 333.789 5.23543 333.386 5.52935L318.006 17.2126C317.602 17.5249 317.529 18.0944 317.822 18.4985C318.006 18.7373 318.281 18.8659 318.556 18.8659C318.74 18.8659 318.942 18.8108 319.107 18.6822ZM397.438 8.54202L405.349 2.59016C405.752 2.27787 405.844 1.7084 405.532 1.30427C405.22 0.900127 404.651 0.826647 404.247 1.12057L396.337 7.07242C395.933 7.38471 395.842 7.95418 396.154 8.35832C396.337 8.59713 396.612 8.72572 396.888 8.72572C397.071 8.72572 397.273 8.67061 397.438 8.54202ZM195.076 83.3811C195.296 82.9219 195.113 82.3708 194.654 82.1503L186.652 78.1824C186.193 77.962 185.643 78.1457 185.422 78.6049C185.202 79.0642 185.386 79.6153 185.844 79.8357L193.846 83.8036C193.975 83.8771 194.122 83.8955 194.25 83.8955C194.581 83.8955 194.911 83.7118 195.076 83.3811ZM297.157 84.7038C297.377 84.2445 297.193 83.6934 296.753 83.473L288.843 79.5051C288.384 79.2846 287.833 79.4683 287.613 79.9092C287.393 80.3684 287.576 80.9195 288.017 81.14L295.927 85.1079C296.055 85.1814 296.202 85.1998 296.331 85.1998C296.661 85.1998 296.991 85.016 297.157 84.6854V84.7038ZM273.426 73.0021C273.646 72.5429 273.444 71.9918 272.985 71.7713L265.075 68.0239C264.616 67.8034 264.066 68.0055 263.845 68.4647C263.625 68.924 263.827 69.4751 264.286 69.6955L272.196 73.443C272.325 73.4981 272.453 73.5348 272.582 73.5348C272.93 73.5348 273.261 73.3328 273.407 73.0021H273.426ZM375.598 74.3247C375.818 73.8655 375.616 73.3144 375.158 73.094L367.247 69.3465C366.789 69.1261 366.238 69.3281 366.018 69.7874C365.797 70.2466 365.999 70.7977 366.458 71.0182L374.368 74.7656C374.497 74.8207 374.625 74.8575 374.754 74.8575C375.103 74.8575 375.433 74.6554 375.58 74.3247H375.598ZM40.8358 85.5488C41.0377 85.0895 40.8358 84.5384 40.377 84.3364L37.4405 83.0137C36.9817 82.8117 36.4311 83.0137 36.2292 83.473C36.0273 83.9322 36.2292 84.4833 36.688 84.6854L39.6245 86.008C39.753 86.0631 39.8815 86.0815 40.01 86.0815C40.3587 86.0815 40.689 85.8794 40.8542 85.5488H40.8358ZM124.233 77.8518C124.453 77.3925 124.233 76.8414 123.792 76.6394L115.79 72.8919C115.331 72.6714 114.781 72.8919 114.579 73.3328C114.377 73.7736 114.579 74.3431 115.019 74.5452L123.021 78.2926C123.15 78.3478 123.278 78.3845 123.407 78.3845C123.756 78.3845 124.086 78.1824 124.233 77.8518ZM548.265 81.5074L551.734 78.8621C552.137 78.5498 552.211 77.9804 551.899 77.5762C551.587 77.1721 551.018 77.0986 550.614 77.4109L547.145 80.0562C546.742 80.3685 546.668 80.9379 546.98 81.3421C547.164 81.5809 547.439 81.7095 547.714 81.7095C547.916 81.7095 548.1 81.6544 548.265 81.5258V81.5074ZM477.935 85.1814C477.935 84.667 477.44 84.2629 476.926 84.2629C476.412 84.2629 476.008 84.667 476.008 85.1814C476.008 85.6957 476.412 86.0999 476.926 86.0999H477.11C477.623 86.0999 477.935 85.6957 477.935 85.1814ZM498.124 85.5855C498.344 85.1263 498.161 84.5752 497.702 84.3547L493.169 82.1503C492.71 81.9299 492.159 82.1136 491.939 82.5728C491.719 83.0321 491.902 83.5832 492.361 83.8036L496.894 86.008C497.023 86.0631 497.151 86.0999 497.298 86.0999C497.647 86.0999 497.959 85.9162 498.124 85.5855ZM552.027 10.5995C552.229 10.1402 552.027 9.5891 551.568 9.38704L546.595 7.18264C546.136 6.98057 545.585 7.18264 545.383 7.64189C545.182 8.10114 545.383 8.65224 545.842 8.85431L550.816 11.0587C550.944 11.1138 551.055 11.1322 551.183 11.1322C551.532 11.1322 551.88 10.9301 552.027 10.5811V10.5995ZM469.475 19.0496C469.713 18.6087 469.548 18.0393 469.108 17.8005L468.3 17.3596C467.86 17.1208 467.291 17.2861 467.052 17.727C466.813 18.1679 466.979 18.7373 467.419 18.9761L468.227 19.417C468.373 19.4905 468.52 19.5272 468.667 19.5272C468.997 19.5272 469.309 19.3619 469.475 19.0496ZM84.8285 73.2042C85.0487 72.7449 84.8285 72.1938 84.388 71.9918L76.386 68.2443C75.9272 68.0239 75.3766 68.2443 75.1563 68.6852C74.9361 69.1444 75.1563 69.6955 75.5968 69.8976L83.5988 73.6451C83.7273 73.7002 83.8557 73.7369 83.9842 73.7369C84.3329 73.7369 84.6633 73.5348 84.8101 73.2042H84.8285ZM334.854 6.63155C335.074 6.1723 334.872 5.6212 334.414 5.40076L326.503 1.65329C326.044 1.43285 325.494 1.63492 325.274 2.09417C325.053 2.55342 325.255 3.10452 325.714 3.32496L333.624 7.07242C333.753 7.12753 333.881 7.16427 334.01 7.16427C334.358 7.16427 334.689 6.9622 334.836 6.63155H334.854ZM256.431 16.7717C256.651 16.3125 256.449 15.7614 255.99 15.541L248.08 11.7935C247.621 11.5731 247.071 11.7751 246.85 12.2344C246.63 12.6936 246.832 13.2447 247.291 13.4652L255.201 17.2126C255.33 17.2677 255.458 17.3045 255.587 17.3045C255.935 17.3045 256.266 17.1024 256.412 16.7717H256.431ZM224.772 6.42948C224.992 5.97023 224.808 5.41913 224.368 5.19869L216.458 1.23079C215.999 1.01035 215.448 1.19405 215.228 1.63492C215.008 2.09417 215.191 2.64527 215.632 2.86571L223.542 6.83361C223.67 6.90709 223.817 6.92546 223.946 6.92546C224.276 6.92546 224.606 6.74177 224.772 6.41111V6.42948ZM146.44 16.5697C146.66 16.1104 146.477 15.5593 146.036 15.3389L138.126 11.371C137.667 11.1505 137.117 11.3342 136.896 11.7751C136.676 12.2344 136.86 12.7855 137.3 13.0059L145.21 16.9738C145.339 17.0473 145.486 17.0657 145.614 17.0657C145.945 17.0657 146.275 16.882 146.44 16.5513V16.5697ZM59.7213 3.58214C59.9599 3.14126 59.7947 2.57179 59.3359 2.33298L56.8398 1.01035C56.3994 0.771537 55.8304 0.936867 55.5918 1.39611C55.3532 1.85536 55.5184 2.40646 55.9772 2.64527L58.4733 3.96791C58.6017 4.04139 58.7486 4.07812 58.8954 4.07812C59.2257 4.07812 59.5378 3.89443 59.7029 3.58214H59.7213ZM224.753 6.42948C224.973 5.97023 224.79 5.41913 224.349 5.19869L216.439 1.23079C215.98 1.01035 215.43 1.19405 215.21 1.63492C214.989 2.09417 215.173 2.64527 215.613 2.86571L223.524 6.83361C223.652 6.90709 223.799 6.92546 223.927 6.92546C224.258 6.92546 224.588 6.74177 224.753 6.41111V6.42948ZM146.422 16.5697C146.642 16.1104 146.458 15.5593 146.018 15.3389L138.108 11.371C137.649 11.1505 137.098 11.3342 136.878 11.7751C136.658 12.2344 136.841 12.7855 137.282 13.0059L145.192 16.9738C145.321 17.0473 145.467 17.0657 145.596 17.0657C145.926 17.0657 146.257 16.882 146.422 16.5513V16.5697ZM114.781 5.97023C115.001 5.51098 114.799 4.95988 114.34 4.73944L106.522 0.991976C106.063 0.771537 105.512 0.973606 105.292 1.43285C105.072 1.8921 105.274 2.4432 105.733 2.66364L113.551 6.41111C113.68 6.46622 113.808 6.50296 113.955 6.50296C114.304 6.50296 114.634 6.31926 114.781 5.9886V5.97023ZM36.4494 16.1104C36.6697 15.6512 36.4678 15.1001 36.009 14.8796L14.3155 4.53737C13.8567 4.31693 13.3061 4.519 13.0858 4.97825C12.8656 5.4375 13.0675 5.9886 13.5263 6.20904L35.2198 16.5697C35.3482 16.6248 35.4767 16.6615 35.6052 16.6615C35.9539 16.6615 36.2843 16.4778 36.4311 16.1472L36.4494 16.1104ZM540.685 82.2422C540.905 81.7829 540.722 81.2318 540.263 81.0114L512.88 67.785C512.421 67.5646 511.87 67.7483 511.65 68.2076C511.43 68.6668 511.614 69.2179 512.072 69.4383L539.455 82.6647C539.584 82.7198 539.712 82.7565 539.859 82.7565C540.208 82.7565 540.52 82.5728 540.685 82.2422ZM448.387 85.5488C448.607 85.0895 448.424 84.5384 447.965 84.318L430.18 75.7209C429.722 75.5004 429.171 75.6841 428.951 76.1434C428.731 76.6026 428.914 77.1537 429.373 77.3742L447.157 85.9713C447.286 86.0264 447.414 86.0631 447.561 86.0631C447.91 86.0631 448.222 85.8794 448.387 85.5488ZM469.915 76.7312C470.135 76.272 469.933 75.7209 469.475 75.5004L453.195 67.785C452.737 67.5646 452.186 67.7667 451.966 68.2259C451.745 68.6852 451.947 69.2363 452.406 69.4567L468.685 77.1721C468.814 77.2272 468.942 77.2639 469.071 77.2639C469.42 77.2639 469.75 77.0619 469.897 76.7312H469.915ZM388.739 85.5488C388.959 85.0895 388.757 84.5384 388.298 84.318L359.319 70.4303C358.86 70.2099 358.309 70.4119 358.089 70.8712C357.869 71.3304 358.071 71.8815 358.53 72.102L387.509 85.9897C387.638 86.0448 387.766 86.0815 387.913 86.0815C388.262 86.0815 388.592 85.8978 388.739 85.5671V85.5488ZM289.338 85.5488C289.558 85.0895 289.356 84.5384 288.898 84.318L280.987 80.5705C280.529 80.3501 279.978 80.5521 279.758 81.0114C279.537 81.4706 279.739 82.0218 280.198 82.2422L288.108 85.9897C288.237 86.0448 288.365 86.0815 288.494 86.0815C288.843 86.0815 289.173 85.8794 289.32 85.5488H289.338ZM485.497 69.8792C485.699 69.42 485.497 68.8689 485.038 68.6668L483.074 67.785C482.616 67.583 482.065 67.7851 481.863 68.2443C481.661 68.7036 481.863 69.2546 482.322 69.4567L484.286 70.3385C484.414 70.3936 484.543 70.4119 484.653 70.4119C485.001 70.4119 485.332 70.2099 485.497 69.8792ZM407.055 80.0378C407.276 79.5785 407.092 79.0275 406.633 78.807L390.813 71.0916C390.354 70.8712 389.803 71.0549 389.583 71.5141C389.363 71.9734 389.546 72.5245 390.005 72.7449L405.826 80.4603C405.954 80.5154 406.101 80.5521 406.23 80.5521C406.578 80.5521 406.89 80.3685 407.055 80.0378ZM296.973 74.9861C297.193 74.5268 297.01 73.9757 296.569 73.7553L288.659 69.7874C288.2 69.5669 287.65 69.7506 287.429 70.1915C287.209 70.6508 287.393 71.2019 287.833 71.4223L295.743 75.3902C295.872 75.4637 296.019 75.4821 296.147 75.4821C296.477 75.4821 296.808 75.2984 296.973 74.9677V74.9861ZM319.107 85.5671C319.327 85.1079 319.144 84.5568 318.685 84.3364L312.463 81.2502C312.004 81.0298 311.454 81.2135 311.233 81.6727C311.013 82.132 311.197 82.6831 311.656 82.9035L317.877 85.9897C318.006 86.0631 318.153 86.0815 318.281 86.0815C318.611 86.0815 318.942 85.8978 319.107 85.5671ZM218.623 85.1263C218.843 84.667 218.66 84.1159 218.219 83.8955L210.309 79.9276C209.85 79.7071 209.3 79.8908 209.08 80.3317C208.859 80.791 209.043 81.3421 209.483 81.5625L217.394 85.5304C217.522 85.6039 217.669 85.6223 217.797 85.6223C218.128 85.6223 218.458 85.4386 218.623 85.1079V85.1263ZM414.745 69.0893C414.874 68.5933 414.599 68.0973 414.103 67.9688L413.296 67.7483C412.8 67.6197 412.304 67.8953 412.176 68.3913C412.047 68.8872 412.323 69.3832 412.818 69.5118L413.626 69.7323C413.626 69.7323 413.791 69.769 413.864 69.769C414.268 69.769 414.635 69.4935 414.745 69.0893ZM336.359 79.3765C336.579 78.9172 336.377 78.3661 335.918 78.1457L320.006 70.6508C319.547 70.4303 318.997 70.6508 318.777 71.0916C318.556 71.5509 318.758 72.102 319.217 72.3224L335.129 79.8174C335.258 79.8725 335.386 79.9092 335.515 79.9092C335.863 79.9092 336.194 79.7071 336.341 79.3765H336.359ZM226.277 74.3064C226.497 73.8471 226.295 73.296 225.836 73.0756L214.641 67.785C214.182 67.5646 213.631 67.7667 213.411 68.2259C213.191 68.6852 213.393 69.2363 213.851 69.4567L225.047 74.7473C225.175 74.8024 225.304 74.8391 225.432 74.8391C225.781 74.8391 226.111 74.637 226.258 74.3064H226.277ZM249.567 85.5488C249.787 85.0895 249.585 84.5384 249.126 84.318L241.656 80.791C241.198 80.5705 240.647 80.7726 240.427 81.2318C240.207 81.6911 240.408 82.2422 240.867 82.4626L248.337 85.9897C248.465 86.0448 248.594 86.0815 248.722 86.0815C249.071 86.0815 249.402 85.8794 249.548 85.5488H249.567ZM147.835 84.465C148.055 84.0057 147.872 83.4546 147.413 83.2342L131.592 75.5188C131.134 75.2984 130.583 75.4821 130.363 75.9413C130.142 76.4006 130.326 76.9516 130.785 77.1721L146.605 84.8875C146.734 84.9426 146.881 84.9793 147.009 84.9793C147.358 84.9793 147.67 84.7956 147.835 84.465ZM539.088 18.9945C539.309 18.5353 539.125 17.9842 538.666 17.7637L515.192 6.30089C514.734 6.08045 514.183 6.26415 513.963 6.7234C513.742 7.18264 513.926 7.73374 514.385 7.95418L537.859 19.417C537.987 19.4721 538.134 19.5089 538.262 19.5089C538.611 19.5089 538.923 19.3252 539.088 18.9945ZM439.669 19.0312C439.908 18.5904 439.742 18.0209 439.284 17.7821L436.788 16.4595C436.347 16.2206 435.778 16.386 435.54 16.8452C435.301 17.3045 435.466 17.8556 435.925 18.0944L438.421 19.417C438.549 19.4905 438.696 19.5272 438.843 19.5272C439.173 19.5272 439.486 19.3435 439.651 19.0312H439.669ZM155.507 73.8839C155.727 73.4246 155.543 72.8735 155.084 72.6531L145.045 67.8034C144.586 67.583 144.036 67.7667 143.816 68.2259C143.595 68.6852 143.779 69.2363 144.238 69.4567L154.277 74.3064C154.405 74.3615 154.534 74.3982 154.681 74.3982C155.029 74.3982 155.341 74.2145 155.507 73.8839ZM77.1752 84.0241C77.3954 83.5648 77.2119 83.0137 76.753 82.7933L45.626 67.8034C45.1672 67.583 44.6166 67.785 44.3964 68.2259C44.1761 68.6852 44.3597 69.2363 44.8185 69.4567L75.9455 84.4466C76.074 84.5017 76.2024 84.5384 76.3493 84.5384C76.698 84.5384 77.01 84.3547 77.1752 84.0241ZM539.18 9.29519C539.4 8.83594 539.198 8.28484 538.758 8.0644L524.094 1.01035C523.635 0.789907 523.084 0.991976 522.864 1.43285C522.644 1.8921 522.846 2.4432 523.286 2.66364L537.95 9.71769C538.079 9.7728 538.207 9.80954 538.354 9.80954C538.703 9.80954 539.033 9.62584 539.18 9.29519ZM459.601 18.9945C459.821 18.5353 459.637 17.9842 459.178 17.7637L428.676 2.9943C428.217 2.77386 427.666 2.95756 427.446 3.41681C427.226 3.87606 427.409 4.42715 427.868 4.64759L458.371 19.417C458.499 19.4721 458.628 19.5089 458.775 19.5089C459.123 19.5089 459.435 19.3252 459.601 18.9945ZM360.108 18.9945C360.328 18.5353 360.145 17.9842 359.686 17.7637L350.252 13.1345C349.793 12.9141 349.243 13.0978 349.023 13.557C348.802 14.0163 348.986 14.5674 349.445 14.7878L358.878 19.417C359.007 19.4905 359.154 19.5089 359.282 19.5089C359.631 19.5089 359.943 19.3252 360.108 18.9945ZM69.008 70.3201C69.2099 69.8608 69.008 69.3098 68.5308 69.1077L65.5025 67.785C65.0437 67.583 64.4931 67.785 64.2912 68.2627C64.0893 68.7219 64.2912 69.273 64.7684 69.4751L67.7967 70.7977C67.9068 70.8528 68.0353 70.8712 68.1637 70.8712C68.5125 70.8712 68.8612 70.6691 69.008 70.3201ZM460.573 9.73606C460.794 9.27682 460.592 8.72572 460.133 8.50528L444.478 1.01035C444.019 0.789907 443.468 0.991976 443.248 1.45122C443.028 1.91047 443.23 2.46157 443.688 2.68201L459.344 10.1769C459.472 10.2321 459.601 10.2688 459.747 10.2688C460.096 10.2688 460.427 10.0851 460.573 9.75443V9.73606ZM380.021 18.9945C380.241 18.5353 380.058 17.9842 379.599 17.7637L350.087 3.43518C349.628 3.21474 349.078 3.39844 348.857 3.85769C348.637 4.31693 348.821 4.86803 349.28 5.08847L378.792 19.417C378.92 19.4721 379.048 19.5089 379.195 19.5089C379.544 19.5089 379.856 19.3252 380.021 18.9945ZM280.602 18.9945C280.822 18.5353 280.639 17.9842 280.18 17.7637L271.737 13.5754C271.279 13.3549 270.728 13.5386 270.508 13.9979C270.287 14.4571 270.471 15.0082 270.93 15.2287L279.372 19.417C279.501 19.4905 279.648 19.5089 279.776 19.5089C280.106 19.5089 280.437 19.3252 280.602 18.9945ZM517.982 85.6039C518.221 85.163 518.056 84.5935 517.615 84.3547L516.807 83.9138C516.367 83.675 515.798 83.822 515.56 84.2812C515.321 84.7221 515.486 85.2916 515.927 85.5304L516.734 85.9713C516.881 86.0448 517.028 86.0815 517.175 86.0815C517.505 86.0815 517.817 85.9162 517.982 85.6039ZM193.388 5.54772C193.608 5.08847 193.424 4.53737 192.965 4.31693L186.12 1.01035C185.661 0.789907 185.11 0.973606 184.89 1.43285C184.67 1.8921 184.853 2.4432 185.312 2.66364L192.158 5.97023C192.286 6.02534 192.415 6.06208 192.562 6.06208C192.91 6.06208 193.222 5.87838 193.388 5.54772ZM114.964 15.6879C115.185 15.2287 115.001 14.6776 114.542 14.4571L90.7932 2.9943C90.3344 2.77386 89.7838 2.95756 89.5636 3.41681C89.3433 3.87606 89.5269 4.42715 89.9857 4.64759L113.735 16.1104C113.863 16.1655 113.992 16.2023 114.138 16.2023C114.487 16.2023 114.799 16.0186 114.964 15.6879ZM22.1339 18.9945C22.3542 18.5353 22.1523 17.9842 21.7118 17.7637L13.4345 13.7958C12.9757 13.5754 12.4251 13.7774 12.2049 14.2183C11.9846 14.6592 12.1865 15.2287 12.627 15.4491L20.9043 19.417C21.0328 19.4721 21.1612 19.5089 21.3081 19.5089C21.6568 19.5089 21.9871 19.3252 22.1339 18.9945ZM381.967 10.1769C382.187 9.71769 381.985 9.1666 381.544 8.94616L365.008 1.01035C364.549 0.789907 363.999 0.991976 363.779 1.43285C363.558 1.8921 363.76 2.4432 364.201 2.66364L380.737 10.5995C380.865 10.6546 380.994 10.6913 381.141 10.6913C381.489 10.6913 381.82 10.5076 381.967 10.1769ZM300.515 18.9945C300.735 18.5353 300.552 17.9842 300.093 17.7637L265.607 1.01035C265.149 0.789907 264.598 0.973606 264.378 1.43285C264.158 1.8921 264.341 2.4432 264.8 2.66364L299.304 19.417C299.432 19.4721 299.561 19.5089 299.708 19.5089C300.056 19.5089 300.368 19.3252 300.534 18.9945H300.515ZM201.114 18.9945C201.335 18.5353 201.151 17.9842 200.692 17.7637L177.31 6.30089C176.851 6.08045 176.301 6.26415 176.081 6.7234C175.86 7.18264 176.044 7.73374 176.503 7.95418L199.885 19.417C200.013 19.4721 200.16 19.5089 200.288 19.5089C200.637 19.5089 200.949 19.3252 201.114 18.9945ZM101.695 19.0312C101.934 18.5904 101.768 18.0209 101.328 17.7821L98.9237 16.4595C98.4832 16.2206 97.9143 16.386 97.6757 16.8269C97.4371 17.2677 97.6023 17.8372 98.0427 18.076L100.447 19.3986C100.594 19.4721 100.741 19.5089 100.887 19.5089C101.218 19.5089 101.53 19.3435 101.695 19.0312ZM551.165 83.326H13.0308V87H551.146V83.326H551.165ZM551.165 66.7931H13.0308V70.4671H551.146V66.7931H551.165ZM551.165 16.7534H13.0308V20.4274H551.146V16.7534H551.165ZM553 56.065L552.816 54.228H541.805V32.772H553V6.99894L550.651 1.15731L550.027 0H14.132L11.1954 6.98057V29.098H0V57.902H11.1954V87H552.982V56.065H553ZM14.8844 56.065L14.7193 54.228H3.67064V32.772H14.8661V7.71537L16.5546 3.67399H547.678L549.311 7.697V29.098H538.116V57.902H549.311V83.326H14.8661V56.065H14.8844Z" fill="black"/>
</svg>
