<svg width="42" height="55" viewBox="0 0 42 55" fill="none" xmlns="http://www.w3.org/2000/svg">
<path d="M34.6798 19.1675C34.6798 11.7164 28.6182 5.65479 21.1671 5.65479C13.7159 5.65479 7.6543 11.7164 7.6543 19.1675C7.6543 26.6187 13.7159 32.6803 21.1671 32.6803C28.6182 32.6803 34.6798 26.6187 34.6798 19.1675ZM21.1671 30.7437C14.7859 30.7437 9.59092 25.5487 9.59092 19.1675C9.59092 12.7864 14.7859 7.5914 21.1671 7.5914C27.5482 7.5914 32.7432 12.7864 32.7432 19.1675C32.7432 25.5487 27.5482 30.7437 21.1671 30.7437Z" fill="black"/>
<path d="M41.6806 48.735L34.4425 32.7143C35.101 32.4626 35.6723 31.9736 36.0015 31.3151C36.4808 30.3614 36.384 29.272 35.7352 28.3908L35.6577 28.2843C35.3672 27.8922 35.5028 27.5145 35.5754 27.3693C35.7449 27.0304 36.0886 26.8464 36.4614 26.89L36.597 26.9045C36.718 26.919 36.8294 26.9239 36.9456 26.9239C38.2286 26.9239 39.3083 26.0766 39.6423 24.8178C39.9716 23.5687 39.4341 22.2953 38.3012 21.6562L38.185 21.5885C37.7202 21.327 37.7299 20.8671 37.7444 20.7315C37.759 20.5959 37.8461 20.1457 38.3545 19.9859L38.4804 19.9472C39.7924 19.5356 40.5768 18.3349 40.4363 16.9696C40.2911 15.5995 39.2744 14.5924 37.9042 14.4617L37.7687 14.4472C37.2361 14.3939 37.0569 13.9727 37.0182 13.842C36.9746 13.7113 36.873 13.2658 37.27 12.9124L37.3716 12.8253C38.2722 12.0312 38.5675 10.8451 38.1463 9.73636C37.7202 8.61796 36.6987 7.89173 35.5367 7.89173C35.2268 7.89173 34.917 7.94498 34.612 8.04665L34.4812 8.09023C34.0842 8.22579 33.6775 8.07086 33.4597 7.72711C33.3628 7.57702 33.2321 7.27201 33.4064 6.89437L33.4645 6.77333C33.8712 5.87764 33.8083 4.90449 33.2902 4.10563C32.7625 3.28741 31.8426 2.77905 30.884 2.77905C30.1868 2.77905 29.5332 3.04049 28.9958 3.53433L28.8989 3.62632C28.5407 3.95555 27.9887 3.91681 27.6692 3.59243C27.5578 3.48107 27.4223 3.27773 27.4271 2.97271V2.84199C27.4368 2.07218 27.1511 1.36048 26.6379 0.84243C26.1054 0.309859 25.3598 0 24.59 0C23.4667 0 22.4839 0.648768 22.0288 1.69938L21.9755 1.82042C21.7625 2.30942 21.3025 2.34815 21.167 2.34815C21.0314 2.34815 20.5715 2.30942 20.3633 1.82042L20.31 1.69454C19.8549 0.648768 18.8721 0 17.7489 0C16.979 0 16.2334 0.305018 15.7009 0.84243C15.1828 1.36532 14.902 2.07702 14.9069 2.84199V2.97755C14.9069 3.28257 14.7761 3.48592 14.6648 3.59727C14.3452 3.92165 13.7933 3.96039 13.435 3.63116L13.3334 3.53917C12.7959 3.04533 12.1423 2.78389 11.4452 2.78389C10.4865 2.78389 9.56663 3.29225 9.0389 4.11048C8.52086 4.91417 8.45792 5.88732 8.86461 6.77817L8.92271 6.89921C9.097 7.28169 8.96144 7.58671 8.86945 7.73195C8.64674 8.0757 8.24973 8.23063 7.84304 8.09507L7.71716 8.0515C7.41214 7.94982 7.09744 7.89657 6.78758 7.89657C5.63045 7.89657 4.60404 8.6228 4.18283 9.7412C3.76162 10.8499 4.05695 12.0361 4.95748 12.8301L5.05915 12.9173C5.461 13.2707 5.35449 13.721 5.31091 13.8468C5.26734 13.9776 5.09304 14.3988 4.55563 14.452L4.42491 14.4665C3.05475 14.5973 2.03802 15.6043 1.89278 16.9745C1.74753 18.3446 2.53186 19.5405 3.84392 19.952L3.97464 19.9908C4.48301 20.1505 4.57015 20.6008 4.58468 20.7364C4.5992 20.8719 4.60889 21.3319 4.1441 21.5933L4.0279 21.6611C2.89982 22.3002 2.36241 23.5687 2.69163 24.8226C3.0257 26.0814 4.10537 26.9287 5.38838 26.9287C5.49973 26.9287 5.61593 26.9239 5.73697 26.9093L5.86769 26.8948C6.24533 26.8512 6.58424 27.0352 6.75369 27.3741C6.82632 27.5194 6.96672 27.897 6.67623 28.2892L6.59392 28.4005C5.94515 29.2768 5.84832 30.3662 6.32764 31.32C6.6617 31.9784 7.22816 32.4723 7.88662 32.7192L0.653341 48.735C0.498412 49.0788 0.55651 49.4758 0.798588 49.7614C1.04067 50.0471 1.43283 50.1633 1.79111 50.0665L8.45792 48.2364L11.5033 54.4577C11.6679 54.7918 12.0019 55 12.3747 55H12.3893C12.7621 54.9952 13.101 54.7724 13.2559 54.4287L20.5473 38.287C20.7458 38.3305 20.954 38.3596 21.1718 38.3596C21.3897 38.3596 21.593 38.3305 21.7964 38.287L29.0878 54.4287C29.2427 54.7724 29.5816 54.9903 29.9544 55H29.9689C30.3369 55 30.6758 54.7918 30.8404 54.4577L33.8857 48.2412L40.5525 50.0713C40.9157 50.1681 41.303 50.0519 41.5451 49.7663C41.7871 49.4806 41.8452 49.0788 41.6903 48.7399L41.6806 48.735ZM12.336 51.7562L9.8426 46.6677C9.63926 46.2513 9.16478 46.0335 8.71452 46.1593L3.26294 47.6554L10.0605 32.6078C10.1379 32.5691 10.2106 32.5352 10.288 32.4916L10.4042 32.4239C10.7964 32.1915 11.2757 32.3028 11.5468 32.6417C11.663 32.787 11.7889 33.0339 11.7114 33.3728L11.6824 33.5035C11.4936 34.3605 11.6824 35.1981 12.2101 35.8614C12.7524 36.5343 13.5948 36.9362 14.4614 36.9362C15.362 36.9362 16.185 36.5004 16.7224 35.7452L16.7999 35.6386C17.0275 35.3191 17.3422 35.2707 17.5068 35.2707C17.8699 35.2707 18.2814 35.4886 18.3783 35.9727L18.4073 36.1083C18.4944 36.5295 18.6687 36.9023 18.9011 37.2218L12.336 51.7562ZM20.3052 35.7209L20.2761 35.5854C20.005 34.2588 18.8672 33.3292 17.5068 33.3292C16.5917 33.3292 15.759 33.7601 15.2264 34.5106L15.1489 34.6171C14.9698 34.8688 14.7374 34.9947 14.4614 34.9947C14.1855 34.9947 13.895 34.8592 13.7207 34.6413C13.5609 34.4428 13.5125 34.1959 13.5706 33.9151L13.5996 33.7843C13.7836 32.9467 13.5851 32.0849 13.0574 31.4217C12.52 30.7535 11.6969 30.3565 10.8496 30.3565C10.3558 30.3565 9.86197 30.4921 9.42139 30.7487L9.30519 30.8165C8.83072 31.0973 8.28846 30.8939 8.05607 30.434C7.94956 30.2258 7.88177 29.9014 8.14806 29.5383L8.23037 29.4269C8.86461 28.5651 8.96144 27.4419 8.48213 26.4881C7.99797 25.5295 7.03934 24.934 5.97904 24.934C5.87253 24.934 5.76118 24.9388 5.64498 24.9533L5.51426 24.9679C4.96716 25.0308 4.65246 24.658 4.56047 24.3094C4.50721 24.1158 4.44912 23.6268 4.97684 23.3266L5.09304 23.2588C6.08556 22.6972 6.62781 21.6466 6.50677 20.5136C6.38574 19.3807 5.64014 18.4657 4.55563 18.1219L4.42491 18.0832C3.79066 17.8847 3.79551 17.3182 3.81487 17.1536C3.83424 16.9842 3.94075 16.4322 4.60405 16.3693L4.73477 16.3548C5.86769 16.2434 6.79243 15.5026 7.14102 14.423C7.49445 13.3385 7.17975 12.2007 6.32764 11.4454L6.22596 11.3583C5.82896 11.0048 5.90158 10.6078 5.97904 10.4045C6.10977 10.0656 6.51646 9.67342 7.08776 9.86708L7.21364 9.91065C8.43855 10.3222 9.78934 9.83319 10.4817 8.75836C10.9997 7.95467 11.0675 6.95246 10.6705 6.07614L10.6124 5.9551C10.4768 5.65977 10.4914 5.3838 10.6511 5.13688C10.9416 4.68662 11.571 4.54621 12.0068 4.94322L12.1084 5.03521C12.6313 5.51452 13.3043 5.78081 13.9966 5.78081C14.7519 5.78081 15.4878 5.47095 16.0204 4.93838C16.5481 4.40581 16.8338 3.69894 16.8241 2.93882V2.80326C16.8241 2.54665 16.8967 2.33847 17.0565 2.18354C17.2211 2.01408 17.4729 1.91241 17.7295 1.91241C17.9377 1.91241 18.3105 1.98019 18.5138 2.44014L18.5671 2.56602C19.0222 3.6118 20.0099 4.26056 21.1476 4.26056C22.2854 4.26056 23.2779 3.6118 23.733 2.56602L23.7863 2.44498C23.9896 1.98019 24.3624 1.91241 24.5706 1.91241C24.8224 1.91241 25.0741 2.01408 25.2436 2.18354C25.3985 2.33847 25.476 2.5515 25.476 2.8081V2.93882C25.4663 3.69894 25.7519 4.41065 26.2797 4.93838C26.8122 5.47579 27.5481 5.78081 28.3034 5.78081C29.0006 5.78081 29.6687 5.51452 30.1965 5.03521L30.2981 4.94322C30.7339 4.54621 31.3633 4.68662 31.6538 5.13688C31.8135 5.3838 31.8281 5.65977 31.6925 5.9551L31.6344 6.07614C31.2374 6.95246 31.3052 7.95467 31.8232 8.75836C32.3461 9.57658 33.2321 10.0607 34.1859 10.0607C34.4909 10.0607 34.7959 10.0123 35.0913 9.91065L35.222 9.86708C35.7885 9.67826 36.2048 10.0656 36.3307 10.4045C36.4082 10.6078 36.4808 11.0048 36.0838 11.3583L35.9821 11.4454C35.13 12.2007 34.8153 13.3433 35.1687 14.423C35.5222 15.5075 36.4421 16.2482 37.575 16.3548L37.7106 16.3693C38.3738 16.4322 38.4852 16.9842 38.4997 17.1536C38.5191 17.3231 38.5239 17.8847 37.8897 18.0832L37.7638 18.1219C36.6793 18.4657 35.9289 19.3807 35.8078 20.5136C35.6868 21.6466 36.229 22.6972 37.2216 23.2588L37.3378 23.3266C37.8703 23.6268 37.8074 24.1158 37.759 24.3094C37.667 24.658 37.3426 25.026 36.81 24.9679L36.6745 24.9533C35.4641 24.8178 34.3699 25.4327 33.8373 26.4881C33.358 27.4419 33.4548 28.57 34.0891 29.4269L34.1665 29.5334C34.4328 29.8966 34.365 30.2209 34.2585 30.4291C34.1036 30.739 33.7841 30.9472 33.4694 30.9472C33.3967 30.9472 33.3241 30.9375 33.2466 30.9133H33.237C33.1643 30.8891 33.0869 30.8552 33.0094 30.8116L32.8932 30.7438C32.4526 30.4872 31.9588 30.3468 31.465 30.3468C30.6177 30.3468 29.7946 30.7438 29.2572 31.412C28.7246 32.0753 28.5261 32.9371 28.715 33.7795L28.744 33.9102C28.8069 34.191 28.7585 34.4379 28.5988 34.6364C28.4245 34.8543 28.1388 34.9899 27.858 34.9899C27.5772 34.9899 27.3496 34.864 27.1753 34.6122L27.0979 34.5009C26.5605 33.7504 25.7326 33.3195 24.8175 33.3195C23.457 33.3195 22.3193 34.2491 22.0481 35.5757L22.0239 35.7064C21.8932 36.36 21.3316 36.4085 21.1621 36.4085C20.9927 36.4085 20.4311 36.36 20.3003 35.7064L20.3052 35.7209ZM33.6146 46.1545C33.1643 46.0286 32.6947 46.2465 32.4865 46.6629L29.998 51.7513L23.4328 37.217C23.6652 36.8974 23.8395 36.5247 23.9267 36.0986L23.9509 35.9679C24.0477 35.4789 24.4592 35.261 24.8224 35.261C24.987 35.261 25.2968 35.3094 25.5292 35.629L25.6067 35.7403C26.1441 36.4956 26.972 36.9313 27.8677 36.9313C28.7634 36.9313 29.5768 36.5295 30.119 35.8517C30.6516 35.1884 30.8356 34.3556 30.6467 33.4938L30.6177 33.3631C30.5402 33.0194 30.6661 32.7773 30.7823 32.632C31.0534 32.2931 31.5279 32.1866 31.9249 32.419L32.0411 32.4868C32.1137 32.5304 32.1912 32.5643 32.2687 32.603L39.0662 47.6505L33.6146 46.1545Z" fill="black"/>
<path d="M12.9655 15.5222L12.3555 13.4646C13.135 13.0869 13.9193 12.7093 14.6988 12.3317C15.4783 11.954 16.2626 11.5764 17.0421 11.1987L16.9453 13.5711C16.2771 13.9003 15.6138 14.2247 14.9554 14.5491C14.2969 14.8735 13.6288 15.1978 12.9655 15.5271V15.5222ZM15.6719 23.1235V12.3704L17.0421 11.1987L18.3251 11.2762V23.1283H15.6719V23.1235Z" fill="black"/>
<path d="M24.5421 23.3463C24.1403 23.3463 23.7433 23.3221 23.3511 23.2785C22.9589 23.2349 22.591 23.1671 22.2375 23.0848C21.8841 23.0025 21.5549 22.9057 21.2499 22.7943C20.9448 22.6878 20.6737 22.5716 20.4316 22.4506L20.6301 20.0395C20.94 20.1993 21.2547 20.3445 21.5694 20.4801C21.8841 20.6108 22.1988 20.727 22.5087 20.819C22.8185 20.911 23.1235 20.9884 23.4237 21.0368C23.7239 21.0901 24.0144 21.1143 24.2952 21.1143C25.0311 21.1143 25.5685 20.9497 25.9074 20.6205C26.2463 20.2913 26.4158 19.8313 26.4158 19.2406C26.4158 18.8146 26.3286 18.4708 26.1495 18.2045C25.9704 17.9383 25.7235 17.7398 25.4039 17.6187C25.0844 17.4977 24.7164 17.4347 24.2952 17.4347C23.9514 17.4347 23.6077 17.4735 23.2639 17.5558C22.9202 17.6381 22.5764 17.7833 22.2327 17.9964L21.0949 17.9092V11.2666H28.5412V13.5421H22.7556L23.5496 12.7045C23.5496 13.1403 23.5496 13.576 23.5351 14.0166C23.5254 14.4523 23.5157 14.8881 23.506 15.3238L23.4963 15.929H23.7045C23.9999 15.7838 24.3049 15.6773 24.6244 15.5998C24.944 15.5223 25.2732 15.4884 25.6218 15.4884C26.2705 15.4884 26.8661 15.6288 27.4035 15.9048C27.9409 16.1808 28.3669 16.5971 28.6816 17.1442C28.9963 17.6913 29.1513 18.3837 29.1513 19.2164C29.1513 20.0492 28.9867 20.7512 28.6574 21.3709C28.3282 21.9906 27.8198 22.4748 27.1372 22.8234C26.4545 23.172 25.5927 23.3463 24.5518 23.3463H24.5421Z" fill="black"/>
<path d="M16.1317 26.8124L15.6379 25.8683C15.5846 25.7666 15.5313 25.6698 15.4829 25.573C15.4345 25.481 15.3764 25.3745 15.3135 25.2534H15.9429C15.9865 25.3454 16.0203 25.4277 16.0494 25.4955C16.0784 25.5633 16.1075 25.6262 16.1317 25.6843C16.1559 25.7424 16.185 25.8102 16.2188 25.8828L16.3738 26.2314H16.4174L16.5723 25.8925C16.6062 25.815 16.6401 25.7473 16.6643 25.6892C16.6933 25.6262 16.7224 25.5633 16.7514 25.4955C16.7805 25.4277 16.8192 25.3502 16.8579 25.2583H17.468C17.4147 25.3599 17.3615 25.4664 17.3082 25.5681C17.2549 25.6698 17.2017 25.7715 17.1533 25.8731L16.6594 26.8172H16.1317V26.8124ZM16.122 27.6597V26.3428H16.6788V27.6597H16.122Z" fill="black"/>
<path d="M17.7773 27.6597V25.2534H19.3751V25.7085H18.0582L18.3244 25.3406V27.5677L18.092 27.1997H19.3896V27.6548H17.7773V27.6597ZM18.1937 26.6575V26.2363H19.3218V26.6575H18.1937Z" fill="black"/>
<path d="M19.6221 27.6597C19.6656 27.529 19.7092 27.3934 19.7576 27.253C19.806 27.1126 19.8496 26.9771 19.8884 26.8463L20.1595 26.0233C20.2079 25.8732 20.2515 25.7376 20.2902 25.6214C20.3289 25.5004 20.3677 25.3793 20.4064 25.2583H21.1229C21.1617 25.3842 21.2053 25.5052 21.244 25.6263C21.2827 25.7473 21.3263 25.878 21.3747 26.0233L21.641 26.8512C21.6846 26.9819 21.7281 27.1223 21.7766 27.2627C21.825 27.4031 21.8637 27.5387 21.9073 27.6646H21.336C21.3021 27.5387 21.2634 27.4031 21.2246 27.2724C21.1859 27.1368 21.152 27.0109 21.1133 26.8899L20.784 25.7328H20.7453L20.4112 26.8802C20.3774 27.0061 20.3386 27.1368 20.2999 27.2724C20.2612 27.4079 20.2224 27.5387 20.1837 27.6694H19.6269L19.6221 27.6597ZM20.2031 27.1562L20.2612 26.7398H21.336L21.3844 27.1562H20.2031Z" fill="black"/>
<path d="M22.2129 27.6597V25.2534H23.1328C23.3313 25.2534 23.4959 25.2728 23.6315 25.3164C23.767 25.3599 23.8687 25.4326 23.9413 25.5342C24.0139 25.6359 24.0478 25.7715 24.0478 25.9506C24.0478 26.091 24.0188 26.212 23.9655 26.3234C23.9123 26.4348 23.8251 26.5219 23.7041 26.5848C23.583 26.6478 23.4281 26.6817 23.2296 26.6817L23.4426 26.4783L23.7719 26.9625C23.8203 27.0351 23.8784 27.1174 23.9316 27.1997C23.9897 27.2869 24.043 27.3692 24.1011 27.4466C24.1544 27.5289 24.2028 27.5967 24.2463 27.6597H23.6169C23.554 27.5677 23.4959 27.4757 23.4426 27.3885C23.3894 27.3014 23.3313 27.2191 23.278 27.1368L22.8859 26.5267L23.2199 26.7785H22.6583V26.3815H23.0602C23.1473 26.3815 23.2248 26.3718 23.2829 26.3476C23.3458 26.3234 23.3894 26.2895 23.4233 26.2363C23.4572 26.183 23.4717 26.1104 23.4717 26.0184C23.4717 25.9506 23.462 25.8925 23.4426 25.8538C23.4233 25.8102 23.3942 25.7811 23.3603 25.7569C23.3264 25.7327 23.2877 25.7182 23.249 25.7085C23.2054 25.6988 23.1667 25.694 23.1231 25.694H22.3678L22.76 25.3502V27.6693H22.2177L22.2129 27.6597Z" fill="black"/>
<path d="M25.3061 27.7082C25.2093 27.7082 25.1028 27.6986 25.0011 27.684C24.8946 27.6695 24.7978 27.6453 24.7058 27.6211C24.6138 27.5969 24.5412 27.5678 24.4831 27.5436L24.5218 27.0546C24.5993 27.0982 24.6816 27.1369 24.7687 27.166C24.8559 27.195 24.9382 27.2192 25.0253 27.2386C25.1076 27.2531 25.1899 27.2628 25.2722 27.2628C25.3545 27.2628 25.4175 27.2531 25.4707 27.2338C25.5288 27.2144 25.5724 27.1854 25.6063 27.1466C25.6402 27.1079 25.6547 27.0546 25.6547 26.9965C25.6547 26.9384 25.6354 26.8803 25.5918 26.8416C25.5482 26.8029 25.4901 26.7641 25.4126 26.7351C25.3352 26.706 25.2432 26.6722 25.1367 26.6431C24.9914 26.5995 24.8656 26.5511 24.7639 26.493C24.6622 26.4349 24.5799 26.3623 24.5266 26.2751C24.4734 26.188 24.4443 26.0718 24.4443 25.9314C24.4443 25.791 24.4734 25.6651 24.5363 25.5586C24.5993 25.4521 24.6913 25.3698 24.8171 25.3068C24.943 25.2439 25.1028 25.2148 25.2916 25.2148C25.3642 25.2148 25.4417 25.2148 25.5143 25.2294C25.5918 25.2391 25.6644 25.2536 25.7322 25.2681C25.8 25.2826 25.8678 25.302 25.9307 25.3214C25.9936 25.3407 26.0469 25.3649 26.0905 25.3843L26.0469 25.8733C25.9743 25.8297 25.9016 25.791 25.8242 25.7619C25.7467 25.7329 25.6692 25.7087 25.5966 25.6942C25.524 25.6796 25.4562 25.67 25.3933 25.67C25.3255 25.67 25.2626 25.6796 25.2093 25.699C25.156 25.7184 25.1125 25.7474 25.0786 25.7813C25.0447 25.82 25.0302 25.8636 25.0302 25.9217C25.0302 25.9798 25.0447 26.0234 25.0786 26.0621C25.1076 26.1008 25.156 26.1347 25.2238 26.1638C25.2868 26.1928 25.3739 26.2219 25.4756 26.2509C25.6692 26.309 25.8193 26.3671 25.9307 26.4301C26.042 26.493 26.1195 26.5656 26.1679 26.6528C26.2163 26.7399 26.2357 26.8513 26.2357 26.982C26.2357 27.1321 26.2018 27.258 26.1389 27.3693C26.0759 27.4807 25.9743 27.563 25.8387 27.6259C25.7031 27.6889 25.5288 27.7179 25.311 27.7179L25.3061 27.7082Z" fill="black"/>
</svg>
