<svg width="56" height="56" viewBox="0 0 56 56" fill="none" xmlns="http://www.w3.org/2000/svg">
<path d="M39.1948 40.9084C39.1948 41.2706 39.1948 41.4954 39.1948 41.7327C39.1948 42.9567 39.1948 44.1931 39.1948 45.417C39.1948 46.1289 38.6702 46.641 37.9833 46.6535C37.2839 46.6535 36.7719 46.1789 36.7344 45.4545C36.7094 44.9924 36.7344 44.5428 36.7344 44.0807C36.7344 42.1074 36.7344 40.1341 36.7344 38.1733C36.7344 37.1866 37.1965 36.7245 38.1707 36.7245C40.5686 36.7245 42.9665 36.7245 45.352 36.7245C46.0264 36.7245 46.5135 37.1117 46.6508 37.7362C46.7633 38.2732 46.4635 38.8727 45.939 39.085C45.7017 39.1849 45.4144 39.2099 45.1521 39.2099C43.9906 39.2224 41.1181 39.2099 41.1181 39.2099C41.1181 39.2099 45.5143 43.6685 47.5251 45.6793C47.9247 46.079 48.1995 46.5036 48.0122 47.1031C47.7624 47.9274 46.8132 48.2646 46.1138 47.765C45.9515 47.6526 45.8016 47.5027 45.6642 47.3529C43.541 45.2297 41.4304 43.119 39.2198 40.8959L39.1948 40.9084ZM47.5501 10.4097C47.6999 10.2599 47.8498 10.1225 47.9622 9.96013C48.4618 9.26073 48.1246 8.31155 47.3003 8.06176C46.7008 7.87442 46.2762 8.14919 45.8765 8.54884C43.8782 10.5596 39.4071 14.9558 39.4071 14.9558C39.4071 14.9558 39.4071 12.0958 39.4071 10.9218C39.4071 10.6595 39.3821 10.3848 39.2822 10.135C39.0699 9.59794 38.4704 9.2982 37.9334 9.42309C37.3089 9.56047 36.9217 10.0476 36.9217 10.722C36.9217 13.1199 36.9217 15.5178 36.9217 17.9033C36.9217 18.8774 37.3838 19.3395 38.3705 19.3395C40.3438 19.3395 42.3171 19.3395 44.2779 19.3395C44.74 19.3395 45.1896 19.3395 45.6517 19.3395C46.3761 19.3021 46.8632 18.79 46.8507 18.0906C46.8507 17.4037 46.3261 16.8792 45.6142 16.8792C44.3903 16.8792 43.1539 16.8792 41.9299 16.8792C41.7051 16.8792 41.4678 16.8792 41.1056 16.8792C43.3287 14.6561 45.4394 12.5454 47.5626 10.4347L47.5501 10.4097ZM10.5445 8.64876C10.3946 8.49889 10.2572 8.34902 10.0949 8.23661C9.383 7.73704 8.4463 8.06176 8.18403 8.89854C7.99669 9.49802 8.27145 9.92266 8.67111 10.3223C10.6819 12.3206 15.0781 16.7917 15.0781 16.7917C15.0781 16.7917 12.2181 16.7917 11.0441 16.7917C10.7818 16.7917 10.507 16.8167 10.2572 16.9166C9.7202 17.1289 9.42046 17.7284 9.54536 18.2655C9.68274 18.8899 10.1698 19.2771 10.8442 19.2771C13.2422 19.2771 15.6401 19.2771 18.0255 19.2771C18.9997 19.2771 19.4618 18.815 19.4618 17.8283C19.4618 15.855 19.4618 13.8817 19.4618 11.9209C19.4618 11.4588 19.4618 11.0092 19.4618 10.5471C19.4243 9.82274 18.9123 9.33566 18.2129 9.34815C17.526 9.34815 17.0014 9.8727 17.0014 10.5846C17.0014 11.8085 17.0014 13.045 17.0014 14.2689C17.0014 14.4937 17.0014 14.731 17.0014 15.0932C14.7783 12.8826 12.6677 10.7719 10.5445 8.64876ZM8.64613 45.5919C8.49626 45.7418 8.34639 45.8791 8.23399 46.0415C7.73442 46.7409 8.07163 47.6901 8.89592 47.9399C9.4954 48.1272 9.92003 47.8524 10.3197 47.4528C12.318 45.442 16.7891 41.0458 16.7891 41.0458C16.7891 41.0458 16.7891 43.9058 16.7891 45.0798C16.7891 45.3421 16.8141 45.6169 16.914 45.8667C17.1263 46.4037 17.7258 46.7034 18.2628 46.5785C18.8873 46.4412 19.2745 45.9541 19.2745 45.2797C19.2745 42.8817 19.2745 40.4838 19.2745 38.0984C19.2745 37.1242 18.8124 36.6621 17.8257 36.6621C15.8524 36.6621 13.8791 36.6621 11.9183 36.6621C11.4562 36.6621 11.0066 36.6621 10.5445 36.6621C9.82012 36.6996 9.33304 37.2116 9.34553 37.911C9.34553 38.5979 9.87008 39.1225 10.582 39.1225C11.8059 39.1225 13.0423 39.1225 14.2663 39.1225C14.4911 39.1225 14.7284 39.1225 15.0906 39.1225C12.8675 41.3456 10.7568 43.4562 8.63364 45.5669L8.64613 45.5919Z" fill="#ffffff"/>
</svg>
