<svg width="56" height="56" viewBox="0 0 56 56" fill="none" xmlns="http://www.w3.org/2000/svg">
<path d="M34.1225 10.5754C35.361 11.8253 36.5192 12.995 37.7233 14.199C33.2281 18.6827 28.7215 23.1664 24.2149 27.6501C28.8132 32.2255 33.3198 36.7092 37.8265 41.1929C36.5077 42.5001 35.3151 43.6698 33.9735 45C33.2969 44.2661 32.6089 43.4634 31.8635 42.718C29.3063 40.1379 26.7376 37.5692 24.1575 35.0006C22.3342 33.1773 20.4995 31.3769 18.6991 29.5422C17.7244 28.556 17.7817 26.9391 18.7909 25.93C22.5636 22.1573 26.3363 18.3846 30.109 14.6118C31.4392 13.2816 32.7465 11.9514 34.1111 10.5754L34.1225 10.5754Z" fill="black"/>
</svg>
