<svg width="56" height="56" viewBox="0 0 56 56" fill="none" xmlns="http://www.w3.org/2000/svg">
<path d="M41.032 26.671C40.7579 27.1568 40.6832 27.7421 40.1352 27.9788H37.7812V26.1479H41.0195V22.8599H43.0745C43.1742 23.383 43.0994 23.931 43.1244 24.4665C43.1244 24.9896 43.1244 25.5127 43.1244 26.0732C43.6848 26.1728 44.2204 26.1106 44.7684 26.123C45.2915 26.123 45.8146 26.123 46.3875 26.123C46.3626 26.6586 46.1758 27.1194 45.9516 27.5429C45.7648 27.8916 45.4534 28.0784 45.0299 28.066C44.4197 28.0535 43.8094 28.066 43.1368 28.066V31.3416H41.0942C40.9697 30.8434 41.0569 30.3203 41.0444 29.8096C41.032 29.2865 41.0444 28.751 41.0444 28.2279C41.0444 27.7048 41.0444 27.1817 41.0444 26.6586L41.032 26.671Z" fill="#17AA4A"/>
<path d="M30.5079 23.4827C29.9225 23.6695 29.3371 23.8563 28.7518 24.0431C28.6646 24.0805 28.5774 24.1179 28.4902 24.1552C26.8711 24.7655 25.2893 25.4381 23.7698 26.2601C23.72 26.285 23.6702 26.3473 23.6328 26.3846C23.0101 26.7334 22.3998 27.0696 21.7771 27.4184C19.8341 28.5268 17.8787 29.6353 16.0728 30.9804C15.4874 31.4164 15.2134 31.4039 14.7401 30.8933C14.7401 30.7064 14.7401 30.5196 14.7401 30.3452C14.9269 29.3489 15.3878 28.4521 15.8112 27.5429C16.4713 26.1231 17.256 24.753 18.1901 23.4827L18.2897 23.2709C18.215 23.2958 18.1278 23.3207 18.0531 23.3457C17.4926 23.5325 16.9322 23.7318 16.3717 23.9186C16.0603 23.9186 15.7365 23.9186 15.4251 23.9186C14.8398 23.4079 14.8896 23.0343 15.5621 22.7976C15.6991 22.7727 15.8486 22.7478 15.9856 22.7229L16.3592 22.698C16.4962 22.6606 16.6332 22.6233 16.7578 22.5859C17.4428 22.4115 18.1154 22.1749 18.7506 21.8386C18.9997 21.7016 19.2612 21.6144 19.5228 21.5023C19.6598 21.5023 19.7968 21.5023 19.9338 21.5023C20.0957 21.6144 20.2576 21.7265 20.4195 21.8262C20.3821 22.1002 20.3448 22.3617 20.3074 22.6357C18.7381 24.5787 17.3183 26.6337 16.4713 29.0126C16.4464 29.0998 16.4215 29.1745 16.3966 29.2617C16.4713 29.2368 16.5585 29.2119 16.6332 29.187C17.53 28.6514 18.4392 28.1158 19.3359 27.5803C19.996 27.1942 20.6437 26.7956 21.2913 26.3971C21.8892 26.0483 22.4995 25.7121 23.0973 25.3633C23.1969 25.3384 23.3215 25.3384 23.4087 25.2886C25.0901 24.3047 26.8835 23.5574 28.6895 22.835C28.7891 22.7976 28.8888 22.7354 28.9759 22.6855C29.9972 22.3368 31.0185 21.9881 32.0523 21.6393C32.1768 21.602 32.3138 21.5646 32.4384 21.5273C32.4757 21.5273 32.5131 21.5273 32.5505 21.5023C32.6501 21.465 32.7498 21.4401 32.8494 21.4027C32.9241 21.3903 32.9988 21.3778 33.086 21.3653C33.223 21.328 33.36 21.2906 33.497 21.2532C33.5344 21.2532 33.5842 21.2532 33.6216 21.2408C33.8084 21.2034 33.9828 21.1661 34.1696 21.1412H34.8297C35.1784 21.3155 35.2781 21.602 35.1909 22.0504C35.0663 22.1251 34.8795 22.2372 34.7052 22.3368C34.5682 22.3742 34.4311 22.4115 34.2941 22.4365C34.207 22.4365 34.1322 22.4614 34.045 22.4738C33.908 22.5112 33.771 22.5361 33.634 22.5735C33.5967 22.5735 33.5593 22.5735 33.5219 22.5859C33.3849 22.6233 33.2479 22.6606 33.1109 22.698C33.0362 22.698 32.949 22.7229 32.8743 22.7354C32.7747 22.7603 32.675 22.7976 32.5878 22.8226L32.3512 22.9346C31.7907 23.0467 31.2303 23.1215 30.7321 23.4328C30.6698 23.4453 30.5951 23.4702 30.5328 23.4827H30.5079ZM5.34921 33.733C5.44884 33.7205 5.56094 33.6707 5.66058 33.6831C5.76021 33.6831 5.8474 33.7454 5.93458 33.7828C6.20859 33.7828 6.47014 33.7828 6.74414 33.7828C7.00569 33.6707 7.2797 33.5959 7.50389 33.4465C7.97717 33.1227 8.33836 32.6867 8.63727 32.1886C9.29738 31.1174 9.74575 29.9716 10.0322 28.751C10.0696 28.614 10.0945 28.4646 10.1318 28.3276C10.1568 28.0785 10.1817 27.8294 10.1941 27.5803C10.1941 27.1319 10.1941 26.6835 10.1817 26.2352C10.1318 25.5128 9.74575 25.0146 9.12301 24.7032C8.67464 24.5911 8.27608 24.7281 7.95226 24.9897C7.60352 25.2761 7.30461 25.6249 6.98078 25.9487C6.94342 26.011 6.91851 26.0608 6.85624 26.1604C6.70678 25.9487 6.69432 25.8242 6.85624 25.6872C6.86869 25.5626 6.8936 25.4381 6.90606 25.3135C6.94342 25.1765 6.96833 25.0395 7.00569 24.9025C7.00569 24.8651 7.00569 24.8153 7.0306 24.778L7.13024 24.3669C7.22988 23.931 7.32952 23.5076 7.44161 23.0716L7.5288 22.7852C7.5288 22.7229 7.5288 22.6482 7.55371 22.5859C8.03944 20.9792 8.51272 19.385 8.99846 17.7784C9.03583 17.6414 9.07319 17.5044 9.11055 17.3674C9.11055 16.5702 8.92373 16.3461 8.21381 16.371C7.95226 16.5578 7.86507 16.8443 7.77789 17.1432C7.51634 18.015 7.25479 18.8868 6.99324 19.7462C6.95587 19.8832 6.91851 20.0202 6.88115 20.1448C6.83133 20.3191 6.79396 20.4935 6.74414 20.6679C6.70678 20.8049 6.66941 20.9419 6.6196 21.0789C6.56978 21.2906 6.51996 21.5023 6.45768 21.7265L6.34559 22.1375C6.29577 22.3493 6.24595 22.5735 6.18368 22.7852C6.14631 22.9222 6.10895 23.0592 6.07158 23.1837C6.07158 23.2211 6.07158 23.2709 6.05913 23.3083C6.02177 23.4453 5.9844 23.5823 5.94704 23.7193C5.94704 23.7567 5.94704 23.794 5.93458 23.8314C5.89722 23.9684 5.85985 24.1054 5.82249 24.2424C5.81003 24.3171 5.79758 24.4043 5.78512 24.479L5.68549 24.89C5.68549 24.89 5.68549 24.9772 5.66058 25.0146C5.62321 25.1516 5.58585 25.2886 5.56094 25.4256C5.56094 25.5003 5.53603 25.5875 5.52357 25.6622C5.48621 25.7992 5.44884 25.9363 5.41148 26.0733C5.41148 26.1106 5.41148 26.1604 5.39903 26.1978C5.39903 26.3846 5.48621 26.5839 5.28693 26.7334C5.28693 26.7707 5.28693 26.8205 5.27448 26.8579C5.23711 26.9949 5.2122 27.1319 5.17484 27.2814C5.17484 27.3686 5.14993 27.4433 5.13748 27.5305C5.10011 27.6675 5.0752 27.8169 5.03784 27.9539C5.03784 28.0287 5.01293 28.1158 5.01293 28.1906C4.97556 28.3774 4.9382 28.5518 4.90083 28.7386C4.85101 29.0873 4.78874 29.4236 4.73892 29.7723C4.70156 29.9591 4.67665 30.1335 4.63928 30.3203C4.63928 30.4075 4.62683 30.4823 4.61437 30.5694C4.57701 30.7563 4.5521 30.9431 4.51474 31.1174C4.51474 31.2046 4.50228 31.2794 4.48983 31.3665C4.48983 31.5907 4.56455 31.8398 4.37773 32.0391C4.37773 32.0765 4.37773 32.1138 4.36528 32.1636C4.32791 32.3878 4.303 32.6245 4.26564 32.8487C4.25318 33.0604 4.24073 33.2597 4.21582 33.4714C4.21582 33.6956 4.21582 33.9198 4.21582 34.1564C4.35282 34.2934 4.48983 34.4429 4.62683 34.5799C4.76383 34.5799 4.91329 34.5799 5.05029 34.5799C5.10011 34.5301 5.14993 34.4678 5.19975 34.418C5.22466 34.3183 5.26202 34.2311 5.28693 34.1315C5.28693 34.0443 5.31184 33.9696 5.3243 33.8824C5.33675 33.8201 5.34921 33.7703 5.37412 33.708L5.34921 33.733ZM5.66058 31.6405C5.76021 31.1673 5.8474 30.6815 5.94704 30.2082C5.9844 30.0712 6.02177 29.9342 6.05913 29.7972C6.28332 28.8631 6.59469 27.9788 7.13024 27.1817C7.39179 26.7956 7.67825 26.3971 8.15154 26.2227C8.30099 26.0483 8.438 26.0359 8.58745 26.2227C8.81164 26.3223 8.849 26.5341 8.86146 26.7458C9.02337 27.0696 9.02337 27.3935 8.86146 27.7173C8.81164 28.066 8.76182 28.4023 8.712 28.751C8.67464 28.888 8.63727 29.025 8.59991 29.1745C8.42554 29.9218 8.17644 30.6317 7.8028 31.3043C7.5288 31.8025 7.16761 32.2384 6.59469 32.4501C6.42032 32.6618 6.2335 32.6494 6.04667 32.4501C5.90967 32.3629 5.76021 32.2882 5.62321 32.201C5.44884 32.0017 5.47375 31.8149 5.64812 31.6281L5.66058 31.6405ZM12.9093 29.2617C12.9217 29.0998 12.9466 28.9254 12.9591 28.7635C12.984 28.6265 13.0089 28.477 13.0463 28.34C13.0961 28.0411 13.1459 27.7422 13.2082 27.4433C13.2082 27.2565 13.121 27.0447 13.3327 26.9202C13.3327 26.8828 13.3327 26.833 13.3576 26.7956C13.3825 26.696 13.4199 26.5964 13.4448 26.5092C13.4946 26.2974 13.5569 26.0857 13.6067 25.874C13.6441 25.737 13.6815 25.6124 13.7313 25.4754C13.8683 25.0395 14.0053 24.5911 14.1298 24.1552C14.1298 23.9684 14.1298 23.794 14.1298 23.6072C13.7064 23.246 13.4573 23.2709 13.1957 23.6944C13.121 23.8065 13.0836 23.931 13.0338 24.0431C12.7723 24.778 12.5107 25.5128 12.2616 26.2476C12.2243 26.3846 12.1869 26.5216 12.1371 26.6462C12.0499 27.0447 11.9502 27.4308 11.8631 27.8294C11.8631 28.0536 11.9378 28.3027 11.7385 28.5019C11.7385 28.5393 11.7385 28.5891 11.7385 28.6265C11.7136 28.8133 11.6762 29.0001 11.6513 29.187C11.6264 29.4859 11.614 29.7723 11.5891 30.0712C11.5891 30.3452 11.7012 30.6317 11.5143 30.8933V32.1512C11.6264 32.2508 11.751 32.3629 11.8755 32.4875C12.0125 32.4875 12.162 32.4875 12.299 32.4875C12.5232 32.3629 12.6477 32.1761 12.6851 31.927C12.71 31.4786 12.5854 31.0178 12.7972 30.5819C12.7972 30.4573 12.8096 30.3328 12.8221 30.2082C12.847 29.8969 12.7224 29.5606 12.9342 29.2741L12.9093 29.2617ZM13.669 20.0576C14.0053 20.6679 14.4537 20.7551 14.8522 20.2195C15.1387 19.8334 15.3629 19.3601 15.5123 18.8993C15.6369 18.5256 15.5746 18.1146 15.2134 17.8531C14.8398 17.7161 14.5408 17.8531 14.3416 18.1396C14.0925 18.4883 13.9056 18.8868 13.6939 19.2605C13.6815 19.5345 13.669 19.8085 13.6566 20.0825L13.669 20.0576Z" fill="#806840"/>
<path d="M32.326 22.9348C32.5004 23.8316 32.6748 24.7159 32.8491 25.6126C33.036 26.5716 33.2103 27.5306 33.3847 28.4897C33.4843 29.0252 33.584 29.5608 33.6836 30.0839C33.6836 30.0963 33.6587 30.1212 33.6587 30.1337C33.6712 30.1711 33.7085 30.196 33.7334 30.2209C33.9452 31.4041 34.1569 32.5873 34.3686 33.7705C34.3686 33.7829 34.3313 33.8079 34.3313 33.8203C34.3562 33.8452 34.3811 33.8826 34.406 33.9075C34.4932 34.3808 34.5679 34.8416 34.6551 35.3522H32.7121C32.5253 34.2189 32.3385 33.073 32.1392 31.9396L32.0396 31.8524C31.1179 31.8524 30.1963 31.8524 29.2746 31.8524C29.2373 31.8774 29.1999 31.9023 29.1625 31.9272C29.0504 32.5375 28.9508 33.1602 28.8387 33.7705C28.8263 33.8203 28.8013 33.8577 28.7889 33.9075C28.7142 34.3808 28.6394 34.8416 28.5522 35.3398H26.5968C26.6965 34.7171 26.7961 34.1068 26.8958 33.4965C26.9207 33.4093 26.9456 33.3221 26.958 33.2474C27.0701 32.5873 27.1947 31.9272 27.3068 31.2671C27.3192 31.2173 27.3441 31.1799 27.3566 31.1301C27.4189 30.7689 27.4811 30.4201 27.5434 30.059C27.5683 29.9344 27.5932 29.8099 27.6306 29.6853C27.8423 28.5395 28.0541 27.3936 28.2658 26.2478C28.3903 25.5877 28.5024 24.9276 28.627 24.2675C28.6643 24.1928 28.6893 24.118 28.7266 24.0308C29.312 23.844 29.8974 23.6572 30.4827 23.4704C30.4454 23.7568 30.4205 24.0308 30.3831 24.3173C30.271 25.0521 30.1589 25.787 30.0468 26.5218C30.0219 26.5218 29.997 26.5343 29.997 26.5467C29.997 26.5841 29.997 26.609 30.0095 26.6463C29.8849 27.431 29.7604 28.2281 29.6358 29.0128C29.6234 29.0626 29.6109 29.0999 29.586 29.1498C29.5611 29.3989 29.5362 29.648 29.4988 29.9469C29.9347 29.9469 30.3084 29.9593 30.6696 29.9469C31.0308 29.9344 31.3919 30.0216 31.7407 29.8846C31.6161 29.1871 31.4916 28.527 31.3795 27.8669C31.1553 26.5343 30.956 25.214 30.7318 23.8814C30.7443 23.8814 30.7692 23.8565 30.7817 23.844C30.7567 23.8191 30.7318 23.7942 30.7069 23.7568C30.7069 23.6447 30.682 23.5326 30.6696 23.4206C31.1678 23.1092 31.7282 23.0345 32.2887 22.9224L32.326 22.9348ZM35.4771 19.5097C35.4647 19.9208 35.4522 20.3193 35.4273 20.7303C35.4273 20.7677 35.4273 20.8175 35.4273 20.8549C35.4273 20.9421 35.4273 21.0292 35.4273 21.1164C35.4273 21.241 35.4273 21.378 35.4273 21.5025C35.4273 21.6893 35.4273 21.8637 35.4273 22.0505C35.4273 22.1377 35.4273 22.2249 35.4273 22.3121C35.4273 22.5487 35.4397 22.7978 35.4397 23.0345C35.4397 26.9702 35.4397 30.8934 35.4397 34.8291C35.4397 35.0035 35.4397 35.1654 35.4397 35.3398H37.4699V21.3655H40.3594C40.3594 21.0168 40.3594 20.7054 40.3594 20.4065C40.3594 20.1076 40.3594 19.8087 40.3594 19.4973C40.0107 19.4973 39.7491 19.4973 39.4876 19.4973C38.1923 19.4973 36.897 19.4848 35.6017 19.4724L35.4647 19.5097H35.4771ZM22.3124 28.3776C22.823 29.3615 23.3711 30.333 23.6451 31.4165C23.7572 31.8649 23.8194 32.3257 23.6451 32.7616C23.259 33.6584 22.3498 34.0071 21.4157 33.5712C21.0669 33.4093 20.7555 33.1851 20.4193 32.9858C20.4193 33.0357 20.4068 33.073 20.3944 33.1228V35.0284C20.7431 35.1779 21.0545 35.3024 21.3658 35.4394C21.4032 35.4519 21.453 35.4768 21.4904 35.4892C21.6398 35.5142 21.7893 35.564 21.9388 35.5764C22.8853 35.6885 23.7696 35.5266 24.492 34.8541C25.5631 33.8577 25.862 32.5873 25.6378 31.2048C25.3514 29.4487 24.4795 27.9292 23.6202 26.3973C22.9974 26.746 22.3871 27.0823 21.7644 27.431C21.9512 27.7548 22.138 28.0662 22.3124 28.39V28.3776ZM22.7608 24.6536C22.4245 23.9063 22.1878 23.1465 22.2626 22.3121C22.3249 21.6769 22.7608 21.2036 23.3835 21.1413C23.8194 21.0915 24.2553 21.1164 24.6664 21.3281C24.8283 21.4153 25.0275 21.4652 25.2019 21.5274C25.2019 21.4776 25.2144 21.4402 25.2268 21.3904V19.7339C23.3337 18.6379 20.9175 19.5347 20.3944 21.8263C20.357 22.1003 20.3196 22.3619 20.2823 22.6359C20.2574 23.981 20.6933 25.214 21.2786 26.3973C21.8765 26.0485 22.4868 25.7122 23.0846 25.3635C22.9725 25.1269 22.8604 24.8902 22.7483 24.6536H22.7608ZM45.5904 33.5089C45.1669 33.5089 44.7559 33.5214 44.3449 33.5089C43.9339 33.4965 43.5229 33.5837 43.087 33.4342V31.84H41.0693V35.3522H46.8982V33.4965C46.4249 33.4965 46.0139 33.4965 45.5904 33.4965V33.5089ZM49.3144 31.4913C48.6916 31.5535 48.1436 31.7653 47.7077 32.2635C47.7949 32.3506 47.8696 32.4129 47.9444 32.4876C48.2308 32.388 48.4799 32.2635 48.7539 32.2136C49.0279 32.1514 49.3019 32.1514 49.5759 32.1265C49.6258 32.1389 49.6631 32.1638 49.7129 32.1763C50.236 32.3382 50.2485 32.7367 50.1987 33.2723C49.962 33.4965 49.7005 33.7954 49.4016 34.032C49.1276 34.2438 48.8037 34.3808 48.5048 34.5676C48.4052 34.6299 48.3429 34.742 48.2682 34.8167C48.455 35.1032 48.6916 34.9786 48.9034 34.9911C49.5884 35.0284 50.1239 35.3522 50.2236 35.8753C50.3232 36.3611 50.2609 36.8344 49.9122 37.2329C49.5884 37.6066 49.1774 37.8557 48.7041 38.0051C48.3305 38.1172 47.9693 38.2418 47.5707 38.3663C47.5956 38.5033 47.6205 38.5905 47.6454 38.7275C48.6045 38.6279 49.4763 38.3912 50.261 37.8806C50.6969 37.5941 51.0207 37.208 51.1951 36.7223C51.5438 35.6761 51.22 34.605 49.9745 34.468C49.9496 34.468 49.9247 34.4306 49.9122 34.4181C50.2111 34.194 50.5225 33.9822 50.7965 33.7456C51.2324 33.3719 51.4192 32.8862 51.2698 32.3257C51.1079 31.7653 50.647 31.566 50.1115 31.5162C49.8499 31.5162 49.5884 31.5162 49.3268 31.5162L49.3144 31.4913ZM32.077 21.5025C31.9524 20.805 31.8279 20.1076 31.7033 19.4226H29.5735C29.5237 19.6592 29.4864 19.846 29.449 20.0329C29.2871 20.9171 29.1376 21.789 28.9757 22.6733C29.997 22.3245 31.0183 21.9758 32.052 21.6271C32.052 21.5772 32.052 21.5399 32.077 21.5025ZM46.5494 19.4724C46.3252 19.4724 46.1135 19.4973 45.8893 19.4973C44.4446 19.4973 42.9998 19.4973 41.555 19.4973C41.3682 19.4973 41.144 19.4101 41.0444 19.6592C41.0569 19.6966 41.0818 19.7215 41.0818 19.7588C41.0818 19.7588 41.0444 19.7838 41.0319 19.7962C41.0319 20.5435 41.0319 21.2908 41.0319 22.0381C41.0319 22.1751 40.9074 22.337 41.1316 22.4117C41.7792 22.4117 42.4269 22.4615 43.087 22.3868C43.0994 22.0256 43.1119 21.7142 43.1368 21.3655H44.3574C44.7559 21.3655 45.142 21.3655 45.5406 21.3655C45.9267 21.3531 46.3128 21.4278 46.6864 21.3157V19.5222C46.6864 19.5222 46.5992 19.4973 46.5619 19.4848L46.5494 19.4724Z" fill="#605B5A"/>
</svg>
