<svg width="45" height="45" viewBox="0 0 45 45" fill="none" xmlns="http://www.w3.org/2000/svg">
<path d="M36.1971 33.4819C35.9708 33.4547 35.7444 33.4276 35.509 33.4095C34.4406 33.2918 33.3994 33.0292 32.4216 32.5856C29.2799 31.1641 27.1975 28.801 26.2106 25.4963C25.8394 24.2378 25.7217 22.9521 25.8303 21.6393C26.0838 18.6877 27.3242 16.216 29.5243 14.2513C31.0001 12.9294 32.7294 12.0964 34.676 11.7161C35.4909 11.5532 36.3148 11.4898 37.1478 11.517C37.3922 11.517 37.6367 11.5441 37.8812 11.5622V14.8669C35.4366 14.6225 33.2727 15.2563 31.4709 16.9493C30.3392 18.0177 29.6239 19.3215 29.2708 20.8516H35.672V24.1563H29.2799C29.8865 27.3071 33.0554 30.6661 37.8721 30.15V33.4457C37.7091 33.4638 37.5371 33.4819 37.3741 33.5H36.1971V33.4819ZM7.09766 23.097C7.12482 23.3233 7.15198 23.5497 7.17009 23.7851C7.3059 25.0164 7.64995 26.1934 8.20224 27.298C9.4698 29.8422 11.4164 31.6439 14.0511 32.7123C15.0199 33.1016 16.0249 33.337 17.0661 33.4366C17.2109 33.4457 17.3558 33.4728 17.4916 33.4819H18.6958C18.8588 33.4638 19.0217 33.4457 19.1938 33.4185V30.1229C16.8578 30.3673 14.7483 29.806 12.9918 28.2306C11.2263 26.6552 10.3571 24.6543 10.4205 22.2821C10.4748 20.0005 11.3983 18.0992 13.1367 16.6143C14.8841 15.1295 16.9303 14.6134 19.1938 14.8398V11.5532C19.0489 11.5441 18.9131 11.5351 18.7773 11.526C17.5912 11.4445 16.4323 11.5532 15.2915 11.8701C12.1136 12.7483 9.77763 14.6496 8.26562 17.565C7.66806 18.7058 7.31495 19.9281 7.17009 21.2138C7.14293 21.4401 7.12482 21.6665 7.09766 21.8838C7.09766 22.2821 7.09766 22.6896 7.09766 23.0879V23.097Z" fill="black"/>
</svg>
