<svg width="56" height="56" viewBox="0 0 56 56" fill="none" xmlns="http://www.w3.org/2000/svg">
<path d="M45.0357 41.977C44.7476 41.9424 44.4595 41.9078 44.1599 41.8848C42.8002 41.735 41.475 41.4008 40.2305 40.8362C36.2319 39.027 33.5816 36.0194 32.3255 31.8135C31.8531 30.2117 31.7033 28.5754 31.8416 26.9046C32.1642 23.148 33.7429 20.0021 36.5431 17.5016C38.4213 15.8192 40.6223 14.7591 43.0998 14.2751C44.1369 14.0677 45.1855 13.987 46.2456 14.0216C46.5567 14.0216 46.8679 14.0562 47.179 14.0792V18.2852C44.0677 17.9741 41.3137 18.7807 39.0205 20.9355C37.5801 22.2953 36.6698 23.9546 36.2204 25.902H44.3673V30.108H36.2319C37.004 34.1181 41.0371 38.3932 47.1675 37.7364V41.9309C46.9601 41.9539 46.7411 41.977 46.5337 42H45.0357V41.977ZM8 28.7598C8.03457 29.0479 8.06914 29.336 8.09219 29.6356C8.26503 31.2027 8.70292 32.7008 9.40583 34.1066C11.0191 37.3446 13.4966 39.6377 16.8498 40.9975C18.0828 41.493 19.3619 41.7926 20.6871 41.9193C20.8715 41.9309 21.0558 41.9654 21.2287 41.977H22.7613C22.9687 41.9539 23.1761 41.9309 23.395 41.8963V37.7018C20.422 38.013 17.7371 37.2985 15.5016 35.2935C13.2546 33.2884 12.1484 30.7418 12.229 27.7227C12.2982 24.8189 13.4735 22.399 15.686 20.5092C17.91 18.6194 20.5142 17.9625 23.395 18.2506V14.0677C23.2107 14.0562 23.0378 14.0446 22.865 14.0331C21.3554 13.9294 19.8805 14.0677 18.4285 14.471C14.3839 15.5887 11.4109 18.0086 9.4865 21.7191C8.72596 23.171 8.27656 24.7267 8.09219 26.363C8.05762 26.6511 8.03457 26.9391 8 27.2157C8 27.7227 8 28.2413 8 28.7483V28.7598Z" fill="#806840"/>
</svg>
