<svg width="56" height="56" viewBox="0 0 56 56" fill="none" xmlns="http://www.w3.org/2000/svg">
<path d="M12.6017 13.7847C20.0666 13.7847 27.5422 13.7847 35.0071 13.7847C35.0392 13.8062 35.0713 13.8492 35.1033 13.8599C36.1621 14.2253 36.622 14.7628 36.6648 15.8591C36.7075 16.9232 36.6969 17.998 36.6969 19.0621C36.6969 19.4705 36.8466 19.6425 37.2637 19.6425C37.9909 19.6317 38.7181 19.621 39.4454 19.6425C41.0924 19.6855 42.3009 20.4486 43.0495 21.9211C43.6163 23.0496 44.1724 24.1997 44.7286 25.339C45.0601 26.0269 45.552 26.5428 46.3007 26.7685C46.9744 26.9835 47.6589 27.1877 48.3434 27.3812C48.985 27.5639 49.4449 27.9508 49.616 28.585C49.7764 29.1976 49.9262 29.8425 49.9476 30.4767C50.001 32.0997 49.9796 33.7226 49.9689 35.3456C49.9689 36.5387 49.1882 37.463 48.0118 37.592C47.2632 37.678 46.5039 37.635 45.7445 37.6458C45.1029 37.6458 45.1029 37.6458 45.0387 37.0009C44.7499 34.2708 42.7928 32.4006 40.0764 32.2609C37.392 32.1212 34.9322 34.389 34.836 37.0761C34.8217 37.4559 34.6185 37.6458 34.2264 37.6458C31.2212 37.6458 28.216 37.6458 25.2215 37.6458C24.2696 37.6458 24.3231 37.8177 24.2696 36.7859C24.2696 36.6892 24.2482 36.5817 24.2269 36.4849C23.7349 33.9914 21.6708 32.2716 19.2004 32.2609C16.7192 32.2609 14.6337 34.0129 14.1525 36.5172C14.0776 36.8826 14.1097 37.3985 13.8958 37.5598C13.6284 37.7532 13.1472 37.6565 12.7515 37.6565C11.1473 37.6565 10.2061 36.6999 10.2061 35.0769C10.2061 33.6904 10.2061 32.2931 10.2061 30.9066C10.2061 29.993 10.4307 29.7673 11.3398 29.7673C13.8209 29.7673 16.2914 29.7673 18.7726 29.7673C19.1255 29.7673 19.5105 29.6921 19.8207 29.5416C20.7725 29.1009 21.1575 28.0046 20.858 26.6933C20.6655 25.8119 19.8955 25.1885 18.9116 25.1778C16.3877 25.1563 13.8637 25.1778 11.3505 25.1671C11.1473 25.1671 10.912 25.1885 10.7516 25.1026C10.5484 24.9951 10.2596 24.8016 10.2382 24.6189C10.1847 24.2212 10.0564 23.759 10.4521 23.4366C10.5484 23.3613 10.6981 23.3399 10.8157 23.3291C10.9548 23.3076 11.1045 23.3291 11.2542 23.3291C14.9439 23.3291 18.6335 23.3291 22.3232 23.3291C22.8686 23.3291 23.3927 23.2539 23.8525 22.9099C24.7188 22.2543 24.783 20.9752 24.4942 20.0509C24.2269 19.2018 23.4568 18.7181 22.4515 18.7181C18.6335 18.7181 14.8155 18.7181 10.9975 18.7181C10.4521 18.7181 10.2275 18.5139 10.2168 17.955C10.2168 17.3746 10.2061 16.7834 10.2168 16.203C10.2382 15.1712 10.7409 14.4618 11.7034 14.0964C11.9708 13.9674 12.2916 13.8814 12.6017 13.7847ZM43.6805 26.9083C42.9746 25.5002 42.3436 24.1137 41.595 22.8024C41.0175 21.8029 40.0443 21.2869 38.8679 21.2332C38.3011 21.201 37.7342 21.2332 37.1674 21.2224C36.8038 21.2117 36.6862 21.3407 36.6862 21.7061C36.6969 23.2861 36.6969 24.8661 36.6862 26.4461C36.6862 26.833 36.7931 26.9943 37.2102 26.9943C39.2101 26.9835 41.1993 26.9943 43.1992 26.9943C43.3489 26.9943 43.4987 26.9513 43.6805 26.919V26.9083ZM5.16895 28.0153C5.41492 28.6065 5.87479 28.8215 6.49509 28.8C7.09399 28.7785 7.69289 28.8 8.29179 28.8C11.7355 28.8 15.1792 28.8 18.6122 28.8C19.1041 28.8 19.5426 28.714 19.7993 28.2303C20.3447 27.1662 19.7565 26.1774 18.5694 26.1774C14.5589 26.1774 10.5484 26.1774 6.53786 26.1774C5.91757 26.1774 5.4577 26.3386 5.16895 26.8975V28.0368L5.16895 28.0153ZM19.8848 22.3188C20.7618 22.3188 21.6387 22.3188 22.505 22.3188C22.9542 22.3188 23.3071 22.136 23.4996 21.7276C24.013 20.642 23.4141 19.6747 22.227 19.6747C20.2698 19.6747 18.3234 19.6747 16.3663 19.6747C13.9172 19.6747 11.4681 19.6747 9.01903 19.6747C8.54846 19.6747 8.12068 19.7714 7.8747 20.2336C7.31858 21.2762 7.90678 22.308 9.0725 22.308C11.2542 22.308 13.4466 22.308 15.6283 22.308C17.04 22.308 18.4517 22.308 19.8741 22.308L19.8848 22.3188ZM43.8516 37.463C43.8088 39.6449 42.0335 41.3969 39.8839 41.3539C37.638 41.3002 35.9696 39.5589 35.991 37.3448C36.0124 35.1199 37.8412 33.4109 40.0443 33.4647C42.1725 33.5184 43.8944 35.3241 43.8516 37.463ZM39.9266 39.0968C40.8678 39.0968 41.6164 38.3551 41.6271 37.4093C41.6271 36.4742 40.8785 35.7218 39.9373 35.7111C38.9748 35.7111 38.2262 36.4527 38.2369 37.42C38.2369 38.3659 38.9855 39.0968 39.9373 39.0968H39.9266ZM19.1576 33.4647C21.3393 33.4647 23.1039 35.2381 23.1039 37.42C23.1039 39.5804 21.3286 41.3539 19.179 41.3646C17.0186 41.3646 15.2326 39.5697 15.2326 37.3985C15.2326 35.2274 16.9973 33.4754 19.1576 33.4647ZM19.179 35.7111C18.2271 35.7111 17.4892 36.4312 17.4785 37.3878C17.4785 38.3444 18.2058 39.086 19.1469 39.0968C20.1094 39.0968 20.8366 38.3766 20.8473 37.42C20.8473 36.4634 20.1308 35.7218 19.179 35.7111Z" fill="#806840"/>
</svg>
