<svg width="56" height="56" viewBox="0 0 56 56" fill="none" xmlns="http://www.w3.org/2000/svg">
<path fill-rule="evenodd" clip-rule="evenodd" d="M45.2031 24.342L45.4246 24.1225V24.1111C44.9523 23.6427 44.4854 23.1811 44.0221 22.723C43.1354 21.8464 42.2618 20.9827 41.3882 20.109L30.07 8.79086C29.0609 7.78174 27.444 7.7244 26.4578 8.69912C25.2351 9.89893 24.0276 11.114 22.8185 12.3308C22.2133 12.9399 21.6076 13.5493 20.9994 14.1575C18.4308 16.7377 15.8621 19.3063 13.282 21.8635C12.7726 22.3729 12.2364 22.8555 11.7137 23.326C11.4716 23.544 11.2323 23.7593 11 23.9735C11.6729 24.6521 12.3047 25.2927 12.934 25.9307C13.5487 26.5539 14.1611 27.1748 14.8071 27.8265L14.8615 27.7718C19.327 23.2834 23.793 18.7946 28.3499 14.2149C32.8336 18.7215 37.3173 23.2281 41.801 27.7233C42.9336 26.5906 44.0359 25.4985 45.2031 24.342ZM45.204 44.3411L45.4246 44.1226V44.1111C44.9524 43.6427 44.4855 43.1811 44.0221 42.7231C43.1355 41.8464 42.2618 40.9827 41.3882 40.109L30.07 28.7909C29.0609 27.7817 27.444 27.7244 26.4578 28.6991C25.2351 29.8989 24.0276 31.114 22.8185 32.3308C22.2133 32.9398 21.6076 33.5493 20.9994 34.1575C18.4308 36.7376 15.8621 39.3063 13.282 41.8635C12.7726 42.3729 12.2363 42.8556 11.7136 43.3261C11.4715 43.544 11.2323 43.7593 11 43.9735C11.6729 44.6522 12.3048 45.2928 12.9341 45.9308C13.5488 46.554 14.1612 47.1749 14.8071 47.8265L14.9143 47.7187C19.3623 43.248 23.811 38.7766 28.3499 34.2149C32.8336 38.7215 37.3173 43.2281 41.801 47.7233C42.934 46.5903 44.0365 45.4979 45.204 44.3411Z" fill="black"/>
</svg>
