<svg width="56" height="56" viewBox="0 0 56 56" fill="none" xmlns="http://www.w3.org/2000/svg">
<path fill-rule="evenodd" clip-rule="evenodd" d="M40.8355 10.0912C40.9395 13.9001 40.9262 18.0717 40.9132 22.171V22.1712V22.1715V22.1717C40.9089 23.5273 40.9047 24.8749 40.9047 26.199C40.9047 26.318 40.9095 26.4465 40.9144 26.5789C40.9374 27.1913 40.9634 27.8871 40.5312 28.1117C40.1811 28.0195 40.146 27.6259 40.1104 27.2262L40.1103 27.226L40.1103 27.2259C40.1037 27.1519 40.0971 27.0776 40.0885 27.0051C40.0277 26.9001 39.9002 26.8651 39.7724 26.83C39.6674 26.8011 39.5622 26.7723 39.4936 26.7045C39.4936 26.2673 39.4245 25.8984 38.8849 25.9667C38.9115 25.5595 38.7143 25.367 38.5161 25.1736C38.3021 24.9648 38.0871 24.755 38.1517 24.2726C38.1306 24.1889 38.0264 24.1907 37.9222 24.1925C37.8223 24.1942 37.7223 24.1959 37.6952 24.1223V23.6032C37.5794 23.5897 37.5307 23.5067 37.4814 23.4226C37.4305 23.336 37.379 23.2482 37.2526 23.2343C37.2526 22.9747 37.1834 22.8108 36.879 22.8654V22.4282C36.855 22.2855 36.7237 22.2578 36.5935 22.2303C36.4993 22.2105 36.4056 22.1907 36.3534 22.1276C36.3418 22.0303 36.3156 21.945 36.2891 21.8586C36.2524 21.7388 36.215 21.617 36.215 21.4582C35.7585 21.2942 35.5787 20.857 35.468 20.3515C35.4138 20.2827 35.2988 20.2738 35.1838 20.2649C35.0935 20.258 35.0032 20.251 34.9423 20.2149C34.9517 19.9728 34.9033 19.7878 34.854 19.5994C34.831 19.5114 34.8078 19.4226 34.7901 19.3269C34.7725 19.1522 34.6022 19.1283 34.4383 19.1052C34.3458 19.0922 34.2552 19.0794 34.1953 19.04C34.2368 18.7667 34.1953 18.5618 34.1261 18.3705C34.0828 18.1994 34.007 18.2265 33.902 18.264C33.8393 18.2863 33.7662 18.3124 33.6834 18.3022C33.7752 17.9327 33.5716 17.7268 33.3538 17.5067C33.1448 17.2955 32.9229 17.0711 32.9364 16.6764C32.8723 16.5692 32.7817 16.488 32.6905 16.4063C32.526 16.2589 32.3594 16.1096 32.3416 15.802C32.3148 15.6965 32.1979 15.6801 32.0809 15.6637C31.9555 15.6462 31.8302 15.6286 31.8159 15.5014C31.719 15.2692 31.6499 14.9959 31.6775 14.6134C31.387 14.5177 31.1242 14.3675 30.9305 14.1762C26.915 14.2764 22.7754 14.2643 18.635 14.2523H18.635C16 14.2446 13.3648 14.2369 10.7609 14.2582C10.6029 14.2522 10.5303 14.1592 10.4576 14.0661C10.3647 13.9472 10.2716 13.828 10 13.8893V10.1731H10.2352C10.8902 9.97164 12.1536 9.9924 13.3333 10.0118H13.3333H13.3333H13.3333H13.3333C13.6734 10.0174 14.0066 10.0228 14.3161 10.0228C16.4667 10.0228 18.6581 10.0186 20.8675 10.0144H20.8675H20.8676H20.8676C27.5693 10.0016 34.4372 9.9884 40.8355 10.0912ZM45.4557 13.1785C45.5487 13.1785 45.647 13.1756 45.7467 13.1726C46.0767 13.1627 46.4223 13.1524 46.6454 13.2469C46.6241 17.4611 46.6336 21.7057 46.643 25.9502C46.658 32.7417 46.6731 39.5331 46.5624 46.2003H16.3909C16.2522 46.2003 16.1062 46.2088 15.9585 46.2175C15.4582 46.2467 14.9375 46.2771 14.6064 45.9817C14.6267 45.8369 14.6351 45.7133 14.6424 45.6052C14.66 45.3462 14.6716 45.1756 14.8277 45.0117C15.0569 44.774 15.4856 44.7801 16.1215 44.7892L16.1221 44.7892C16.2535 44.7911 16.3939 44.7931 16.5431 44.7931H45.1375C45.2712 44.3767 45.252 43.9226 45.2334 43.4812C45.2269 43.3288 45.2205 43.1779 45.2205 43.0307V21.253C45.2205 20.6631 45.2178 20.0652 45.2151 19.4658L45.2151 19.4638C45.2055 17.3566 45.1959 15.2308 45.3035 13.3698C45.3035 13.2469 45.3589 13.1785 45.4557 13.1512V13.1785ZM24.3783 17.9469C24.4052 17.8418 24.4248 17.7649 24.2209 17.8107H24.1933C22.4318 17.9164 20.5626 17.9011 18.6876 17.8858H18.6876H18.6876C17.4114 17.8754 16.1325 17.865 14.8831 17.8927C14.5937 18.7144 14.6295 20.0206 14.6619 21.2047C14.6791 21.8318 14.6953 22.4247 14.6618 22.8931C14.7112 22.9297 14.7778 22.9517 14.8451 22.9741C15.0039 23.0267 15.1669 23.0808 15.1183 23.3303C16.2329 23.315 17.3761 23.3243 18.5203 23.3336H18.5203H18.5204C20.4578 23.3493 22.3981 23.365 24.2071 23.262C24.1716 23.104 24.2444 23.0532 24.3194 23.0008C24.3612 22.9716 24.4037 22.942 24.4284 22.8931C24.4937 22.7642 24.4961 22.6601 24.4992 22.5264C24.5007 22.4618 24.5024 22.3902 24.5114 22.3056C24.6498 20.994 24.5114 18.9173 24.3593 18.1113C24.3501 18.0572 24.3651 17.9986 24.3783 17.9469ZM29.7408 20.311C29.7733 20.3879 29.7935 20.4701 29.8134 20.5506C29.8783 20.8135 29.9389 21.0592 30.4048 21.0488V21.5816C30.474 21.7046 30.64 21.7319 30.8613 21.7182C30.8613 22.1848 31.0835 22.4355 31.3057 22.6862C31.5129 22.92 31.72 23.1538 31.7467 23.5626C31.8867 23.5367 31.9382 23.6365 31.9956 23.748C32.029 23.8127 32.0643 23.8813 32.1202 23.9315C32.128 23.9392 32.1369 23.9475 32.1465 23.9565L32.1465 23.9565C32.2397 24.0435 32.4042 24.1971 32.3416 24.519C32.4585 24.5363 32.5087 24.622 32.5591 24.708C32.6278 24.8253 32.6969 24.9431 32.9364 24.8879C32.9087 25.1611 32.9364 25.3661 33.0194 25.5573C33.1346 25.6711 33.2978 25.6238 33.445 25.5811L33.445 25.5811C33.4746 25.5726 33.5035 25.5642 33.5313 25.5573C33.416 25.8063 33.4883 25.9405 33.5704 26.0929C33.646 26.2332 33.7299 26.3889 33.6834 26.664C33.7406 26.8192 33.842 26.8032 33.9438 26.7871C34.0392 26.7721 34.1351 26.757 34.1953 26.8826C34.1953 26.9292 34.1934 26.9782 34.1915 27.0275L34.1915 27.0276C34.1845 27.2096 34.1774 27.3948 34.2645 27.4701C34.3951 27.5287 34.4595 27.6554 34.5244 27.783C34.6105 27.9526 34.6976 28.1239 34.9423 28.1395V28.6587C34.9692 28.8001 35.1118 28.8157 35.2541 28.8313C35.3318 28.8398 35.4094 28.8483 35.468 28.8773C35.468 29.0413 35.5079 29.161 35.5487 29.2836C35.5759 29.3654 35.6036 29.4484 35.6202 29.5467C35.815 29.6301 35.9397 29.7827 36.0644 29.9353C36.2053 30.1078 36.3463 30.2803 36.5885 30.3528C36.5204 30.4874 36.5824 30.5679 36.654 30.6609C36.6842 30.7 36.7161 30.7414 36.7407 30.79C36.7892 30.8828 36.829 30.9716 36.8668 31.0558L36.8668 31.0558C37.0015 31.3559 37.1096 31.597 37.4877 31.7464C37.4968 31.8314 37.5133 31.9061 37.5294 31.9793C37.5625 32.1295 37.5941 32.2728 37.5569 32.4841C37.6624 32.6444 37.7726 32.6449 37.9072 32.6454C38.002 32.6458 38.1089 32.6462 38.2348 32.7027C38.2621 32.8109 38.232 32.8622 38.2012 32.9145C38.1697 32.968 38.1376 33.0225 38.1656 33.1399C38.6359 33.3995 38.8158 33.946 38.9818 34.5471C39.0428 34.6224 39.15 34.6479 39.2595 34.674C39.3486 34.6951 39.4392 34.7167 39.5075 34.7657C39.4521 34.9843 39.5144 35.1073 39.568 35.2132C39.6216 35.319 39.6666 35.4079 39.5766 35.5581C39.6389 35.6538 39.7738 35.6811 39.9086 35.7084C40.0435 35.7358 40.1784 35.7631 40.2407 35.8587V36.3915C40.2772 36.4104 40.3098 36.4265 40.339 36.441C40.5644 36.5527 40.5949 36.5679 40.7663 36.979C41.0707 37.7441 40.9462 40.1623 40.7663 41.0914H13.7213C13.4244 41.0914 13.1275 41.0975 12.8313 41.1035H12.8312C11.8716 41.1232 10.9197 41.1427 10 40.9548V37.1293C13.8875 37.0262 17.9008 37.042 21.9092 37.0577H21.9095C24.277 37.0669 26.6428 37.0762 28.98 37.061C29.0021 34.2806 28.9927 31.2391 28.9834 28.2132V28.213V28.2127C28.9752 25.5739 28.9671 22.9471 28.98 20.5159C28.9725 20.4574 28.9969 20.4263 29.0211 20.3954C29.0421 20.3685 29.063 20.3418 29.063 20.2974C29.3396 20.27 29.5471 20.2974 29.7408 20.3657V20.311ZM24.2208 26.787H15.215C15.1455 26.8655 15.0831 26.9194 15.0265 26.9682C14.9256 27.0552 14.8433 27.1262 14.7724 27.2925C14.6058 27.7087 14.6336 28.4404 14.6639 29.2397C14.6764 29.5686 14.6894 29.909 14.6894 30.2436C14.6894 30.3719 14.6892 30.5002 14.689 30.6277C14.6876 31.6407 14.6864 32.603 14.7724 33.1127C15.8807 33.3127 17.1287 33.2937 18.396 33.2745C18.7738 33.2687 19.1532 33.263 19.5312 33.263C19.897 33.263 20.2656 33.2657 20.6341 33.2684C21.9241 33.2778 23.214 33.2873 24.3868 33.181C24.577 32.5237 24.5574 31.6275 24.5375 30.7174C24.5314 30.4356 24.5252 30.1525 24.5252 29.8747C24.5252 29.6666 24.5283 29.4586 24.5315 29.2537C24.5376 28.8532 24.5435 28.4648 24.5252 28.1123C24.4837 27.5658 24.3868 27.1149 24.2208 26.787Z" fill="#806840"/>
</svg>
