<svg width="109" height="27" viewBox="0 0 109 27" fill="none" xmlns="http://www.w3.org/2000/svg">
<path fill-rule="evenodd" clip-rule="evenodd" d="M26.9578 1.55786C27.0445 4.77516 27.0011 8.40005 27.0011 11.7821C27.0011 12.207 27.0965 12.8228 26.767 12.9962C26.5068 12.9268 26.5242 12.5886 26.4895 12.2938C26.4201 12.1724 26.212 12.1984 26.1166 12.103C26.1166 11.8255 26.0732 11.5913 25.735 11.6347C25.7697 11.097 25.1974 11.1491 25.2754 10.5594C25.2494 10.4553 25.0239 10.5594 24.9892 10.464V10.1344C24.8418 10.1171 24.8678 9.91764 24.7117 9.9003C24.7117 9.73553 24.6684 9.63147 24.4776 9.66616V9.38865C24.4516 9.23256 24.2261 9.29326 24.1481 9.19787C24.1307 9.05045 24.0613 8.94638 24.0613 8.77294C23.7752 8.66888 23.6624 8.39138 23.593 8.07051C23.5323 7.99247 23.3502 8.03583 23.2635 7.98379C23.2722 7.75832 23.2028 7.6109 23.1681 7.42011C23.1508 7.24668 22.8993 7.30738 22.7952 7.238C22.8212 7.06456 22.7952 6.93448 22.7519 6.81308C22.7085 6.63964 22.6131 6.78706 22.4744 6.76972C22.5871 6.3101 21.9887 6.2494 22.0061 5.73775C21.8933 5.54697 21.6505 5.48626 21.6332 5.18274C21.5985 5.04399 21.321 5.14806 21.3036 4.99196C21.2429 4.84454 21.1996 4.6711 21.2169 4.42828C21.0348 4.36758 20.87 4.27219 20.7486 4.15078C16.6294 4.25484 12.3021 4.16812 8.10489 4.20281C7.87942 4.19414 7.93145 3.89929 7.62793 3.96867V1.60989H7.77535C8.30434 1.44512 9.46639 1.5145 10.3336 1.5145C15.7709 1.5145 21.6245 1.47114 26.9578 1.55786Z" fill="black"/>
<path fill-rule="evenodd" clip-rule="evenodd" d="M29.8541 3.51783C30.1056 3.51783 30.4178 3.48314 30.5999 3.56119C30.5652 10.5161 30.6606 17.6011 30.5479 24.478H11.6343C11.2527 24.478 10.7845 24.5821 10.5156 24.3393C10.559 24.0271 10.5156 23.871 10.6544 23.7235C10.8278 23.5414 11.1834 23.5848 11.7297 23.5848H29.6547C29.7674 23.2292 29.7067 22.8303 29.7067 22.4661V8.64297C29.7067 6.95194 29.672 5.15684 29.7587 3.63924C29.7587 3.56119 29.7934 3.51783 29.8541 3.50049" fill="black"/>
<path fill-rule="evenodd" clip-rule="evenodd" d="M61.4549 3.61386C61.5156 3.67456 61.5156 3.7873 61.4983 3.89136C61.8798 3.83066 62.0099 4.05613 62.2961 3.94339C62.3741 4.0041 62.3047 4.20355 62.3915 4.27293C62.4869 4.33363 62.6603 4.31629 62.7644 4.35965C62.8424 4.44637 62.8424 4.61981 62.9031 4.73254C62.9638 4.81059 63.1719 4.74989 63.2326 4.81926C63.2847 4.87997 63.2847 4.98403 63.276 5.10544C63.302 5.21818 63.5622 5.10544 63.6055 5.20083C63.6316 5.41763 63.6489 5.6431 63.6489 5.98998C63.6662 6.09405 63.9004 5.98998 63.9264 6.0767C64.0478 6.54499 63.9871 7.20406 64.0652 7.71571C64.0738 7.77641 64.2039 7.72438 64.2039 7.8111V8.60025C64.2386 8.72165 64.1085 8.69564 64.0652 8.74767C64.0045 9.31135 64.0478 9.97042 63.8744 10.43C63.8137 10.4734 63.7009 10.4734 63.6402 10.5168C63.7616 10.9243 63.3887 11.0024 63.5015 11.2625C63.2934 11.1325 63.0332 11.4186 63.1719 11.6354C62.9985 11.6008 62.9205 11.6701 62.8424 11.7308C62.669 12.0604 62.3654 12.2512 61.9058 12.2858C61.8885 12.4333 62.0186 12.5113 61.9058 12.6154C61.4809 12.6154 61.108 12.6934 60.6484 12.6674C60.5443 12.6587 60.6224 12.8235 60.5964 12.9015C60.3102 12.8148 59.8766 12.8669 59.521 12.8495V12.6674C58.836 12.6327 57.9861 12.7715 57.8473 12.1904C57.7346 12.1644 57.6305 12.1297 57.4745 12.1471C57.4051 12.0864 57.4311 11.939 57.4311 11.8176C57.3357 11.7568 57.1623 11.7742 57.0582 11.7308C56.9975 11.6701 57.0148 11.5227 57.0148 11.4013C56.9455 11.3146 56.7026 11.4013 56.6419 11.3059C56.5812 11.0804 56.6333 10.5341 56.217 10.5168C56.139 10.1699 56.113 9.75362 56.1216 9.31135C56.1216 9.22463 56.0436 9.20729 55.9308 9.21596C55.7054 8.56556 55.8355 7.8111 55.8875 7.06531C55.9569 7.01328 55.9829 6.90921 56.1216 6.92656C56.1216 6.31952 56.0783 5.83389 56.5466 5.61709V5.24419C57.0929 5.07942 57.0322 4.29895 57.7086 4.26426C57.83 4.2209 57.778 4.02144 57.8473 3.93472C58.0208 3.86535 58.307 3.89136 58.5498 3.88269C58.6885 3.88269 58.6105 3.66589 58.6885 3.60519C59.3303 3.46644 60.553 3.50112 61.4375 3.60519M58.6885 4.91466C58.7145 5.0881 58.7579 5.13146 58.6452 5.24419H58.2723C58.2289 5.49568 57.9948 5.55638 57.8994 5.76451C57.8127 5.84256 57.882 6.08537 57.7606 6.13741C57.6306 6.17209 57.6392 6.06803 57.5265 6.08537C57.3964 7.42953 57.327 8.86908 57.5265 10.1959C57.8473 10.2393 57.856 10.5861 57.9514 10.8463C58.2809 10.8376 58.385 11.0371 58.3677 11.2625C58.8186 11.2625 59.2349 11.2972 59.3476 11.6354H60.7438C60.8739 11.5661 60.6484 11.4186 60.7871 11.3579C61.0733 11.4447 61.3768 11.1672 61.8191 11.2625C61.8625 11.1238 61.8104 10.9677 61.9579 10.8463H62.2354C62.2354 10.5688 62.3481 10.3867 62.3308 10.0918C62.4435 10.0918 62.5476 10.0918 62.6083 10.0485C62.799 9.25932 62.7904 7.62031 62.6516 6.50163C62.4782 6.2935 62.2267 6.14608 62.2874 5.70381C62.0966 5.61709 61.8365 5.63443 61.9579 5.28755C61.8191 5.22685 61.585 5.25286 61.4375 5.20083C61.4029 5.06208 61.5243 5.06208 61.4809 4.91466C60.5617 4.81926 59.5991 4.79325 58.6799 4.91466" fill="black"/>
<path fill-rule="evenodd" clip-rule="evenodd" d="M33.9127 3.57031H38.6736C38.7083 3.87383 38.8644 4.44618 38.6736 4.82775C37.5549 4.94049 36.2368 4.84509 35.0227 4.88845C35.0141 5.53018 35.0401 6.7616 35.0227 7.40333C35.942 7.50739 37.0606 7.42067 38.0579 7.44669C38.214 7.49005 38.2921 7.66349 38.3875 7.77622C38.5002 7.91497 38.665 7.93232 38.6216 8.19248C38.5002 8.91225 35.7945 8.41795 35.0748 8.56537C34.9707 9.4239 35.0661 10.4819 35.0227 11.4098H38.5262C38.717 11.6613 38.8644 12.1816 38.717 12.6239C37.1734 12.7019 35.3089 12.7019 33.774 12.6239C33.7219 9.77945 33.6439 6.4841 33.826 3.70906C33.826 3.63969 33.8607 3.58766 33.9127 3.57031Z" fill="black"/>
<path fill-rule="evenodd" clip-rule="evenodd" d="M41.1971 3.6143C41.0757 3.90048 41.2751 4.03923 41.4746 4.12595C41.544 6.32863 41.3272 8.81749 41.6133 10.8034C41.7261 10.9681 42.099 10.8727 41.9862 11.2717C42.3244 11.2196 42.4025 11.4278 42.732 11.3671C42.8448 11.4624 42.6713 11.5578 42.7754 11.6446H44.319C44.4231 11.6446 44.3363 11.4451 44.371 11.3671C44.6399 11.3671 44.8046 11.2456 45.1168 11.2717C45.2209 11.237 45.1342 11.0115 45.1689 10.8988C45.3076 10.812 45.377 10.9421 45.4984 10.8554C45.7412 8.66139 45.429 5.89503 45.6805 3.70969C46.0014 3.60563 46.3482 3.53625 46.8079 3.57094C46.99 5.83433 46.8946 8.60069 46.8512 10.9421C46.7905 11.0115 46.6518 10.9942 46.5304 10.9942C46.6257 11.341 46.2875 11.3844 46.435 11.6446C45.8453 11.6446 45.9753 12.3383 45.3163 12.2516C45.1515 12.347 45.3163 12.4944 45.2209 12.6245C44.8393 12.6245 44.5185 12.7025 44.1022 12.6765C43.9461 12.6332 44.0241 12.85 43.9114 12.8586C43.5906 12.876 43.183 12.8153 42.9228 12.9107C42.9228 12.7979 43.0095 12.7632 42.9228 12.6765C42.3765 12.7459 41.8388 12.5725 41.622 12.5811C41.5266 12.4857 41.6394 12.4424 41.622 12.3036C41.5093 12.2169 41.3098 12.2169 41.1537 12.1649C41.1277 11.87 40.9196 11.7833 40.6854 11.6966C40.6074 11.5665 40.7375 11.5058 40.6334 11.3757C40.5727 11.1763 40.4166 11.4798 40.3125 11.2803C40.3732 10.9681 40.1651 10.5952 40.2172 10.1616C40.2432 10.0056 40.0437 10.0836 40.0264 9.97086C40.1304 8.11506 40.035 6.0598 40.0697 4.13462C40.0611 3.9872 40.2085 4.07392 40.2605 3.94384C40.3039 3.84844 40.1911 3.69235 40.3125 3.6143C40.5207 3.52758 40.989 3.5536 41.1971 3.6143Z" fill="black"/>
<path fill-rule="evenodd" clip-rule="evenodd" d="M54.1797 4.41091C54.2057 4.55833 54.249 4.70576 54.2751 4.87919C54.3618 4.97459 54.4051 4.85318 54.5526 4.87919C54.4745 5.09599 54.5526 5.18271 54.6393 5.34748C54.6393 6.13663 54.7087 7.02117 54.5005 7.62821H54.2751C54.223 7.74962 54.2144 7.91439 54.223 8.0965C54.1016 8.13986 53.9715 8.16587 53.8068 8.14853C53.7027 8.16587 53.8068 8.39135 53.7201 8.42603C53.4512 8.46939 53.2084 8.5908 53.0176 8.56479V8.85096C53.0176 9.03307 53.2518 8.85096 53.2431 8.93768C53.2951 9.20651 53.4599 9.43198 53.4339 9.64011C53.4686 9.74417 53.7201 9.63144 53.7547 9.72683C53.7634 9.99566 53.8588 10.3772 54.1797 10.4726C54.249 10.6807 54.249 10.7675 54.2751 10.9409C54.3184 11.1577 54.4658 10.8629 54.5526 10.9929C54.5092 11.2271 54.6566 11.2444 54.6393 11.6433C54.6653 11.8254 54.8648 11.6 54.9688 11.7387C55.0122 12.0336 55.203 12.1897 55.203 12.5279C54.9341 12.7534 54.0496 12.7013 53.7114 12.5712C53.7114 12.259 53.7114 11.9469 53.3818 11.9642C53.3992 11.7387 53.2258 11.6867 53.2865 11.4092C53.2171 11.3225 52.9829 11.4092 52.9136 11.3138C52.9136 11.045 52.9222 10.7761 52.8702 10.568C52.7835 10.4813 52.7575 10.6114 52.584 10.568C52.5233 10.1604 52.4279 9.79621 52.0724 9.6748V9.3973C52.003 9.22386 51.7255 9.27589 51.7428 9.01573H50.1559C50.1299 10.2038 50.2166 11.5046 50.1038 12.6146C49.7483 12.736 49.2193 12.6406 48.8984 12.5712V4.12473C48.9245 4.00333 49.2106 3.89059 49.0372 3.70848C49.3927 3.50902 49.9391 3.56973 50.4767 3.56973C51.2659 3.56973 52.1244 3.50902 52.7141 3.70848C52.8702 3.66512 52.7748 3.86457 52.8529 3.89059C53.2691 3.90793 53.694 3.91661 53.7374 4.30684C53.8935 4.33286 53.9889 4.39356 54.1623 4.40224M50.1472 7.99243C50.7542 8.0965 51.5607 8.00978 52.2458 8.0358C52.3932 7.95775 52.2285 7.85368 52.3412 7.75829C52.5667 7.78431 52.584 7.59352 52.8529 7.67157C52.9569 7.6022 52.9222 7.39407 52.9916 7.29868C53.0783 7.27266 53.2691 7.35938 53.2171 7.20328C53.3298 6.82172 53.2518 5.96319 53.2691 5.52092C53.0176 5.33881 52.8529 5.05263 52.5667 5.14803C52.5493 5.0006 52.7315 5.02662 52.6187 4.91388C51.8556 4.84451 51.0144 4.87052 50.1906 4.87052C50.0778 5.81577 50.1732 6.96047 50.1385 7.99243" fill="black"/>
<path fill-rule="evenodd" clip-rule="evenodd" d="M71.3489 4.82735C71.3749 5.19157 71.4182 5.53845 71.4009 5.94603C71.4009 6.09345 71.609 6.05009 71.6264 6.18017V6.64846C71.6784 6.81323 71.4789 6.71784 71.4009 6.74385V7.6284C71.2882 7.92324 70.7852 8.02731 70.9239 8.41754C70.4903 8.4609 70.1435 8.57364 70.0394 8.92919C69.6578 9.00724 69.1028 8.92919 68.9641 9.25873C68.4437 9.37146 67.6633 9.23271 67.1429 9.34545C67.0389 10.282 67.1343 11.418 67.0996 12.4327C67.0562 12.5281 66.8394 12.4847 66.77 12.6668C66.2671 12.7188 65.9115 12.6235 65.6514 12.4327V4.22031C65.7988 4.02085 66.0416 3.92546 66.0243 3.56991C67.195 3.6046 68.5131 3.47452 69.4757 3.70866C69.6665 3.95148 70.1348 3.91679 70.4643 4.0382C70.4643 4.30703 70.6551 4.39375 70.9326 4.41109C70.9846 4.51515 70.9673 4.68859 71.028 4.77531C71.0453 4.87938 71.2535 4.80133 71.3489 4.81867M67.1429 4.87938C67.0389 5.82462 67.1343 6.978 67.0996 8.00129C67.7673 8.10535 68.6432 8.01863 69.389 8.04465C69.5191 7.97527 69.3109 7.81051 69.4323 7.76715C69.6838 7.94059 69.6491 7.49832 69.996 7.6284C70.1608 6.83057 70.0827 6.00674 70.0394 5.29563C69.8486 5.23493 69.5538 5.29563 69.6665 4.92274C68.8253 4.92274 67.9755 4.73195 67.1429 4.87938Z" fill="black"/>
<path fill-rule="evenodd" clip-rule="evenodd" d="M78.079 4.689C77.6367 4.98384 76.917 4.87978 76.2579 4.87978H74.298C74.1853 5.64292 74.2807 6.59683 74.246 7.43801C75.0958 7.44669 76.3186 7.43801 77.3245 7.43801C77.5067 7.42067 77.3419 7.73286 77.602 7.6288C77.6367 7.68083 77.7668 7.61145 77.8449 7.72419V8.46998C76.8389 8.64342 75.2866 8.52201 74.298 8.5567C74.1853 9.39788 74.2807 10.4385 74.246 11.3577C74.4368 11.4618 74.7143 11.4098 74.9918 11.4011C75.7896 11.4011 76.8216 11.4011 77.6541 11.4011C77.8275 11.4271 77.6454 11.6179 77.8449 11.6786C77.9403 11.748 78.079 11.7827 78.1224 11.9128V12.5198C77.4113 12.7539 76.466 12.6585 75.5555 12.6585C74.6449 12.6585 73.7257 12.6932 72.9452 12.6065C72.8932 9.76211 72.8151 6.13722 72.9886 3.55297C74.4108 3.59633 76.3099 3.48359 77.8015 3.59633C77.9749 3.58766 77.8622 3.84781 77.9403 3.92586C77.8969 4.10797 78.1831 3.95188 78.131 4.16001C78.105 4.32477 78.0617 4.46353 78.0877 4.67165" fill="black"/>
<path fill-rule="evenodd" clip-rule="evenodd" d="M82.3718 3.57105C82.8228 3.52769 83.135 3.61441 83.4471 3.7098C83.5425 3.99598 83.6813 4.23879 83.6379 4.68974C83.6379 4.84583 83.8981 4.7331 83.9588 4.82849C83.9241 5.14935 84.1062 5.25341 84.0455 5.58295C84.4097 5.79975 84.4444 6.36343 84.5658 6.84039C84.5485 6.94445 84.7219 6.85773 84.7913 6.88375C84.774 7.22195 84.9474 7.35203 84.8867 7.72493C84.8867 7.83766 85.0428 7.82032 85.1729 7.82032C85.1035 8.08048 85.3636 8.384 85.2596 8.85229C85.2596 9.0344 85.4937 8.85229 85.4937 8.93901C85.6498 9.3726 85.6325 9.98832 86.0487 10.1531C86.0314 10.5 86.1441 10.7081 86.1962 10.9943C86.2482 11.133 86.3696 10.9249 86.4216 11.0376C86.3609 11.3151 86.6124 11.61 86.517 12.0696C86.6211 12.191 86.7512 12.0089 86.8466 12.113C86.8292 12.3384 86.942 12.4512 86.8466 12.6246C86.4303 12.6246 85.936 12.746 85.5371 12.6246V12.1997C85.4677 12.0522 85.3376 12.1823 85.2596 12.1043C85.2596 11.8094 85.1122 11.6707 85.1729 11.3151C84.8867 11.107 84.7566 10.7341 84.7479 10.2485C84.2623 9.78019 82.684 10.1011 81.626 10.0143C81.4526 9.99699 81.4092 9.95363 81.2011 10.0143C81.1231 10.1618 81.0016 10.2832 81.0103 10.526C80.8976 10.526 80.8629 10.4479 80.7848 10.526C80.8716 11.0203 80.5941 11.3411 80.6461 11.6447C80.5854 11.61 80.516 11.584 80.412 11.6013C80.4727 12.0176 80.2819 12.1823 80.3166 12.5812C79.935 12.6333 79.5708 12.7113 79.1025 12.6766C78.8336 12.3124 79.2065 11.714 79.1458 11.4105C79.2326 11.4105 79.2499 11.4712 79.3366 11.4539C79.4407 11.2024 79.4754 10.8729 79.5274 10.5693C79.5794 10.526 79.6488 10.5086 79.7529 10.5173C79.7876 10.1271 79.883 9.8062 79.9437 9.44198C80.4293 9.44198 80.2298 8.69619 80.3599 8.46205C80.4553 8.35798 80.4987 8.47939 80.6461 8.46205C80.6114 7.92438 80.7241 7.7943 80.7848 7.33469C80.8976 7.36071 80.8889 7.25664 81.0103 7.29133C80.967 6.90976 81.1317 6.77968 81.071 6.50218C81.1664 6.4328 81.3745 6.45882 81.4352 6.36343C81.3312 6.04256 81.574 5.73905 81.5306 5.34013C81.626 5.24474 81.7735 5.20138 81.8949 5.14935C81.8949 4.84583 81.8949 4.54231 81.9816 4.35153C82.0683 4.26481 82.103 4.39489 82.2678 4.35153C82.2591 3.96129 82.3285 3.82254 82.3631 3.56238M82.6406 6.40679C82.5279 6.4328 82.5366 6.32007 82.4065 6.36343C82.4152 6.72765 82.3631 7.03984 82.3198 7.33469C82.1724 7.36071 82.1377 7.2393 82.0423 7.33469C82.1377 7.82899 81.8602 8.08048 81.9469 8.41002C81.7127 8.37533 81.6347 8.47072 81.6174 8.64416C81.8255 8.88697 82.3198 8.78291 82.736 8.78291C83.187 8.78291 83.6639 8.80893 84.0022 8.73955C83.9414 8.52275 83.8721 8.30595 83.9068 7.98509C83.5425 7.86368 83.4992 7.39539 83.4818 6.91843C83.0482 6.77101 83.0309 6.216 83.0135 5.65233H82.8314C82.8488 5.98186 82.5192 6.12061 82.6406 6.39812" fill="black"/>
<path fill-rule="evenodd" clip-rule="evenodd" d="M89.1882 3.65625C89.3096 3.96844 89.4483 4.23727 89.7085 4.41071C89.7865 4.47141 89.7085 4.71423 89.7952 4.77493C89.8126 4.96571 90.012 4.73157 90.1247 4.879C90.038 5.14783 90.1855 5.30392 90.1681 5.52939C90.1681 5.62479 90.3676 5.54674 90.4456 5.58143C90.4716 5.74619 90.5757 5.82424 90.541 6.04971C90.7665 6.21448 91.0093 6.35323 91.0006 6.75214C91.07 6.83886 91.3128 6.75214 91.3822 6.83886V7.21176C91.6077 7.3852 91.7984 7.61067 91.8071 8.00958C91.9112 8.05294 92.0326 8.08763 92.1713 8.0963C92.1453 8.69467 92.735 8.69467 92.683 9.31905C92.7263 9.44046 92.8911 9.22366 92.9605 9.36241C93.0646 9.49249 92.9085 9.59655 93.0125 9.7353C93.316 9.88273 93.316 10.3337 93.5762 10.5245C93.741 10.4117 93.6629 10.0562 93.6629 9.77866V7.35051C93.6629 6.04971 93.5675 4.59282 93.8017 3.62156C93.9838 3.52617 94.348 3.59554 94.5995 3.5782C94.6342 3.795 94.5648 4.10719 94.8683 4.14188V12.545C94.7209 12.4063 94.6342 12.6144 94.5475 12.6838C94.1486 12.6578 93.6629 12.7358 93.3421 12.6317C93.264 12.5624 93.2987 12.3629 93.2813 12.2068C93.264 12.1028 92.9952 12.2068 92.9605 12.1114C92.9605 11.8773 92.8824 11.7299 92.9085 11.461C92.8217 11.383 92.6049 11.4177 92.5356 11.3223C92.6136 10.9667 92.3708 10.932 92.1627 10.8627C92.102 10.5071 92.0933 10.1255 91.6944 10.1082C91.7117 9.93476 91.6944 9.80468 91.6423 9.69194C91.547 9.58788 91.5123 9.71796 91.3648 9.69194C91.4862 9.41444 91.2001 9.38842 91.2694 9.03287C91.2694 8.86811 90.9659 8.99819 90.8966 8.89412C90.9052 8.34779 90.3762 8.33044 90.3849 7.77544C90.2722 7.68872 90.2028 7.8188 90.0554 7.73208C90.0901 7.48926 89.986 7.39387 90.0033 7.1684C89.9687 7.02097 89.8819 7.10769 89.7779 7.11637C89.8126 6.84753 89.5524 6.87355 89.6391 6.55269C89.5524 6.47464 89.3529 6.49198 89.2662 6.41394C89.2662 6.19714 89.2749 5.96299 89.0321 5.99768C88.7806 6.13643 88.902 6.50933 88.8933 6.74347C88.876 8.5906 88.8933 10.7239 88.8933 12.6231C88.5551 12.7358 88.0608 12.6664 87.8267 12.5364V4.12453C87.7833 3.97711 87.9741 4.06383 88.0175 3.98578C88.0001 3.80367 88.0175 3.6389 88.1042 3.56085C88.5118 3.53484 88.8673 3.5782 89.1708 3.64757" fill="black"/>
<path fill-rule="evenodd" clip-rule="evenodd" d="M16.5428 6.4573C16.7336 6.41394 16.6122 6.54402 16.6295 6.64808C16.7249 7.15973 16.8116 8.47787 16.7249 9.31038C16.7075 9.47515 16.7336 9.56187 16.6729 9.68328C16.6295 9.76999 16.4994 9.76132 16.5341 9.91742C14.7303 10.0215 12.7184 9.93476 10.8366 9.96078C10.88 9.73531 10.6545 9.76132 10.5504 9.68328C10.6111 8.82475 10.4117 7.30715 10.6892 6.50933C12.623 6.46597 14.6696 6.57004 16.5254 6.4573" fill="black"/>
<path fill-rule="evenodd" clip-rule="evenodd" d="M19.8554 7.81962C19.8554 7.93236 19.6819 7.92368 19.6299 7.87165C19.6646 7.78493 19.786 7.75025 19.8554 7.81962Z" fill="black"/>
<path fill-rule="evenodd" clip-rule="evenodd" d="M20.0028 8.04608C20.0896 8.25421 20.0375 8.52304 20.4191 8.51437V8.85257C20.4625 8.93062 20.5665 8.94797 20.7053 8.93929C20.7053 9.51164 21.2256 9.57235 21.2603 10.11C21.399 10.084 21.399 10.2574 21.4944 10.3442C21.5465 10.3962 21.6765 10.4916 21.6332 10.717C21.8066 10.7431 21.7459 11.0119 22.0061 10.9512C21.9887 11.1246 22.0061 11.2547 22.0581 11.3761C22.1448 11.4628 22.2749 11.4021 22.379 11.3761C22.2402 11.6796 22.5351 11.7143 22.4744 12.0786C22.5437 12.2693 22.7172 12.0525 22.7952 12.2173C22.7952 12.3561 22.7692 12.5295 22.8386 12.5902C23.0294 12.6769 22.9947 12.9978 23.2635 13.0151V13.3447C23.2895 13.4834 23.489 13.4314 23.593 13.4834C23.593 13.6569 23.6624 13.7522 23.6884 13.9083C23.9486 14.0211 24.0093 14.3333 24.2955 14.42C24.2348 14.5414 24.3388 14.5934 24.3909 14.6975C24.5296 14.9663 24.5556 15.1831 24.8592 15.3045C24.8765 15.4693 24.9372 15.5734 24.9025 15.7728C25.0152 15.9463 25.1367 15.8248 25.3274 15.9116C25.3621 16.0503 25.2494 16.0416 25.2841 16.1891C25.5789 16.3538 25.6917 16.7007 25.7957 17.0823C25.8651 17.169 26.0299 17.1517 26.1253 17.221C26.0559 17.4985 26.2814 17.5332 26.1686 17.724C26.2467 17.8454 26.5068 17.7934 26.5849 17.9148V18.253C26.7843 18.3571 26.793 18.331 26.9144 18.6259C27.1052 19.1115 27.0271 20.6465 26.9144 21.2362H9.96069C9.17154 21.2362 8.38239 21.3055 7.62793 21.1494V18.7213C11.5043 18.6172 15.5801 18.7039 19.5259 18.6779C19.5519 15.3739 19.5085 11.4889 19.5259 8.17616C19.5172 8.10678 19.5779 8.09811 19.5779 8.03741C19.7514 8.02006 19.8814 8.03741 20.0028 8.08077" fill="black"/>
<path fill-rule="evenodd" clip-rule="evenodd" d="M10.897 12.1548H16.5425C16.6465 12.3629 16.7072 12.6491 16.7332 12.996C16.7506 13.3342 16.7332 13.7244 16.7332 14.1147C16.7332 14.8604 16.8026 15.6669 16.6465 16.2133C15.7013 16.3 14.6346 16.2653 13.6027 16.2653C12.5707 16.2653 11.5214 16.3347 10.6195 16.1699C10.5588 15.8057 10.5675 15.0772 10.5675 14.3488C10.5675 13.6203 10.4721 12.8485 10.6195 12.4756C10.6889 12.3109 10.7756 12.2935 10.897 12.1548Z" fill="black"/>
<path fill-rule="evenodd" clip-rule="evenodd" d="M38.4391 15.5203C38.4044 15.7978 38.3871 16.4482 37.9708 16.5003C37.8321 16.5523 37.8928 16.3875 37.8841 16.3095C36.8868 16.2661 35.9416 16.0753 35.0831 16.2661C34.8142 16.5176 34.502 16.7431 34.476 17.2374C34.4587 17.5756 34.5801 17.9485 34.6668 18.2693H34.9443C35.0223 18.3561 35.0223 18.5295 35.0831 18.6422C35.4299 18.6249 35.5947 18.755 35.8288 18.729C35.8635 18.8764 35.7508 18.8677 35.7768 19.0151C36.2538 18.9804 36.5833 19.1105 36.9909 19.1539C36.9909 19.2666 36.9909 19.3707 37.0342 19.4314C37.3725 19.362 37.4418 19.5528 37.6846 19.5701C37.6673 19.7176 37.7627 19.7436 37.7367 19.8997C37.9188 19.8997 38.0055 19.9951 38.205 19.9951C38.2136 20.2812 38.3437 20.446 38.6212 20.4633C38.76 21.1571 38.7773 22.0243 38.6212 22.7528C38.5605 22.8135 38.3957 22.7788 38.3437 22.8481C38.3004 23.0476 38.3264 23.0563 38.2917 23.221C37.9101 23.2644 37.9708 23.7414 37.4505 23.6373C37.3291 23.7414 37.5112 23.8714 37.3985 23.9582C36.592 23.9235 35.8202 24.305 34.7795 24.1923C34.6321 24.2096 34.6841 24.0189 34.5541 24.0102C33.9383 24.0449 33.4354 23.9668 33.0625 23.776C32.9324 23.5679 32.9671 23.1777 32.9671 22.8481C33.3053 22.7267 33.7476 22.7528 34.1378 22.7961V22.9349C34.398 22.9435 34.5367 22.9349 34.6928 23.1256C35.2478 23.1777 35.8809 23.2037 36.4185 23.1256C36.6006 22.8048 37.0342 22.7528 37.3985 22.614C37.4418 22.0503 37.4592 21.53 37.3985 20.8796C37.2424 20.6888 36.7481 20.8189 36.7914 20.4113C36.3925 20.472 36.1584 20.2032 35.8635 20.3246C35.7421 20.2119 35.9329 20.2379 35.9069 20.0905C35.2565 20.0037 34.8055 19.8823 34.5107 19.4401C34.3719 19.4054 34.3719 19.5268 34.2332 19.4834C34.1118 19.388 34.2679 19.2319 34.1898 19.1626C34.1118 19.0585 33.843 19.1626 33.7649 19.0585C33.869 18.6682 33.5828 18.6509 33.392 18.5468C33.2793 17.7577 33.2099 17.0206 33.392 16.2661C33.5655 16.2661 33.6001 16.1274 33.6175 15.9799C33.869 15.8325 34.0684 15.6504 34.2332 15.4249H34.5627C34.6668 15.2168 35.0137 15.2602 35.1177 15.052C35.7942 14.9827 36.6353 14.9827 37.3117 15.052C37.3117 15.3035 37.7107 15.1561 37.7367 15.3729C37.9708 15.4163 38.257 15.4163 38.4304 15.5203" fill="black"/>
<path fill-rule="evenodd" clip-rule="evenodd" d="M100.774 15.4683C100.904 15.8239 100.696 16.3182 100.678 16.5436C100.522 16.5003 100.288 16.5263 100.305 16.3095C99.3341 16.2575 98.3455 16.0667 97.5043 16.2661C97.3569 16.5003 96.9754 16.5176 97.0361 16.9599C96.9754 17.0033 96.8626 17.0033 96.8453 17.0986C96.8106 17.5929 97.0968 17.7404 97.0794 18.226C97.1401 18.2867 97.2789 18.2694 97.409 18.2694C97.461 18.3821 97.4436 18.5555 97.5043 18.6423C97.9119 18.6249 97.9553 18.8244 98.2935 18.781V19.0152C98.7444 18.9544 99.0913 19.1799 99.4122 19.1105C99.4989 19.1886 99.3862 19.2406 99.3601 19.336C99.6203 19.4401 99.9325 19.4834 100.201 19.5702C100.271 19.6742 100.236 19.891 100.34 19.9431C100.461 20.0211 100.583 19.8823 100.713 19.9951C100.826 20.1252 100.661 20.2206 100.765 20.368C100.843 20.4547 100.93 20.3767 101.034 20.368C101.077 20.4981 100.973 20.4894 100.99 20.6021C101.294 21.1138 101.173 22.1024 101.086 22.7528C101.025 22.8308 100.817 22.7701 100.756 22.8482C100.739 23.3598 100.479 23.62 99.9672 23.6373C99.8198 23.6373 99.9065 23.8541 99.8198 23.9148C98.9786 24.0102 98.3195 24.279 97.2962 24.1923C96.9407 23.8715 95.9954 24.1229 95.6052 23.8194C95.6659 23.594 95.3884 23.4899 95.3797 23.3078C95.3624 23.0823 95.4751 23.0216 95.5618 22.7961C95.874 22.7181 96.1775 22.7701 96.4984 22.7961C96.6458 22.9002 96.7239 22.9869 96.8713 22.9869C97.0187 22.9436 96.958 23.1083 97.0534 23.1257C97.5737 23.1864 98.3108 23.169 98.7358 23.1777C98.8138 22.9782 99.1607 23.0389 99.2041 22.7961C99.3601 22.7701 99.5423 22.7961 99.6203 22.7528C100.08 22.5273 99.8978 21.4346 99.8111 20.8449C99.5596 20.8623 99.4035 20.5414 99.2041 20.6542C99.0653 20.6281 99.2474 20.5501 99.2041 20.472C98.8832 20.3506 98.3542 20.42 98.2154 20.0038C97.8946 20.1252 97.565 19.891 97.2442 19.865C97.1835 19.813 97.1835 19.7002 97.1922 19.5788C96.9927 19.5355 96.8626 19.4141 96.5851 19.4401C96.5504 19.2927 96.6371 19.2753 96.6371 19.1539C96.403 19.1019 96.3683 19.1452 96.1689 19.1105C96.1602 18.9631 96.2036 18.7637 96.1168 18.6856C96.0561 18.5382 95.9087 18.7723 95.848 18.6423C95.848 18.2433 95.7092 17.8011 95.7092 17.3328C95.7092 16.8645 95.7699 16.2401 95.9867 15.98C96.0214 15.9366 96.1255 15.9713 96.1775 15.9366C96.2729 15.8672 96.2903 15.6678 96.3596 15.6071C96.455 15.5203 96.6718 15.5464 96.6892 15.4163C96.8973 15.451 96.9667 15.3469 97.1575 15.3642C97.2095 15.3642 97.1922 15.2862 97.2008 15.2255C97.3916 15.2082 97.565 15.1735 97.6258 15.0347C98.2675 14.948 99.0913 14.974 99.7244 15.0347C99.8805 15.2082 100.219 15.2082 100.331 15.4076C100.479 15.4076 100.678 15.3729 100.756 15.451" fill="black"/>
<path fill-rule="evenodd" clip-rule="evenodd" d="M45.8191 15.0513C45.9231 15.1987 46.0445 15.3201 46.0966 15.5196C46.244 15.6236 46.1833 15.9011 46.1486 16.0746C45.6196 16.4821 44.3188 16.1179 43.5817 16.3087C43.5036 18.7455 43.5123 21.4946 43.5817 23.9227C43.3215 23.9661 42.7318 24.1048 42.3156 23.9661C42.2462 21.5292 42.2462 18.7542 42.3156 16.3087C41.4571 16.1786 40.2777 16.3607 39.4712 16.17C39.3931 15.7884 39.4191 15.1727 39.8441 15.0513H45.8191Z" fill="black"/>
<path fill-rule="evenodd" clip-rule="evenodd" d="M50.1644 16.1701C50.1904 16.3002 50.3899 16.2568 50.4939 16.3089C50.5199 16.5777 50.572 16.8205 50.5893 17.1067C50.9796 17.2281 50.9449 17.7657 51.0056 18.234C51.3264 18.3294 51.3871 18.685 51.3871 19.1273C51.7167 19.3441 51.76 19.873 51.8034 20.3847C51.8728 20.4714 52.0809 20.4107 52.1243 20.5234C52.1936 20.957 52.0982 21.5467 52.5405 21.5988C52.4972 21.9456 52.6966 22.041 52.6446 22.3966C52.6359 22.492 52.8093 22.4139 52.8787 22.4399C52.9047 22.8128 53.0782 23.047 53.0175 23.5066C53.0695 23.6887 53.2516 23.4806 53.347 23.654V23.9315C53.0522 24.0356 52.4711 24.079 52.1329 23.9749C52.0462 23.8014 52.1589 23.4286 51.8121 23.5066C51.8468 23.2118 51.5693 22.9776 51.7167 22.7261C51.3958 22.5353 51.2657 22.1451 51.2917 21.5988C50.2771 21.3993 48.907 21.5554 47.7449 21.512C47.6235 21.5641 47.6062 21.7202 47.6062 21.8763C47.5021 21.9196 47.372 21.9196 47.2853 21.9717C47.2853 22.5353 47.1726 22.9863 46.8604 23.2378C47.0078 23.5413 46.7043 23.654 46.817 23.9315C46.5655 23.9749 45.9672 24.1136 45.5596 23.9749C45.5596 23.5239 45.6463 23.4112 45.6983 23.0383C45.785 23.0036 45.8718 22.9603 45.9845 22.9516C45.9585 22.6047 46.0539 22.3706 46.0712 22.0671C46.2186 22.1017 46.21 21.989 46.3574 22.015C46.3834 21.5728 46.5135 21.2432 46.5915 20.853C46.7216 20.8877 46.7129 20.7836 46.8257 20.8009C46.7823 20.5061 46.7823 19.9511 47.1986 19.8644C47.1726 19.5262 47.1726 18.8584 47.5715 18.789C47.6062 18.5115 47.6669 18.2687 47.6669 17.9565C47.7796 17.8872 47.849 17.8438 47.9964 17.9045C48.1438 17.4796 47.9791 16.7338 48.4647 16.6471C48.4213 16.2568 48.5861 16.1788 48.508 15.8492H48.7942C48.8723 15.3376 49.0544 14.9907 49.54 15.0601C49.6614 15.0774 49.5834 15.1642 49.7221 15.2509C49.8349 15.3116 49.9129 15.2509 49.9649 15.2942C50.1644 15.5024 50.1991 15.8839 50.1991 16.1875M49.4446 17.0286C49.3319 17.2975 49.4099 17.6877 49.0284 17.7744C49.011 18.0953 48.9416 18.3728 48.8896 18.6676C48.7509 18.659 48.7422 18.7717 48.6121 18.7544C48.6381 19.24 48.43 19.4741 48.4213 19.9251C48.2739 19.9511 48.2826 19.8384 48.1958 19.9251C48.2219 20.0725 48.1612 20.1419 48.1438 20.2459C48.8549 20.3587 49.7742 20.272 50.572 20.3066C50.5373 19.8904 50.4592 19.5175 50.3812 19.1359C50.2598 19.1359 50.1124 19.1533 50.1037 19.0405C50.1297 18.7457 50.0256 18.5896 50.0603 18.2861C49.6007 18.1994 49.7048 17.5576 49.6874 17.0286H49.4533H49.4446Z" fill="black"/>
<path fill-rule="evenodd" clip-rule="evenodd" d="M55.7657 15.1897C55.7657 15.7013 56.3207 15.6667 56.2774 16.2217C56.2774 16.3084 56.4161 16.2217 56.4682 16.2737C56.5722 16.3604 56.3988 16.3257 56.4682 16.4558C56.5289 16.5685 56.8411 16.69 56.7023 16.9675C56.8064 17.0282 56.9711 17.0368 57.0752 17.1062C57.1359 17.2883 57.0752 17.323 57.1186 17.5311C57.2053 17.6179 57.292 17.5485 57.3961 17.5311C57.2833 17.7826 57.5695 17.93 57.5348 18.2336C57.6042 18.3723 57.7516 18.1468 57.821 18.2769C57.795 18.4937 57.9251 18.5458 57.9077 18.7452C58.1592 18.7626 58.0465 19.1354 58.3326 19.1181V19.4043C58.3847 19.5777 58.5668 19.491 58.6535 19.543C58.5321 20.2281 59.2345 20.0807 59.1218 20.7658C59.1998 20.8525 59.2952 20.7745 59.3906 20.7658C59.3906 21.2427 59.6334 21.4595 59.9109 21.6503C59.8849 21.8931 59.9283 22.0666 60.1884 22.0232C60.3359 21.9018 60.2405 21.7631 60.2318 21.607C60.2318 20.7571 60.2318 19.7165 60.2318 18.6672C60.2318 17.3403 60.1191 15.9615 60.4139 15.0683H60.9256C61.099 15.2244 61.099 15.5539 61.2985 15.6753V23.8443C61.0817 24.1218 60.3098 24.0525 59.9023 23.9831C59.7895 23.879 59.8589 23.8617 59.8502 23.6622C59.7375 23.5495 59.5727 23.6102 59.4773 23.5755C59.538 23.246 59.3212 23.1939 59.3819 22.8731C59.2952 22.7517 59.1651 22.9511 59.0611 22.821C59.0524 22.6649 58.983 22.5522 59.0177 22.3528C58.957 22.214 58.853 22.4048 58.7316 22.3528C58.8356 22.0752 58.6101 22.0839 58.5928 21.7024C58.5408 21.5549 58.402 21.6763 58.2633 21.5636C58.2719 21.3641 58.1939 21.2601 58.1765 21.0953C57.899 20.9913 57.7516 20.6964 57.7516 20.4449C57.7343 20.3409 57.5261 20.4276 57.4221 20.4016V19.9766C57.4221 19.8639 57.2486 19.9073 57.1879 19.8466C57.2573 19.4997 56.9104 19.5604 57.0058 19.1875C56.9191 19.1008 56.7196 19.1268 56.6329 19.0487C56.6936 18.4243 56.1039 18.4504 56.1126 17.878C56.0519 17.7306 55.9132 17.9647 55.8351 17.826C55.7744 17.7046 55.8958 17.4791 55.7484 17.3577C55.6357 17.3577 55.5229 17.3577 55.4709 17.4097C55.5489 18.1642 55.5142 19.7078 55.5142 20.9132C55.5142 22.0232 55.5923 23.1246 55.4189 24.0438C55.1414 24.0004 54.8812 24.1045 54.6731 24.0438C54.4996 24.0004 54.4563 23.8096 54.3002 23.8096V15.736C54.2395 15.5626 54.4996 15.684 54.5256 15.5973C54.5256 15.3805 54.595 15.2244 54.6731 15.0856C55.176 14.9902 55.3321 15.2417 55.7397 15.2244" fill="black"/>
<path fill-rule="evenodd" clip-rule="evenodd" d="M68.4625 15.4679C68.4625 15.5806 68.4625 15.6934 68.4104 15.7541C68.6446 15.7801 68.8267 15.8581 69.0608 15.8928C69.0175 16.127 69.2776 16.3177 69.6245 16.3091C69.5898 16.708 69.9801 16.9074 70.1362 17.2023C70.1709 17.2717 70.1015 17.4017 70.1362 17.4798C70.1535 17.5232 70.2229 17.5405 70.2749 17.6185C70.3616 17.7746 70.3183 17.9654 70.5091 18.0348C70.5958 19.0234 70.5958 20.038 70.5091 21.018C70.5091 21.1307 70.4223 21.1047 70.3616 21.2001C70.3356 21.2608 70.3616 21.3215 70.3183 21.3909C70.2749 21.4602 70.1622 21.5123 70.1362 21.5816C70.0928 21.677 70.1622 21.8158 70.1362 21.9112C70.0928 22.0586 69.8934 22.154 70.0408 22.2841C69.9107 22.3274 69.928 22.2147 69.8066 22.2407C69.7026 22.4488 69.7633 22.5269 69.7199 22.7524C69.6592 22.8131 69.5118 22.7957 69.3904 22.7957C69.243 23.0125 69.1649 23.2814 68.7833 23.2727C68.6966 23.3507 68.7747 23.4461 68.7833 23.5502C68.5752 23.4548 68.4451 23.6889 68.0376 23.6369C67.9595 23.6803 67.9595 23.8017 67.8988 23.871C66.6761 24.1225 65.0284 23.9664 63.5975 24.0098C63.4327 23.3767 63.5108 22.6743 63.5108 21.9545V19.8559C63.5108 18.425 63.3547 16.9161 63.5108 15.65C63.5281 15.4939 63.5802 15.3465 63.6495 15.1817C63.6409 15.1037 63.7016 15.1037 63.7016 15.043H66.9189C67.3004 15.3205 67.8121 15.4592 68.4625 15.4592M67.4825 16.3438C66.8668 16.1183 65.7221 16.3264 64.9156 16.257C64.8376 18.4337 64.8376 20.9399 64.9156 23.1166C65.514 23.1166 66.1557 23.1426 66.6847 23.0732C67.0143 22.8044 67.4739 22.6743 67.9855 22.6049C67.9595 22.3448 68.0896 22.232 68.3671 22.2754C68.3671 21.9979 68.5058 21.8505 68.7833 21.8505C68.7053 21.573 68.792 21.1394 69.1129 21.1047C69.1909 20.1074 69.1649 18.98 69.1129 17.9741C69.0869 17.818 68.792 17.9134 68.7833 17.74C68.9221 17.1589 68.3237 17.3324 68.4104 16.8034C68.0202 16.8034 67.8468 16.4825 67.4739 16.3351" fill="black"/>
<path fill-rule="evenodd" clip-rule="evenodd" d="M75.2347 15.1899C75.1914 15.3633 75.2868 15.4153 75.4169 15.424C75.4689 15.6582 75.3648 15.9443 75.7464 15.9357C75.7724 16.2999 75.9198 16.5427 75.8851 16.959C75.9285 17.037 76.0326 17.063 76.1627 17.0543C76.2147 17.2885 76.2841 17.5313 76.258 17.8435C76.4922 17.9129 76.4575 18.2598 76.6743 18.3551C76.6483 18.6066 76.7523 18.7194 76.7263 18.9622C76.7697 19.0836 76.8738 19.127 77.0559 19.1096C77.0212 19.4652 77.2033 19.6039 77.1513 19.9941C77.1339 20.0635 77.3247 20.1502 77.3334 20.0375C77.4374 20.3584 77.5502 20.6619 77.5242 21.1128C77.5588 21.1735 77.6369 21.2169 77.7583 21.1996C77.7843 21.4771 77.9317 21.6158 77.897 21.954C78.1659 22.2489 78.3653 22.6218 78.3653 23.1681C78.4087 23.2635 78.4867 23.3329 78.6428 23.3068C78.5908 23.619 78.877 23.6971 78.7382 23.9572C78.4087 24.0266 77.8017 24.0353 77.4721 23.9572C77.3767 23.7925 77.4461 23.4543 77.4288 23.2115C77.3334 23.0987 77.2033 23.2808 77.1079 23.1681C77.1166 22.8386 77.0472 22.6044 77.0125 22.3269C76.9518 22.2575 76.8564 22.2402 76.7263 22.2402C76.683 22.0321 76.6136 21.8586 76.6396 21.5811C76.1453 21.4164 75.4776 21.4944 74.8705 21.4944H73.0494C73.0321 21.7979 72.8413 22.0234 72.902 22.2836C72.8413 22.2228 72.6852 22.2228 72.6245 22.2836C72.6765 22.6478 72.5291 22.8125 72.5291 23.1247C72.4684 23.1941 72.3123 23.1594 72.2516 23.2201C72.2776 23.5323 72.1389 23.7231 72.1562 23.9139C71.8874 24.0526 71.2803 24.0353 70.9421 23.9572C70.8988 23.567 71.1242 23.4629 71.0375 23.2635C71.1242 23.2548 71.1329 23.3155 71.2196 23.3068C71.4278 22.9253 71.2196 22.1448 71.6879 22.0494C71.6446 21.6765 71.792 21.4944 71.8267 21.1996C71.9394 21.1822 72.0174 21.1475 72.1042 21.1128C72.0261 20.9221 72.1909 20.7139 72.1475 20.4104C72.399 20.4104 72.2863 20.0549 72.5204 20.0375C72.425 19.5952 72.7285 19.4478 72.6158 19.1096C72.7546 19.0749 72.7806 19.153 72.8933 19.153C72.8846 18.6587 72.98 18.2944 73.0841 17.9389C73.1968 17.9476 73.2749 17.9389 73.3182 17.8869C73.2489 17.54 73.4483 17.4012 73.3616 17.1411C73.8212 17.1671 73.6998 16.6034 73.7865 16.2565C73.9513 16.3172 74.012 16.0224 73.9166 15.9704C73.9773 15.8229 74.0207 15.953 74.1508 15.8836C74.0814 15.5194 74.2982 15.4674 74.2895 15.1812H74.6624C74.7751 14.7563 75.0353 15.3633 75.2261 15.1812M74.567 17.8435C74.5063 17.9129 74.3068 17.8522 74.2375 17.9389C74.3589 18.2944 74.1421 18.6326 74.1421 19.0142C74.038 18.9969 73.9686 19.0229 73.9079 19.0576C73.8819 19.3611 73.7518 19.5606 73.7779 19.9074C73.6218 19.9595 73.5177 20.0549 73.5437 20.2803H75.9632C75.9025 19.9161 75.677 19.5606 75.7898 19.1616C75.2521 19.0576 75.3822 18.2771 75.2261 17.8088C75.1567 17.7828 74.9919 17.8695 74.9919 17.7568C75.044 17.514 74.8619 17.2798 74.8532 16.9676H74.6624C74.593 17.2885 74.6277 17.566 74.567 17.8608" fill="black"/>
<path fill-rule="evenodd" clip-rule="evenodd" d="M85.1809 15.8937C85.0595 16.1799 85.363 16.2059 85.2676 16.5874C85.2416 16.7349 85.4844 16.6221 85.5018 16.7262C85.7273 17.2552 85.6319 18.0357 85.5451 18.6427C85.4758 18.7294 85.363 18.5733 85.2676 18.6861C85.3457 19.0936 85.0508 19.1023 85.1809 19.4318C84.6172 19.2844 84.6433 20.1083 84.0102 20.0389C83.9929 20.2644 84.0883 20.3684 84.0536 20.6026C84.1056 20.75 84.3484 20.6893 84.4265 20.7934C84.4438 21.0709 84.4265 21.3917 84.756 21.357C84.756 21.6085 84.9555 21.6605 84.8947 21.9641C84.9815 22.0768 85.1202 21.886 85.2243 22.0074C85.1549 22.2849 85.311 22.3283 85.2763 22.6665C85.3457 22.8486 85.4844 22.6665 85.6058 22.7532C85.5972 22.97 85.6926 23.0741 85.6926 23.2735C85.7012 23.3342 85.8053 23.3082 85.8747 23.3169C85.7012 23.6378 86.2562 23.499 86.1088 23.9239C85.84 24.1147 85.259 23.9846 84.8514 24.0193C84.8167 23.7505 84.756 23.525 84.4265 23.551C84.3918 23.1868 84.3831 22.7879 84.0102 22.7532C84.0449 22.1549 83.5072 22.1288 83.4899 21.5825C83.2297 21.4437 83.0996 21.1923 83.0736 20.8367C83.0043 20.7153 82.8308 20.7066 82.7007 20.6459C82.6834 20.5419 82.7788 20.5419 82.7441 20.4118H81.1571C81.1571 20.8974 81.1571 21.5825 81.1571 22.2329C81.1571 22.8833 81.2525 23.5684 81.0097 24.002C80.6021 23.976 80.0645 24.08 79.8477 23.8632C79.9517 21.1229 79.865 18.1831 79.891 15.3647C79.9777 15.2433 80.0991 15.1566 80.1685 15.0352H82.9782C83.169 15.2433 83.4032 15.1219 83.5766 15.3647C84.0102 15.3473 84.3397 15.4341 84.5999 15.5988C84.808 15.6942 84.8514 16.0151 85.1636 15.8763M83.8975 16.6655C83.646 16.6481 83.5506 16.492 83.4292 16.336C82.8135 16.2406 81.7381 16.1538 81.1398 16.336C81.1398 17.3246 81.1398 18.5386 81.1398 19.3711H83.0996C83.195 19.0676 83.4639 18.9636 83.8975 18.9983C83.8975 18.8682 83.8801 18.7294 83.9408 18.6687C83.9755 18.5647 84.2617 18.7121 84.2183 18.53C84.3137 18.1657 84.2444 17.6281 84.2617 17.1771C84.1143 17.0297 83.9148 16.943 83.8975 16.6655Z" fill="black"/>
<path fill-rule="evenodd" clip-rule="evenodd" d="M92.5012 15.5199C92.5879 15.5893 92.4405 15.702 92.5532 15.7974H92.9261C93.0648 16.0489 93.4117 16.0923 93.4377 16.4478C93.5765 16.5172 93.6459 16.6473 93.802 16.682C93.828 16.8988 93.802 16.9508 93.9494 17.0982C93.932 17.2023 94.1141 17.1242 94.1662 17.1503C94.0448 17.4104 94.409 17.5578 94.2269 17.8527C94.2529 17.9741 94.4437 17.9394 94.5044 18.0348C94.6778 19.0234 94.6605 20.0814 94.5044 21.07C94.409 21.1047 94.2963 21.1394 94.2269 21.2087C94.3656 21.4862 94.1141 21.677 94.2269 21.9545C94.0968 21.9545 93.9581 21.9372 93.8973 21.9979C93.9581 22.6136 93.2643 22.6917 93.2816 23.1253C92.8133 23.0732 92.7873 23.7843 92.0676 23.6369C91.6687 24.1312 90.5586 24.0098 89.4573 24.0098C88.4167 24.0098 87.7576 24.1225 87.3066 23.7757V15.65C87.5061 15.5806 87.6795 15.4939 87.6275 15.1817C87.7489 15.1991 87.8703 15.1991 87.8183 15.043H90.7061C90.9142 15.1644 90.9315 15.2424 91.2611 15.1817V15.3638C91.7467 15.3378 92.0676 15.4679 92.4751 15.5113M92.5705 17.4191C92.6226 17.1589 92.3798 17.0982 92.3364 16.8121C92.0589 16.6993 91.686 16.656 91.5906 16.3438C91.4518 16.4305 91.3478 16.2744 91.1657 16.257C90.4979 16.1617 89.4399 16.2831 88.7895 16.3004C88.7549 16.3091 88.7375 16.3438 88.7462 16.3958V23.0212C89.2578 23.1339 89.8649 23.2033 90.3765 23.1166C90.9402 23.0212 91.4085 22.5442 91.9201 22.6049C91.9895 22.3881 92.0849 22.206 92.4318 22.2754C92.4318 21.9719 92.7266 21.8591 92.6659 21.625C92.744 21.6684 92.796 21.7724 92.9001 21.677C92.9001 21.3128 92.9001 20.9573 92.9955 20.6971C93.1082 20.6451 93.2296 20.8532 93.2209 20.6537C93.2643 20.0901 93.1602 19.0841 93.2643 18.4597C92.8654 18.425 92.8827 17.9741 92.9001 17.5232C92.7787 17.5145 92.5792 17.5665 92.5705 17.4278" fill="black"/>
<path fill-rule="evenodd" clip-rule="evenodd" d="M100.904 15.5728H101.043C101.069 15.6768 101.043 15.7462 101 15.8069C100.904 15.7982 100.904 15.6855 100.904 15.5728Z" fill="black"/>
</svg>
