<svg width="164" height="39" viewBox="0 0 164 39" fill="none" xmlns="http://www.w3.org/2000/svg">
<path fill-rule="evenodd" clip-rule="evenodd" d="M6.03032 21.3437C8.30905 15.3308 9.82265 1.0597 17.8564 0.0617211C21.4408 -0.395687 24.7757 1.73334 25.7405 4.9851C28.2853 6.41554 30.6888 8.93544 29.6825 13.2683C34.872 17.4183 29.6409 26.9157 22.7881 22.9155C22.7133 24.3459 22.9711 26.134 22.5802 27.2567C20.9834 27.8805 17.0913 27.8805 15.4945 27.2567C15.0621 26.1174 15.4114 24.1879 15.2949 22.7325C14.0059 22.6161 12.3841 23.3979 11.5525 22.5329C10.6876 19.8717 15.2533 20.1378 17.2659 20.3623C17.9978 21.3437 17.5321 23.5143 17.6651 25.0944C18.1974 25.5518 19.5696 25.161 20.4262 25.294C20.5177 23.6806 20.2266 21.6763 20.6258 20.3707C22.6883 19.514 24.4348 21.5932 26.5388 21.352C30.5141 20.9195 30.1066 15.0897 26.5388 14.258C28.3934 11.8545 27.4703 7.08918 23.7778 7.35531C23.6447 6.63177 23.5699 5.86665 23.3786 5.19301C22.0147 1.92462 17.3741 1.74166 15.1036 4.20335C12.1097 7.47174 10.33 14.6073 8.99932 19.9631C8.52528 21.8593 8.22588 23.9634 7.02831 25.0944C4.14247 23.7056 2.56234 21.0193 0.325195 18.9818C1.78059 15.2394 4.38365 20.4621 6.03864 21.352L6.03032 21.3437Z" fill="white"/>
<path fill-rule="evenodd" clip-rule="evenodd" d="M6.03008 38.0931C5.8887 37.2198 6.68709 37.2947 7.41063 37.2947C7.61022 35.5981 7.81814 33.0533 7.41063 31.3817C7.49379 30.6498 6.17978 31.2985 6.03008 30.7912C7.46053 29.4689 11.3111 30.5583 13.7145 30.2007C13.9973 30.7912 14.7791 31.6561 14.305 32.363C12.9494 31.6644 11.5938 30.4419 9.38164 31.1821V33.9431C10.9867 34.2425 11.494 33.4275 11.9431 32.5626C12.9411 32.6042 12.7082 35.5732 12.1427 35.9142C11.4774 35.9142 11.7435 35.0077 11.3527 34.7332H9.38164V37.0951C9.64777 37.5525 10.862 37.0535 10.9535 37.6856C10.0719 38.5838 7.55201 37.827 6.03008 38.0848V38.0931Z" fill="white"/>
<path fill-rule="evenodd" clip-rule="evenodd" d="M15.486 35.523C16.5921 35.3484 16.6337 36.9202 17.6566 37.2945C18.5964 37.6438 19.9769 37.5107 20.609 36.5127C20.268 33.7932 15.7937 34.6581 15.6856 32.1798C15.5941 30.0425 19.3449 29.793 21.7899 30.5997C21.923 31.0488 22.3056 32.238 21.5903 32.3711C20.8585 31.8555 19.0205 29.7847 17.6483 31.7806C18.5049 33.9096 22.4885 33.4772 22.5717 35.9139C22.6548 38.2924 18.9041 38.3423 15.8769 37.8849C15.7438 37.0367 15.1534 36.2549 15.486 35.5147V35.523Z" fill="white"/>
<path fill-rule="evenodd" clip-rule="evenodd" d="M31.2541 30.4083C31.2042 31.0736 31.4121 31.9968 31.0628 32.371C30.2311 32.2795 30.4307 31.1568 29.6823 30.9905C24.2516 29.8178 23.9189 36.5293 27.7112 37.2944C29.0918 37.5772 30.0565 36.7289 31.4537 37.0948C29.466 38.9161 24.8337 38.1593 23.7775 36.3047C21.5071 32.3544 26.4721 28.9945 31.2624 30.4L31.2541 30.4083Z" fill="white"/>
<g clip-path="url(#clip0_703_6208)">
<path fill-rule="evenodd" clip-rule="evenodd" d="M78.0742 5.87458C78.1742 9.58458 78.1242 13.7646 78.1242 17.6646C78.1242 18.1546 78.2342 18.8646 77.8542 19.0646C77.5542 18.9846 77.5742 18.5946 77.5342 18.2546C77.4542 18.1146 77.2142 18.1446 77.1042 18.0346C77.1042 17.7146 77.0542 17.4446 76.6642 17.4946C76.7042 16.8746 76.0442 16.9346 76.1342 16.2546C76.1042 16.1346 75.8442 16.2546 75.8042 16.1446V15.7646C75.6342 15.7446 75.6642 15.5146 75.4842 15.4946C75.4842 15.3046 75.4342 15.1846 75.2142 15.2246V14.9046C75.1842 14.7246 74.9242 14.7946 74.8342 14.6846C74.8142 14.5146 74.7342 14.3946 74.7342 14.1946C74.4042 14.0746 74.2742 13.7546 74.1942 13.3846C74.1242 13.2946 73.9142 13.3446 73.8142 13.2846C73.8242 13.0246 73.7442 12.8546 73.7042 12.6346C73.6842 12.4346 73.3942 12.5046 73.2742 12.4246C73.3042 12.2246 73.2742 12.0746 73.2242 11.9346C73.1742 11.7346 73.0642 11.9046 72.9042 11.8846C73.0342 11.3546 72.3442 11.2846 72.3642 10.6946C72.2342 10.4746 71.9542 10.4046 71.9342 10.0546C71.8942 9.89458 71.5742 10.0146 71.5542 9.83458C71.4842 9.66458 71.4342 9.46458 71.4542 9.18458C71.2442 9.11458 71.0542 9.00458 70.9142 8.86458C66.1642 8.98458 61.1742 8.88458 56.3342 8.92458C56.0742 8.91458 56.1342 8.57458 55.7842 8.65458V5.93458H55.9542C56.5642 5.74458 57.9042 5.82458 58.9042 5.82458C65.1742 5.82458 71.9242 5.77458 78.0742 5.87458Z" fill="white"/>
<path fill-rule="evenodd" clip-rule="evenodd" d="M81.4143 8.1345C81.7043 8.1345 82.0643 8.0945 82.2743 8.1845C82.2343 16.2045 82.3443 24.3745 82.2143 32.3045H60.4043C59.9643 32.3045 59.4243 32.4245 59.1143 32.1445C59.1643 31.7845 59.1143 31.6045 59.2743 31.4345C59.4743 31.2245 59.8843 31.2745 60.5143 31.2745H81.1843C81.3143 30.8645 81.2443 30.4045 81.2443 29.9845V14.0445C81.2443 12.0945 81.2043 10.0245 81.3043 8.2745C81.3043 8.1845 81.3443 8.1345 81.4143 8.1145" fill="white"/>
<path fill-rule="evenodd" clip-rule="evenodd" d="M117.854 8.24468C117.924 8.31468 117.924 8.44468 117.904 8.56468C118.344 8.49468 118.494 8.75468 118.824 8.62468C118.914 8.69468 118.834 8.92468 118.934 9.00468C119.044 9.07468 119.244 9.05468 119.364 9.10468C119.454 9.20468 119.454 9.40468 119.524 9.53468C119.594 9.62468 119.834 9.55468 119.904 9.63468C119.964 9.70468 119.964 9.82468 119.954 9.96468C119.984 10.0947 120.284 9.96468 120.334 10.0747C120.364 10.3247 120.384 10.5847 120.384 10.9847C120.404 11.1047 120.674 10.9847 120.704 11.0847C120.844 11.6247 120.774 12.3847 120.864 12.9747C120.874 13.0447 121.024 12.9847 121.024 13.0847V13.9947C121.064 14.1347 120.914 14.1047 120.864 14.1647C120.794 14.8147 120.844 15.5747 120.644 16.1047C120.574 16.1547 120.444 16.1547 120.374 16.2047C120.514 16.6747 120.084 16.7647 120.214 17.0647C119.974 16.9147 119.674 17.2447 119.834 17.4947C119.634 17.4547 119.544 17.5347 119.454 17.6047C119.254 17.9847 118.904 18.2047 118.374 18.2447C118.354 18.4147 118.504 18.5047 118.374 18.6247C117.884 18.6247 117.454 18.7147 116.924 18.6847C116.804 18.6747 116.894 18.8647 116.864 18.9547C116.534 18.8547 116.034 18.9147 115.624 18.8947V18.6847C114.834 18.6447 113.854 18.8047 113.694 18.1347C113.564 18.1047 113.444 18.0647 113.264 18.0847C113.184 18.0147 113.214 17.8447 113.214 17.7047C113.104 17.6347 112.904 17.6547 112.784 17.6047C112.714 17.5347 112.734 17.3647 112.734 17.2247C112.654 17.1247 112.374 17.2247 112.304 17.1147C112.234 16.8547 112.294 16.2247 111.814 16.2047C111.724 15.8047 111.694 15.3247 111.704 14.8147C111.704 14.7147 111.614 14.6947 111.484 14.7047C111.224 13.9547 111.374 13.0847 111.434 12.2247C111.514 12.1647 111.544 12.0447 111.704 12.0647C111.704 11.3647 111.654 10.8047 112.194 10.5547V10.1247C112.824 9.93468 112.754 9.03468 113.534 8.99468C113.674 8.94468 113.614 8.71468 113.694 8.61468C113.894 8.53468 114.224 8.56468 114.504 8.55468C114.664 8.55468 114.574 8.30468 114.664 8.23468C115.404 8.07468 116.814 8.11468 117.834 8.23468M114.664 9.74468C114.694 9.94468 114.744 9.99468 114.614 10.1247H114.184C114.134 10.4147 113.864 10.4847 113.754 10.7247C113.654 10.8147 113.734 11.0947 113.594 11.1547C113.444 11.1947 113.454 11.0747 113.324 11.0947C113.174 12.6447 113.094 14.3047 113.324 15.8347C113.694 15.8847 113.704 16.2847 113.814 16.5847C114.194 16.5747 114.314 16.8047 114.294 17.0647C114.814 17.0647 115.294 17.1047 115.424 17.4947H117.034C117.184 17.4147 116.924 17.2447 117.084 17.1747C117.414 17.2747 117.764 16.9547 118.274 17.0647C118.324 16.9047 118.264 16.7247 118.434 16.5847H118.754C118.754 16.2647 118.884 16.0547 118.864 15.7147C118.994 15.7147 119.114 15.7147 119.184 15.6647C119.404 14.7547 119.394 12.8647 119.234 11.5747C119.034 11.3347 118.744 11.1647 118.814 10.6547C118.594 10.5547 118.294 10.5747 118.434 10.1747C118.274 10.1047 118.004 10.1347 117.834 10.0747C117.794 9.91468 117.934 9.91468 117.884 9.74468C116.824 9.63468 115.714 9.60468 114.654 9.74468" fill="white"/>
<path fill-rule="evenodd" clip-rule="evenodd" d="M86.0939 8.19458H91.5839C91.6239 8.54458 91.8039 9.20458 91.5839 9.64458C90.2939 9.77458 88.7739 9.66458 87.3739 9.71458C87.3639 10.4546 87.3939 11.8746 87.3739 12.6146C88.4339 12.7346 89.7239 12.6346 90.8739 12.6646C91.0539 12.7146 91.1439 12.9146 91.2539 13.0446C91.3839 13.2046 91.5739 13.2246 91.5239 13.5246C91.3839 14.3546 88.2639 13.7846 87.4339 13.9546C87.3139 14.9446 87.4239 16.1646 87.3739 17.2346H91.4139C91.6339 17.5246 91.8039 18.1246 91.6339 18.6346C89.8539 18.7246 87.7039 18.7246 85.9339 18.6346C85.8739 15.3546 85.7839 11.5546 85.9939 8.35458C85.9939 8.27458 86.0339 8.21458 86.0939 8.19458Z" fill="white"/>
<path fill-rule="evenodd" clip-rule="evenodd" d="M94.4945 8.24515C94.3545 8.57515 94.5845 8.73515 94.8145 8.83515C94.8945 11.3751 94.6445 14.2451 94.9745 16.5351C95.1045 16.7251 95.5345 16.6151 95.4045 17.0751C95.7945 17.0151 95.8845 17.2551 96.2645 17.1851C96.3945 17.2951 96.1945 17.4051 96.3145 17.5051H98.0945C98.2145 17.5051 98.1145 17.2751 98.1545 17.1851C98.4645 17.1851 98.6545 17.0451 99.0145 17.0751C99.1345 17.0351 99.0345 16.7751 99.0745 16.6451C99.2345 16.5451 99.3145 16.6951 99.4545 16.5951C99.7345 14.0651 99.3745 10.8751 99.6645 8.35515C100.035 8.23515 100.435 8.15515 100.965 8.19515C101.175 10.8051 101.065 13.9951 101.015 16.6951C100.945 16.7751 100.785 16.7551 100.645 16.7551C100.755 17.1551 100.365 17.2051 100.535 17.5051C99.8545 17.5051 100.005 18.3051 99.2445 18.2051C99.0545 18.3151 99.2445 18.4851 99.1345 18.6351C98.6945 18.6351 98.3245 18.7251 97.8445 18.6951C97.6645 18.6451 97.7545 18.8951 97.6245 18.9051C97.2545 18.9251 96.7845 18.8551 96.4845 18.9651C96.4845 18.8351 96.5845 18.7951 96.4845 18.6951C95.8545 18.7751 95.2345 18.5751 94.9845 18.5851C94.8745 18.4751 95.0045 18.4251 94.9845 18.2651C94.8545 18.1651 94.6245 18.1651 94.4445 18.1051C94.4145 17.7651 94.1745 17.6651 93.9045 17.5651C93.8145 17.4151 93.9645 17.3451 93.8445 17.1951C93.7745 16.9651 93.5945 17.3151 93.4745 17.0851C93.5445 16.7251 93.3045 16.2951 93.3645 15.7951C93.3945 15.6151 93.1645 15.7051 93.1445 15.5751C93.2645 13.4351 93.1545 11.0651 93.1945 8.84515C93.1845 8.67515 93.3545 8.77515 93.4145 8.62515C93.4645 8.51515 93.3345 8.33515 93.4745 8.24515C93.7145 8.14515 94.2545 8.17515 94.4945 8.24515Z" fill="white"/>
<path fill-rule="evenodd" clip-rule="evenodd" d="M109.464 9.16484C109.494 9.33484 109.544 9.50484 109.574 9.70484C109.674 9.81484 109.724 9.67484 109.894 9.70484C109.804 9.95484 109.894 10.0548 109.994 10.2448C109.994 11.1548 110.074 12.1748 109.834 12.8748H109.574C109.514 13.0148 109.504 13.2048 109.514 13.4148C109.374 13.4648 109.224 13.4948 109.034 13.4748C108.914 13.4948 109.034 13.7548 108.934 13.7948C108.624 13.8448 108.344 13.9848 108.124 13.9548V14.2848C108.124 14.4948 108.394 14.2848 108.384 14.3848C108.444 14.6948 108.634 14.9548 108.604 15.1948C108.644 15.3148 108.934 15.1848 108.974 15.2948C108.984 15.6048 109.094 16.0448 109.464 16.1548C109.544 16.3948 109.544 16.4948 109.574 16.6948C109.624 16.9448 109.794 16.6048 109.894 16.7548C109.844 17.0248 110.014 17.0448 109.994 17.5048C110.024 17.7148 110.254 17.4548 110.374 17.6148C110.424 17.9548 110.644 18.1348 110.644 18.5248C110.334 18.7848 109.314 18.7248 108.924 18.5748C108.924 18.2148 108.924 17.8548 108.544 17.8748C108.564 17.6148 108.364 17.5548 108.434 17.2348C108.354 17.1348 108.084 17.2348 108.004 17.1248C108.004 16.8148 108.014 16.5048 107.954 16.2648C107.854 16.1648 107.824 16.3148 107.624 16.2648C107.554 15.7948 107.444 15.3748 107.034 15.2348V14.9148C106.954 14.7148 106.634 14.7748 106.654 14.4748H104.824C104.794 15.8448 104.894 17.3448 104.764 18.6248C104.354 18.7648 103.744 18.6548 103.374 18.5748V8.83484C103.404 8.69484 103.734 8.56484 103.534 8.35484C103.944 8.12484 104.574 8.19484 105.194 8.19484C106.104 8.19484 107.094 8.12484 107.774 8.35484C107.954 8.30484 107.844 8.53484 107.934 8.56484C108.414 8.58484 108.904 8.59484 108.954 9.04484C109.134 9.07484 109.244 9.14484 109.444 9.15484M104.814 13.2948C105.514 13.4148 106.444 13.3148 107.234 13.3448C107.404 13.2548 107.214 13.1348 107.344 13.0248C107.604 13.0548 107.624 12.8348 107.934 12.9248C108.054 12.8448 108.014 12.6048 108.094 12.4948C108.194 12.4648 108.414 12.5648 108.354 12.3848C108.484 11.9448 108.394 10.9548 108.414 10.4448C108.124 10.2348 107.934 9.90484 107.604 10.0148C107.584 9.84484 107.794 9.87484 107.664 9.74484C106.784 9.66484 105.814 9.69484 104.864 9.69484C104.734 10.7848 104.844 12.1048 104.804 13.2948" fill="white"/>
<path fill-rule="evenodd" clip-rule="evenodd" d="M129.264 9.64501C129.294 10.065 129.344 10.465 129.324 10.935C129.324 11.105 129.564 11.055 129.584 11.205V11.745C129.644 11.935 129.414 11.825 129.324 11.855V12.875C129.194 13.215 128.614 13.335 128.774 13.785C128.274 13.835 127.874 13.965 127.754 14.375C127.314 14.465 126.674 14.375 126.514 14.755C125.914 14.885 125.014 14.725 124.414 14.855C124.294 15.935 124.404 17.245 124.364 18.415C124.314 18.525 124.064 18.475 123.984 18.685C123.404 18.745 122.994 18.635 122.694 18.415V8.94501C122.864 8.71501 123.144 8.60501 123.124 8.19501C124.474 8.23501 125.994 8.08501 127.104 8.35501C127.324 8.63501 127.864 8.59501 128.244 8.73501C128.244 9.04501 128.464 9.14501 128.784 9.16501C128.844 9.28501 128.824 9.48501 128.894 9.58501C128.914 9.70501 129.154 9.61501 129.264 9.63501M124.414 9.70501C124.294 10.795 124.404 12.125 124.364 13.305C125.134 13.425 126.144 13.325 127.004 13.355C127.154 13.275 126.914 13.085 127.054 13.035C127.344 13.235 127.304 12.725 127.704 12.875C127.894 11.955 127.804 11.005 127.754 10.185C127.534 10.115 127.194 10.185 127.324 9.75501C126.354 9.75501 125.374 9.53501 124.414 9.70501Z" fill="white"/>
<path fill-rule="evenodd" clip-rule="evenodd" d="M137.024 9.48512C136.514 9.82512 135.684 9.70512 134.924 9.70512H132.664C132.534 10.5851 132.644 11.6851 132.604 12.6551C133.584 12.6651 134.994 12.6551 136.154 12.6551C136.364 12.6351 136.174 12.9951 136.474 12.8751C136.514 12.9351 136.664 12.8551 136.754 12.9851V13.8451C135.594 14.0451 133.804 13.9051 132.664 13.9451C132.534 14.9151 132.644 16.1151 132.604 17.1751C132.824 17.2951 133.144 17.2351 133.464 17.2251C134.384 17.2251 135.574 17.2251 136.534 17.2251C136.734 17.2551 136.524 17.4751 136.754 17.5451C136.864 17.6251 137.024 17.6651 137.074 17.8151V18.5151C136.254 18.7851 135.164 18.6751 134.114 18.6751C133.064 18.6751 132.004 18.7151 131.104 18.6151C131.044 15.3351 130.954 11.1551 131.154 8.17512C132.794 8.22512 134.984 8.09512 136.704 8.22512C136.904 8.21512 136.774 8.51512 136.864 8.60512C136.814 8.81512 137.144 8.63512 137.084 8.87512C137.054 9.06512 137.004 9.22512 137.034 9.46512" fill="white"/>
<path fill-rule="evenodd" clip-rule="evenodd" d="M141.974 8.19512C142.494 8.14512 142.854 8.24512 143.214 8.35512C143.324 8.68512 143.484 8.96512 143.434 9.48512C143.434 9.66512 143.734 9.53512 143.804 9.64512C143.764 10.0151 143.974 10.1351 143.904 10.5151C144.324 10.7651 144.364 11.4151 144.504 11.9651C144.484 12.0851 144.684 11.9851 144.764 12.0151C144.744 12.4051 144.944 12.5551 144.874 12.9851C144.874 13.1151 145.054 13.0951 145.204 13.0951C145.124 13.3951 145.424 13.7451 145.304 14.2851C145.304 14.4951 145.574 14.2851 145.574 14.3851C145.754 14.8851 145.734 15.5951 146.214 15.7851C146.194 16.1851 146.324 16.4251 146.384 16.7551C146.444 16.9151 146.584 16.6751 146.644 16.8051C146.574 17.1251 146.864 17.4651 146.754 17.9951C146.874 18.1351 147.024 17.9251 147.134 18.0451C147.114 18.3051 147.244 18.4351 147.134 18.6351C146.654 18.6351 146.084 18.7751 145.624 18.6351V18.1451C145.544 17.9751 145.394 18.1251 145.304 18.0351C145.304 17.6951 145.134 17.5351 145.204 17.1251C144.874 16.8851 144.724 16.4551 144.714 15.8951C144.154 15.3551 142.334 15.7251 141.114 15.6251C140.914 15.6051 140.864 15.5551 140.624 15.6251C140.534 15.7951 140.394 15.9351 140.404 16.2151C140.274 16.2151 140.234 16.1251 140.144 16.2151C140.244 16.7851 139.924 17.1551 139.984 17.5051C139.914 17.4651 139.834 17.4351 139.714 17.4551C139.784 17.9351 139.564 18.1251 139.604 18.5851C139.164 18.6451 138.744 18.7351 138.204 18.6951C137.894 18.2751 138.324 17.5851 138.254 17.2351C138.354 17.2351 138.374 17.3051 138.474 17.2851C138.594 16.9951 138.634 16.6151 138.694 16.2651C138.754 16.2151 138.834 16.1951 138.954 16.2051C138.994 15.7551 139.104 15.3851 139.174 14.9651C139.734 14.9651 139.504 14.1051 139.654 13.8351C139.764 13.7151 139.814 13.8551 139.984 13.8351C139.944 13.2151 140.074 13.0651 140.144 12.5351C140.274 12.5651 140.264 12.4451 140.404 12.4851C140.354 12.0451 140.544 11.8951 140.474 11.5751C140.584 11.4951 140.824 11.5251 140.894 11.4151C140.774 11.0451 141.054 10.6951 141.004 10.2351C141.114 10.1251 141.284 10.0751 141.424 10.0151C141.424 9.66512 141.424 9.31512 141.524 9.09512C141.624 8.99512 141.664 9.14512 141.854 9.09512C141.844 8.64512 141.924 8.48512 141.964 8.18512M142.284 11.4651C142.154 11.4951 142.164 11.3651 142.014 11.4151C142.024 11.8351 141.964 12.1951 141.914 12.5351C141.744 12.5651 141.704 12.4251 141.594 12.5351C141.704 13.1051 141.384 13.3951 141.484 13.7751C141.214 13.7351 141.124 13.8451 141.104 14.0451C141.344 14.3251 141.914 14.2051 142.394 14.2051C142.914 14.2051 143.464 14.2351 143.854 14.1551C143.784 13.9051 143.704 13.6551 143.744 13.2851C143.324 13.1451 143.274 12.6051 143.254 12.0551C142.754 11.8851 142.734 11.2451 142.714 10.5951H142.504C142.524 10.9751 142.144 11.1351 142.284 11.4551" fill="white"/>
<path fill-rule="evenodd" clip-rule="evenodd" d="M149.834 8.29483C149.974 8.65483 150.134 8.96483 150.434 9.16483C150.524 9.23483 150.434 9.51483 150.534 9.58483C150.554 9.80483 150.784 9.53483 150.914 9.70483C150.814 10.0148 150.984 10.1948 150.964 10.4548C150.964 10.5648 151.194 10.4748 151.284 10.5148C151.314 10.7048 151.434 10.7948 151.394 11.0548C151.654 11.2448 151.934 11.4048 151.924 11.8648C152.004 11.9648 152.284 11.8648 152.364 11.9648V12.3948C152.624 12.5948 152.844 12.8548 152.854 13.3148C152.974 13.3648 153.114 13.4048 153.274 13.4148C153.244 14.1048 153.924 14.1048 153.864 14.8248C153.914 14.9648 154.104 14.7148 154.184 14.8748C154.304 15.0248 154.124 15.1448 154.244 15.3048C154.594 15.4748 154.594 15.9948 154.894 16.2148C155.084 16.0848 154.994 15.6748 154.994 15.3548V12.5548C154.994 11.0548 154.884 9.37483 155.154 8.25483C155.364 8.14483 155.784 8.22483 156.074 8.20483C156.114 8.45483 156.034 8.81483 156.384 8.85483V18.5448C156.214 18.3848 156.114 18.6248 156.014 18.7048C155.554 18.6748 154.994 18.7648 154.624 18.6448C154.534 18.5648 154.574 18.3348 154.554 18.1548C154.534 18.0348 154.224 18.1548 154.184 18.0448C154.184 17.7748 154.094 17.6048 154.124 17.2948C154.024 17.2048 153.774 17.2448 153.694 17.1348C153.784 16.7248 153.504 16.6848 153.264 16.6048C153.194 16.1948 153.184 15.7548 152.724 15.7348C152.744 15.5348 152.724 15.3848 152.664 15.2548C152.554 15.1348 152.514 15.2848 152.344 15.2548C152.484 14.9348 152.154 14.9048 152.234 14.4948C152.234 14.3048 151.884 14.4548 151.804 14.3348C151.814 13.7048 151.204 13.6848 151.214 13.0448C151.084 12.9448 151.004 13.0948 150.834 12.9948C150.874 12.7148 150.754 12.6048 150.774 12.3448C150.734 12.1748 150.634 12.2748 150.514 12.2848C150.554 11.9748 150.254 12.0048 150.354 11.6348C150.254 11.5448 150.024 11.5648 149.924 11.4748C149.924 11.2248 149.934 10.9548 149.654 10.9948C149.364 11.1548 149.504 11.5848 149.494 11.8548C149.474 13.9848 149.494 16.4448 149.494 18.6348C149.104 18.7648 148.534 18.6848 148.264 18.5348V8.83483C148.214 8.66483 148.434 8.76483 148.484 8.67483C148.464 8.46483 148.484 8.27483 148.584 8.18483C149.054 8.15483 149.464 8.20483 149.814 8.28483" fill="white"/>
<path fill-rule="evenodd" clip-rule="evenodd" d="M66.064 11.5248C66.284 11.4748 66.144 11.6248 66.164 11.7448C66.274 12.3348 66.374 13.8548 66.274 14.8148C66.254 15.0048 66.284 15.1048 66.214 15.2448C66.164 15.3448 66.014 15.3348 66.054 15.5148C63.974 15.6348 61.654 15.5348 59.484 15.5648C59.534 15.3048 59.274 15.3348 59.154 15.2448C59.224 14.2548 58.994 12.5048 59.314 11.5848C61.544 11.5348 63.904 11.6548 66.044 11.5248" fill="white"/>
<path fill-rule="evenodd" clip-rule="evenodd" d="M69.884 13.0946C69.884 13.2246 69.684 13.2146 69.624 13.1546C69.664 13.0546 69.804 13.0146 69.884 13.0946Z" fill="white"/>
<path fill-rule="evenodd" clip-rule="evenodd" d="M70.0542 13.3548C70.1542 13.5948 70.0942 13.9048 70.5342 13.8948V14.2848C70.5842 14.3748 70.7042 14.3948 70.8642 14.3848C70.8642 15.0448 71.4642 15.1148 71.5042 15.7348C71.6642 15.7048 71.6642 15.9048 71.7742 16.0048C71.8342 16.0648 71.9842 16.1748 71.9342 16.4348C72.1342 16.4648 72.0642 16.7748 72.3642 16.7048C72.3442 16.9048 72.3642 17.0548 72.4242 17.1948C72.5242 17.2948 72.6742 17.2248 72.7942 17.1948C72.6342 17.5448 72.9742 17.5848 72.9042 18.0048C72.9842 18.2248 73.1842 17.9748 73.2742 18.1648C73.2742 18.3248 73.2442 18.5248 73.3242 18.5948C73.5442 18.6948 73.5042 19.0648 73.8142 19.0848V19.4648C73.8442 19.6248 74.0742 19.5648 74.1942 19.6248C74.1942 19.8248 74.2742 19.9348 74.3042 20.1148C74.6042 20.2448 74.6742 20.6048 75.0042 20.7048C74.9342 20.8448 75.0542 20.9048 75.1142 21.0248C75.2742 21.3348 75.3042 21.5848 75.6542 21.7248C75.6742 21.9148 75.7442 22.0348 75.7042 22.2648C75.8342 22.4648 75.9742 22.3248 76.1942 22.4248C76.2342 22.5848 76.1042 22.5748 76.1442 22.7448C76.4842 22.9348 76.6142 23.3348 76.7342 23.7748C76.8142 23.8748 77.0042 23.8548 77.1142 23.9348C77.0342 24.2548 77.2942 24.2948 77.1642 24.5148C77.2542 24.6548 77.5542 24.5948 77.6442 24.7348V25.1248C77.8742 25.2448 77.8842 25.2148 78.0242 25.5548C78.2442 26.1148 78.1542 27.8848 78.0242 28.5648H58.4742C57.5642 28.5648 56.6542 28.6448 55.7842 28.4648V25.6648C60.2542 25.5448 64.9542 25.6448 69.5042 25.6148C69.5342 21.8048 69.4842 17.3248 69.5042 13.5048C69.4942 13.4248 69.5642 13.4148 69.5642 13.3448C69.7642 13.3248 69.9142 13.3448 70.0542 13.3948" fill="white"/>
<path fill-rule="evenodd" clip-rule="evenodd" d="M59.5542 18.095H66.0642C66.1842 18.335 66.2542 18.665 66.2842 19.065C66.3042 19.455 66.2842 19.905 66.2842 20.355C66.2842 21.215 66.3642 22.145 66.1842 22.775C65.0942 22.875 63.8642 22.835 62.6742 22.835C61.4842 22.835 60.2742 22.915 59.2342 22.725C59.1642 22.305 59.1742 21.465 59.1742 20.625C59.1742 19.785 59.0642 18.895 59.2342 18.465C59.3142 18.275 59.4142 18.255 59.5542 18.095Z" fill="white"/>
<path fill-rule="evenodd" clip-rule="evenodd" d="M91.3139 21.9752C91.2739 22.2952 91.2539 23.0452 90.7739 23.1052C90.6139 23.1652 90.6839 22.9752 90.6739 22.8852C89.5239 22.8352 88.4339 22.6152 87.4439 22.8352C87.1339 23.1252 86.7739 23.3852 86.7439 23.9552C86.7239 24.3452 86.8639 24.7752 86.9639 25.1452H87.2839C87.3739 25.2452 87.3739 25.4452 87.4439 25.5752C87.8439 25.5552 88.0339 25.7052 88.3039 25.6752C88.3439 25.8452 88.2139 25.8352 88.2439 26.0052C88.7939 25.9652 89.1739 26.1152 89.6439 26.1652C89.6439 26.2952 89.6439 26.4152 89.6939 26.4852C90.0839 26.4052 90.1639 26.6252 90.4439 26.6452C90.4239 26.8152 90.5339 26.8452 90.5039 27.0252C90.7139 27.0252 90.8139 27.1352 91.0439 27.1352C91.0539 27.4652 91.2039 27.6552 91.5239 27.6752C91.6839 28.4752 91.7039 29.4752 91.5239 30.3152C91.4539 30.3852 91.2639 30.3452 91.2039 30.4252C91.1539 30.6552 91.1839 30.6652 91.1439 30.8552C90.7039 30.9052 90.7739 31.4552 90.1739 31.3352C90.0339 31.4552 90.2439 31.6052 90.1139 31.7052C89.1839 31.6652 88.2939 32.1052 87.0939 31.9752C86.9239 31.9952 86.9839 31.7752 86.8339 31.7652C86.1239 31.8052 85.5439 31.7152 85.1139 31.4952C84.9639 31.2552 85.0039 30.8052 85.0039 30.4252C85.3939 30.2852 85.9039 30.3152 86.3539 30.3652V30.5252C86.6539 30.5352 86.8139 30.5252 86.9939 30.7452C87.6339 30.8052 88.3639 30.8352 88.9839 30.7452C89.1939 30.3752 89.6939 30.3152 90.1139 30.1552C90.1639 29.5052 90.1839 28.9052 90.1139 28.1552C89.9339 27.9352 89.3639 28.0852 89.4139 27.6152C88.9539 27.6852 88.6839 27.3752 88.3439 27.5152C88.2039 27.3852 88.4239 27.4152 88.3939 27.2452C87.6439 27.1452 87.1239 27.0052 86.7839 26.4952C86.6239 26.4552 86.6239 26.5952 86.4639 26.5452C86.3239 26.4352 86.5039 26.2552 86.4139 26.1752C86.3239 26.0552 86.0139 26.1752 85.9239 26.0552C86.0439 25.6052 85.7139 25.5852 85.4939 25.4652C85.3639 24.5552 85.2839 23.7052 85.4939 22.8352C85.6939 22.8352 85.7339 22.6752 85.7539 22.5052C86.0439 22.3352 86.2739 22.1252 86.4639 21.8652H86.8439C86.9639 21.6252 87.3639 21.6752 87.4839 21.4352C88.2639 21.3552 89.2339 21.3552 90.0139 21.4352C90.0139 21.7252 90.4739 21.5552 90.5039 21.8052C90.7739 21.8552 91.1039 21.8552 91.3039 21.9752" fill="white"/>
<path fill-rule="evenodd" clip-rule="evenodd" d="M163.194 21.9151C163.344 22.3251 163.104 22.8951 163.084 23.1551C162.904 23.1051 162.634 23.1351 162.654 22.8851C161.534 22.8251 160.394 22.6051 159.424 22.8351C159.254 23.1051 158.814 23.1251 158.884 23.6351C158.814 23.6851 158.684 23.6851 158.664 23.7951C158.624 24.3651 158.954 24.5351 158.934 25.0951C159.004 25.1651 159.164 25.1451 159.314 25.1451C159.374 25.2751 159.354 25.4751 159.424 25.5751C159.894 25.5551 159.944 25.7851 160.334 25.7351V26.0051C160.854 25.9351 161.254 26.1951 161.624 26.1151C161.724 26.2051 161.594 26.2651 161.564 26.3751C161.864 26.4951 162.224 26.5451 162.534 26.6451C162.614 26.7651 162.574 27.0151 162.694 27.0751C162.834 27.1651 162.974 27.0051 163.124 27.1351C163.254 27.2851 163.064 27.3951 163.184 27.5651C163.274 27.6651 163.374 27.5751 163.494 27.5651C163.544 27.7151 163.424 27.7051 163.444 27.8351C163.794 28.4251 163.654 29.5651 163.554 30.3151C163.484 30.4051 163.244 30.3351 163.174 30.4251C163.154 31.0151 162.854 31.3151 162.264 31.3351C162.094 31.3351 162.194 31.5851 162.094 31.6551C161.124 31.7651 160.364 32.0751 159.184 31.9751C158.774 31.6051 157.684 31.8951 157.234 31.5451C157.304 31.2851 156.984 31.1651 156.974 30.9551C156.954 30.6951 157.084 30.6251 157.184 30.3651C157.544 30.2751 157.894 30.3351 158.264 30.3651C158.434 30.4851 158.524 30.5851 158.694 30.5851C158.864 30.5351 158.794 30.7251 158.904 30.7451C159.504 30.8151 160.354 30.7951 160.844 30.8051C160.934 30.5751 161.334 30.6451 161.384 30.3651C161.564 30.3351 161.774 30.3651 161.864 30.3151C162.394 30.0551 162.184 28.7951 162.084 28.1151C161.794 28.1351 161.614 27.7651 161.384 27.8951C161.224 27.8651 161.434 27.7751 161.384 27.6851C161.014 27.5451 160.404 27.6251 160.244 27.1451C159.874 27.2851 159.494 27.0151 159.124 26.9851C159.054 26.9251 159.054 26.7951 159.064 26.6551C158.834 26.6051 158.684 26.4651 158.364 26.4951C158.324 26.3251 158.424 26.3051 158.424 26.1651C158.154 26.1051 158.114 26.1551 157.884 26.1151C157.874 25.9451 157.924 25.7151 157.824 25.6251C157.754 25.4551 157.584 25.7251 157.514 25.5751C157.514 25.1151 157.354 24.6051 157.354 24.0651C157.354 23.5251 157.424 22.8051 157.674 22.5051C157.714 22.4551 157.834 22.4951 157.894 22.4551C158.004 22.3751 158.024 22.1451 158.104 22.0751C158.214 21.9751 158.464 22.0051 158.484 21.8551C158.724 21.8951 158.804 21.7751 159.024 21.7951C159.084 21.7951 159.064 21.7051 159.074 21.6351C159.294 21.6151 159.494 21.5751 159.564 21.4151C160.304 21.3151 161.254 21.3451 161.984 21.4151C162.164 21.6151 162.554 21.6151 162.684 21.8451C162.854 21.8451 163.084 21.8051 163.174 21.8951" fill="white"/>
<path fill-rule="evenodd" clip-rule="evenodd" d="M99.8238 21.4348C99.9438 21.6048 100.084 21.7448 100.144 21.9748C100.314 22.0948 100.244 22.4148 100.204 22.6148C99.5938 23.0848 98.0938 22.6648 97.2438 22.8848C97.1538 25.6948 97.1638 28.8648 97.2438 31.6648C96.9438 31.7148 96.2638 31.8748 95.7838 31.7148C95.7038 28.9048 95.7038 25.7048 95.7838 22.8848C94.7938 22.7348 93.4338 22.9448 92.5038 22.7248C92.4138 22.2848 92.4438 21.5748 92.9338 21.4348H99.8238Z" fill="white"/>
<path fill-rule="evenodd" clip-rule="evenodd" d="M104.834 22.725C104.864 22.875 105.094 22.825 105.214 22.885C105.244 23.195 105.304 23.475 105.324 23.805C105.774 23.945 105.734 24.565 105.804 25.105C106.174 25.215 106.244 25.625 106.244 26.135C106.624 26.385 106.674 26.995 106.724 27.585C106.804 27.685 107.044 27.615 107.094 27.745C107.174 28.245 107.064 28.925 107.574 28.985C107.524 29.385 107.754 29.495 107.694 29.905C107.684 30.015 107.884 29.925 107.964 29.955C107.994 30.385 108.194 30.655 108.124 31.185C108.184 31.395 108.394 31.155 108.504 31.355V31.675C108.164 31.795 107.494 31.845 107.104 31.725C107.004 31.525 107.134 31.095 106.734 31.185C106.774 30.845 106.454 30.575 106.624 30.285C106.254 30.065 106.104 29.615 106.134 28.985C104.964 28.755 103.384 28.935 102.044 28.885C101.904 28.945 101.884 29.125 101.884 29.305C101.764 29.355 101.614 29.355 101.514 29.415C101.514 30.065 101.384 30.585 101.024 30.875C101.194 31.225 100.844 31.355 100.974 31.675C100.684 31.725 99.9944 31.885 99.5244 31.725C99.5244 31.205 99.6244 31.075 99.6844 30.645C99.7844 30.605 99.8844 30.555 100.014 30.545C99.9844 30.145 100.094 29.875 100.114 29.525C100.284 29.565 100.274 29.435 100.444 29.465C100.474 28.955 100.624 28.575 100.714 28.125C100.864 28.165 100.854 28.045 100.984 28.065C100.934 27.725 100.934 27.085 101.414 26.985C101.384 26.595 101.384 25.825 101.844 25.745C101.884 25.425 101.954 25.145 101.954 24.785C102.084 24.705 102.164 24.655 102.334 24.725C102.504 24.235 102.314 23.375 102.874 23.275C102.824 22.825 103.014 22.735 102.924 22.355H103.254C103.344 21.765 103.554 21.365 104.114 21.445C104.254 21.465 104.164 21.565 104.324 21.665C104.454 21.735 104.544 21.665 104.604 21.715C104.834 21.955 104.874 22.395 104.874 22.745M104.004 23.715C103.874 24.025 103.964 24.475 103.524 24.575C103.504 24.945 103.424 25.265 103.364 25.605C103.204 25.595 103.194 25.725 103.044 25.705C103.074 26.265 102.834 26.535 102.824 27.055C102.654 27.085 102.664 26.955 102.564 27.055C102.594 27.225 102.524 27.305 102.504 27.425C103.324 27.555 104.384 27.455 105.304 27.495C105.264 27.015 105.174 26.585 105.084 26.145C104.944 26.145 104.774 26.165 104.764 26.035C104.794 25.695 104.674 25.515 104.714 25.165C104.184 25.065 104.304 24.325 104.284 23.715H104.014H104.004Z" fill="white"/>
<path fill-rule="evenodd" clip-rule="evenodd" d="M111.294 21.5945C111.294 22.1845 111.934 22.1445 111.884 22.7845C111.884 22.8845 112.044 22.7845 112.104 22.8445C112.224 22.9445 112.024 22.9045 112.104 23.0545C112.174 23.1845 112.534 23.3245 112.374 23.6445C112.494 23.7145 112.684 23.7245 112.804 23.8045C112.874 24.0145 112.804 24.0545 112.854 24.2945C112.954 24.3945 113.054 24.3145 113.174 24.2945C113.044 24.5845 113.374 24.7545 113.334 25.1045C113.414 25.2645 113.584 25.0045 113.664 25.1545C113.634 25.4045 113.784 25.4645 113.764 25.6945C114.054 25.7145 113.924 26.1445 114.254 26.1245V26.4545C114.314 26.6545 114.524 26.5545 114.624 26.6145C114.484 27.4045 115.294 27.2345 115.164 28.0245C115.254 28.1245 115.364 28.0345 115.474 28.0245C115.474 28.5745 115.754 28.8245 116.074 29.0445C116.044 29.3245 116.094 29.5245 116.394 29.4745C116.564 29.3345 116.454 29.1745 116.444 28.9945C116.444 28.0145 116.444 26.8145 116.444 25.6045C116.444 24.0745 116.314 22.4845 116.654 21.4545H117.244C117.444 21.6345 117.444 22.0145 117.674 22.1545V31.5745C117.424 31.8945 116.534 31.8145 116.064 31.7345C115.934 31.6145 116.014 31.5944 116.004 31.3645C115.874 31.2345 115.684 31.3045 115.574 31.2645C115.644 30.8844 115.394 30.8245 115.464 30.4545C115.364 30.3145 115.214 30.5445 115.094 30.3945C115.084 30.2145 115.004 30.0844 115.044 29.8545C114.974 29.6945 114.854 29.9145 114.714 29.8545C114.834 29.5345 114.574 29.5444 114.554 29.1045C114.494 28.9345 114.334 29.0745 114.174 28.9445C114.184 28.7145 114.094 28.5945 114.074 28.4045C113.754 28.2845 113.584 27.9445 113.584 27.6545C113.564 27.5345 113.324 27.6345 113.204 27.6045V27.1145C113.204 26.9845 113.004 27.0345 112.934 26.9645C113.014 26.5645 112.614 26.6345 112.724 26.2045C112.624 26.1045 112.394 26.1345 112.294 26.0445C112.364 25.3245 111.684 25.3545 111.694 24.6945C111.624 24.5245 111.464 24.7945 111.374 24.6345C111.304 24.4945 111.444 24.2345 111.274 24.0945C111.144 24.0945 111.014 24.0945 110.954 24.1545C111.044 25.0245 111.004 26.8045 111.004 28.1945C111.004 29.4745 111.094 30.7445 110.894 31.8045C110.574 31.7545 110.274 31.8745 110.034 31.8045C109.834 31.7545 109.784 31.5345 109.604 31.5345V22.2245C109.534 22.0245 109.834 22.1645 109.864 22.0645C109.864 21.8145 109.944 21.6345 110.034 21.4745C110.614 21.3645 110.794 21.6545 111.264 21.6345" fill="white"/>
<path fill-rule="evenodd" clip-rule="evenodd" d="M125.935 21.915C125.935 22.045 125.935 22.175 125.875 22.245C126.145 22.275 126.355 22.365 126.625 22.405C126.575 22.675 126.875 22.895 127.275 22.885C127.235 23.345 127.685 23.575 127.865 23.915C127.905 23.995 127.825 24.145 127.865 24.235C127.885 24.285 127.965 24.305 128.025 24.395C128.125 24.575 128.075 24.795 128.295 24.875C128.395 26.015 128.395 27.185 128.295 28.315C128.295 28.445 128.195 28.415 128.125 28.525C128.095 28.595 128.125 28.665 128.075 28.745C128.025 28.825 127.895 28.885 127.865 28.965C127.815 29.075 127.895 29.235 127.865 29.345C127.815 29.515 127.585 29.625 127.755 29.775C127.605 29.825 127.625 29.695 127.485 29.725C127.365 29.965 127.435 30.055 127.385 30.315C127.315 30.385 127.145 30.365 127.005 30.365C126.835 30.615 126.745 30.925 126.305 30.915C126.205 31.005 126.295 31.115 126.305 31.235C126.065 31.125 125.915 31.3951 125.445 31.335C125.355 31.385 125.355 31.525 125.285 31.605C123.875 31.895 121.975 31.715 120.325 31.765C120.135 31.035 120.225 30.225 120.225 29.395V26.975C120.225 25.325 120.045 23.585 120.225 22.125C120.245 21.945 120.305 21.775 120.385 21.585C120.375 21.495 120.445 21.495 120.445 21.425H124.155C124.595 21.745 125.185 21.905 125.935 21.905M124.805 22.925C124.095 22.665 122.775 22.905 121.845 22.825C121.755 25.335 121.755 28.225 121.845 30.735C122.535 30.735 123.275 30.765 123.885 30.685C124.265 30.375 124.795 30.225 125.385 30.145C125.355 29.845 125.505 29.715 125.825 29.765C125.825 29.445 125.985 29.275 126.305 29.275C126.215 28.955 126.315 28.455 126.685 28.415C126.775 27.265 126.745 25.965 126.685 24.805C126.655 24.625 126.315 24.735 126.305 24.535C126.465 23.865 125.775 24.065 125.875 23.455C125.425 23.455 125.225 23.085 124.795 22.915" fill="white"/>
<path fill-rule="evenodd" clip-rule="evenodd" d="M133.745 21.5945C133.695 21.7945 133.805 21.8545 133.955 21.8645C134.015 22.1345 133.895 22.4645 134.335 22.4545C134.365 22.8745 134.535 23.1545 134.495 23.6345C134.545 23.7245 134.665 23.7545 134.815 23.7445C134.875 24.0145 134.955 24.2945 134.925 24.6545C135.195 24.7345 135.155 25.1345 135.405 25.2445C135.375 25.5345 135.495 25.6645 135.465 25.9445C135.515 26.0845 135.635 26.1345 135.845 26.1145C135.805 26.5245 136.015 26.6845 135.955 27.1345C135.935 27.2145 136.155 27.3145 136.165 27.1845C136.285 27.5545 136.415 27.9045 136.385 28.4245C136.425 28.4945 136.515 28.5445 136.655 28.5245C136.685 28.8445 136.855 29.0045 136.815 29.3945C137.125 29.7345 137.355 30.1645 137.355 30.7945C137.405 30.9045 137.495 30.9845 137.675 30.9545C137.615 31.3145 137.945 31.4045 137.785 31.7045C137.405 31.7845 136.705 31.7945 136.325 31.7045C136.215 31.5145 136.295 31.1245 136.275 30.8445C136.165 30.7145 136.015 30.9245 135.905 30.7945C135.915 30.4145 135.835 30.1445 135.795 29.8245C135.725 29.7445 135.615 29.7245 135.465 29.7245C135.415 29.4845 135.335 29.2845 135.365 28.9645C134.795 28.7745 134.025 28.8645 133.325 28.8645H131.225C131.205 29.2145 130.985 29.4745 131.055 29.7745C130.985 29.7045 130.805 29.7045 130.735 29.7745C130.795 30.1945 130.625 30.3845 130.625 30.7445C130.555 30.8245 130.375 30.7845 130.305 30.8545C130.335 31.2145 130.175 31.4345 130.195 31.6545C129.885 31.8145 129.185 31.7945 128.795 31.7045C128.745 31.2545 129.005 31.1345 128.905 30.9045C129.005 30.8945 129.015 30.9645 129.115 30.9545C129.355 30.5145 129.115 29.6145 129.655 29.5045C129.605 29.0745 129.775 28.8645 129.815 28.5245C129.945 28.5045 130.035 28.4645 130.135 28.4245C130.045 28.2045 130.235 27.9645 130.185 27.6145C130.475 27.6145 130.345 27.2045 130.615 27.1845C130.505 26.6745 130.855 26.5045 130.725 26.1145C130.885 26.0745 130.915 26.1645 131.045 26.1645C131.035 25.5945 131.145 25.1745 131.265 24.7645C131.395 24.7745 131.485 24.7645 131.535 24.7045C131.455 24.3045 131.685 24.1445 131.585 23.8445C132.115 23.8745 131.975 23.2245 132.075 22.8245C132.265 22.8945 132.335 22.5545 132.225 22.4945C132.295 22.3245 132.345 22.4745 132.495 22.3945C132.415 21.9745 132.665 21.9145 132.655 21.5845H133.085C133.215 21.0945 133.515 21.7945 133.735 21.5845M132.975 24.6545C132.905 24.7345 132.675 24.6645 132.595 24.7645C132.735 25.1745 132.485 25.5645 132.485 26.0045C132.365 25.9845 132.285 26.0145 132.215 26.0545C132.185 26.4045 132.035 26.6345 132.065 27.0345C131.885 27.0945 131.765 27.2045 131.795 27.4645H134.585C134.515 27.0445 134.255 26.6345 134.385 26.1745C133.765 26.0545 133.915 25.1545 133.735 24.6145C133.655 24.5845 133.465 24.6845 133.465 24.5545C133.525 24.2745 133.315 24.0045 133.305 23.6445H133.085C133.005 24.0145 133.045 24.3345 132.975 24.6745" fill="white"/>
<path fill-rule="evenodd" clip-rule="evenodd" d="M145.214 22.4053C145.074 22.7353 145.424 22.7653 145.314 23.2053C145.284 23.3753 145.564 23.2453 145.584 23.3653C145.844 23.9753 145.734 24.8753 145.634 25.5753C145.554 25.6753 145.424 25.4953 145.314 25.6253C145.404 26.0953 145.064 26.1053 145.214 26.4853C144.564 26.3153 144.594 27.2653 143.864 27.1853C143.844 27.4453 143.954 27.5653 143.914 27.8353C143.974 28.0053 144.254 27.9353 144.344 28.0553C144.364 28.3753 144.344 28.7453 144.724 28.7053C144.724 28.9953 144.954 29.0553 144.884 29.4053C144.984 29.5353 145.144 29.3153 145.264 29.4553C145.184 29.7753 145.364 29.8253 145.324 30.2153C145.404 30.4253 145.564 30.2153 145.704 30.3153C145.694 30.5653 145.804 30.6853 145.804 30.9153C145.814 30.9853 145.934 30.9553 146.014 30.9653C145.814 31.3353 146.454 31.1753 146.284 31.6653C145.974 31.8853 145.304 31.7353 144.834 31.7753C144.794 31.4653 144.724 31.2053 144.344 31.2353C144.304 30.8153 144.294 30.3553 143.864 30.3153C143.904 29.6253 143.284 29.5953 143.264 28.9653C142.964 28.8053 142.814 28.5153 142.784 28.1053C142.704 27.9653 142.504 27.9553 142.354 27.8853C142.334 27.7653 142.444 27.7653 142.404 27.6153H140.574C140.574 28.1753 140.574 28.9653 140.574 29.7153C140.574 30.4653 140.684 31.2553 140.404 31.7553C139.934 31.7253 139.314 31.8453 139.064 31.5953C139.184 28.4353 139.084 25.0453 139.114 21.7953C139.214 21.6553 139.354 21.5553 139.434 21.4153H142.674C142.894 21.6553 143.164 21.5153 143.364 21.7953C143.864 21.7753 144.244 21.8753 144.544 22.0653C144.784 22.1753 144.834 22.5453 145.194 22.3853M143.734 23.2953C143.444 23.2753 143.334 23.0953 143.194 22.9153C142.484 22.8053 141.244 22.7053 140.554 22.9153C140.554 24.0553 140.554 25.4553 140.554 26.4153H142.814C142.924 26.0653 143.234 25.9453 143.734 25.9853C143.734 25.8353 143.714 25.6753 143.784 25.6053C143.824 25.4853 144.154 25.6553 144.104 25.4453C144.214 25.0253 144.134 24.4053 144.154 23.8853C143.984 23.7153 143.754 23.6153 143.734 23.2953Z" fill="white"/>
<path fill-rule="evenodd" clip-rule="evenodd" d="M153.654 21.975C153.754 22.055 153.584 22.185 153.714 22.295H154.144C154.304 22.585 154.704 22.635 154.734 23.045C154.894 23.125 154.974 23.275 155.154 23.315C155.184 23.565 155.154 23.625 155.324 23.795C155.304 23.915 155.514 23.825 155.574 23.855C155.434 24.155 155.854 24.325 155.644 24.665C155.674 24.805 155.894 24.765 155.964 24.875C156.164 26.015 156.144 27.235 155.964 28.375C155.854 28.415 155.724 28.455 155.644 28.535C155.804 28.855 155.514 29.075 155.644 29.395C155.494 29.395 155.334 29.375 155.264 29.445C155.334 30.155 154.534 30.245 154.554 30.745C154.014 30.685 153.984 31.505 153.154 31.335C152.694 31.905 151.414 31.765 150.144 31.765C148.944 31.765 148.184 31.895 147.664 31.495V22.125C147.894 22.045 148.094 21.945 148.034 21.585C148.174 21.605 148.314 21.605 148.254 21.425H151.584C151.824 21.565 151.844 21.655 152.224 21.585V21.795C152.784 21.765 153.154 21.915 153.624 21.965M153.734 24.165C153.794 23.865 153.514 23.795 153.464 23.465C153.144 23.335 152.714 23.285 152.604 22.925C152.444 23.025 152.324 22.845 152.114 22.825C151.344 22.715 150.124 22.855 149.374 22.875C149.334 22.885 149.314 22.925 149.324 22.985V30.625C149.914 30.755 150.614 30.835 151.204 30.735C151.854 30.625 152.394 30.075 152.984 30.145C153.064 29.895 153.174 29.685 153.574 29.765C153.574 29.415 153.914 29.285 153.844 29.015C153.934 29.065 153.994 29.185 154.114 29.075C154.114 28.655 154.114 28.245 154.224 27.945C154.354 27.885 154.494 28.125 154.484 27.895C154.534 27.245 154.414 26.085 154.534 25.365C154.074 25.325 154.094 24.805 154.114 24.285C153.974 24.275 153.744 24.335 153.734 24.175" fill="white"/>
<path fill-rule="evenodd" clip-rule="evenodd" d="M163.344 22.0354H163.504C163.534 22.1554 163.504 22.2354 163.454 22.3054C163.344 22.2954 163.344 22.1654 163.344 22.0354Z" fill="white"/>
</g>
<defs>
<clipPath id="clip0_703_6208">
<rect width="107.89" height="26.53" fill="white" transform="translate(55.7842 5.80493)"/>
</clipPath>
</defs>
</svg>
