<svg width="32" height="39" viewBox="0 0 32 39" fill="none" xmlns="http://www.w3.org/2000/svg">
<path fill-rule="evenodd" clip-rule="evenodd" d="M6.8634 22.0866C8.95454 16.5688 10.3435 3.47247 17.7159 2.55664C21.0053 2.13689 24.0657 4.09065 24.951 7.07471C27.2863 8.3874 29.4919 10.6999 28.5685 14.6761C33.3308 18.4844 28.5303 27.2 22.2416 23.529C22.173 24.8417 22.4095 26.4826 22.0508 27.5129C20.5855 28.0853 17.0138 28.0853 15.5485 27.5129C15.1516 26.4673 15.4722 24.6967 15.3653 23.3611C14.1824 23.2543 12.6942 23.9717 11.931 23.178C11.1373 20.7358 15.3272 20.98 17.1741 21.1861C17.8457 22.0866 17.4183 24.0785 17.5404 25.5286C18.0288 25.9484 19.2881 25.5897 20.0742 25.7118C20.1581 24.2312 19.891 22.3919 20.2574 21.1937C22.1501 20.4076 23.7528 22.3156 25.6836 22.0943C29.3317 21.6974 28.9577 16.3474 25.6836 15.5843C27.3855 13.3786 26.5384 9.00558 23.1498 9.2498C23.0277 8.58583 22.959 7.88369 22.7835 7.26551C21.5319 4.26618 17.2733 4.09828 15.1898 6.35732C12.4423 9.35665 10.8091 15.9048 9.58798 20.8197C9.15296 22.5598 8.87822 24.4907 7.77922 25.5286C5.13096 24.2541 3.68091 21.789 1.62793 19.9192C2.96351 16.4848 5.35229 21.2776 6.87103 22.0943L6.8634 22.0866Z" fill="black"/>
<path fill-rule="evenodd" clip-rule="evenodd" d="M6.86369 37.4571C6.73395 36.6557 7.46661 36.7244 8.13059 36.7244C8.31375 35.1675 8.50455 32.8321 8.13059 31.2981C8.20691 30.6265 7.00107 31.2218 6.86369 30.7563C8.17638 29.5428 11.7099 30.5426 13.9156 30.2144C14.175 30.7563 14.8924 31.55 14.4574 32.1987C13.2134 31.5576 11.9694 30.4357 9.93934 31.115V33.6488C11.4123 33.9235 11.8778 33.1756 12.29 32.3819C13.2058 32.42 12.9921 35.1446 12.4731 35.4575C11.8626 35.4575 12.1068 34.6256 11.7481 34.3738H9.93934V36.5412C10.1836 36.961 11.2978 36.5031 11.3818 37.0831C10.5728 37.9073 8.26033 37.2128 6.86369 37.4494V37.4571Z" fill="black"/>
<path fill-rule="evenodd" clip-rule="evenodd" d="M15.5403 35.0995C16.5553 34.9392 16.5935 36.3816 17.5322 36.725C18.3946 37.0456 19.6615 36.9235 20.2415 36.0076C19.9286 33.512 15.8226 34.3057 15.7234 32.0314C15.6395 30.07 19.0815 29.8411 21.3252 30.5814C21.4473 30.9935 21.7984 32.0849 21.1421 32.207C20.4705 31.7338 18.7838 29.8335 17.5245 31.6651C18.3106 33.6189 21.9663 33.222 22.0426 35.4582C22.1189 37.6409 18.677 37.6867 15.899 37.2669C15.7768 36.4885 15.235 35.7711 15.5403 35.0918V35.0995Z" fill="black"/>
<path fill-rule="evenodd" clip-rule="evenodd" d="M30.0104 30.4047C29.9646 31.0153 30.1554 31.8624 29.8348 32.2059C29.0716 32.1219 29.2548 31.0916 28.5679 30.939C23.5843 29.8629 23.279 36.0218 26.7592 36.7239C28.0261 36.9834 28.9114 36.205 30.1935 36.5408C28.3695 38.2122 24.1186 37.5177 23.1493 35.8157C21.0658 32.1906 25.622 29.1073 30.018 30.3971L30.0104 30.4047Z" fill="black"/>
</svg>
