<svg width="56" height="56" viewBox="0 0 56 56" fill="none" xmlns="http://www.w3.org/2000/svg">
<path fill-rule="evenodd" clip-rule="evenodd" d="M17.5246 24.8941C16.9047 27.1933 16.3394 29.2897 15.7274 30.8865L15.7372 30.8962C15.1547 30.5865 14.4725 29.8266 13.7564 29.0289C12.0737 27.1545 10.2039 25.0715 9 28.1326C9.88131 28.9263 10.6762 29.8044 11.4708 30.6823C13.0548 32.4323 14.6382 34.1815 16.9042 35.2599C18.0827 34.1593 18.5236 32.2686 18.9621 30.3881C19.0491 30.0152 19.1359 29.6427 19.2284 29.2768C20.7975 23.032 22.8962 14.712 26.4266 10.9011C29.1038 8.03076 34.576 8.24409 36.1843 12.055C36.3352 12.5804 36.4246 13.1534 36.5142 13.7278C36.5586 14.0122 36.6031 14.2969 36.655 14.5762C41.0092 14.2659 42.0978 19.8223 39.9109 22.6247C44.1179 23.5944 44.5985 30.392 39.9109 30.8962C38.8045 31.0216 37.7821 30.6091 36.773 30.202C35.5191 29.6961 34.2859 29.1986 32.9383 29.752C32.6354 30.7316 32.6695 32.0485 32.7036 33.3643C32.7225 34.0933 32.7414 34.8219 32.7029 35.4926C32.3171 35.4334 31.8427 35.4632 31.3686 35.493C30.6013 35.5413 29.835 35.5895 29.4471 35.2599C29.3947 34.6457 29.4209 33.9549 29.4471 33.2645V33.2645V33.2645C29.4994 31.884 29.5516 30.5051 28.9763 29.7423C26.6031 29.4805 21.2192 29.1702 22.2391 32.2732C22.8699 32.9219 23.886 32.7762 24.9353 32.6258C25.5175 32.5424 26.1098 32.4575 26.6521 32.5059C26.7034 33.1394 26.6781 33.8498 26.6528 34.5606V34.5606V34.5606C26.6104 35.7541 26.5679 36.9485 26.8875 37.7811C28.7704 38.5084 33.3599 38.5084 35.2428 37.7811C35.5476 36.9154 35.5179 35.7105 35.4884 34.5112V34.5112V34.5112C35.4732 33.8969 35.4581 33.2842 35.488 32.7193C43.5688 37.3835 49.7372 26.3096 43.6178 21.4708C44.8044 16.4186 41.9703 13.4805 38.9694 11.8126C37.8318 8.02106 33.8993 5.53863 29.6726 6.07197C22.357 6.97057 19.6264 17.0985 17.5246 24.8941ZM17.1675 49.4841C16.3707 49.4781 15.5733 49.4722 15.7278 50.4159V50.4062C16.4101 50.2919 17.2624 50.3486 18.114 50.4053C19.5025 50.4977 20.8891 50.5899 21.5334 49.9408C21.4749 49.5414 21.0278 49.5293 20.5804 49.5172C20.2021 49.5069 19.8237 49.4966 19.6799 49.2523V46.4983H22.0041C22.1945 46.6305 22.2527 46.8885 22.3108 47.1458C22.3932 47.5112 22.4753 47.8753 22.9358 47.8753C23.6026 47.4777 23.8772 44.0159 22.7004 43.9674C22.1708 44.9759 21.5726 45.9262 19.6799 45.5771V42.3577C21.8308 41.6461 23.295 42.4904 24.6387 43.2652C24.9246 43.43 25.205 43.5918 25.4855 43.7347C25.9198 43.0943 25.4602 42.3426 25.0772 41.7163C24.9672 41.5365 24.8636 41.367 24.7892 41.2135C23.7263 41.3699 22.4233 41.2889 21.1208 41.208C18.9506 41.0732 16.7819 40.9384 15.7278 41.902C15.8083 42.1716 16.1739 42.1612 16.5388 42.1508C16.9745 42.1384 17.4091 42.126 17.3557 42.5904C17.8362 44.5395 17.5911 47.5068 17.3557 49.485C17.2933 49.485 17.2304 49.4845 17.1675 49.4841ZM26.878 47.4194C27.6025 47.3063 27.9397 47.8215 28.303 48.3767C28.5938 48.821 28.9013 49.2909 29.4375 49.4848C30.5457 49.8921 32.1736 49.737 32.9189 48.5733C32.7148 46.9634 31.2542 46.4308 29.849 45.9184C28.4865 45.4216 27.1761 44.9437 27.1133 43.5212C27.0054 41.0291 31.4283 40.7382 34.3115 41.6788L34.3291 41.7371C34.4985 42.2984 34.8898 43.5945 34.0761 43.7442C33.9491 43.6558 33.7939 43.5281 33.6164 43.382L33.6164 43.3819C32.5872 42.5351 30.8077 41.0709 29.4277 43.0557C29.8948 44.2036 31.1503 44.7129 32.3749 45.2097C33.7986 45.7872 35.1806 46.3477 35.2333 47.8751C35.3314 50.6485 30.9085 50.7066 27.3389 50.1733C27.2846 49.831 27.1656 49.4979 27.0496 49.1729C26.8304 48.559 26.6215 47.974 26.878 47.4097V47.4194ZM45.4765 42.2523C45.4647 41.9766 45.453 41.7013 45.4716 41.456L45.4814 41.4463C39.8327 39.8075 33.9781 43.7251 36.6553 48.3311C37.9008 50.4936 43.3631 51.376 45.7069 49.2523C44.8549 49.0317 44.1393 49.1897 43.4217 49.3481C42.7517 49.496 42.0799 49.6443 41.2939 49.4851C36.822 48.593 37.2143 40.7675 43.6181 42.1348C44.0415 42.2278 44.2076 42.5774 44.3741 42.9278C44.5547 43.3079 44.7357 43.689 45.246 43.7445C45.5277 43.4461 45.5021 42.8484 45.4765 42.2523Z" fill="#806840"/>
</svg>
