<svg width="56" height="56" viewBox="0 0 56 56" fill="none" xmlns="http://www.w3.org/2000/svg">
<path d="M27.4764 30.0358C27.6918 29.8304 27.9436 29.6001 28.1847 29.3598C28.7894 28.7567 29.395 28.1528 29.9865 27.5365C30.0569 27.4627 30.1058 27.2788 30.0635 27.2001C29.5731 26.2781 29.0628 25.3652 28.5566 24.4514C28.5459 24.4316 28.5144 24.4224 28.4489 24.3802C21.3204 31.5203 14.1852 38.6671 6.98709 45.876C6.94981 45.5422 6.89762 45.2887 6.89762 45.036C6.89265 35.013 6.89099 24.9916 6.8943 14.9694C6.8943 13.378 8.39291 11.8976 10.0315 11.8785C11.782 11.8586 13.5316 11.8727 15.282 11.8727C19.5409 11.8727 23.799 11.8711 28.0579 11.8769C28.3098 11.8769 28.4796 11.8255 28.6362 11.5993C30.4173 9.03208 32.8586 7.45146 35.9403 7.01488C39.4702 6.51451 42.576 7.54507 45.1051 10.0759C47.3543 12.3267 48.3848 15.0994 48.2316 18.2839C48.1289 20.422 47.4968 22.4342 46.5101 24.3139C45.5632 26.1174 44.502 27.8612 43.5079 29.6398C43.3812 29.8668 43.2909 30.1493 43.2901 30.4061C43.2776 35.2242 43.2818 40.0415 43.2776 44.8595C43.2776 45.1694 43.2346 45.48 43.2114 45.7807C37.9584 40.5253 32.731 35.2946 27.4755 30.0366L27.4764 30.0358ZM37.4464 10.2126C35.85 10.2399 34.3373 10.7287 33.0317 11.7642C30.8779 13.4724 29.8647 15.6984 30.1132 18.4628C30.2913 20.4394 31.0626 22.2197 32.0178 23.9196C33.1105 25.8656 34.2802 27.7676 35.3836 29.7078C36.2328 31.1997 36.9336 32.7522 36.9974 34.5151C37.0082 34.8175 37.1846 35.0105 37.4944 35.0146C37.8184 35.0188 38.0081 34.8431 38.0263 34.5093C38.124 32.7124 38.8232 31.1161 39.6956 29.586C40.7534 27.7312 41.8644 25.9061 42.9032 24.0414C43.8716 22.3034 44.6661 20.4957 44.8823 18.4777C45.3512 14.097 41.9116 10.2291 37.4464 10.2126ZM20.6113 23.3298C20.1863 24.8897 18.8153 25.9608 17.2197 26.0279C15.3674 26.1066 13.7495 25.0471 13.1248 23.3455C12.4952 21.6332 13.0337 19.8156 14.5737 18.6426C15.8238 17.6899 17.812 17.4289 19.5492 18.7817C20.173 18.1571 20.7927 17.5375 21.4223 16.9079C21.409 16.8938 21.3751 16.8515 21.3345 16.8159C18.7506 14.527 14.5936 14.6902 12.192 17.1738C10.1135 19.3227 9.61814 22.3564 10.9212 24.9593C12.3014 27.7162 15.3591 29.1817 18.3952 28.5737C19.8458 28.2837 21.0884 27.6284 21.9724 26.4521C23.1338 24.9062 23.5878 23.1318 23.3815 21.1916C23.345 20.8503 23.2332 20.7617 22.9035 20.7633C21.1398 20.7749 19.3761 20.7633 17.6124 20.76C17.4103 20.76 17.2089 20.76 16.9944 20.76V23.3306H20.6129L20.6113 23.3298ZM10.3248 48.3174C20.2352 48.3207 30.1464 48.3207 40.0567 48.3165C40.2928 48.3165 40.5298 48.2652 40.7385 48.2403C35.4938 42.9848 30.2698 37.7492 25.016 32.4846C19.84 37.7086 14.6408 42.9567 9.39116 48.2561C9.72501 48.2793 10.0249 48.3174 10.3248 48.3174Z" fill="black"/>
</svg>
