<svg width="37" height="36" viewBox="0 0 37 36" fill="none" xmlns="http://www.w3.org/2000/svg">
<path d="M19.5793 35.8199C8.50926 35.7699 1.71926 27.9799 0.829261 20.3299C0.109261 14.1299 2.05926 8.85989 6.65926 4.67989C9.97926 1.64989 13.9693 0.159886 18.5093 0.179886C28.4193 0.219886 35.1493 7.78989 36.0993 15.1299C36.7993 20.4699 35.7093 25.3699 32.0993 29.5099C28.4993 33.6399 23.9293 35.7199 19.5893 35.8199H19.5793ZM5.83926 16.3699C5.66926 17.2499 5.74926 18.1399 5.75926 19.0299C5.91926 19.8399 6.00926 20.6699 6.24926 21.4599C6.47926 22.2099 6.52926 23.0999 7.34926 23.5599C7.58926 24.3799 8.06926 25.0399 8.58926 25.7199C9.78926 27.2999 11.3293 28.5099 13.0293 29.3699C14.7193 30.2299 16.5893 30.7699 18.5693 30.7299C19.5693 30.7099 20.5493 30.5799 21.5293 30.3899C23.6793 29.9699 25.6193 29.1299 27.1793 27.5499C29.7693 25.3299 30.7393 22.3599 31.0093 19.0999C31.1093 17.8699 30.9993 16.6199 30.8293 15.3899C30.8093 15.3099 30.7793 15.2699 30.6893 15.3199C27.2193 15.3199 23.7493 15.3199 20.2793 15.3099C20.0193 15.1599 19.7593 15.1599 19.5093 15.3099C19.2393 15.3299 18.9593 15.3499 18.6893 15.3799C18.4693 15.5999 18.5393 15.8699 18.5393 16.1299C18.5393 17.2599 18.5393 18.3999 18.5393 19.5299C18.3993 20.2199 18.5893 20.5099 19.3793 20.4799C21.1293 20.4199 22.8793 20.4599 24.6293 20.4599C25.4293 20.4599 25.6293 20.7399 25.2893 21.4499C25.0293 21.9899 24.7393 22.5099 24.3993 23.0199C24.0393 23.5799 23.3593 23.8199 23.1293 24.4699C22.4893 24.6299 21.9293 25.0799 21.3393 25.2199C19.3993 25.6699 17.4093 26.0199 15.5493 24.8999C14.6193 24.3399 13.7093 23.7699 12.9893 22.8899C12.3693 22.1399 11.9393 21.2999 11.4793 20.4699C11.4593 19.5299 11.1393 18.6399 11.1493 17.6899C11.1493 16.8899 11.6293 16.1899 11.4893 15.3899C12.0093 14.0799 12.7893 12.9499 13.8493 12.0099C16.3793 9.76989 20.4193 9.34989 23.1593 11.7999C23.3993 12.0199 23.5493 12.0799 23.7993 11.8199C24.8193 10.7699 25.8593 9.73989 26.8993 8.71989C27.2193 8.39989 27.1293 8.13989 26.8293 7.96989C26.1093 7.54989 25.4993 6.97989 24.7593 6.58989C22.2493 5.24989 19.6093 4.92989 16.7993 5.28989C14.8593 5.53989 13.0893 6.16989 11.4893 7.19989C9.59926 8.41989 8.13926 10.0799 7.18926 12.1599C7.08926 12.2499 6.94926 12.3199 6.90926 12.4299C6.41926 13.7099 5.91926 14.9899 5.83926 16.3899V16.3699Z" fill="#FEFEFE"/>
<path d="M7.18945 12.14C8.13945 10.07 9.59945 8.4 11.4895 7.18C13.0895 6.15 14.8595 5.51 16.7995 5.27C19.6095 4.91 22.2495 5.23 24.7595 6.57C25.4995 6.96 26.1095 7.53 26.8295 7.95C27.1295 8.13 27.2295 8.39 26.8995 8.7C25.8495 9.72 24.8195 10.76 23.7995 11.8C23.5495 12.06 23.3995 12 23.1595 11.78C20.4295 9.33 16.3795 9.76 13.8495 11.99C12.7895 12.93 12.0095 14.06 11.4895 15.37C10.0595 14.29 8.62945 13.21 7.18945 12.13V12.14Z" fill="#ED312C"/>
<path d="M30.819 15.3798C30.979 16.6098 31.099 17.8498 30.999 19.0898C30.729 22.3498 29.759 25.3198 27.169 27.5398C25.769 26.5898 24.449 25.5298 23.139 24.4598C23.369 23.8098 24.049 23.5698 24.409 23.0098C24.739 22.4998 25.039 21.9798 25.299 21.4398C25.649 20.7198 25.439 20.4498 24.639 20.4498C22.889 20.4498 21.139 20.4098 19.389 20.4698C18.599 20.4998 18.399 20.2098 18.549 19.5198C18.769 19.3698 18.679 19.1398 18.689 18.9398C18.699 17.7498 18.689 16.5598 18.699 15.3698C18.969 15.3498 19.249 15.3298 19.519 15.2998C19.779 15.2998 20.039 15.2998 20.289 15.2998C23.759 15.2998 27.229 15.2998 30.699 15.3098C30.739 15.3498 30.789 15.3698 30.839 15.3798H30.819Z" fill="#497FC1"/>
<path d="M23.1389 24.4597C24.4489 25.5297 25.7689 26.5897 27.1689 27.5397C25.5989 29.1197 23.6589 29.9597 21.5189 30.3797C20.5389 30.5697 19.5689 30.6997 18.5589 30.7197C16.5789 30.7697 14.7089 30.2197 13.0189 29.3597C11.3189 28.4997 9.77887 27.2897 8.57887 25.7097C8.05887 25.0297 7.57887 24.3697 7.33887 23.5497C8.70887 22.5097 9.91887 21.2597 11.4689 20.4697C11.9389 21.2997 12.3589 22.1397 12.9789 22.8897C13.7089 23.7697 14.6089 24.3397 15.5389 24.8997C17.4089 26.0197 19.3889 25.6697 21.3289 25.2197C21.9189 25.0797 22.4789 24.6297 23.1189 24.4697L23.1389 24.4597Z" fill="#00AA4D"/>
<path d="M11.4788 20.4699C9.92879 21.2699 8.71879 22.5099 7.34879 23.5499C6.52879 23.0899 6.47879 22.2099 6.24879 21.4499C6.00879 20.6599 5.91879 19.8299 5.75879 19.0199C5.94879 18.1399 5.82879 17.2499 5.83879 16.3599C5.90879 14.9599 6.41879 13.6799 6.90879 12.3999C6.94879 12.2899 7.08879 12.2199 7.18879 12.1299C8.61879 13.2099 10.0488 14.2899 11.4888 15.3699C11.6388 16.1699 11.1588 16.8699 11.1488 17.6699C11.1488 18.6299 11.4588 19.5199 11.4788 20.4499V20.4699Z" fill="#FAB817"/>
<path d="M18.6791 15.3701C18.6791 16.5601 18.6791 17.7501 18.6691 18.9401C18.6691 19.1401 18.7491 19.3701 18.5291 19.5201C18.5291 18.3901 18.5291 17.2501 18.5291 16.1201C18.5291 15.8601 18.4591 15.5901 18.6791 15.3701Z" fill="#DBDCE1"/>
<path d="M5.83916 16.3701C5.81916 17.2601 5.94916 18.1501 5.75916 19.0301C5.75916 18.1401 5.66916 17.2501 5.83916 16.3701Z" fill="#DBDCE1"/>
<path d="M20.2788 15.3C20.0188 15.3 19.7588 15.3 19.5088 15.3C19.7688 15.15 20.0288 15.15 20.2788 15.3Z" fill="#DBDCE1"/>
<path d="M30.8197 15.3796C30.7697 15.3796 30.7197 15.3497 30.6797 15.3097C30.7697 15.2597 30.7997 15.2996 30.8197 15.3796Z" fill="#DBDCE1"/>
</svg>
