<svg width="56" height="56" viewBox="0 0 56 56" fill="none" xmlns="http://www.w3.org/2000/svg">
<path d="M21.5229 51.6924H10.344C8.59054 50.7124 8.03582 49.2189 8.07813 47.2259C8.18155 42.2504 8.08753 37.2702 8.12514 32.2948C8.13924 30.2971 7.39649 29.1757 5.31397 28.7046C4.27976 28.469 2.92589 27.5361 2.65793 26.6315C2.38058 25.7174 2.93059 24.0825 3.68744 23.3993C10.8658 16.9303 18.1711 10.5885 25.4529 4.22312C26.6328 3.19128 28.391 3.18657 29.5756 4.2137C36.9655 10.6262 44.3648 17.0339 51.6466 23.5784C52.3705 24.2286 52.7466 25.9153 52.4551 26.867C52.2013 27.6916 50.8474 28.502 49.8508 28.7187C47.1384 29.2982 46.5554 29.7553 46.5413 32.4927C46.5178 37.3928 46.4755 42.2928 46.5601 47.1882C46.593 49.1435 46.0853 50.6795 44.3554 51.6924H33.6419C33.6748 46.8112 33.6983 41.93 33.75 37.0488C33.7641 35.6636 33.0402 35.0511 31.7615 35.037C28.9739 35.0087 26.1862 35.0087 23.3985 35.037C22.1199 35.0511 21.3959 35.6636 21.4147 37.0488C21.4711 41.93 21.4947 46.8112 21.5276 51.6924H21.5229Z" fill="black"/>
</svg>
