<svg width="25" height="25" viewBox="0 0 25 25" fill="none" xmlns="http://www.w3.org/2000/svg">
<path d="M22.6258 0.72789H2.98937C1.74322 0.72789 0.723633 1.74817 0.723633 2.99518V22.645C0.723633 23.892 1.74322 24.9123 2.98937 24.9123H22.6258C23.8719 24.9123 24.8915 23.892 24.8915 22.645V2.99518C24.8915 1.74817 23.8719 0.72789 22.6258 0.72789ZM17.339 4.50671C17.339 4.09104 17.6789 3.75094 18.0943 3.75094H21.1153C21.5307 3.75094 21.8705 4.09104 21.8705 4.50671V7.52976C21.8705 7.94543 21.5307 8.28552 21.1153 8.28552H18.0943C17.6789 8.28552 17.339 7.94543 17.339 7.52976V4.50671ZM12.8076 8.28552C15.3089 8.28552 17.339 10.317 17.339 12.8201C17.339 15.3232 15.3089 17.3547 12.8076 17.3547C10.3062 17.3547 8.27609 15.3232 8.27609 12.8201C8.27609 10.317 10.3062 8.28552 12.8076 8.28552ZM21.8705 21.1335C21.8705 21.5492 21.5307 21.8893 21.1153 21.8893H4.49986C4.08448 21.8893 3.74462 21.5492 3.74462 21.1335V11.3086H5.40616C5.30647 11.7953 5.25511 12.3001 5.25511 12.8201C5.25511 16.9949 8.63408 20.3777 12.8076 20.3777C16.9811 20.3777 20.36 16.9949 20.36 12.8201C20.36 12.3001 20.3087 11.7953 20.209 11.3086H21.8705V21.1335Z" fill="white"/>
</svg>
