<svg width="45" height="44" viewBox="0 0 45 44" fill="none" xmlns="http://www.w3.org/2000/svg">
<path d="M34.6215 7.07129H10.3626C8.82307 7.07129 7.56348 8.33089 7.56348 9.8704V34.1293C7.56348 35.6688 8.82307 36.9284 10.3626 36.9284H34.6215C36.161 36.9284 37.4206 35.6688 37.4206 34.1293V9.8704C37.4206 8.33089 36.161 7.07129 34.6215 7.07129ZM28.0903 11.7365C28.0903 11.2233 28.5101 10.8034 29.0233 10.8034H32.7554C33.2686 10.8034 33.6885 11.2233 33.6885 11.7365V15.4686C33.6885 15.9818 33.2686 16.4016 32.7554 16.4016H29.0233C28.5101 16.4016 28.0903 15.9818 28.0903 15.4686V11.7365ZM22.492 16.4016C25.5823 16.4016 28.0903 18.9096 28.0903 21.9999C28.0903 25.0901 25.5823 27.5981 22.492 27.5981C19.4018 27.5981 16.8938 25.0901 16.8938 21.9999C16.8938 18.9096 19.4018 16.4016 22.492 16.4016ZM33.6885 32.2633C33.6885 32.7764 33.2686 33.1963 32.7554 33.1963H12.2287C11.7155 33.1963 11.2956 32.7764 11.2956 32.2633V20.1338H13.3483C13.2251 20.7347 13.1617 21.3579 13.1617 21.9999C13.1617 27.1539 17.3361 31.3302 22.492 31.3302C27.648 31.3302 31.8224 27.1539 31.8224 21.9999C31.8224 21.3579 31.759 20.7347 31.6358 20.1338H33.6885V32.2633Z" fill="#488791"/>
</svg>
