<?xml version="1.0" encoding="UTF-8"?>
<svg id="Layer_2" data-name="Layer 2" xmlns="http://www.w3.org/2000/svg" viewBox="0 0 199.64 16.04">
  <defs>
    <style>
      .cls-1 {
        fill: #010101;
      }

      .cls-2 {
        fill: #231f20;
      }
    </style>
  </defs>
  <path class="cls-2" d="m154.76,0v16.04h44.89V0h-44.89Zm12.12,13.76h-7.39V2.27h1.89v9.82h5.5v1.67Zm5.45-9.64v9.64h-1.93V2.27h1.93v1.85Zm12.89-.19h-3.76v9.82h-1.89V3.94h-3.77v-1.67h9.42v1.67Zm10.79,9.82h-7.36V2.27h7.32v1.6h-5.46v3.31h5.17v1.54h-5.17v3.45h5.5v1.6Z"/>
  <path class="cls-1" d="m0,1.1h2.66v4.77L6.42,1.1h3.16l-4.83,6.18,5.3,7.66h-3.12l-4.27-6.15v6.15H0V1.1Zm24.21,0h-2.67l-5.34,13.84h2.74l1.13-2.85h5.65l1.08,2.85h2.74L24.21,1.1Zm-3.18,8.42l1.86-4.75,1.85,4.75h-3.7ZM36.97,1.1h2.53l5.92,9.11V1.1h2.63v13.84h-2.53l-5.91-9.08v9.08h-2.63V1.1Zm29.66,3.18c-.63-1.12-1.44-1.93-2.42-2.43-.98-.5-2.47-.75-4.48-.75h-3.12v13.84h3.17c1.79,0,3.05-.11,3.78-.34s1.4-.63,2.03-1.22c.62-.59,1.11-1.33,1.47-2.22.35-.89.53-1.87.53-2.94,0-1.5-.32-2.81-.95-3.93Zm-2.23,6.28c-.35.65-.79,1.12-1.33,1.39-.54.28-1.42.41-2.62.41h-1.22V3.64h.89c1.64,0,2.83.36,3.57,1.09.82.81,1.23,1.95,1.23,3.42,0,.95-.17,1.76-.52,2.41Zm10.89-9.46h2.62v13.84h-2.62V1.1Zm10.98,0h2.53l5.92,9.11V1.1h2.63v13.84h-2.53l-5.91-9.08v9.08h-2.63V1.1Zm26.9,1.88l-1.95,1.72c-.68-.95-1.38-1.43-2.09-1.43-.35,0-.63.09-.85.28-.22.19-.33.39-.33.63s.08.45.24.66c.21.28.86.87,1.93,1.78,1,.84,1.61,1.37,1.83,1.59.53.54.91,1.06,1.14,1.55.22.49.33,1.03.33,1.61,0,1.14-.39,2.07-1.18,2.81s-1.81,1.11-3.07,1.11c-.99,0-1.84-.24-2.58-.72-.73-.48-1.36-1.24-1.88-2.28l2.21-1.34c.67,1.22,1.43,1.84,2.3,1.84.45,0,.83-.13,1.14-.39.31-.26.46-.57.46-.91,0-.31-.12-.63-.35-.94-.23-.31-.74-.79-1.54-1.44-1.51-1.23-2.48-2.18-2.92-2.85-.44-.67-.66-1.33-.66-2,0-.96.37-1.78,1.1-2.47.73-.69,1.63-1.03,2.71-1.03.69,0,1.35.16,1.97.48.63.32,1.3.9,2.03,1.75Zm8.17-1.88h2.66v4.77l3.76-4.77h3.16l-4.83,6.18,5.3,7.66h-3.12l-4.27-6.15v6.15h-2.66V1.1Zm16.34,0h2.83l2.58,4.98,2.57-4.98h2.79l-4.05,7.85v5.99h-2.65v-5.99l-4.07-7.85Z"/>
</svg>