<?xml version="1.0" encoding="UTF-8"?>
<svg id="Layer_3" data-name="Layer 3" xmlns="http://www.w3.org/2000/svg" viewBox="0 0 48 48">
  <defs>
    <style>
      .cls-1 {
        fill: #1d1d1b;
      }
    </style>
  </defs>
  <path class="cls-1" d="m17.31,21.9c-1.23,0-2.23,1-2.23,2.23,0,.37-.3.67-.67.67s-.67-.3-.67-.67c0-1.96,1.6-3.56,3.56-3.56s3.56,1.6,3.56,3.56c0,.37-.3.67-.67.67s-.67-.3-.67-.67c0-1.23-1-2.23-2.23-2.23Zm11.62,7.02c-.38,0-.68.31-.68.68,0,1.41-2.29,2.17-4.44,2.17s-4.44-.76-4.44-2.17c0-.38-.31-.68-.68-.68s-.68.31-.68.68c0,1.14.7,2.12,1.98,2.75,1.02.51,2.38.78,3.82.78s2.8-.28,3.82-.78c1.28-.63,1.98-1.61,1.98-2.75,0-.38-.31-.68-.68-.68Zm16.17-3.79h0c0,11.66-9.45,21.1-21.1,21.1h0c-11.66,0-21.1-9.45-21.1-21.1h0C2.9,13.49,12.34,4.04,24,4.04h0c11.66,0,21.1,9.45,21.1,21.1Zm-4.07-.72c0-2.02-1.64-3.66-3.66-3.66-.1,0-.2,0-.31.02-1.62-4.1-5.13-7.27-9.45-8.42.5.64.84,1.49.84,2.58,0,2.14-1.64,3.24-3.05,3.53-.3.06-.6.09-.89.09-1.23,0-2.27-.56-2.68-1.49-.15-.34,0-.73.35-.88.34-.15.73,0,.88.35.24.55,1.13.82,2.07.62.96-.2,1.99-.89,1.98-2.22,0-2.47-2.42-2.96-3.04-3.05-.03,0-.06,0-.08,0-5.93,0-11.01,3.69-13.07,8.89-.11-.01-.21-.02-.31-.02-2.02,0-3.66,1.64-3.66,3.66,0,1.84,1.37,3.37,3.15,3.62,1.02,6.75,6.86,11.94,13.89,11.94s12.87-5.19,13.89-11.94c1.78-.25,3.15-1.78,3.15-3.62Zm-10.34-3.85c-1.96,0-3.56,1.6-3.56,3.56,0,.37.3.67.67.67s.67-.3.67-.67c0-1.23,1-2.23,2.23-2.23s2.23,1,2.23,2.23c0,.37.3.67.67.67s.67-.3.67-.67c0-1.96-1.6-3.56-3.56-3.56Z"/>
</svg>