<svg width="56" height="56" viewBox="0 0 56 56" fill="none" xmlns="http://www.w3.org/2000/svg">
<path d="M22.2803 21.3389H29.8952V25.2413H30.0053C31.0649 23.3396 33.6573 21.3389 37.524 21.3389C45.5627 21.3389 47.0488 26.3421 47.0488 32.8507V46.1074H39.1091V34.3561C39.1091 31.5545 39.0513 27.9465 34.9811 27.9465C30.8475 27.9465 30.2145 30.9986 30.2145 34.1524V46.1074H22.2803V21.3389Z" fill="black"/>
<path d="M8.52051 21.3389H16.7767V46.1074H8.52051V21.3389Z" fill="black"/>
<path d="M16.7767 14.4586C16.7767 16.7373 14.9273 18.5867 12.6486 18.5867C10.3699 18.5867 8.52051 16.7373 8.52051 14.4586C8.52051 12.1799 10.3699 10.3306 12.6486 10.3306C14.9273 10.3306 16.7767 12.1799 16.7767 14.4586Z" fill="black"/>
</svg>
