<?xml version="1.0" encoding="UTF-8"?>
<svg id="Layer_2" data-name="Layer 2" xmlns="http://www.w3.org/2000/svg" viewBox="0 0 48 48">
  <defs>
    <style>
      .cls-1 {
        fill: #010101;
      }
    </style>
  </defs>
  <path class="cls-1" d="m36.73,8.28H11.27c-3.5,0-6.37,2.36-6.37,5.24v20.96c0,2.89,2.86,5.24,6.37,5.24h25.46c3.5,0,6.37-2.36,6.37-5.24V13.52c0-2.88-2.86-5.24-6.37-5.24Zm0,3.93c.3,0,.58.07.82.19l-13.55,9.23-13.55-9.23c.24-.12.52-.19.82-.19h25.46Zm-25.46,23.59c-.07,0-.14,0-.21-.01l8.41-9.61-1.09-.9-8.7,7.17V13.67l14.32,14.26,14.32-14.26v18.77l-8.7-7.17-1.09.9,8.41,9.61c-.07,0-.14.01-.21.01H11.27Z"/>
</svg>