<svg width="57" height="56" viewBox="0 0 57 56" fill="none" xmlns="http://www.w3.org/2000/svg">
<circle cx="28.9512" cy="27.5493" r="20.7451" fill="white"/>
<path d="M25.0648 21.3573L23.9813 17.916L26.0005 20.9018L26.5238 17.3311L27.0471 20.9018L29.0664 17.916L27.9829 21.3573L31.098 19.5412L28.6354 22.17L32.2307 21.8806L28.8694 23.1796L32.2307 24.4786L28.6354 24.1892L31.098 26.818L27.9829 25.0019L29.0664 28.4433L27.0471 25.4574L26.5238 29.022L26.0005 25.4574L23.9813 28.4433L25.0648 25.0019L21.9497 26.818L24.4184 24.1892L20.8231 24.4786L24.1844 23.1796L20.8231 21.8806L24.4184 22.17L21.9497 19.5412L25.0648 21.3573ZM13.811 27.2736C11.5517 24.1277 12.2719 19.7444 15.424 17.485C17.868 15.7305 21.1617 15.7305 23.6057 17.485C20.4599 16.0875 16.7722 17.5096 15.3747 20.6555C13.9772 23.8014 15.3994 27.489 18.5452 28.8865C20.1582 29.6006 21.9928 29.6006 23.6057 28.8865C20.4599 31.1459 16.0766 30.4256 13.8172 27.2736M46.7658 35.7877C46.1748 37.1729 45.4299 38.4719 44.5557 39.6724H12.4505C11.5763 38.4719 10.8314 37.1668 10.2404 35.7877C9.21842 33.3991 8.65203 30.7642 8.65203 28C8.65203 17.0418 17.5356 8.15819 28.5 8.15819C30.7347 8.15819 32.8833 8.52757 34.8841 9.20477V12.4676H40.8496C42.2594 13.5881 43.5091 14.8932 44.568 16.3523H34.8841V20.2369H46.7658C47.2891 21.4743 47.6954 22.7733 47.9601 24.1215H34.8779V28.0062H48.3357C48.3357 29.3359 48.2002 30.6349 47.954 31.8908H34.8779V35.7754H46.7535L46.7658 35.7877ZM32.4954 47.4478H24.5169C21.4141 46.8137 18.576 45.4593 16.1874 43.5632H40.8249C38.4301 45.4593 35.5982 46.8137 32.4954 47.4478ZM28.5062 5.00615C15.7995 5.00615 5.5 15.2995 5.5 28C5.5 40.7005 15.7995 51 28.5 51C41.2005 51 51.5 40.7005 51.5 28C51.5 15.2995 41.2005 5 28.5 5" fill="#806840"/>
</svg>
