<svg width="56" height="56" viewBox="0 0 56 56" fill="none" xmlns="http://www.w3.org/2000/svg">
<path d="M42.7731 31.3265C42.1693 30.7312 40.8285 30.4166 38.7875 30.3882C37.407 30.3741 35.7459 30.4959 33.9969 30.7397C33.2146 30.289 32.4067 29.7958 31.7745 29.2033C30.0709 27.6131 28.6479 25.4049 27.7635 22.9755C27.8202 22.7488 27.8712 22.5503 27.9165 22.3462C27.9165 22.3462 28.8775 16.8952 28.6224 15.0526C28.5884 14.8003 28.5657 14.7266 28.4976 14.531L28.4154 14.3156C28.1546 13.7146 27.6416 13.0768 26.8394 13.1109L26.3546 13.0967C25.4589 13.0967 24.7304 13.5531 24.5404 14.2391C23.9593 16.3849 24.5603 19.5938 25.646 23.7494L25.3682 24.4269C24.5886 26.3261 23.6135 28.2395 22.7518 29.9262L22.6384 30.1444C21.7313 31.919 20.9092 33.4242 20.1637 34.6998L19.3955 35.108C19.3388 35.1363 18.0207 35.8365 17.7117 36.0236C15.0868 37.5912 13.3491 39.3685 13.06 40.7802C12.9693 41.2309 13.0373 41.8063 13.5022 42.0728L14.2477 42.447C14.5709 42.6085 14.911 42.6907 15.2597 42.6907C17.1277 42.6907 19.2991 40.3635 22.2897 35.1448C25.7423 34.0223 29.6712 33.0868 33.1153 32.5709C35.7403 34.0478 38.969 35.074 41.0043 35.074C41.3671 35.074 41.6789 35.0399 41.9312 34.9719C42.3224 34.867 42.6512 34.6459 42.8525 34.3426C43.2465 33.7473 43.3287 32.9281 43.221 32.089C43.1898 31.8396 42.9914 31.5334 42.7759 31.3208L42.7731 31.3265ZM14.8543 41.2734C15.1945 40.3408 16.5438 38.4982 18.5394 36.8626C18.6641 36.7606 18.9731 36.4715 19.2566 36.2022C17.1703 39.5301 15.7728 40.8567 14.8543 41.2706V41.2734ZM26.6721 14.0605C27.2731 14.0605 27.6161 15.5742 27.6444 16.9944C27.6728 18.4145 27.3411 19.4123 26.9301 20.1494C26.5899 19.058 26.4227 17.3374 26.4227 16.212C26.4227 16.212 26.3971 14.0605 26.6721 14.0605ZM23.1458 33.4525C23.5653 32.7042 23.999 31.9133 24.4441 31.0742C25.5297 29.0219 26.2129 27.4175 26.7231 26.0994C27.738 27.9447 29.0022 29.5151 30.4876 30.7737C30.6718 30.9297 30.8703 31.0884 31.0744 31.2443C28.0526 31.8424 25.4447 32.5681 23.1458 33.4525ZM42.1948 33.2824C42.0106 33.3987 41.4833 33.4639 41.146 33.4639C40.0518 33.4639 38.6968 32.965 36.8004 32.1486C37.5289 32.0947 38.1979 32.0664 38.7989 32.0664C39.8959 32.0664 40.2219 32.0607 41.2934 32.3357C42.3649 32.6106 42.3791 33.1662 42.1948 33.2796V33.2824Z" fill="#1128F8"/>
<path d="M46.1319 15.3616C45.1483 14.0208 43.7763 12.4504 42.2711 10.9452C40.7659 9.43998 39.1955 8.068 37.8547 7.08436C35.5699 5.40907 34.4615 5.21631 33.8266 5.21631H11.8578C9.90471 5.21631 8.31445 6.80656 8.31445 8.75966V47.0278C8.31445 48.9809 9.90471 50.5712 11.8578 50.5712H44.4566C46.4097 50.5712 48 48.9809 48 47.0278V19.3897C48 18.7547 47.8072 17.6464 46.1319 15.3616ZM40.2641 12.9521C41.6248 14.3128 42.6906 15.5374 43.4787 16.555H36.6584V9.73762C37.6761 10.5257 38.9063 11.5915 40.2641 12.9521ZM45.1653 47.0278C45.1653 47.4133 44.8421 47.7365 44.4566 47.7365H11.8578C11.4751 47.7365 11.1491 47.4133 11.1491 47.0278V8.75966C11.1491 8.37698 11.4751 8.05099 11.8578 8.05099H33.8266V17.9724C33.8266 18.7547 34.4615 19.3897 35.2439 19.3897H45.1653V47.0278Z" fill="#1128F8"/>
</svg>
