<?xml version="1.0" encoding="UTF-8"?>
<svg id="Layer_3" data-name="Layer 3" xmlns="http://www.w3.org/2000/svg" viewBox="0 0 48 48">
  <defs>
    <style>
      .cls-1 {
        fill: #1d1d1b;
      }
    </style>
  </defs>
  <path class="cls-1" d="m27.46,29.5c.19.78,0,1.53-.38,2.22-.45.83-1.17,1.56-1.77,2.12-.32.3-.67.59-1.02.85,0,0,0,0,0,0-.42.31-.99.31-1.41,0,0,0,0,0,0,0-.36-.26-.7-.55-1.02-.85-.6-.57-1.32-1.3-1.77-2.12-.37-.68-.57-1.43-.38-2.22.19-.75.78-1.41,1.5-1.5.84-.11,1.82.48,2.37,1.16.55-.68,1.53-1.27,2.37-1.16.73.09,1.32.75,1.5,1.5Zm17.62-4.34h0c0,11.64-9.44,21.08-21.08,21.08h0c-11.64,0-21.08-9.44-21.08-21.08h0C2.92,13.52,12.36,4.08,24,4.08h0c11.64,0,21.08,9.44,21.08,21.08Zm-19.15-9.62c0,2.37,1.49,4.28,3.32,4.28s3.32-1.92,3.32-4.28-1.49-5.16-3.32-5.16-3.32,2.79-3.32,5.16Zm-9.44,0c0,2.37,1.49,4.28,3.32,4.28s3.32-1.92,3.32-4.28-1.49-5.16-3.32-5.16-3.32,2.79-3.32,5.16Zm-2.4,9.73c1.56-.62,2.19-2.71,1.41-4.66-.78-1.95-2.96-3.75-4.52-3.13-1.56.62-1.9,3.43-1.12,5.38.78,1.95,2.67,3.03,4.23,2.41Zm21.38,8.37c-.36-1.6-1.21-3.04-2.15-4.37-2.2-3.13-5.73-6.29-9.74-6.29s-7.54,3.16-9.74,6.29c-.94,1.34-1.79,2.78-2.15,4.37-.36,1.6-.16,3.39.83,4.68.99,1.3,2.87,1.95,4.33,1.24.87-.42,1.58-1.26,2.54-1.34.88-.07,1.66.52,2.4,1.02.53.36,1.17.69,1.79.69.61,0,1.26-.33,1.79-.69.74-.5,1.52-1.09,2.4-1.02.96.08,1.67.92,2.54,1.34,1.47.7,3.34.05,4.33-1.24.99-1.3,1.18-3.09.83-4.68Zm2.61-16.16c-1.56-.62-3.74,1.18-4.52,3.13-.78,1.95-.15,4.04,1.41,4.66,1.56.62,3.45-.46,4.23-2.41.78-1.95.44-4.76-1.12-5.38Z"/>
</svg>