<svg width="56" height="56" viewBox="0 0 56 56" fill="none" xmlns="http://www.w3.org/2000/svg">
<path d="M36.0232 31.6695C33.7099 33.9828 33.7099 36.2962 31.3966 36.2962C29.0833 36.2962 26.77 33.9828 24.4568 31.6695C22.1435 29.3563 19.8302 27.043 19.8302 24.7297C19.8302 22.4164 22.1435 22.4164 24.4568 20.1032C26.77 17.7899 19.8302 10.8501 17.5169 10.8501C15.2037 10.8501 10.5771 17.7899 10.5771 17.7899C10.5771 22.4164 15.3309 31.7968 19.8302 36.2962C24.3295 40.7955 33.7099 45.5492 38.3364 45.5492C38.3364 45.5492 45.2763 40.9227 45.2763 38.6094C45.2763 36.2962 38.3364 29.3563 36.0232 31.6695Z" fill="black"/>
</svg>
