<svg width="56" height="56" viewBox="0 0 56 56" fill="none" xmlns="http://www.w3.org/2000/svg">
<path d="M41.9335 16.5414C40.8567 15.0651 39.7799 13.5888 38.7159 12.0996C38.6133 11.8794 38.4851 11.6593 38.3313 11.465C38.0236 10.7916 37.5493 10.3513 36.8058 10.3513C34.524 10.3384 32.2422 10.3384 29.9476 10.3384H26.3454C23.9611 10.3384 21.5895 10.3384 19.2052 10.3513C18.3976 10.3513 17.9104 10.8305 17.6156 11.5686C17.5002 11.724 17.4105 11.8924 17.3336 12.0607C16.2824 13.5241 15.2056 14.9745 14.1673 16.4378C13.9878 16.6968 13.8468 17.0594 13.8468 17.3702C13.8468 17.8494 14.1544 18.1731 14.6287 18.3156C15.0646 18.458 15.5133 18.3026 15.8209 17.8882C16.3337 17.2019 16.8336 16.5026 17.3336 15.8162C17.3849 15.7385 17.4618 15.6738 17.5771 15.5443C17.5771 16.399 17.5771 24.0654 17.5771 28.5979C17.5771 29.2713 18.1155 29.8022 18.7693 29.8022H37.2545C37.9211 29.8022 38.4467 29.2583 38.4467 28.5979V15.5313C38.562 15.6738 38.639 15.7644 38.7031 15.8551C39.1902 16.5155 39.6645 17.176 40.1516 17.8364C40.3695 18.1343 40.6387 18.3415 41.0233 18.3674C41.4848 18.3933 41.8309 18.199 42.0488 17.8105C42.2924 17.3702 42.2283 16.9429 41.9335 16.5414ZM31.3833 20.8279C31.3321 21.0869 31.2039 21.3588 31.0244 21.5401L28.4349 24.0136C28.1529 24.2855 27.7171 24.2726 27.4479 24.0006L26.9095 23.4567C26.2813 22.8222 25.666 22.2006 25.0379 21.566C24.5636 21.0869 24.5379 20.4394 24.9738 19.9991C25.3968 19.5588 26.0634 19.5847 26.5249 20.0509C26.6531 20.1804 26.7813 20.3228 26.9095 20.4653C26.9351 20.4653 26.9607 20.4394 26.9736 20.4394V20.1674C26.9736 19.1055 26.9736 18.0566 26.9736 16.9947C26.9736 16.4508 27.3838 15.9975 27.8965 15.9587C28.4606 15.9069 28.9477 16.2436 29.0631 16.7875C29.0887 16.8911 29.0759 16.9947 29.0759 17.0983C29.0759 18.212 29.0759 19.3127 29.0759 20.4912C29.281 20.2969 29.4348 20.1286 29.6143 19.9732C29.9348 19.6753 30.3963 19.6106 30.7808 19.7919C31.1782 19.9861 31.4474 20.4005 31.3705 20.8408L31.3833 20.8279ZM46.5099 32.1462C45.8177 32.0685 45.1383 31.9778 44.446 31.9001C43.3436 31.7965 42.2411 31.6541 41.1259 31.6023C39.6773 31.5505 38.28 31.8354 36.934 32.3663C34.9214 33.1563 32.8832 33.9074 30.7296 34.2052C29.6015 34.3606 28.4349 34.27 27.294 34.3347C26.0506 34.3995 24.7815 34.4383 23.5637 34.6455C22.6022 34.8139 22.2305 35.4096 22.1664 36.3161C22.1151 37.0413 22.5125 37.4686 23.0509 37.8183C24.1149 38.5046 25.3327 38.7507 26.5633 38.919C27.4735 39.0485 28.3837 39.0874 29.2938 39.1521C29.704 39.178 30.0501 39.3075 30.0373 39.7478C30.0373 40.2011 29.6784 40.3047 29.2682 40.3047C27.2299 40.2399 25.2045 40.0586 23.3201 39.2557C22.1536 38.7636 21.0383 38.142 19.8846 37.5852C17.4105 36.3938 14.9364 35.1894 12.4623 34.011C11.1419 33.3894 9.80875 34.0498 9.51391 35.4484C9.34727 36.2384 9.74466 37.0542 10.5779 37.5852C13.6417 39.5536 16.6926 41.5349 19.7564 43.4774C21.205 44.3969 22.8073 44.9926 24.4866 45.3552C26.9095 45.8732 29.2938 45.7048 31.6782 45.0703C34.3317 44.358 36.9725 43.6587 39.6517 43.0371C41.6643 42.558 43.7153 42.6486 45.7664 42.8947C45.9971 42.9206 46.2279 42.9335 46.5227 42.9594V32.1073L46.5099 32.1462Z" fill="#806840"/>
</svg>
