<svg width="57" height="56" viewBox="0 0 57 56" fill="none" xmlns="http://www.w3.org/2000/svg">
<ellipse cx="28.5002" cy="27.5493" rx="20.2941" ry="20.7451" fill="white"/>
<path d="M34.2992 21.1726L33.8006 19.6397L33.3019 21.1726H31.689L32.9941 22.1207L32.4954 23.6536L33.8006 22.7056L35.1057 23.6536L34.6071 22.1207L35.9122 21.1726H34.2992ZM46.8274 35.6215C47.8062 33.276 48.348 30.7026 48.348 28C48.348 17.0418 39.4644 8.15203 28.5 8.15203C17.5356 8.15203 8.65203 17.0356 8.65203 28C8.65203 30.7026 9.19379 33.276 10.1665 35.6215H46.8212H46.8274ZM51.5 28C51.5 40.7005 41.2005 51 28.5 51C15.7995 51 5.5 40.7005 5.5 28C5.5 15.2995 15.7995 5 28.5 5C41.2005 5 51.5 15.2995 51.5 28ZM32.3846 27.2612L31.886 25.7283L31.3873 27.2612H29.7744L31.0795 28.2093L30.5808 29.7422L31.886 28.7942L33.1911 29.7422L32.6925 28.2093L33.9976 27.2612H32.3846ZM24.0551 21.1726L23.5565 19.6397L23.0578 21.1726H21.4449L22.75 22.1207L22.2513 23.6536L23.5565 22.7056L24.8616 23.6536L24.363 22.1207L25.6681 21.1726H24.0551ZM18.1389 23.5244C18.1389 18.6301 22.0051 14.6408 26.8501 14.4499C25.8528 14.1052 24.7877 13.9143 23.6734 13.9143C18.3605 13.9143 14.0573 18.2176 14.0573 23.5305C14.0573 28.8434 18.3605 33.1467 23.6734 33.1467C24.7816 33.1467 25.8528 32.9558 26.8501 32.6111C22.0051 32.4141 18.1389 28.4248 18.1389 23.5305M29.4973 18.3223L30.8025 17.3742H29.1895L28.6908 15.8413L28.1922 17.3742H26.5792L27.8844 18.3223L27.3857 19.8552L28.6908 18.9071L29.996 19.8552L29.4973 18.3223ZM25.9759 27.2612H27.5889L26.2837 28.2093L26.7824 29.7422L25.4772 28.7942L24.1721 29.7422L24.6708 28.2093L23.3656 27.2612H24.9786L25.4772 25.7283L25.9759 27.2612Z" fill="#806840"/>
</svg>
