<svg width="56" height="56" viewBox="0 0 56 56" fill="none" xmlns="http://www.w3.org/2000/svg">
<path d="M28.9511 18.691C28.8172 18.279 28.4332 18 28 18C27.5668 18 27.1828 18.279 27.0489 18.691L25.2528 24.2188H19.4405C19.0073 24.2188 18.6233 24.4978 18.4894 24.9098C18.3556 25.3219 18.5022 25.7732 18.8527 26.0279L23.555 29.4443L21.7589 34.9721C21.625 35.3842 21.7717 35.8355 22.1221 36.0902C22.4726 36.3448 22.9472 36.3448 23.2977 36.0902L28 32.6738L32.7023 36.0902C33.0528 36.3448 33.5274 36.3448 33.8779 36.0902C34.2283 35.8355 34.375 35.3842 34.2411 34.9721L32.445 29.4443L37.1473 26.0279C37.4978 25.7732 37.6444 25.3219 37.5106 24.9098C37.3767 24.4978 36.9927 24.2188 36.5595 24.2188H30.7472L28.9511 18.691Z" stroke="black" stroke-width="2" stroke-linejoin="round"/>
</svg>
