<?xml version="1.0" encoding="UTF-8"?>
<svg id="Layer_2" data-name="Layer 2" xmlns="http://www.w3.org/2000/svg" viewBox="0 0 115 115">
  <path d="m57.55,90.79c1.37,0,2.73-.09,4.08-.27-.01,4.26-.02,7.51-.02,8.42h-8.21c0-.88-.01-4.14-.02-8.43,1.38.18,2.77.28,4.18.28Zm-21.87-8.62c0,3.48-.01,6.68.02,9.88,0,.27.21.67.44.8,2.51,1.39,5.04,2.73,7.57,4.08.14-.12.27-.24.41-.35,0-.75,0-4.26,0-8.83-3.12-1.5-5.95-3.49-8.44-5.95v.37Zm35.16,14.35c.13.14.27.29.4.43,2.57-1.38,5.15-2.76,7.71-4.17.19-.11.35-.47.36-.71,0-1.24.02-5.34.03-10.18-2.49,2.45-5.34,4.43-8.48,5.91,0,3.89,0,7.09-.01,8.71Zm35.95-36.32c-.04,27.07-22.15,48.97-49.41,48.94-27.25-.03-49.2-22.03-49.18-49.31.02-27.24,22.03-49.17,49.33-49.15,27.39.01,49.3,22.04,49.25,49.52Zm-17.58,30.32c7.67-7.94,12.41-18.72,12.42-30.59.03-24.24-19.8-44.09-44.08-44.12-24.27-.03-44.16,19.77-44.21,44.01-.02,12.27,5.04,23.42,13.19,31.45h0s.03.03.04.04c.06.06.12.12.18.18.07.06.13.13.2.19.06.06.12.12.18.18.07.06.13.13.2.19.06.06.13.12.19.17.07.06.13.12.2.18.06.06.13.12.19.17.07.06.13.12.2.18.06.06.13.11.19.17.07.06.14.12.2.18.06.06.13.11.19.17.07.06.14.12.21.18.07.06.13.11.2.17.07.06.14.12.21.17.07.05.13.11.2.16.07.06.14.11.21.17.07.05.13.11.2.16.07.06.14.11.21.17.07.05.14.11.2.16.07.06.14.11.21.17.07.05.14.11.21.16.07.05.14.11.21.16.07.05.14.1.21.16.07.05.14.11.22.16.07.05.14.1.21.15.07.05.15.11.22.16.07.05.14.1.21.15.07.05.15.1.22.16.07.05.14.1.21.15.07.05.15.1.22.15.07.05.14.1.21.14.07.05.15.1.22.15.07.05.14.1.22.14.07.05.15.1.23.15.07.05.15.09.22.14.08.05.15.1.23.14.07.05.15.09.22.14.08.05.15.1.23.14.07.05.15.09.22.14.08.05.15.09.23.14.07.04.15.09.22.13.08.05.15.09.23.14.08.04.15.09.23.13.08.04.16.09.23.13.08.04.15.09.23.13.08.04.16.09.24.13.08.04.15.08.23.13.08.04.16.09.24.13.08.04.15.08.23.12.08.04.16.08.24.13.08.04.15.08.23.12.08.04.16.08.24.12.08.04.16.08.23.12.08.04.16.08.24.12.08.04.16.08.23.11.08.04.16.08.24.12.08.04.16.07.24.11.08.04.16.08.25.11.08.04.16.07.24.11.08.04.17.07.25.11.08.04.16.07.24.11.08.04.17.07.25.11.08.03.16.07.24.1.08.04.17.07.25.11.08.03.16.07.24.1.08.03.17.07.25.1.08.03.16.07.24.1.08.03.17.07.25.1.08.03.16.06.25.1.08.03.17.06.25.1.08.03.16.06.25.09.09.03.17.06.26.09.08.03.16.06.25.09.09.03.17.06.26.09.08.03.17.06.25.09.09.03.17.06.26.09.08.03.17.06.25.08.09.03.17.06.26.08.08.03.17.05.25.08.09.03.18.05.26.08.08.03.17.05.25.08s.18.05.26.08c.08.02.17.05.25.07.09.03.18.05.27.08.08.02.17.05.25.07.09.02.18.05.27.07.09.02.17.05.26.07.09.02.18.05.27.07.09.02.17.04.26.06.09.02.18.04.27.07.09.02.17.04.26.06.09.02.18.04.27.06.09.02.17.04.26.06.09.02.18.04.27.06.09.02.17.04.26.05.09.02.18.04.28.06.09.02.17.03.26.05.09.02.19.04.28.05.09.02.17.03.26.05.09.02.19.03.28.05.09.02.17.03.26.05.09.02.19.03.28.05.09.01.17.03.26.04.09.01.19.03.28.04.09.01.17.03.26.04.09.01.19.03.28.04.09.01.18.02.26.04.09.01.19.02.29.04.09.01.17.02.26.03.1.01.19.02.29.03.09,0,.17.02.26.03.1.01.19.02.29.03.09,0,.17.02.26.03.1,0,.2.02.3.03.08,0,.17.01.26.02.1,0,.2.01.3.02.08,0,.17.01.25.02.1,0,.21.01.31.02.08,0,.17.01.25.01.11,0,.21.01.32.02.08,0,.16,0,.24.01.11,0,.22,0,.33.01.08,0,.15,0,.23,0,.13,0,.25,0,.38,0,.06,0,.12,0,.19,0,.19,0,.38,0,.56,0,.19,0,.38,0,.58,0,.07,0,.13,0,.2,0,.13,0,.25,0,.38,0,.08,0,.15,0,.23,0,.12,0,.23,0,.35-.01.08,0,.16,0,.24-.01.11,0,.22,0,.33-.01.08,0,.17,0,.25-.01.11,0,.21-.01.32-.02.09,0,.17-.01.26-.02.1,0,.21-.01.31-.02.09,0,.17-.01.26-.02.1,0,.2-.02.3-.02.09,0,.18-.02.26-.02.1,0,.2-.02.3-.03.09,0,.18-.02.26-.03.1-.01.2-.02.3-.03.09-.01.18-.02.27-.03.1-.01.2-.02.29-.04.09-.01.18-.02.26-.03.1-.01.2-.03.29-.04.09-.01.18-.03.26-.04.1-.01.19-.03.29-.04.09-.01.18-.03.26-.04.1-.02.19-.03.29-.05.09-.01.18-.03.26-.04.1-.02.19-.03.29-.05.09-.02.18-.03.26-.05.1-.02.19-.04.29-.05.09-.02.17-.03.26-.05.09-.02.19-.04.28-.06.09-.02.17-.04.26-.05.09-.02.19-.04.28-.06.09-.02.17-.04.26-.06.09-.02.19-.04.28-.06.09-.02.17-.04.26-.06.09-.02.19-.04.28-.07.09-.02.17-.04.26-.06.09-.02.18-.05.28-.07.09-.02.17-.04.26-.07.09-.02.18-.05.28-.07.09-.02.17-.05.26-.07.09-.03.18-.05.28-.08.09-.02.17-.05.25-.07.09-.03.18-.05.27-.08.08-.03.17-.05.25-.08.09-.03.18-.06.27-.08.08-.03.17-.05.25-.08.09-.03.18-.06.27-.09.08-.03.17-.05.25-.08.09-.03.18-.06.27-.09.08-.03.17-.06.25-.09.09-.03.18-.06.27-.1.08-.03.16-.06.25-.09.09-.03.18-.07.27-.1.08-.03.16-.06.24-.09.09-.03.18-.07.27-.1.08-.03.16-.06.24-.09.09-.03.18-.07.27-.11.08-.03.16-.06.24-.1.09-.04.18-.07.27-.11.08-.03.16-.07.24-.1.09-.04.18-.08.27-.11.08-.03.16-.07.23-.1.09-.04.18-.08.27-.12.08-.03.16-.07.23-.1.09-.04.18-.08.27-.12.08-.03.15-.07.23-.1.09-.04.18-.08.27-.13.07-.03.15-.07.22-.1.09-.04.18-.09.27-.13.07-.03.14-.07.21-.1.09-.05.19-.09.28-.14.07-.03.14-.07.21-.1.1-.05.2-.1.29-.15.06-.03.13-.06.19-.1.11-.06.22-.12.33-.17.05-.03.1-.05.15-.08.16-.09.32-.17.47-.26.03-.01.05-.03.08-.04.13-.07.26-.15.39-.22.06-.03.11-.06.17-.1.1-.06.2-.12.3-.18.06-.04.13-.08.19-.11.09-.05.18-.11.27-.16.07-.04.13-.08.2-.12.09-.05.17-.11.26-.16.07-.04.14-.09.2-.13.08-.05.17-.11.25-.16.07-.04.14-.09.21-.13.08-.05.16-.11.24-.16.07-.05.14-.09.21-.14.08-.05.16-.11.24-.16.07-.05.14-.09.21-.14.08-.05.16-.11.24-.16.07-.05.14-.1.21-.15.08-.05.16-.11.23-.16.07-.05.14-.1.21-.15.08-.06.15-.11.23-.17.07-.05.14-.1.2-.15.08-.06.15-.11.23-.17.07-.05.14-.1.2-.15.08-.06.15-.11.23-.17.07-.05.14-.1.2-.16.07-.06.15-.12.22-.17.07-.05.13-.11.2-.16.07-.06.15-.12.22-.18.07-.05.13-.11.2-.16.07-.06.14-.12.22-.18.07-.05.13-.11.2-.17.07-.06.14-.12.21-.18.07-.06.13-.11.2-.17.07-.06.14-.12.21-.18.06-.06.13-.11.19-.17.07-.06.14-.12.21-.19.06-.06.13-.11.19-.17.07-.06.14-.12.21-.19.06-.06.13-.12.19-.18.07-.06.14-.13.2-.19.06-.06.13-.12.19-.18.07-.06.14-.13.2-.19.06-.06.12-.12.19-.18.07-.06.13-.13.2-.19.06-.06.12-.12.18-.18.07-.07.13-.13.2-.2.06-.06.12-.12.18-.18.07-.07.13-.13.2-.2.04-.04.07-.07.11-.11h0Zm-4.75-59.18c-16.41-15.5-42.42-14-57.01,3.25-13.91,16.45-10.38,38.49-.98,49.06h0c0-1.39,0-2.76,0-4.13,0-1.24,0-2.49,0-3.73,0-1.1,0-2.19,0-3.29,0-1.13,0-2.27,0-3.4,0-.71,0-1.41,0-2.12,0-1.83,0-3.67.02-5.5,0-.05,0-.1,0-.15-.03-.55-.04-1.1-.04-1.65,0-4.2.82-8.27,2.45-12.11,1.57-3.7,3.81-7.03,6.67-9.89s6.18-5.1,9.89-6.67c3.84-1.62,7.91-2.45,12.11-2.45s8.27.82,12.11,2.45c3.7,1.57,7.03,3.81,9.89,6.67s5.1,6.18,6.67,9.89c1.62,3.84,2.45,7.91,2.45,12.11,0,.84-.03,1.68-.1,2.51,0,.17,0,.33,0,.5-.05,6.36-.06,13.67-.08,19.94.01.34.04.7.06,1.12,10.88-13,12.45-36.8-4.07-52.41Zm-26.91.4h0c-15.43,0-27.93,12.51-27.93,27.93h0c0,.27,0,.54.01.8,1.57,0,3.21,0,3.89,0q2.15,0,2.15,2.08c0,3.23,0,6.46,0,9.69v4.8c2.31,2.9,5.18,5.33,8.44,7.12,0-1.16,0-2.36,0-3.57v-.1c0-7.55,0-15.37-.02-18.58,0-1.07.28-1.51,1.43-1.46,2.06.08,4.13.1,6.18,0,1.35-.07,1.64.45,1.63,1.69,0,1.46-.01,3.6-.01,6.16,0,5.53.02,12.87.04,19,1.37.21,2.77.31,4.19.31h0c1.39,0,2.75-.1,4.09-.3.03-8.73.06-19.83.07-24.36,0-2.73-.41-2.45,2.46-2.47,2.18-.01,4.37,0,6.71,0,0,4.57-.01,15.08-.03,23.77,3.28-1.78,6.16-4.19,8.48-7.08,0-6.5,0-13.11-.02-15.41,0-.98.31-1.33,1.29-1.29.91.04,2.98.03,4.87.03,0-.27.01-.54.01-.81h0c0-15.43-12.51-27.93-27.93-27.93Z"/>
</svg>