<svg width="35" height="36" viewBox="0 0 35 36" fill="none" xmlns="http://www.w3.org/2000/svg">
<path d="M34.3558 17.3546C34.3558 11.1603 28.499 6.12109 21.3007 6.12109C11.5241 6.12109 2.17042 15.7498 1.77481 16.1598L0.628906 17.3546L1.77481 18.5494C2.03855 18.8227 6.3266 23.2314 12.0607 26.1148V26.441C12.0607 28.7071 13.6022 30.4794 15.5712 30.4794H22.2647C23.7562 30.4794 25.0021 29.461 25.5205 27.9797C30.6498 26.4675 34.3513 22.2747 34.3513 17.3546H34.3558ZM21.3007 25.0831C14.9755 25.0831 8.40924 19.8191 5.70363 17.3766C14.3752 19.7618 24.1473 19.7309 30.7408 17.3325C30.7408 17.3414 30.7408 17.3502 30.7408 17.359C30.7408 21.6178 26.5073 25.0875 21.3007 25.0875V25.0831ZM7.23605 9.6525C6.15381 8.40042 3.90747 8.08739 2.47509 9.2469C1.04725 10.4108 0.974497 12.6108 2.05674 13.8629L7.23151 9.6525H7.23605ZM2.47963 25.4094C3.90747 26.5733 6.15836 26.2558 7.2406 25.0038L2.06584 20.7934C0.983591 22.0455 1.0518 24.2455 2.48418 25.4094H2.47963Z" fill="#488791"/>
</svg>
