<svg width="36" height="36" viewBox="0 0 36 36" fill="none" xmlns="http://www.w3.org/2000/svg">
<path d="M34.9796 17.1629C34.9796 10.8553 29.0156 5.72397 21.6856 5.72397C11.7302 5.72397 2.20545 15.5288 1.80261 15.9463L0.635742 17.1629L1.80261 18.3796C2.07117 18.6579 6.43766 23.1473 12.2766 26.0833V26.4156C12.2766 28.7231 13.8463 30.5278 15.8513 30.5278H22.6673C24.1861 30.5278 25.4548 29.4908 25.9827 27.9824C31.2058 26.4425 34.9749 22.1731 34.9749 17.1629H34.9796ZM21.6856 25.0328C15.2447 25.0328 8.55839 19.6725 5.80329 17.1854C14.6335 19.6141 24.5843 19.5827 31.2984 17.1405C31.2984 17.1495 31.2984 17.1584 31.2984 17.1674C31.2984 21.5042 26.9875 25.0373 21.6856 25.0373V25.0328ZM7.36374 9.31997C6.2617 8.04498 3.97427 7.72624 2.51569 8.90695C1.06174 10.0921 0.987654 12.3323 2.08969 13.6073L7.35911 9.31997H7.36374ZM2.52032 25.365C3.97427 26.5502 6.26633 26.227 7.36837 24.952L2.09895 20.6647C0.996915 21.9396 1.06637 24.1798 2.52495 25.365H2.52032Z" fill="white"/>
</svg>
