<svg width="56" height="55" viewBox="0 0 56 55" fill="none" xmlns="http://www.w3.org/2000/svg">
<path d="M0.572266 38.9288C0.572266 31.3298 0.572266 23.7309 0.572266 16.132C0.632987 16.0806 0.693709 16.0292 0.754431 15.9732C6.01855 10.7095 11.2827 5.44582 16.5468 0.18215C16.6028 0.126104 16.6495 0.0607167 16.7009 0C24.3005 0 31.9001 0 39.4997 0C39.5744 0.0934103 39.6445 0.196162 39.7285 0.284901C44.9413 5.4972 50.1587 10.7142 55.3761 15.9218C55.5162 16.0619 55.5676 16.1973 55.5676 16.3935C55.5676 23.8009 55.5676 31.2131 55.5676 38.6205C55.5676 38.812 55.5209 38.9521 55.3808 39.0922C50.1447 44.3232 44.9132 49.5542 39.6865 54.7945C39.5417 54.9393 39.3969 55 39.196 55C31.7973 54.9953 24.3939 54.9953 16.9952 55C16.7803 55 16.6309 54.9346 16.4814 54.7805C11.2733 49.5635 6.06059 44.3466 0.843179 39.1343C0.763773 39.0549 0.665684 38.9988 0.576937 38.9288H0.572266ZM45.4831 27.5187C45.4831 25.1974 45.4831 22.8762 45.4784 20.5596C45.4784 20.4195 45.4177 20.2373 45.3196 20.1393C42.0406 16.8466 38.7523 13.5538 35.4593 10.2751C35.3612 10.1771 35.1837 10.107 35.0436 10.1023C30.4101 10.093 25.7812 10.093 21.1476 10.1023C20.9982 10.1023 20.816 10.1817 20.7086 10.2845C17.4343 13.5445 14.1693 16.8185 10.895 20.0832C10.7362 20.242 10.6708 20.4008 10.6708 20.625C10.6755 25.2114 10.6755 29.7979 10.6708 34.3843C10.6708 34.6085 10.7315 34.7673 10.8903 34.9261C14.1553 38.1861 17.4202 41.4462 20.6759 44.7155C20.8207 44.8603 20.9701 44.9164 21.171 44.9164C25.7859 44.9164 30.4007 44.9164 35.0109 44.9164C35.2024 44.9164 35.3472 44.865 35.4827 44.7295C38.7523 41.4508 42.0313 38.1768 45.3056 34.9028C45.4364 34.772 45.4878 34.6412 45.4878 34.4544C45.4831 32.1425 45.4878 29.8306 45.4878 27.5187H45.4831ZM29.7001 20.6203C29.7001 22.8949 29.7001 25.1741 29.7001 27.4486C29.7001 27.6448 29.6861 27.8409 29.6534 28.0371C29.5039 28.9198 29.0415 29.527 28.1447 29.7559C27.5048 29.9193 26.8742 29.9193 26.2343 29.7465C25.4215 29.5317 24.9451 29.0086 24.7769 28.2006C24.7302 27.9811 24.7115 27.7569 24.7069 27.5327C24.7022 25.2208 24.7069 22.9089 24.7069 20.597V20.2841H13.9171V22.1056H17.1493V31.5307H19.5035V22.1196H22.3574C22.3574 22.2457 22.3574 22.3531 22.3574 22.4605C22.3574 24.2166 22.3527 25.9727 22.3574 27.7289C22.3667 29.6298 23.3336 30.9795 25.1366 31.5213C26.5519 31.9463 27.9859 31.9323 29.3965 31.484C30.5549 31.115 31.4096 30.3817 31.7833 29.2001C31.9328 28.719 32.0122 28.2006 32.0169 27.6962C32.0449 25.8887 32.0262 24.0765 32.0262 22.2644C32.0262 22.1709 32.0262 22.0822 32.0262 21.9888C32.1149 22.0822 32.157 22.1803 32.1897 22.2784C33.3107 25.2862 34.4364 28.294 35.5527 31.3065C35.6228 31.5026 35.7115 31.5633 35.9171 31.5587C36.543 31.5447 37.1735 31.54 37.7994 31.5587C38.0377 31.568 38.1357 31.4886 38.2198 31.2691C39.481 27.9017 40.7515 24.5389 42.0173 21.1715C42.1247 20.8819 42.2321 20.5876 42.3489 20.27C41.5922 20.27 40.8636 20.2794 40.1396 20.2654C39.9341 20.2654 39.8453 20.3261 39.7799 20.5222C38.9578 23.0023 38.1264 25.4777 37.295 27.953C37.1735 28.3173 37.0521 28.677 36.9073 29.102C36.6457 28.3173 36.4075 27.5981 36.1693 26.8835C35.4687 24.7584 34.7633 22.638 34.0627 20.5129C34.0253 20.4055 34.0253 20.27 33.8385 20.27C32.4793 20.2747 31.1154 20.27 29.7094 20.27C29.7094 20.4055 29.7094 20.5129 29.7094 20.6157L29.7001 20.6203ZM42.3909 33.2821V32.6516H13.7583V33.2821H42.3909ZM29.0041 37.5369C28.9948 38.443 28.9808 39.3444 28.9574 40.2505C28.9481 40.5774 28.8033 40.8297 28.4903 40.9744C27.6682 41.3528 26.8975 40.8997 26.8508 40.003C26.8508 39.9329 26.8415 39.8582 26.8415 39.7881C26.8368 38.7046 26.8321 37.621 26.8275 36.5374C26.8275 36.4347 26.8275 36.3273 26.8275 36.2105H25.7298C25.7298 36.7663 25.7251 37.3081 25.7298 37.8545C25.7438 38.7046 25.7391 39.5546 25.7905 40.4046C25.8466 41.3014 26.3464 41.8758 27.2105 42.0113C27.6729 42.086 28.1587 42.086 28.6211 42.0206C29.4385 41.8992 29.9243 41.3808 30.0224 40.6148C30.0597 40.3206 30.0831 40.0263 30.0878 39.7321C30.0971 38.6298 30.0971 37.5276 30.0971 36.4254C30.0971 36.3553 30.0831 36.2899 30.0784 36.2105H29.0088C29.0088 36.6682 29.0088 37.1073 29.0088 37.5416L29.0041 37.5369ZM30.5408 36.1638C31.3583 36.1918 32.1616 36.1825 32.9604 36.2619C33.5676 36.3226 33.9273 36.7756 34.1655 37.3034C34.5111 38.06 34.5532 38.8634 34.4644 39.6714C34.4224 40.0684 34.3149 40.4654 34.1748 40.8343C33.9086 41.5489 33.3574 41.9366 32.596 41.9693C31.9188 41.9973 31.2368 41.9739 30.5362 41.9739V36.1591L30.5408 36.1638ZM31.4937 41.0025C31.8534 41.0025 32.1897 41.0165 32.526 41.0025C32.9837 40.9744 33.264 40.7222 33.3714 40.2785C33.5536 39.5359 33.5536 38.7886 33.3994 38.0414C33.32 37.6677 33.1332 37.3314 32.7222 37.252C32.3251 37.1773 31.9141 37.1726 31.4937 37.1353V41.0071V41.0025ZM24.1277 36.2012C23.712 36.1171 23.2542 36.1451 22.8292 36.2058C22.5956 36.2385 22.3527 36.416 22.1752 36.5888C21.4933 37.2427 21.54 38.798 22.7871 39.2837C23.1795 39.4378 23.5812 39.5546 23.9782 39.69C24.2398 39.7788 24.436 39.9376 24.4593 40.2365C24.4873 40.5448 24.3566 40.7783 24.0997 40.9371C23.5532 41.278 22.8385 41.0305 22.6143 40.428C22.5629 40.2879 22.5256 40.1431 22.4835 39.9936C22.1752 40.0357 21.8856 40.073 21.6007 40.1057C21.6007 41.2033 22.2406 41.9459 23.2589 42.072C24.2585 42.1981 25.0385 41.7778 25.3234 40.9604C25.6924 39.8909 25.2394 38.9288 24.1837 38.5364C24.0576 38.4897 23.9315 38.4524 23.8054 38.4057C23.5298 38.3076 23.2449 38.2188 22.9786 38.0974C22.7684 38.004 22.647 37.8172 22.675 37.5743C22.7031 37.3454 22.8432 37.196 23.0627 37.1399C23.7213 36.9765 24.2164 37.1026 24.3332 37.7938C24.3379 37.8265 24.3519 37.8545 24.3612 37.9012C24.6788 37.8779 24.9825 37.8592 25.2814 37.8405C25.3374 37.0512 24.875 36.3413 24.137 36.1965L24.1277 36.2012ZM28.8687 20.2887H27.4814V22.5119H28.8687V20.2887ZM26.8695 20.2841H25.5476V22.5119H26.8695V20.2841ZM27.757 36.2105H27.2572V37.0839H27.757V36.2105ZM28.0839 36.2012V37.0792H28.5837V36.2012H28.0839Z" fill="black"/>
</svg>
