<?xml version="1.0" encoding="UTF-8"?>
<svg id="Layer_1" data-name="Layer 1" xmlns="http://www.w3.org/2000/svg" viewBox="0 0 154 179.45">
  <path id="LkxpfX" d="m11.27,117.05c0-18.17,0-36.33,0-54.5.14-.13.3-.25.43-.38,12.59-12.58,25.17-25.16,37.75-37.74.13-.13.25-.29.37-.44,18.16,0,36.33,0,54.49,0,.18.23.35.47.55.68,12.46,12.46,24.93,24.93,37.4,37.38.33.33.46.66.46,1.12-.01,17.71,0,35.43,0,53.14,0,.46-.12.79-.45,1.13-12.52,12.5-25.02,25.01-37.52,37.53-.34.35-.69.49-1.18.49-17.69-.01-35.38-.01-53.07,0-.52,0-.87-.16-1.23-.52-12.45-12.47-24.91-24.94-37.38-37.4-.19-.19-.42-.33-.64-.49Zm107.36-27.27c0-5.55,0-11.09-.02-16.64,0-.34-.15-.77-.38-1-7.84-7.88-15.7-15.74-23.57-23.58-.24-.24-.66-.41-1-.41-11.07-.02-22.14-.02-33.22,0-.35,0-.8.19-1.05.44-7.83,7.8-15.64,15.62-23.46,23.42-.38.38-.54.76-.54,1.29.01,10.97.01,21.93,0,32.9,0,.53.14.91.53,1.3,7.81,7.79,15.61,15.59,23.4,23.4.35.35.7.48,1.19.48,11.03-.01,22.06-.01,33.09,0,.46,0,.8-.12,1.13-.45,7.82-7.84,15.65-15.67,23.49-23.49.31-.31.43-.63.43-1.07-.01-5.53,0-11.05,0-16.58Zm-37.73-16.49c0,5.44,0,10.88,0,16.32,0,.47-.03.94-.11,1.4-.36,2.11-1.46,3.57-3.61,4.11-1.53.39-3.04.39-4.57-.02-1.94-.52-3.08-1.76-3.49-3.7-.11-.52-.16-1.06-.16-1.59-.01-5.53,0-11.05,0-16.58v-.75h-25.79v4.36h7.73v22.53h5.63v-22.5h6.82c0,.3,0,.56,0,.81,0,4.2-.01,8.4,0,12.6.02,4.55,2.34,7.77,6.64,9.06,3.39,1.02,6.82.98,10.19-.09,2.76-.88,4.82-2.63,5.7-5.46.36-1.15.54-2.39.56-3.59.07-4.33.03-8.65.03-12.98,0-.22,0-.44,0-.65.22.22.31.46.4.69,2.68,7.19,5.37,14.38,8.04,21.58.17.46.38.61.87.6,1.5-.03,3-.04,4.5,0,.57.02.81-.17,1-.69,3.01-8.05,6.05-16.09,9.07-24.14.26-.7.51-1.39.79-2.15-1.81,0-3.55.02-5.28-.01-.49,0-.7.15-.86.61-1.97,5.92-3.96,11.84-5.94,17.76-.29.87-.59,1.73-.93,2.75-.62-1.88-1.19-3.59-1.76-5.31-1.68-5.08-3.36-10.15-5.04-15.22-.09-.26-.09-.58-.54-.58-3.25.02-6.51,0-9.87,0,0,.33,0,.58,0,.83Zm30.33,30.27v-1.51H42.79v1.51h68.45Zm-32,10.18c-.03,2.16-.06,4.32-.11,6.48-.02.78-.37,1.39-1.12,1.73-1.97.9-3.81-.18-3.92-2.32,0-.17-.02-.34-.02-.51-.01-2.59-.02-5.18-.03-7.77,0-.25,0-.5,0-.79h-2.62c0,1.33-.02,2.63,0,3.93.03,2.03.02,4.07.15,6.1.13,2.14,1.33,3.51,3.39,3.85,1.1.18,2.27.18,3.37.02,1.96-.29,3.11-1.53,3.35-3.36.09-.7.15-1.41.15-2.11.02-2.63.02-5.27.02-7.9,0-.16-.03-.33-.05-.52h-2.56c0,1.1.01,2.14,0,3.19Zm3.67-3.28c1.95.07,3.88.04,5.78.24,1.45.15,2.31,1.22,2.88,2.49.82,1.81.92,3.73.72,5.67-.1.94-.36,1.89-.69,2.78-.64,1.71-1.95,2.64-3.77,2.72-1.62.07-3.25.01-4.92.01v-13.9Zm2.28,11.57c.86,0,1.67.04,2.47,0,1.09-.06,1.76-.67,2.03-1.74.44-1.78.44-3.57.06-5.34-.19-.89-.64-1.7-1.62-1.88-.95-.18-1.93-.19-2.94-.28v9.25Zm-17.61-11.48c-1-.2-2.09-.14-3.1.01-.56.08-1.14.5-1.57.92-1.63,1.56-1.51,5.28,1.46,6.44.93.37,1.9.65,2.85.97.63.22,1.09.59,1.15,1.31.07.74-.24,1.29-.86,1.67-1.31.81-3.02.23-3.55-1.22-.12-.33-.21-.68-.31-1.04-.74.1-1.43.18-2.11.27.01,2.62,1.53,4.39,3.96,4.7,2.39.3,4.26-.7,4.93-2.66.88-2.56-.2-4.86-2.72-5.8-.3-.11-.61-.2-.91-.31-.66-.24-1.34-.44-1.98-.74-.5-.23-.79-.67-.72-1.25.07-.54.4-.91.92-1.04,1.57-.39,2.76-.09,3.03,1.56.01.08.04.15.07.25.76-.05,1.48-.1,2.2-.15.13-1.88-.97-3.58-2.74-3.93Zm11.33-38.04h-3.32v5.31h3.32v-5.31Zm-4.78-.01h-3.16v5.33h3.16v-5.33Zm2.12,38.08h-1.19v2.09h1.19v-2.09Zm.78-.02v2.09h1.19v-2.09h-1.19Z"/>
</svg>