<svg width="56" height="56" viewBox="0 0 56 56" fill="none" xmlns="http://www.w3.org/2000/svg">
<path d="M40.152 15.6432C36.8572 12.3417 32.475 10.5259 27.8068 10.5259C18.1907 10.5259 10.364 18.3525 10.364 27.9752C10.364 31.0501 11.1696 34.0566 12.6949 36.6977L10.2188 45.7415L19.4695 43.3139C22.0204 44.7027 24.8905 45.44 27.8046 45.44H27.8112C37.4273 45.44 45.2605 37.6133 45.2605 27.9906C45.2605 23.3268 43.4448 18.9468 40.1499 15.6454L40.152 15.6432ZM27.8112 42.4951C25.2052 42.4951 22.6521 41.793 20.4247 40.4724L19.8943 40.1555L14.4051 41.5927L15.8709 36.2421L15.5275 35.6918C14.0683 33.3875 13.3068 30.7198 13.3068 27.9752C13.3068 19.9769 19.8128 13.4686 27.82 13.4686C31.6916 13.4686 35.3385 14.9829 38.0744 17.7187C40.8124 20.4633 42.3179 24.1015 42.3179 27.9796C42.3112 35.9846 35.8051 42.4951 27.8112 42.4951ZM35.7634 31.6288C35.3298 31.4088 33.1837 30.3567 32.7854 30.2114C32.387 30.0662 32.0965 29.9913 31.8016 30.4316C31.5132 30.8652 30.6747 31.849 30.4193 32.1439C30.1641 32.4322 29.9109 32.474 29.4773 32.254C29.0437 32.0338 27.6329 31.5739 25.969 30.0881C24.6748 28.9326 23.7966 27.5021 23.5413 27.0685C23.286 26.6348 23.5127 26.3949 23.735 26.1814C23.9353 25.9877 24.1686 25.673 24.3886 25.4177C24.6088 25.1624 24.677 24.9841 24.8223 24.6892C24.9675 24.4009 24.8971 24.1455 24.787 23.9255C24.677 23.7053 23.8032 21.5594 23.4466 20.6856C23.0967 19.8316 22.7313 19.9505 22.4628 19.9351C22.2075 19.9219 21.9192 19.9219 21.6309 19.9219C21.3425 19.9219 20.8671 20.0319 20.4687 20.4655C20.0704 20.8991 18.9412 21.9578 18.9412 24.1037C18.9412 26.2496 20.5017 28.3208 20.7219 28.6157C20.942 28.904 23.7966 33.3126 28.1699 35.1989C29.2088 35.6457 30.021 35.9142 30.6526 36.1211C31.6981 36.4512 32.6467 36.4028 33.3972 36.2928C34.2359 36.1695 35.9769 35.2407 36.3421 34.2216C36.7075 33.2026 36.7075 32.331 36.5975 32.1505C36.494 31.9568 36.2058 31.849 35.7655 31.6267L35.7634 31.6288Z" fill="black"/>
</svg>
