<svg width="56" height="56" viewBox="0 0 56 56" fill="none" xmlns="http://www.w3.org/2000/svg">
<path d="M46.8164 19.9742C46.8164 19.9742 46.459 17.4479 45.3574 16.3393C43.9624 14.8803 42.4004 14.8712 41.6857 14.7864C36.5621 14.4131 28.8661 14.4131 28.8661 14.4131H28.8524C28.8524 14.4131 21.1588 14.4131 16.0328 14.7864C15.3159 14.8734 13.7561 14.8803 12.3613 16.3393C11.2596 17.4479 10.9091 19.9742 10.9091 19.9742C10.9091 19.9742 10.5449 22.9381 10.5449 25.9088V28.6871C10.5449 31.6509 10.9091 34.6216 10.9091 34.6216C10.9091 34.6216 11.2665 37.148 12.3613 38.2588C13.7561 39.7178 15.5885 39.6698 16.4062 39.8255C19.3402 40.1049 28.8685 40.1896 28.8685 40.1896C28.8685 40.1896 36.5712 40.1759 41.695 39.8094C42.4119 39.7247 43.9716 39.7155 45.3665 38.2565C46.4682 37.148 46.8255 34.6194 46.8255 34.6194C46.8255 34.6194 47.1897 31.6555 47.1897 28.6848V25.9065C47.1828 22.9427 46.8186 19.972 46.8186 19.972L46.8164 19.9742ZM25.0709 32.0563V21.7562L34.9702 26.9234L25.0709 32.0563Z" fill="black"/>
</svg>
