<?xml version="1.0" encoding="UTF-8" standalone="no"?>
<svg
   id="Layer_2"
   data-name="Layer 2"
   viewBox="0 0 164.46 34.02"
   version="1.1"
   sodipodi:docname="kandinsky lite_logo1.svg"
   xml:space="preserve"
   width="164.46001"
   height="34.02"
   inkscape:version="1.2.2 (1:1.2.2+202212051552+b0a8486541)"
   xmlns:inkscape="http://www.inkscape.org/namespaces/inkscape"
   xmlns:sodipodi="http://sodipodi.sourceforge.net/DTD/sodipodi-0.dtd"
   xmlns="http://www.w3.org/2000/svg"
   xmlns:svg="http://www.w3.org/2000/svg"><sodipodi:namedview
     id="namedview11"
     pagecolor="#ffffff"
     bordercolor="#000000"
     borderopacity="0.25"
     inkscape:showpageshadow="2"
     inkscape:pageopacity="0.0"
     inkscape:pagecheckerboard="0"
     inkscape:deskcolor="#d1d1d1"
     showgrid="false"
     inkscape:zoom="6.9370957"
     inkscape:cx="71.211357"
     inkscape:cy="40.074408"
     inkscape:window-width="1920"
     inkscape:window-height="1063"
     inkscape:window-x="0"
     inkscape:window-y="0"
     inkscape:window-maximized="1"
     inkscape:current-layer="Layer_2" /><defs
     id="defs4"><style
       id="style2">
      .cls-1 {
        fill: #010101;
      }

      .cls-2 {
        fill: #231f20;
      }
    </style></defs><path
     class="cls-2"
     d="M 0.01,17.98 V 34.02 H 44.9 V 17.98 Z M 12.13,31.74 H 4.74 V 20.25 h 1.89 v 9.82 h 5.5 z m 5.45,-9.64 v 9.64 H 15.65 V 20.25 h 1.93 z m 12.89,-0.19 h -3.76 v 9.82 h -1.89 v -9.82 h -3.77 v -1.67 h 9.42 z m 10.79,9.82 H 33.9 V 20.24 h 7.32 v 1.6 h -5.46 v 3.31 h 5.17 v 1.54 h -5.17 v 3.45 h 5.5 v 1.6 z"
     id="path6" /><path
     class="cls-1"
     d="M 0,0.35 H 2.66 V 5.12 L 6.42,0.35 h 3.16 l -4.83,6.18 5.3,7.66 H 6.93 L 2.66,8.04 v 6.15 H 0 Z m 24.21,0 H 21.54 L 16.2,14.19 h 2.74 l 1.13,-2.85 h 5.65 l 1.08,2.85 h 2.74 z m -3.18,8.42 1.86,-4.75 1.85,4.75 h -3.7 z M 36.97,0.35 h 2.53 l 5.92,9.11 V 0.35 h 2.63 V 14.19 H 45.52 L 39.61,5.11 v 9.08 H 36.98 V 0.35 Z M 66.63,3.53 C 66,2.41 65.19,1.6 64.21,1.1 63.23,0.6 61.74,0.35 59.73,0.35 h -3.12 v 13.84 h 3.17 c 1.79,0 3.05,-0.11 3.78,-0.34 0.73,-0.23 1.4,-0.63 2.03,-1.22 0.62,-0.59 1.11,-1.33 1.47,-2.22 0.35,-0.89 0.53,-1.87 0.53,-2.94 0,-1.5 -0.32,-2.81 -0.95,-3.93 z M 64.4,9.81 c -0.35,0.65 -0.79,1.12 -1.33,1.39 -0.54,0.28 -1.42,0.41 -2.62,0.41 H 59.23 V 2.89 h 0.89 c 1.64,0 2.83,0.36 3.57,1.09 0.82,0.81 1.23,1.95 1.23,3.42 0,0.95 -0.17,1.76 -0.52,2.41 z M 75.3,0.35 h 2.62 V 14.19 H 75.3 Z m 10.98,0 h 2.53 l 5.92,9.11 V 0.35 h 2.63 V 14.19 H 94.83 L 88.92,5.11 v 9.08 H 86.29 V 0.35 Z m 26.9,1.88 -1.95,1.72 C 110.55,3 109.85,2.52 109.14,2.52 c -0.35,0 -0.63,0.09 -0.85,0.28 -0.22,0.19 -0.33,0.39 -0.33,0.63 0,0.24 0.08,0.45 0.24,0.66 0.21,0.28 0.86,0.87 1.93,1.78 1,0.84 1.61,1.37 1.83,1.59 0.53,0.54 0.91,1.06 1.14,1.55 0.22,0.49 0.33,1.03 0.33,1.61 0,1.14 -0.39,2.07 -1.18,2.81 -0.79,0.74 -1.81,1.11 -3.07,1.11 -0.99,0 -1.84,-0.24 -2.58,-0.72 -0.73,-0.48 -1.36,-1.24 -1.88,-2.28 l 2.21,-1.34 c 0.67,1.22 1.43,1.84 2.3,1.84 0.45,0 0.83,-0.13 1.14,-0.39 0.31,-0.26 0.46,-0.57 0.46,-0.91 0,-0.31 -0.12,-0.63 -0.35,-0.94 -0.23,-0.31 -0.74,-0.79 -1.54,-1.44 -1.51,-1.23 -2.48,-2.18 -2.92,-2.85 -0.44,-0.67 -0.66,-1.33 -0.66,-2 0,-0.96 0.37,-1.78 1.1,-2.47 0.73,-0.69 1.63,-1.03 2.71,-1.03 0.69,0 1.35,0.16 1.97,0.48 0.63,0.32 1.3,0.9 2.03,1.75 z m 8.17,-1.88 h 2.66 v 4.77 l 3.76,-4.77 h 3.16 l -4.83,6.18 5.3,7.66 h -3.12 l -4.27,-6.15 v 6.15 h -2.66 z m 16.34,0 h 2.83 l 2.58,4.98 2.57,-4.98 h 2.79 l -4.05,7.85 v 5.99 h -2.65 V 8.2 Z"
     id="path8" /><g
     id="g1572"
     transform="matrix(0.01116071,0,0,0.01116071,153.86985,-0.45072229)"
     style="stroke-width:17.5"><path
       d="M 512,64 C 265.6,64 64,265.6 64,512 64,758.4 265.6,960 512,960 758.4,960 960,758.4 960,512 960,265.6 758.4,64 512,64 Z m 0,832 C 300.8,896 128,723.2 128,512 128,300.8 300.8,128 512,128 c 211.2,0 384,172.8 384,384 0,211.2 -172.8,384 -384,384 z"
       fill="#040000"
       p-id="2741"
       id="path1560"
       style="stroke-width:73.2078" /><path
       d="M 563.2,534.4 C 617.6,515.2 656,460.8 656,400 656,320 592,256 512,256 H 384 c -19.2,0 -32,12.8 -32,32 v 448 c 0,19.2 12.8,32 32,32 19.2,0 32,-12.8 32,-32 V 544 h 76.8 l 118.4,208 c 6.4,9.6 16,16 28.8,16 6.4,0 9.6,0 16,-3.2 16,-9.6 19.2,-28.8 12.8,-44.8 z M 416,320 h 96 c 44.8,0 80,35.2 80,80 0,44.8 -35.2,80 -80,80 h -96 z"
       fill="#040000"
       p-id="2742"
       id="path1562"
       style="stroke-width:73.2078" /></g></svg>
