<?xml version="1.0" encoding="UTF-8" standalone="no"?>
<svg
   width="212"
   height="17"
   viewBox="0 0 212 17"
   fill="none"
   version="1.1"
   id="svg4605"
   sodipodi:docname="kandinsky lite_logo2.svg"
   xml:space="preserve"
   inkscape:version="1.2.2 (1:1.2.2+202212051552+b0a8486541)"
   xmlns:inkscape="http://www.inkscape.org/namespaces/inkscape"
   xmlns:sodipodi="http://sodipodi.sourceforge.net/DTD/sodipodi-0.dtd"
   xmlns="http://www.w3.org/2000/svg"
   xmlns:svg="http://www.w3.org/2000/svg"><sodipodi:namedview
     id="namedview4607"
     pagecolor="#ffffff"
     bordercolor="#000000"
     borderopacity="0.25"
     inkscape:showpageshadow="2"
     inkscape:pageopacity="0.0"
     inkscape:pagecheckerboard="0"
     inkscape:deskcolor="#d1d1d1"
     showgrid="false"
     inkscape:zoom="6.77"
     inkscape:cx="118.75923"
     inkscape:cy="55.834564"
     inkscape:window-width="1920"
     inkscape:window-height="1063"
     inkscape:window-x="0"
     inkscape:window-y="0"
     inkscape:window-maximized="1"
     inkscape:current-layer="svg4605" /><g
     clip-path="url(#clip0_704_19676)"
     id="g4598"
     style="fill:#ffffff"><path
       d="m 154.76,0 v 16.04 h 44.89 V 0 Z m 12.12,13.76 h -7.39 V 2.27 h 1.89 v 9.82 h 5.5 z m 5.45,-9.64 v 9.64 H 170.4 V 2.27 h 1.93 z m 12.89,-0.19 h -3.76 v 9.82 h -1.89 V 3.94 H 175.8 V 2.27 h 9.42 v 1.67 z m 10.79,9.82 h -7.36 V 2.27 h 7.32 v 1.6 h -5.46 v 3.31 h 5.17 v 1.54 h -5.17 v 3.45 h 5.5 v 1.6 z"
       fill="white"
       id="path4594"
       style="fill:#ffffff" /><path
       d="m 0,1.09977 h 2.66 v 4.77 l 3.76,-4.77 h 3.16 l -4.83,6.18 5.3,7.66003 H 6.93 L 2.66,8.78977 V 14.9398 H 0 Z m 24.21,0 H 21.54 L 16.2,14.9398 h 2.74 l 1.13,-2.85 h 5.65 l 1.08,2.85 h 2.74 z m -3.18,8.42 1.86,-4.75 1.85,4.75 h -3.7 z m 15.94,-8.42 h 2.53 l 5.92,9.11003 V 1.09977 h 2.63 V 14.9398 H 45.52 L 39.61,5.85977 V 14.9398 H 36.98 V 1.09977 Z m 29.66,3.18 c -0.63,-1.12 -1.44,-1.93 -2.42,-2.43 -0.98,-0.5 -2.47,-0.75 -4.48,-0.75 H 56.61 V 14.9398 h 3.17 c 1.79,0 3.05,-0.11 3.78,-0.34 0.73,-0.23 1.4,-0.63 2.03,-1.22 0.62,-0.59 1.11,-1.33 1.47,-2.22 0.35,-0.89 0.53,-1.87003 0.53,-2.94003 0,-1.5 -0.32,-2.81 -0.95,-3.93 z M 64.4,10.5598 c -0.35,0.65 -0.79,1.12 -1.33,1.39 -0.54,0.28 -1.42,0.41 -2.62,0.41 H 59.23 V 3.63977 h 0.89 c 1.64,0 2.83,0.36 3.57,1.09 0.82,0.81 1.23,1.94999 1.23,3.42 0,0.94999 -0.17,1.76 -0.52,2.41003 z M 75.29,1.09977 h 2.62 V 14.9398 h -2.62 z m 10.98,0 h 2.53 l 5.92,9.11003 V 1.09977 h 2.63 V 14.9398 H 94.82 L 88.91,5.85977 V 14.9398 H 86.28 V 1.09977 Z m 26.9,1.88 -1.95,1.72 c -0.68,-0.95 -1.38,-1.43 -2.09,-1.43 -0.35,0 -0.63,0.09 -0.85,0.28 -0.22,0.19 -0.33,0.39 -0.33,0.63 0,0.24 0.08,0.45 0.24,0.66 0.21,0.28 0.86,0.87 1.93,1.78 1,0.84 1.61,1.37 1.83,1.59 0.53,0.54 0.91,1.06 1.14,1.55 0.22,0.49003 0.33,1.03003 0.33,1.61003 0,1.14 -0.39,2.07 -1.18,2.81 -0.79,0.74 -1.81,1.11 -3.07,1.11 -0.99,0 -1.84,-0.24 -2.58,-0.72 -0.73,-0.48 -1.36,-1.24 -1.88,-2.28 l 2.21,-1.34 c 0.67,1.22 1.43,1.84 2.3,1.84 0.45,0 0.83,-0.13 1.14,-0.39 0.31,-0.26 0.46,-0.57 0.46,-0.91 0,-0.31 -0.12,-0.63 -0.35,-0.94 -0.23,-0.31 -0.74,-0.79004 -1.54,-1.44003 -1.51,-1.23 -2.48,-2.18 -2.92,-2.85 -0.44,-0.67 -0.66,-1.33 -0.66,-2 0,-0.96 0.37,-1.78 1.1,-2.47 0.73,-0.69 1.63,-1.030004 2.71,-1.030004 0.69,0 1.35,0.16 1.97,0.480004 0.63,0.32 1.3,0.9 2.03,1.75 z m 8.17,-1.88 H 124 v 4.77 l 3.76,-4.77 h 3.16 l -4.83,6.18 5.3,7.66003 h -3.12 L 124,8.78977 v 6.15003 h -2.66 z m 16.34,0 h 2.83 l 2.58,4.98 2.57,-4.98 h 2.79 l -4.05,7.85 v 5.99003 h -2.65 V 8.94977 Z"
       fill="white"
       id="path4596"
       style="fill:#ffffff" /></g><defs
     id="defs4603"><clipPath
       id="clip0_704_19676"><rect
         width="199.64"
         height="16.040001"
         fill="#ffffff"
         id="rect4600"
         x="0"
         y="0" /></clipPath></defs><g
     id="g5867"
     transform="matrix(0.01116071,0,0,0.01116071,201.41784,-0.56311624)"
     style="fill:#ffffff;stroke-width:17.5"><path
       d="M 512,64 C 265.6,64 64,265.6 64,512 64,758.4 265.6,960 512,960 758.4,960 960,758.4 960,512 960,265.6 758.4,64 512,64 Z m 0,832 C 300.8,896 128,723.2 128,512 128,300.8 300.8,128 512,128 c 211.2,0 384,172.8 384,384 0,211.2 -172.8,384 -384,384 z"
       fill="#040000"
       p-id="2741"
       id="path5855"
       style="fill:#ffffff;stroke-width:73.2078" /><path
       d="M 563.2,534.4 C 617.6,515.2 656,460.8 656,400 656,320 592,256 512,256 H 384 c -19.2,0 -32,12.8 -32,32 v 448 c 0,19.2 12.8,32 32,32 19.2,0 32,-12.8 32,-32 V 544 h 76.8 l 118.4,208 c 6.4,9.6 16,16 28.8,16 6.4,0 9.6,0 16,-3.2 16,-9.6 19.2,-28.8 12.8,-44.8 z M 416,320 h 96 c 44.8,0 80,35.2 80,80 0,44.8 -35.2,80 -80,80 h -96 z"
       fill="#040000"
       p-id="2742"
       id="path5857"
       style="fill:#ffffff;stroke-width:73.2078" /></g></svg>
