<svg width="56" height="56" viewBox="0 0 56 56" fill="none" xmlns="http://www.w3.org/2000/svg">
<path d="M5 5V50.24H50.24V5H5ZM48.9 7.49L46.6 6.34H48.9V7.49ZM48.89 48.9L46.45 47.68L43.13 46.02V43.25L46.45 44.91L48.91 46.14V48.9H48.9H48.89ZM38.47 48.9L42.23 47.02V48.9H38.47ZM23.41 48.9L27.17 47.02V48.9H23.41ZM8.35 48.9L12.11 47.02V48.9H8.35ZM6.34 48.9V46.14L8.79 44.91L12.11 43.25V46.02L8.79 47.68L6.35 48.9H6.34ZM10.64 6.34H12.12V8.37L8.8 10.03L6.35 11.26V8.49L8.8 7.26L10.64 6.34ZM35.6 41.8V39.03L42.24 35.71V38.48L35.6 41.8ZM42.24 39.48V42.25L35.6 45.57V42.8L42.24 39.48ZM35.6 38.03V35.26L42.24 31.94V34.71L35.6 38.03ZM35.6 34.26V31.49L42.24 28.17V30.94L35.6 34.26ZM35.6 30.5V27.73L42.24 24.41V27.18L35.6 30.5ZM35.6 26.74V23.97L42.24 20.65V23.42L35.6 26.74ZM35.6 22.98V20.21L42.24 16.89V19.66L35.6 22.98ZM35.6 19.22V16.45L42.24 13.13V15.9L35.6 19.22ZM35.6 15.45V12.68L36.89 12.03L42.24 9.36V12.13L35.6 15.45ZM35.6 11.69V8.92L40.76 6.34H42.24V8.37L35.6 11.69ZM35.6 7.93V6.35H38.76L35.6 7.93ZM31.39 14.8L34.71 16.46V19.23L28.07 15.91V13.14L31.39 14.8ZM28.07 12.14V9.37L31.39 11.03L34.71 12.69V15.46L28.07 12.14ZM31.39 18.56L34.71 20.22V22.99L31.39 21.33L28.07 19.67V16.9L31.39 18.56ZM31.39 22.32L34.71 23.98V26.75L31.39 25.09L28.07 23.43V20.66L31.39 22.32ZM31.39 26.08L34.71 27.74V30.51L31.39 28.85L28.07 27.19V24.42L31.39 26.08ZM34.71 31.5V34.27L28.07 30.95V28.18L34.71 31.5ZM34.71 35.26V38.03L28.07 34.71V31.94L34.71 35.26ZM31.39 37.37L34.71 39.03V41.8L31.39 40.14L28.07 38.48V35.71L31.39 37.37ZM31.39 41.13L34.71 42.79V45.56L31.39 43.9L28.07 42.24V39.47L31.39 41.13ZM31.39 7.25L34.71 8.91V11.68L31.39 10.02L28.07 8.36V6.33H29.55L31.39 7.25ZM31.55 6.33H34.71V7.91L31.55 6.33ZM20.55 41.79V39.02L27.19 35.7V38.47L20.55 41.79ZM27.19 39.47V42.24L20.55 45.56V42.79L27.19 39.47ZM20.55 38.02V35.25L27.19 31.93V34.7L20.55 38.02ZM20.55 34.25V31.48L27.19 28.16V30.93L20.55 34.25ZM20.55 30.49V27.72L27.19 24.4V27.17L20.55 30.49ZM20.55 26.73V23.96L27.19 20.64V23.41L20.55 26.73ZM20.55 22.97V20.2L27.19 16.88V19.65L20.55 22.97ZM20.55 19.21V16.44L27.19 13.12V15.89L20.55 19.21ZM20.55 15.44V12.67L25.9 10L27.19 9.35V12.12L20.55 15.44ZM20.55 11.68V8.91L25.71 6.33H27.19V8.36L20.55 11.68ZM20.55 7.92V6.34H23.71L20.55 7.92ZM16.34 14.79L19.66 16.45V19.22L13.02 15.9V13.13L16.34 14.79ZM13.02 12.13V9.36L16.34 11.02L19.66 12.68V15.45L13.02 12.13ZM16.34 18.55L19.66 20.21V22.98L16.34 21.32L13.02 19.66V16.89L16.34 18.55ZM16.34 22.31L19.66 23.97V26.74L16.34 25.08L13.02 23.42V20.65L16.34 22.31ZM16.34 26.07L19.66 27.73V30.5L16.34 28.84L13.02 27.18V24.41L16.34 26.07ZM19.66 31.49V34.26L13.02 30.94V28.17L19.66 31.49ZM19.66 35.25V38.02L13.02 34.7V31.93L19.66 35.25ZM16.34 37.36L19.66 39.02V41.79L16.34 40.13L13.02 38.47V35.7L16.34 37.36ZM16.34 41.12L19.66 42.78V45.55L16.34 43.89L13.02 42.23V39.46L16.34 41.12ZM16.34 7.24L19.66 8.9V11.67L16.34 10.01L13.02 8.35V6.32H14.5L16.34 7.24ZM16.5 6.32H19.66V7.9L16.5 6.32ZM8.81 11.01L12.13 9.35V12.12L6.36 15V12.23L8.81 11V11.01ZM8.81 14.77L12.13 13.11V15.88L6.36 18.77V16L8.81 14.77ZM8.81 18.53L12.13 16.87V19.64L8.81 21.3L6.36 22.53V19.76L8.81 18.53ZM8.81 22.29L12.13 20.63V23.4L8.81 25.06L6.36 26.29V23.52L8.81 22.29ZM8.81 26.05L12.13 24.39V27.16L8.81 28.82L6.36 30.05V27.28L8.81 26.05ZM12.13 28.16V30.93L6.36 33.81V31.04L12.13 28.15V28.16ZM12.13 31.93V34.7L6.36 37.59V34.82L12.13 31.94V31.93ZM8.81 37.35L12.13 35.69V38.46L8.81 40.12L6.36 41.35V38.58L8.81 37.35ZM8.81 41.11L12.13 39.45V42.22L8.81 43.88L6.36 45.11V42.34L8.81 41.11ZM13.02 46.98L16.78 48.86H13.02V46.98ZM16.34 47.64L13.02 45.98V43.21L16.34 44.87L19.66 46.53V48.86H18.79L16.35 47.64H16.34ZM20.55 48.86V46.53L27.19 43.21V45.98L21.43 48.86H20.56H20.55ZM28.08 46.98L31.84 48.86H28.08V46.98ZM31.4 47.64L28.08 45.98V43.21L31.4 44.87L34.72 46.53V48.86H33.85L31.41 47.64H31.4ZM35.61 48.86V46.53L42.25 43.21V45.98L36.49 48.86H35.62H35.61ZM43.14 46.98L46.9 48.86H43.14V46.98ZM46.46 43.88L43.14 42.22V39.45L46.46 41.11L48.92 42.34V45.11L46.46 43.88ZM46.46 40.12L43.14 38.46V35.69L46.46 37.35L48.92 38.58V41.35L46.46 40.12ZM43.14 34.7V31.93L48.91 34.82V37.59L43.14 34.7ZM43.14 30.94V28.17L48.91 31.06V33.83L43.14 30.94ZM46.46 28.83L43.14 27.17V24.4L46.46 26.06L48.92 27.29V30.06L46.46 28.83ZM46.46 25.07L43.14 23.41V20.64L46.46 22.3L48.92 23.53V26.3L46.46 25.07ZM46.46 21.31L43.14 19.65V16.88L46.46 18.54L48.92 19.77V22.54L46.46 21.31ZM43.14 15.89V13.12L46.46 14.78L48.92 16.01V18.78L43.15 15.89H43.14ZM43.14 12.13V9.36L46.46 11.02L48.92 12.25V15.02L43.15 12.13H43.14ZM46.46 10.02L43.14 8.36V6.33H44.62L46.46 7.25L48.92 8.48V11.25L46.46 10.02ZM8.64 6.34L6.34 7.49V6.34H8.64Z" fill="#231F20"/>
</svg>
