<svg width="56" height="56" viewBox="0 0 56 56" fill="none" xmlns="http://www.w3.org/2000/svg">
<path d="M5 5V50.24H50.24V5H5ZM6.34 17.57L9.41 20.64L6.34 23.71V17.58V17.57ZM34.65 38.85L37.54 41.74L31.13 48.15L28.23 45.26L34.64 38.85H34.65ZM23.47 41.74L17.06 48.15L14.17 45.26L20.58 38.85L23.47 41.74ZM16.43 41.74L13.54 44.64L7.13 38.23L10.02 35.33L16.43 41.74ZM21.19 24.15L24.08 21.25L30.49 27.66L27.6 30.56L21.19 24.15ZM23.46 27.67L17.05 34.08L14.16 31.18L20.57 24.77L23.46 27.66V27.67ZM14.15 24.15L20.56 17.74L23.45 20.63L17.04 27.04L14.15 24.15ZM24.08 28.29L30.49 34.7L27.6 37.59L21.19 31.18L24.08 28.29ZM30.49 20.63L27.6 23.53L21.19 17.12L24.08 14.23L30.49 20.64V20.63ZM16.42 27.67L13.53 30.57L7.12 24.16L10.01 21.26L16.42 27.67ZM23.46 34.71L17.05 41.12L14.16 38.23L20.57 31.82L23.46 34.72V34.71ZM34.64 31.81L37.53 34.71L31.12 41.12L28.23 38.23L34.64 31.82V31.81ZM31.12 34.08L28.22 31.18L34.63 24.77L37.52 27.66L31.11 34.07L31.12 34.08ZM31.12 27.04L28.22 24.15L34.63 17.74L37.52 20.63L31.11 27.04H31.12ZM28.23 17.11L34.64 10.7L37.53 13.6L31.12 20.01L28.23 17.11ZM27.61 16.49L21.2 10.08L24.09 7.18L30.5 13.59L27.61 16.48V16.49ZM14.16 17.11L20.57 10.7L23.46 13.6L17.05 20.01L14.16 17.11ZM16.43 20.63L13.54 23.53L7.13 17.12L10.02 14.23L16.43 20.64V20.63ZM10.02 28.29L16.43 34.7L13.54 37.59L7.13 31.18L10.02 28.29ZM24.09 35.33L30.5 41.74L27.61 44.64L21.2 38.23L24.09 35.33ZM38.16 35.33L44.57 41.74L41.68 44.64L35.27 38.23L38.16 35.33ZM41.68 37.6L35.27 31.19L38.16 28.3L44.57 34.71L41.68 37.6ZM35.27 24.15L38.16 21.25L44.57 27.66L41.68 30.56L35.27 24.15ZM35.27 17.11L38.16 14.22L44.57 20.63L41.68 23.53L35.27 17.12V17.11ZM41.68 16.49L35.27 10.08L38.16 7.18L44.57 13.59L41.68 16.48V16.49ZM16.43 13.6L13.54 16.49L7.14 10.08L10.03 7.18L16.44 13.59L16.43 13.6ZM6.34 24.6L9.41 27.67L6.34 30.74V24.61V24.6ZM41.69 9.46L38.57 6.34H44.81L41.69 9.46ZM31.14 12.98L28.24 10.09L31.98 6.35H37.79L31.14 12.98ZM27.62 9.46L24.5 6.34H30.74L27.62 9.46ZM17.07 12.98L14.18 10.09L17.92 6.35H23.71L17.08 12.98H17.07ZM16.88 6.37L16.85 6.35H16.88V6.37ZM13.55 9.46L10.43 6.34H16.67L13.55 9.46ZM9.41 13.6L6.34 16.67V10.54L9.41 13.61V13.6ZM6.34 31.64L9.41 34.71L6.34 37.78V31.65V31.64ZM6.34 38.68L9.41 41.75L6.34 44.82V38.69V38.68ZM7.13 45.27L10.02 42.37L16.57 48.9H10.76L7.12 45.26L7.13 45.27ZM20.58 45.89L23.59 48.9H17.56L20.58 45.89ZM21.2 45.27L24.09 42.38L30.63 48.91H24.83L21.19 45.27H21.2ZM34.65 45.89L37.68 48.91H31.64L34.66 45.89H34.65ZM35.27 45.27L38.16 42.37L44.7 48.9H38.91L35.27 45.26V45.27ZM45.2 48.16L42.31 45.27L48.89 38.69V44.48L45.2 48.17V48.16ZM48.89 37.43L45.2 41.12L42.31 38.23L48.89 31.65V37.44V37.43ZM48.89 30.39L45.2 34.08L42.31 31.18L48.89 24.6V30.39ZM48.89 23.35L45.2 27.04L42.31 24.15L48.89 17.57V23.36V23.35ZM48.89 16.31L45.2 20L42.31 17.1L48.89 10.52V16.31ZM48.89 9.27L45.2 12.96L42.31 10.07L46.05 6.33H48.9V9.28L48.89 9.27ZM9.63 6.34L6.34 9.63V6.34H9.63ZM6.34 45.71L9.52 48.9H6.34V45.71ZM45.71 48.9L48.9 45.71V48.9H45.71Z" fill="#ffffff"/>
</svg>
