<svg width="56" height="56" viewBox="0 0 56 56" fill="none" xmlns="http://www.w3.org/2000/svg">
<path d="M5 5V50.32H50.32V5H5ZM48.98 12.59H46.27V6.34H48.98V12.59ZM41.31 6.34H44.93V34.1H41.31V6.34ZM39.97 12.59H36.13V6.34H39.97V12.59ZM34.79 34.1H31.23V6.34H34.79V34.1ZM29.89 12.59H26.05V6.34H29.89V12.59ZM24.71 34.1H21.26V6.34H24.71V34.1ZM19.92 12.59H16.08V6.34H19.92V12.59ZM14.74 34.1H10.96V6.34H14.74V34.1ZM10.96 35.44H14.74V48.97H10.96V35.44ZM16.09 13.93H19.93V48.97H16.09V13.94V13.93ZM21.27 35.44H24.72V48.97H21.27V35.44ZM26.06 13.93H29.9V48.97H26.06V13.94V13.93ZM31.24 35.44H34.8V48.97H31.24V35.44ZM36.14 13.93H39.98V48.97H36.14V13.94V13.93ZM41.32 35.44H44.94V48.97H41.32V35.44ZM9.6 6.34V12.59H6.34V6.34H9.6ZM6.34 13.93H9.6V48.97H6.34V13.94V13.93ZM46.26 48.97V13.94H48.97V48.98H46.26V48.97Z" fill="#ffffff"/>
</svg>
