<svg width="56" height="56" viewBox="0 0 56 56" fill="none" xmlns="http://www.w3.org/2000/svg">
<mask id="mask0_697_7381" style="mask-type:luminance" maskUnits="userSpaceOnUse" x="5" y="5" width="46" height="46">
<path d="M50.06 5.24023H5.22998V50.0702H50.06V5.24023Z" fill="white"/>
</mask>
<g mask="url(#mask0_697_7381)">
<path d="M12.4601 3.70068C12.7201 9.56068 11.3301 14.5107 8.67007 18.7807C7.60007 20.5007 7.09007 22.5007 7.14007 24.5207L7.87007 50.8407" stroke="#806840" stroke-width="0.79" stroke-miterlimit="10"/>
<path d="M15.8701 4.53027C16.3501 10.9703 14.7901 17.0103 11.6901 22.7503C10.5501 24.8503 10.9801 27.4503 12.7001 29.1103L13.6101 29.9903C15.4101 31.7303 16.3201 34.1903 16.0801 36.6903L14.7001 51.0803" stroke="#806840" stroke-width="0.79" stroke-miterlimit="10"/>
<path d="M19.3998 4.06055V16.3305C19.3998 17.2905 19.0298 18.2205 18.3698 18.9205C14.4398 23.0005 15.2198 26.6305 18.0198 28.8105C18.6898 29.3305 19.1598 30.0705 19.3298 30.8905C19.4798 31.5905 19.6198 32.2905 19.7898 32.9805C21.1798 38.5905 20.7098 45.0805 19.5198 51.0905" stroke="#806840" stroke-width="0.79" stroke-miterlimit="10"/>
<path d="M23.9801 1.71045L23.5801 16.3004C23.5401 17.3404 23.8501 18.3604 24.4501 19.2204C26.7101 22.4804 26.5601 26.0405 24.8301 29.7805C24.4301 30.6505 24.2501 31.6104 24.2901 32.5604C25.7801 39.1404 26.1101 45.5604 25.0501 51.7804" stroke="#806840" stroke-width="0.79" stroke-miterlimit="10"/>
<path d="M18.3201 22.5106L19.8501 20.3006C20.2901 19.6606 21.1601 19.4906 21.8001 19.9206L23.2801 20.8806C24.9401 21.6506 25.3601 26.8506 23.6701 28.4706C23.4401 28.6906 22.7201 29.4506 22.4001 29.5106C21.7901 29.6206 21.5301 29.3506 21.3901 29.0006L21.3601 28.3806C21.3101 27.4606 20.8501 26.6206 20.1101 26.0806L18.7501 25.1006C17.9201 24.5006 17.7301 23.3506 18.3101 22.5206L18.3201 22.5106Z" stroke="#806840" stroke-width="0.79" stroke-miterlimit="10"/>
<path d="M22.6398 22.9802C22.8498 23.4302 22.7198 24.4502 22.3598 24.6202C21.9998 24.7902 21.1098 23.7702 20.8998 23.3202C20.6898 22.8702 20.8098 22.3602 21.1798 22.1902C21.5498 22.0202 22.4398 22.5302 22.6498 22.9802H22.6398Z" fill="#806840"/>
<path d="M27.52 4.51025C29.59 14.3603 30.13 23.2503 28.2 30.6103C28.23 31.6603 28.83 32.6003 29.76 33.0903C41.07 38.9403 37.71 49.8403 31.04 47.6403C30.32 47.4003 29.68 48.3103 29.57 49.0703L29.09 52.5003" stroke="#806840" stroke-width="0.79" stroke-miterlimit="10"/>
<path d="M35.84 42.4307C35.84 44.8907 33.85 44.7207 31.56 45.3207C29.58 45.8407 28.24 43.2607 28.24 40.8007C28.24 38.3407 27.64 35.6807 29.69 35.6807C31.74 35.6807 35.84 39.9707 35.84 42.4307Z" stroke="#806840" stroke-width="0.79" stroke-miterlimit="10"/>
<path d="M33.9701 41.7106C33.9701 43.1206 33.1601 43.4006 32.0401 43.4006C30.9201 43.4006 29.9301 42.7406 29.9301 41.3206C29.9301 39.9006 29.4801 38.5806 30.5901 38.5806C31.7001 38.5806 33.9701 40.3006 33.9701 41.7106Z" stroke="#806840" stroke-width="0.79" stroke-miterlimit="10"/>
<path d="M32.4599 40.9803C32.6199 41.2703 32.5199 41.7403 32.2399 41.7403C31.9599 41.7403 31.3699 41.5703 31.2199 41.1903C31.0999 40.8803 31.2799 40.3403 31.5599 40.3403C31.8399 40.3403 32.2699 40.6103 32.4599 40.9803Z" fill="#806840"/>
<path d="M41.0898 17.8107C41.1198 17.3507 41.0498 16.7007 40.7198 16.7007C40.3698 16.7007 40.1498 17.0807 40.1498 17.6607C40.1498 18.1407 39.8098 20.3107 40.4498 20.3107C40.9598 20.3107 41.0598 18.3907 41.0898 17.8107Z" fill="#806840"/>
<path d="M31.3198 4.10059C32.5098 11.1306 32.7398 18.2406 31.8798 25.4406C31.7198 26.8006 31.9898 28.1906 32.7298 29.3506C33.1498 30.0106 33.6998 30.5806 34.3698 31.0306C34.5898 31.1806 34.8098 31.3406 35.0198 31.5006C37.9498 33.7306 39.5398 37.3106 39.3498 40.9906L39.1298 45.2206C38.9998 47.7906 39.7698 50.3206 41.3098 52.3806" stroke="#806840" stroke-width="0.79" stroke-miterlimit="10"/>
<path d="M44.4099 15.4102C44.4099 23.5602 43.8799 34.6802 41.3599 33.8902C39.9099 33.4302 39.8799 28.5502 37.7799 27.2602C35.3499 25.7702 34.8599 25.3802 34.8599 20.5402C34.8599 12.3902 37.7099 4.11021 39.7199 4.63021C43.1699 5.51021 44.4099 7.26021 44.4099 15.4202V15.4102Z" stroke="#806840" stroke-width="0.79" stroke-miterlimit="10"/>
<path d="M42.3798 18.3306C42.3798 22.8706 42.2898 26.7606 40.6598 26.5506C37.3698 26.1406 38.9398 22.8706 38.9398 18.3306C38.9398 13.7906 38.7698 10.2906 40.5498 10.4506C43.2898 10.6906 42.3898 13.7906 42.3898 18.3306H42.3798Z" stroke="#806840" stroke-width="0.79" stroke-miterlimit="10"/>
<path d="M48.0397 4.71045C46.5697 10.8804 46.3597 17.8705 47.1597 25.4904C47.4097 27.8905 46.9897 30.3104 45.9297 32.4704L43.8097 36.7905C42.8997 38.6505 42.5497 40.7305 42.8097 42.7905L43.8497 50.9905" stroke="#806840" stroke-width="0.79" stroke-miterlimit="10"/>
<path d="M47.8199 51.1103C47.8199 51.1103 45.0599 42.6203 47.3799 39.4303C50.5799 35.0203 51.1299 27.5303 51.1299 27.5303" stroke="#806840" stroke-width="0.79" stroke-miterlimit="10"/>
<path d="M8.13986 4.09033C9.07986 7.39033 9.12986 10.4003 7.21986 12.7903C6.28986 13.9603 5.71986 15.3803 5.52986 16.8703C5.49986 17.1303 5.46986 17.3803 5.43986 17.6403L4.10986 22.5403" stroke="#806840" stroke-width="0.79" stroke-miterlimit="10"/>
</g>
<path d="M48.88 6.42V48.9H6.42V6.42H48.88ZM50.3 5H5V50.31H50.3V5Z" fill="#806840"/>
</svg>
