<svg width="56" height="56" viewBox="0 0 56 56" fill="none" xmlns="http://www.w3.org/2000/svg">
<path d="M5 5V50.31H50.3V5H5ZM48.88 26.56H46.03V6.42H48.88V26.56ZM10.27 6.42H14.38V24.79H10.27V6.42ZM15.38 9.62H19.49V41.89H15.38V9.62ZM15.38 8.2V6.42H19.49V8.2H15.38ZM20.49 6.42H24.6V18.94H20.49V6.42ZM25.6 6.42H29.71V29.75H25.6V6.42ZM30.71 13.76H34.82V45.88H30.71V13.77V13.76ZM30.71 12.34V6.42H34.82V12.35H30.71V12.34ZM35.82 6.41H39.93V35.66H35.82V6.42V6.41ZM40.93 6.41H45.04V15.82H40.93V6.42V6.41ZM9.28 6.41V14.04H6.43V6.42H9.28V6.41ZM6.43 48.89V15.47H9.28V48.9H10.28V26.21H14.39V48.9H15.39V43.31H19.5V48.9H20.5V20.36H24.61V48.9H25.61V31.17H29.72V48.9H30.72V47.31H34.83V48.9H35.83V37.09H39.94V48.9H40.94V17.25H45.05V48.9H46.05V27.99H48.9V48.91H6.42L6.43 48.89Z" fill="#231F20"/>
</svg>
