<svg width="56" height="56" viewBox="0 0 56 56" fill="none" xmlns="http://www.w3.org/2000/svg">
<mask id="mask0_697_7376" style="mask-type:luminance" maskUnits="userSpaceOnUse" x="5" y="5" width="46" height="46">
<path d="M50.06 5.24023H5.22998V50.0702H50.06V5.24023Z" fill="white"/>
</mask>
<g mask="url(#mask0_697_7376)">
<path d="M6.62012 4.57031C7.14012 22.5903 8.03012 42.1703 6.62012 51.8003" stroke="#231F20" stroke-width="0.79" stroke-miterlimit="10"/>
<path d="M9.39014 4.57031C11.3501 19.3203 11.5701 34.9503 10.5001 51.2503" stroke="#231F20" stroke-width="0.79" stroke-miterlimit="10"/>
<path d="M24.7099 4.55029V4.60029C24.5499 8.49029 24.6299 12.3903 25.0199 16.2703C25.2499 18.5103 25.4399 21.6203 25.3699 26.1003C25.2899 31.6003 25.5699 40.6003 25.9499 46.0903L26.2999 51.2503" stroke="#231F20" stroke-width="0.79" stroke-miterlimit="10"/>
<path d="M28.1899 4.18018L28.4999 7.26018C28.9399 11.6602 27.7699 15.9002 28.7599 26.1002C29.3899 32.5902 27.2199 41.1002 30.5299 49.6102" stroke="#231F20" stroke-width="0.79" stroke-miterlimit="10"/>
<path d="M35.8402 4.36035C37.3202 8.42035 37.4402 16.8203 36.3502 22.3703C35.0902 28.8303 36.4102 44.4404 37.4602 51.7704" stroke="#231F20" stroke-width="0.79" stroke-miterlimit="10"/>
<path d="M39.27 4.28027C40.59 11.0303 40.69 18.4003 40.11 26.1603C39.9 28.9903 39.59 34.3003 39.98 37.1003C40.74 42.5803 40.78 48.9803 41.38 54.6503" stroke="#231F20" stroke-width="0.79" stroke-miterlimit="10"/>
<path d="M43.1699 4.33057C44.2699 5.53057 45.6899 17.1306 44.3599 30.3206C43.4299 39.5306 45.6799 52.4706 45.5499 52.2706" stroke="#231F20" stroke-width="0.79" stroke-miterlimit="10"/>
<path d="M47.8003 4.17041C48.4303 14.3804 48.2603 33.4104 48.7403 53.0704" stroke="#231F20" stroke-width="0.79" stroke-miterlimit="10"/>
<path d="M31.47 4.08057C31.47 4.08057 31.15 12.4306 32.42 17.1606C33.69 21.8906 33.21 22.8306 33.05 24.8806C32.89 26.9306 30.69 40.6406 34 49.7706" stroke="#231F20" stroke-width="0.79" stroke-miterlimit="10"/>
<path d="M21.04 4.55029C21.04 4.55029 21.32 20.3603 21.89 24.6003C22.46 28.8403 22.74 36.6503 22.08 41.1603C21.42 45.6703 22.08 50.4803 22.08 50.4803" stroke="#231F20" stroke-width="0.79" stroke-miterlimit="10"/>
<path d="M17.6499 3.99023L18.4299 14.3402C18.5999 16.5402 18.6599 18.7502 18.6399 20.9602C18.5999 24.2002 18.5699 28.8902 18.6899 30.0602C19.2299 35.2602 19.7099 40.4602 19.0699 43.4202C18.5199 45.9502 17.0899 48.8802 18.5099 51.0402" stroke="#231F20" stroke-width="0.79" stroke-miterlimit="10"/>
<path d="M13.7901 2.67041L13.8801 10.3204L14.5401 24.1304C14.5401 24.1304 16.3301 35.0504 15.1001 40.6004C14.3801 43.8804 13.3101 52.0804 13.3101 52.0804" stroke="#231F20" stroke-width="0.79" stroke-miterlimit="10"/>
</g>
<path d="M48.88 6.42V48.9H6.42V6.42H48.88ZM50.3 5H5V50.31H50.3V5.01V5Z" fill="#231F20"/>
</svg>
