<?xml version="1.0" encoding="UTF-8"?>
<svg id="Layer_2" data-name="Layer 2" xmlns="http://www.w3.org/2000/svg" viewBox="0 0 115 115">
  <defs>
    <style>
      .cls-1 {
        fill: #231f20;
      }
    </style>
  </defs>
  <path class="cls-1" d="m77.19,16.59c.23-.28.46-.56.68-.84,2.48-3.13,4.92-6.28,7.15-9.59.5-.74.98-1.52,1.37-2.32.38-.78.16-1.16-.67-1.42-.17-.05-.35-.1-.53-.12-1.01-.14-2.01-.14-3.01.04-2.22.4-4.26,1.31-6.2,2.43-2.74,1.59-5.2,3.55-7.57,5.65-1.01.89-1.98,1.82-2.89,2.8-2.61-.42-5.29-.64-8.02-.64h0c-4.79,0-9.42.67-13.8,1.92-2.64-1.1-5.37-1.92-8.24-2.22-1.23-.13-2.47-.29-3.69-.03-.7.15-1.35.31-2.05,0-.15-.07-.36-.03-.54,0-.49.09-.76.42-.78.92-.02.5.2.88.54,1.22.36.36.72.7,1.06,1.08.96,1.08,1.86,2.22,2.88,3.25.06.06.13.13.19.19C17.75,27.49,7.38,43.88,7.38,62.69h0c0,27.68,22.44,50.12,50.12,50.12h0c27.68,0,50.12-22.44,50.12-50.12h0c0-20.69-12.54-38.45-30.42-46.1Zm-19.69-1.32h0c2.02,0,4.01.13,5.96.37-.44.58-.86,1.17-1.25,1.78-1.5,2.32-2.68,4.77-3.22,7.48-.49-.02-.99-.03-1.49-.03h0c-.62,0-1.23.02-1.85.04.18-.69.1-1.48-.37-2.3-.95-1.64-2.3-2.86-3.82-3.93-1.25-.88-2.55-1.66-3.9-2.37,3.2-.68,6.53-1.04,9.93-1.04Zm-8.34,8.45c-1.57-1.42-3.26-2.71-4.91-4.05-.76-.61-1.54-1.2-2.31-1.79.08-.03.16-.05.23-.08.9.47,1.8.94,2.69,1.43,1.63.91,3.27,1.79,4.73,2.98,1.03.83,1.89,1.78,2.29,3.08-.33.05-.65.1-.97.16-.55-.6-1.12-1.18-1.73-1.73Zm-2.52,5.23c1.41.59,2.85,1.08,4.37,1.31.58.09.94.35,1.17.86.55,1.2.95,2.46,1.22,3.75.04.19.16.43.32.51.42.22.87.39,1.32.56.35.13.51.06.66-.28.07-.16.13-.32.18-.48.33-1.25.66-2.51.99-3.76.27-1.04.86-1.86,1.75-2.46.12-.08.3-.13.44-.13,1.67.08,3.27-.21,4.82-.8.11-.04.23-.09.34-.13,16.35,3.14,28.71,17.53,28.71,34.8h0c0,19.57-15.86,35.44-35.44,35.44h0c-19.57,0-35.44-15.86-35.44-35.44h0c0-15.78,10.32-29.16,24.58-33.74Zm10.71-1.45c-.65.63-1.14,1.36-1.42,2.23-.18.57-.38,1.14-.58,1.71-.08.22-.15.45-.23.69-.22-.55-.39-1.07-.64-1.55-.55-1.04-1.17-2.04-1.85-2.98,1.59-.22,3.22-.33,4.87-.33h0s.07,0,.1,0c-.08.08-.16.16-.25.24Zm47.56,35.19c0,26.19-21.23,47.42-47.42,47.42h0c-26.19,0-47.42-21.23-47.42-47.42h0c0-18.09,10.13-33.81,25.02-41.81.66.62,1.33,1.24,2,1.85,2.01,1.83,4.16,3.46,6.53,4.77-14.02,5.53-23.94,19.2-23.94,35.19h0c0,20.89,16.93,37.82,37.82,37.82h0c20.89,0,37.82-16.93,37.82-37.82h0c0-17.49-11.87-32.2-27.99-36.53.69-.49,1.35-1.02,1.99-1.58,2.11-1.85,4.13-3.78,6.01-5.85,17.35,7.05,29.59,24.07,29.59,43.95h0Zm-37.51,26.24c-1.17,0-2.07.95-2.06,2.14.01,1.17.95,2.08,2.11,2.07,1.16-.02,2.05-.94,2.04-2.1,0-1.2-.91-2.11-2.09-2.1Zm.02,3.47c-.75,0-1.31-.6-1.31-1.38,0-.78.58-1.37,1.33-1.35.73.01,1.29.61,1.28,1.38,0,.77-.57,1.36-1.3,1.35Zm7.31-25.86h3.67v1.26h-1.18v5.54h-1.31v-5.53h-1.18v-1.26Zm1.34-15.43c0-1.68,0-3.35,0-5.03,0-.13-.01-.26-.02-.41h1.83v9.39c-.56,0-1.12,0-1.68-.01-.08,0-.18-.13-.24-.22-.93-1.38-1.85-2.77-2.78-4.15-.35-.52-.7-1.05-1.05-1.57-.02-.03-.06-.05-.14-.11v6.05h-1.83v-9.39c.56,0,1.12,0,1.68.01.08,0,.17.14.23.23,1.27,1.89,2.53,3.78,3.79,5.67.03.04.06.08.14.18.02-.26.03-.45.05-.64Zm.78-7.31h-1.63v-5.79h3.23v1.07h-2.14c.03.37.06.72.09,1.06.63,0,1.25,0,1.88,0,.06.04.17.08.18.12.02.27.02.54,0,.81,0,.04-.11.08-.17.11-.63,0-1.26,0-1.89,0-.03.49-.06.99-.09,1.51h2.14v1.11h-1.6Zm-10.97,16.29v4.12c0,.13.1.32-.18.25-.34,0-.67,0-1.01,0-.04-.06-.11-.11-.11-.17,0-2.15,0-4.31,0-6.46,0-.05.07-.11.11-.16h1.07c.13.16.27.32.4.49h0c.04.06.09.13.14.19.4.61.8,1.23,1.2,1.84.39.6.78,1.2,1.22,1.79v-4.34h1.29v6.83c-.38,0-.75.01-1.12,0-.09,0-.19-.12-.24-.2-.9-1.39-1.8-2.78-2.77-4.16Zm-3.07,28.84c-1.17-.01-2.1.9-2.11,2.06-.02,1.19.88,2.13,2.06,2.14,1.16.01,2.08-.89,2.1-2.05.02-1.19-.88-2.14-2.04-2.16Zm0,3.47c-.76,0-1.33-.57-1.34-1.35,0-.82.54-1.39,1.31-1.39.73,0,1.29.6,1.29,1.37,0,.76-.56,1.36-1.27,1.37Zm9.33-3.25c-.64-.19-1.3-.11-1.96-.12v3.97c.58,0,1.13.01,1.68,0,.34,0,.63-.16.88-.39.68-.64.81-1.89.28-2.74-.21-.34-.49-.6-.88-.71Zm.27,2.64c-.33.6-.91.49-1.47.51v-2.53c.51-.02,1.01-.03,1.37.42.3.38.35,1.15.1,1.6Zm.96-20.51c.29.31.57.61.87.92-.56.59-1.17,1.05-1.96,1.21-1.8.38-3.42-.25-4.17-1.87-.6-1.28-.52-3.3,1.01-4.46,1.37-1.04,3.35-.99,4.65.12.54.46.54.46.04.96-.13.13-.23.3-.35.45-1.59-1.24-2.85-1.32-3.78-.31-.8.87-.83,2.36-.04,3.22.51.55,1.15.77,1.9.72.75-.05,1.31-.44,1.84-.97Zm-11.27-4.76h1.26c0,.11.01.2.01.29,0,1.38,0,2.77,0,4.15,0,.14,0,.27.02.41.08.61.42.9,1.01.88.54-.02.91-.38.92-.95.02-1.44.01-2.87.02-4.31,0-.15,0-.29,0-.46h1.29c0,.17,0,.33,0,.48,0,1.39,0,2.79,0,4.18,0,.98-.37,1.76-1.29,2.14-1.27.52-2.79-.05-3.11-1.34-.06-.25-.1-.52-.1-.78-.01-1.4-.01-2.81-.02-4.21,0-.15,0-.29,0-.48Zm-13.09-11.47c.36,0,.71,0,1.07,0,.06-.01.13-.03.19-.04,0-1.13,0-2.27.01-3.4h-.08s0,0,0,0h0s0,0,0,0c.03,0,.05,0,.08,0,.02-.02.02-.04,0-.06,0-.13,0-.25,0-.38-.08-.04-.16-.07-.24-.11.08.04.16.07.24.11.01-.02.03-.05.04-.07.05,0,.1,0,.15,0,.02.02.03.04.05.06.57,1.05,1.17,2.08,1.69,3.15.28.59.63.86,1.29.76.36-.05.74,0,1.16,0-.78-1.43-1.53-2.79-2.28-4.17.14-.06.24-.11.34-.16,2-.82,1.78-3.59.51-4.5-.62-.45-1.33-.53-2.06-.55-.06,0-.12,0-.18,0-.68,0-1.37-.01-2.05-.02-.04,0-.08,0-.12,0-.05,0-.09,0-.14,0-.06,0-.13.02-.19.03,0,0,0,0,0,0,0,.13,0,.26.01.38h0c0-.13,0-.26-.01-.38-.02.1-.05.2-.05.29,0,2.9,0,5.81,0,8.71,0,.11,0,.22,0,.35h.56Zm1.3-7.7c.52.05,1.03.06,1.52.17.43.1.61.47.58.95-.03.42-.25.7-.69.77-.45.07-.91.07-1.41.11v-2Zm-1.73,7.22c0-1.89,0-3.78,0-5.67v5.67s0,0,0,0Zm3.87,3.03v5.59h.02s0,.01,0,.01c.61,0,1.21,0,1.87,0,0,.38,0,.75-.01,1.12,0,.04-.14.08-.22.12-.97,0-1.93,0-2.9,0-.02-.02-.04-.04-.06-.06,0-2.22,0-4.45,0-6.67.03-.04.05-.1.08-.1.4,0,.79,0,1.22,0Zm19.53-13.81c.21,0,.19-.1.14-.24,0-.71,0-1.42,0-2.13.04-.02.08-.05.12-.07.41.76.83,1.53,1.25,2.29.04.07.13.15.2.15.36.02.72,0,1.13,0-.48-.89-.94-1.73-1.36-2.5.3-.27.64-.46.83-.75.37-.55.34-1.15.03-1.73-.32-.61-.88-.8-1.53-.8h-1.79v5.77c.34,0,.65,0,.96,0Zm.18-4.7c.26,0,.49-.02.71,0,.36.03.56.26.56.59,0,.31-.18.49-.54.53-.24.03-.47.03-.74.05v-1.17Zm0,2.16c-.03.05-.07.11-.1.16,0,.71,0,1.43,0,2.14,0-.71,0-1.43,0-2.14l.1-.16Zm-26.91,51.77h2.17v-.74c-.48,0-.95,0-1.42,0,0,0,0-.02,0-.02,0-.02,0-.03,0-.05,0-.26,0-.53,0-.79,0-.06.01-.12.02-.18.02,0,.03,0,.04-.01.03,0,.06,0,.09-.02-.03,0-.06.01-.09.02.45,0,.89,0,1.34,0,0-.23,0-.47,0-.7h-1.34s-.02-.02-.04-.02c0-.22-.01-.45-.02-.67.08-.02.16-.06.24-.06.39,0,.79,0,1.19,0v-.73h-2.17v3.98Zm2.04-2.45c-.1,0-.21,0-.31,0,.1,0,.21,0,.31,0h0Zm2.88-1.25s0,0,0,0c0,0,0,0,0,0,0,0,0,0,0,0Zm-1.76-31.69h1.28c0,.1.01.19.01.28,0,2.08,0,4.17,0,6.25,0,.1-.08.19-.12.29-.31,0-.63,0-.94,0h-.23v-6.82Zm2.54,15.89c1.98,0,3.47-1.54,3.47-3.57,0-2.04-1.52-3.61-3.48-3.61-1.94,0-3.49,1.59-3.48,3.58,0,2.04,1.52,3.6,3.49,3.59Zm1-5.65c1.04.54,1.5,1.98.98,3.09-.52,1.12-1.69,1.59-2.84,1.13-.84-.33-1.34-1.14-1.34-2.15,0-1.77,1.68-2.85,3.2-2.07Zm-12.7-3.43c1.39-.06,2.28-1.32,1.87-2.61-.17-.54-.57-.88-1.06-1.14.77-.83.86-1.65.27-2.36l-.2-.2s-.04-.04-.06-.05c-.33-.29-.72-.41-1.15-.43-.04,0-.08,0-.13,0h-1.88c0,.55,0,1.11,0,1.66,0,1.61,0,3.23,0,4.84,0,.1.07.2.11.29.73,0,1.47.02,2.2,0Zm-.99-5.58c.39,0,.79-.07,1.07.29.18.24.18.52.02.77-.25.4-.67.36-1.09.36v-1.42Zm0,2.57c.39.06.78.08,1.14.18.38.11.57.48.53.87-.04.37-.24.59-.68.66-.32.05-.64.05-.98.07v-1.78Zm7.19,11.91c.42.03.85.01,1.31.01-.51-.97-.98-1.88-1.46-2.78-.1-.19-.1-.26.12-.37.78-.36,1.13-1.14.98-2.11-.12-.81-.68-1.4-1.5-1.5-.57-.07-1.15-.06-1.72-.07-.24,0-.47,0-.72,0v6.82h1.3v-2.84c.12.06.17.14.21.22.41.79.82,1.58,1.23,2.37.05.1.15.26.23.26Zm-.78-4.2s-.04,0-.06.01c-.84.14-.87.11-.87-.72,0-.2,0-.39,0-.66.35.03.67.02.97.08.34.07.5.32.5.66,0,.35-.18.55-.53.63Zm-4.77-2.48c-.89-.25-1.8-.11-2.72-.15v6.83h1.26v-2.86c.37-.02.7-.03,1.02-.06.94-.11,1.59-.77,1.67-1.67.09-1.03-.36-1.84-1.23-2.08Zm-.55,2.49c-.1.02-.21.03-.31.03-.19,0-.37,0-.59,0v-1.4c.32.02.63.02.93.07.36.07.52.31.51.68-.01.35-.19.55-.54.62Zm5.29,19.88c-.18.51-.36,1-.53,1.48-.28.78-.57,1.56-.84,2.35-.04.13-.09.18-.24.18-.55,0-.56,0-.74-.51-.39-1.09-.77-2.17-1.15-3.26-.02-.07-.04-.14-.07-.22h.78c.33.92.66,1.84,1,2.82.33-.91.65-1.78.95-2.65.05-.15.12-.19.26-.18.19.01.38,0,.6,0Zm-2.24-31.31h0c.06-.04.12-.1.17-.1.35,0,.71,0,1.12,0v4.76c.13.8.53,1.1,1.23.95.48-.1.73-.43.74-1.02.01-.9,0-1.8.01-2.7,0-.65,0-1.3,0-1.97h1.28s.03.04.03.05c0,1.58.02,3.16,0,4.75-.02,1.04-.63,1.85-1.5,2.1-1.07.3-2.18-.04-2.71-.81-.27-.4-.36-.85-.37-1.31-.02-1.56,0-3.12,0-4.68Zm7.51,33.47c.09-.08.19-.14.29-.21,0,0,0,0,0,0,.04-.04.08-.08.12-.13,0,0,0,0,0,0,.01-.02.02-.04.03-.06,0,0,0,0,0,0,.02-.03.04-.06.05-.1,0,0,0,0,0,0,.19-.42.17-.82-.11-1.2-.03-.04-.06-.07-.09-.11,0,0,0,0,0,0-.02-.02-.03-.03-.05-.05-.16-.08-.31-.21-.47-.23-.5-.05-1.01-.06-1.52-.09v4.02h.74v-1.66c.06.04.13.07.16.13.25.46.48.92.73,1.37.03.06.11.15.16.15.24.02.48,0,.76,0-.31-.59-.6-1.13-.9-1.67.03-.06.04-.13.08-.17Zm-.2-.79c-.19.28-.5.15-.78.19v-.84c.28.05.61-.09.79.22.06.11.06.33,0,.43Zm4.4-1.36c-.11.22-.21.43-.32.63-.25.48-.5.96-.75,1.45-.06.11-.09.25-.09.37,0,.5,0,1,0,1.52h-.78c0-.49.01-.96,0-1.43,0-.18-.05-.38-.13-.54-.33-.67-.68-1.33-1.04-2.03.27,0,.51,0,.74,0,.06,0,.13.09.16.15.22.41.43.82.66,1.27.1-.19.19-.35.27-.52.04-.08.09-.16.13-.24q.34-.69,1.15-.66Zm4.05,1.98h2.05c0,.13-.02.26-.02.4-.09.97-.86,1.67-1.88,1.72-1.54.08-2.65-1.39-2.12-2.84.27-.75.83-1.21,1.63-1.35.83-.14,1.65.15,2.09.73-.17.16-.34.33-.53.51-.4-.42-.91-.61-1.5-.49-.39.08-.68.32-.88.66-.38.66-.09,1.55.61,1.89.68.33,1.46.1,1.72-.54h-1.06c-.03-.22-.06-.44-.1-.69Zm2.23-4.19c-.06,0-.14-.07-.18-.13-.79-1.01-1.57-2.02-2.35-3.03-.08-.1-.16-.19-.27-.31.76-.52,1.49-1.02,2.26-1.55.06.08.13.17.19.25.18.23.33.48.54.68.59.56.81.53,1.16-.19.89-1.84,2.09-3.44,3.68-4.73.88-.71,1.88-1.19,2.95-1.55.1-.03.2-.04.23-.05-3.28,2.78-5.13,6.43-6.25,10.62-.58,0-1.26,0-1.95,0Zm1.44-22.55c0-2.12,0-4.24,0-6.36,0-.06,0-.12,0-.19.05-.04.09-.1.14-.11.37,0,.73,0,1.14,0,0,.12,0,.22,0,.32,0,2.08,0,4.15,0,6.23,0,.1-.05.2-.08.29-.38,0-.76,0-1.13,0-.02-.06-.07-.12-.07-.18Zm-2.92,2.45c-1.07-.32-2.18-.18-3.28-.21v6.87c.99-.04,1.96-.04,2.93-.12.91-.07,1.55-.63,1.94-1.42.61-1.24.59-2.51-.03-3.75-.33-.66-.83-1.16-1.56-1.37Zm.41,4.54c-.52,1.01-1.51.77-2.43.82v-4.3c.85-.02,1.71-.07,2.27.69.64.87.65,1.85.16,2.79Zm-9.03,18.22s0,0,0,0c0,0,0,0,0,0,0,0,0,0,0,0Zm17.71-43.81c-1.45,0-2.89,0-4.34,0-.56-.06-.57-.06-.51.35,0,.13-.01.25-.01.38,0,2.03,0,4.06,0,6.09,0,.77,0,1.55.01,2.32,0,.07,0,.14,0,.2,0,0,0,0,0,0,.08.01.17.03.25.04.04,0,.09,0,.13,0,.02,0,.04,0,.06,0,1.49,0,2.98,0,4.47,0,.09,0,.17,0,.26,0,.03-.06.09-.12.09-.18,0-.5,0-1-.01-1.51,0,.02-.02.04-.02.06,0-.02.02-.04.02-.06-.09-.02-.18-.04-.27-.06-.17,0-.33,0-.5,0-.67,0-1.34,0-2.02,0h-.64c0-.82,0-1.59,0-2.36,0-.04.05-.08.08-.12.02,0,.04,0,.06,0,1.07,0,2.14,0,3.21,0,.03-.06.06-.13.09-.19,0-.42,0-.83,0-1.25.06-.24-.06-.28-.27-.28-.94,0-1.88,0-2.83,0-.11,0-.22,0-.32-.01v-1.66c.13,0,.23,0,.33,0,.94,0,1.88,0,2.83,0,.08,0,.16-.06.24-.09.02-.02.02-.03,0-.05v-1.64c-.15,0-.28.02-.41.03Zm-4.78.34h0s.04.05.07.08l-.07-.08Zm1.86,1.34s.1-.01.16-.01h0c-.06,0-.12,0-.16.01Zm-1.54-1.59h0c1.47,0,2.94,0,4.41,0-1.47,0-2.94,0-4.41,0Zm-8.23,11.9v6.74c.97,0,1.91.04,2.85-.01,1.01-.05,1.7-.64,2.15-1.52.4-.79.47-1.62.33-2.48-.19-1.17-.94-2.52-2.55-2.68-.9-.09-1.82-.07-2.73-.09-.02,0-.03.02-.05.04Zm4.06,3.64c-.01.27-.07.54-.16.79-.22.63-.67,1-1.35,1.04-.41.03-.81.04-1.22.06h0c-.01-.24-.04-.48-.04-.71,0-1.19,0-2.37,0-3.56,1.83-.22,2.86.57,2.78,2.38Zm-8.33,25.53c-.07,0-.16-.05-.19-.1-.65-1.24-1.64-2.2-2.53-3.25-.02-.02-.03-.05-.07-.13.74-.51,1.48-1.02,2.21-1.52.29.34.54.71.87.99.52.46.65.4,1-.18.58-.97,1.12-1.97,1.8-2.86,1.26-1.68,2.89-2.91,4.93-3.53.09-.03.19-.04.28-.07.05-.02.11-.03.16-.05,0,.02,0,.03,0,.05-.04.01-.09.02-.13.03-3.53,2.68-5.19,6.48-6.42,10.63-.55,0-1.23,0-1.9,0Zm6.96-39.41v1.67h3.44c0,.57,0,1.1-.01,1.63,0,.04-.17.12-.27.12-.93,0-1.87,0-2.8,0-.11,0-.22,0-.36,0v2.47h3.42v1.74h-5.26v-9.37h5.26v1.75h-3.41Zm14.68,12.86c-.31.92-.01,1.93.75,2.55.77.62,1.9.75,2.67.25.29-.19.51-.49.76-.74-.03-.04-.05-.08-.08-.12h-1.89v-1.21h3.41c.08.6-.04,1.17-.3,1.71-.74,1.51-2.14,2.18-3.87,1.85-1.55-.3-2.74-1.62-2.86-3.18-.13-1.68.69-3.07,2.17-3.68,1.47-.62,3.32-.2,4.35.97.01.01.02.04.02.05-.29.3-.59.6-.89.9-.2-.16-.38-.33-.58-.46-1.36-.9-3.17-.35-3.67,1.12Zm-31.79-16.59c0-1.85,0-3.69,0-5.54.06-.05.11-.14.17-.14.3-.01.61,0,.93,0v5.79c-.34,0-.68,0-1.02,0-.03,0-.06-.07-.08-.1Zm-1.64-1.21c.07-.12-.01-.4-.13-.53-.27-.3-.6-.55-.91-.82-.27-.25-.56-.48-.8-.75-.51-.55-.6-1.18-.29-1.73.31-.56,1.03-.88,1.69-.79.64.09,1.09.45,1.51.94-.28.24-.55.48-.82.71-.16-.15-.29-.31-.46-.41-.15-.09-.35-.17-.52-.16-.15.01-.33.14-.4.27-.05.09.03.31.13.4.25.26.55.49.82.73.31.28.64.54.93.84.48.51.57,1.12.3,1.75-.28.65-.83.96-1.52.99-.99.06-1.67-.35-2.1-1.27.31-.18.62-.37.93-.55.15.18.25.38.42.49.21.13.47.25.71.24.19-.01.42-.2.51-.37Zm3.51-2.53c0-.56,0-1.11,0-1.67,0-.09.05-.18.08-.27.04,0,.08,0,.12,0,.17,0,.34,0,.52,0,.25-.07.43,0,.56.24.14.25.3.49.45.73.02.03.05.06.07.1,0,0,0,0,0,0,.1.15.2.3.31.45,0,0,0,0,0,0,.11.16.22.33.33.49,0,0,0,0,0,0,.11.16.22.32.33.49,0,0,0,.01,0,.01.18.26.35.52.53.78h0c.09.12.18.24.33.42,0,0,0,0,0,0v-3.72h1.14v5.79c-.35,0-.68,0-1.01,0-.05,0-.09-.07-.13-.11-.81-1.19-1.62-2.39-2.46-3.63v3.76c-.41-.02-.77-.05-1.14-.07,0-1.27-.01-2.54-.02-3.8Zm24.52,3.99c1.75,0,3.1-1.31,3.11-3.03,0-1.69-1.38-3.07-3.09-3.07-1.73,0-3.13,1.35-3.13,3.03,0,1.73,1.35,3.06,3.11,3.07Zm.01-4.99c1.1,0,1.94.85,1.93,1.96,0,1.11-.85,1.96-1.94,1.95-1.12,0-1.95-.85-1.94-1.98.01-1.13.82-1.93,1.95-1.93Zm-29.99,13.97c-1.54-2.46-.53-5.78,2.11-7.01,1.58-.74,4.45-.8,6.27,1.01.08.08.18.14.21.17-.44.49-.82.93-1.17,1.32-.51-.33-.94-.66-1.42-.9-1.42-.7-3.24-.29-4.2.9-1.19,1.47-.78,3.69.88,4.66,1.14.66,2.34.74,3.54.1.48-.25.87-.77.96-1.19h-2.7v-1.67h4.82c.1.73-.02,1.45-.31,2.13-.97,2.22-2.95,3.13-5.35,2.8-1.56-.21-2.79-.97-3.63-2.32Zm10.79-11.73c-.19-1.55.95-3.05,2.51-3.28,1.24-.19,2.35.07,3.22,1-.25.28-.49.54-.68.75-.48-.24-.88-.51-1.33-.64-1-.29-2.06.22-2.44,1.11-.54,1.26.41,2.68,1.83,2.74.85.04,1.44-.28,1.72-.94h-1.64v-1.05h2.96c.18.92-.44,2.14-1.35,2.68-1.57.91-4.46.34-4.79-2.36Zm12.35,2.59c.34,0,.68.01,1.02,0,.02,0,.03-.06.05-.09v-2.32c.63-.04,1.23,0,1.74-.36.54-.37.71-.91.66-1.53-.06-.9-.75-1.46-1.76-1.45h-1.77c0,1.85,0,3.69,0,5.54,0,.04,0,.08,0,.12.02.03.04.09.06.09Zm1.1-4.67c.26,0,.5-.02.73,0,.35.04.53.26.52.59,0,.31-.2.5-.55.53-.23.02-.46,0-.71,0v-1.12Zm-6.1,4.64c.23-.12.29-.57.42-.88,0-.02,0-.05.02-.06.1-.07.2-.19.3-.19.39-.02.78-.01,1.16,0,.34,0,.76-.09,1.01.07.23.15.27.58.4.89.02.04.02.09.05.11.05.05.11.11.17.11.34,0,.68,0,1.07,0-.07-.18-.12-.33-.18-.47-.6-1.51-1.2-3.02-1.79-4.53-.33-.82-.32-.82-1.2-.82-.21,0-.31.06-.39.26-.58,1.48-1.17,2.96-1.76,4.44-.15.37-.29.73-.44,1.11.41,0,.85.12,1.15-.04Zm1.73-4.19c.28.68.52,1.29.78,1.93h-1.55c.25-.63.49-1.24.77-1.93Zm-43.65,30.45c-.07-.39-.02-.84.08-1.09l.47.06c-.11.26-.17.63-.11.99.09.54.43.81.84.74.38-.06.56-.32.68-.91.12-.71.4-1.18.97-1.28.64-.11,1.2.34,1.33,1.13.07.42.03.74-.05.94l-.46-.07c.05-.15.12-.44.06-.81-.09-.56-.46-.71-.74-.67-.38.06-.53.35-.65.95-.15.74-.42,1.15-1.02,1.25-.63.11-1.26-.27-1.42-1.23Zm4.61,1.63c.04.2-.07.36-.26.4-.18.05-.35-.05-.4-.26-.04-.19.07-.35.25-.39.19-.04.36.06.4.26Zm-1.09.52l-2.9.66-.12-.53,2.9-.66.12.53Zm-2.51,2.23l-.15-.52,2.09-.6c.3-.09.54-.16.77-.25l.13.46-.46.17h0c.31.07.67.33.81.8.11.4.06,1.08-.92,1.36l-1.71.49-.15-.52,1.65-.48c.46-.13.8-.42.65-.91-.1-.34-.42-.54-.73-.54-.07,0-.16,0-.25.03l-1.72.5Zm4.61,4.32l-.17-.44-.43.14h0c.18-.22.34-.58.15-1.06-.24-.64-1.01-1.05-1.96-.69-.77.29-1.17,1.01-.9,1.7.16.43.49.65.8.71h0s-.31.13-.31.13c-.7.27-1.12,0-1.31-.53-.13-.34-.14-.67-.09-.9l-.43.02c-.06.28,0,.68.12,1.01.13.35.36.71.72.88.34.18.78.15,1.42-.09l1.61-.62c.34-.13.57-.2.77-.27Zm-1.08-.22c-.06.05-.13.08-.22.12l-.5.19c-.09.03-.19.06-.29.06-.36.01-.67-.19-.79-.5-.21-.55.14-1,.69-1.2.64-.25,1.18-.06,1.37.43.14.37,0,.71-.26.91Zm-.24,3.57v.02s-.31.2-.31.2l.21.44c.17-.12.39-.24.62-.35l1.01-.48c.54-.26,1.01-.72.62-1.54-.16-.34-.41-.62-.66-.77l-.27.26c.21.13.41.36.53.61.26.55-.11.8-.33.91l-.06.03c-.49-1.04-1.12-1.45-1.77-1.14-.39.18-.64.64-.38,1.19.18.38.51.58.79.63Zm-.12-1.36c.52-.25.9.31,1.15.85l-.47.22s-.11.04-.17.05c-.26.03-.59-.09-.76-.44-.12-.25-.07-.53.25-.68Zm3.92,2.8c-.24-.42-.6-.62-1.03-.63h0s.43-.29.43-.29l-.24-.42c-.24.15-.5.32-.83.51l-2.8,1.61.27.46,1.4-.81h0c-.17.31-.15.7.05,1.04.35.61,1.13.91,2.06.38.78-.45,1.04-1.22.68-1.85Zm-2.42,1.18c-.19-.34-.13-.75.15-1.02.05-.04.11-.09.18-.13l.44-.25c.06-.04.14-.06.21-.08.4-.11.81.06.99.38.28.5,0,1.02-.52,1.32-.59.34-1.16.28-1.45-.21Zm4.14,1.52c-.47-.68-1.32-.88-2.14-.32-.77.53-.91,1.38-.45,2.04.41.59,1.24.95,2.14.32.75-.52.93-1.35.45-2.05Zm-.78,1.6c-.55.38-1.17.34-1.47-.09-.3-.44-.11-1.02.43-1.39.47-.32,1.11-.43,1.47.1.36.53-.02,1.1-.44,1.38Zm1.42,1.3c-.07.04-.14.08-.21.14l-1.25.98-.33-.42,1.61-1.27c.28-.22.51-.41.71-.6l.29.37-.45.38.02.02c.4-.14.8-.04,1.02.24.04.05.06.09.08.13l-.4.32c-.02-.05-.05-.1-.1-.16-.24-.3-.63-.33-1-.14Zm.48,1.25c-.67.6-.76,1.41-.14,2.09.32.35.61.53.8.62l.23-.33c-.2-.09-.41-.22-.66-.51-.36-.4-.45-.95.09-1.45l1.39,1.56s.12-.08.2-.15c.41-.36.87-1.13.23-1.85-.58-.65-1.46-.57-2.13.03Zm1.65,1.34l-1.05-1.18c.31-.22.84-.37,1.21.03.41.45.1.92-.16,1.15Zm4.49,3.72l-1.32,1.49c-.24-.09-.68-.3-1.1-.68-.47-.42-.75-.88-.8-1.44-.04-.49.16-1.06.59-1.54.83-.92,2.06-1.03,3.1-.11.36.32.57.65.65.83l-.39.24c-.1-.22-.25-.46-.57-.74-.75-.67-1.66-.64-2.35.14-.7.79-.64,1.67.09,2.31.26.23.47.36.61.39l.82-.92-.63-.56.29-.32,1.02.91Zm.93,1.13c-.05.05-.12.11-.17.19l-.97,1.26-.42-.33,1.25-1.63c.21-.28.39-.52.55-.75l.38.29-.34.48h.02c.35-.22.76-.22,1.05,0,.05.04.08.07.11.11l-.31.41s-.08-.08-.14-.13c-.3-.23-.69-.17-1,.11Zm2.83.55c-.72-.49-1.55-.2-2.06.55-.5.74-.39,1.55.37,2.06.39.27.72.37.92.4l.14-.37c-.22-.04-.45-.12-.77-.33-.45-.3-.67-.81-.27-1.43l1.73,1.17s.09-.11.16-.2c.31-.45.57-1.31-.23-1.85Zm-.12,1.45l-1.31-.89c.25-.29.73-.57,1.18-.26.5.34.33.87.13,1.15Zm2.97,2.22s.09-.11.14-.21c.27-.48.47-1.35-.37-1.83-.75-.43-1.56-.08-2.01.7s-.27,1.57.52,2.03c.41.24.74.31.95.33l.11-.38c-.22-.03-.46-.08-.79-.28-.47-.27-.73-.76-.37-1.4l1.81,1.04Zm-.46-1.72c.53.3.39.84.21,1.14l-1.37-.79c.22-.3.68-.62,1.16-.35Zm3.64,2.83l-.76,1.61-.49-.23.73-1.55c.21-.43.21-.87-.25-1.09-.32-.15-.68-.04-.89.19-.05.05-.1.13-.14.21l-.77,1.62-.49-.23.93-1.96c.13-.28.23-.51.32-.74l.43.21-.18.46h.01c.25-.19.68-.29,1.13-.08.37.18.85.67.41,1.6Zm3.89-1.07c-.36-.12-.72-.2-.95-.23l-1.31,3.86c.16.08.42.2.77.31.64.22,1.12.25,1.48.09.26-.12.48-.34.6-.67.2-.58-.13-1.04-.47-1.26h0c.47-.02.83-.27.96-.65.11-.31.06-.58-.09-.8-.18-.28-.47-.48-.98-.65Zm.05,3.18c-.19.57-.74.6-1.27.42-.18-.06-.32-.12-.42-.17l.51-1.5.42.14c.55.19.94.57.76,1.1Zm.49-1.84c-.13.38-.54.55-1.07.37l-.46-.16.43-1.26c.09.01.23.04.46.12.51.17.8.47.64.93Zm3.19.99l.53.13-.53,2.1c-.07.3-.13.56-.17.79l-.47-.12.09-.48h-.01c-.2.2-.58.42-1.09.29-.45-.11-.93-.5-.68-1.52l.42-1.69.53.13-.4,1.6c-.14.55-.06.96.41,1.08.35.09.66-.09.81-.3.05-.07.09-.16.12-.26l.45-1.77Zm1.42.3l.53.1-.55,2.93-.53-.1.55-2.93Zm.75-.71c-.03.18-.19.3-.4.26-.19-.04-.29-.21-.26-.39.04-.19.2-.31.4-.27.2.04.3.21.26.39Zm.9-.41l.54.08-.66,4.32-.54-.08.66-4.32Zm3.22,2.17h-.01c-.11-.25-.4-.5-.85-.54-.72-.07-1.39.48-1.48,1.47-.08.9.41,1.56,1.13,1.62.48.04.87-.17,1.06-.49h.01s-.02.52-.02.52l.48.04c0-.2.02-.5.05-.77l.33-3.58-.54-.05-.16,1.77Zm-.08.82l-.05.51c0,.09-.02.16-.05.23-.14.4-.49.6-.85.57-.58-.05-.83-.58-.77-1.18.06-.66.44-1.12.99-1.06.4.04.67.35.72.7.01.07,0,.16,0,.23Zm2.19-1.95c0,.18-.14.33-.36.32-.19,0-.32-.16-.31-.34,0-.19.15-.33.35-.33.2,0,.33.16.32.35Zm-.63.82l.54.02-.1,2.98-.54-.02.1-2.98Zm4.01,1.19l.05,1.78h-.54s-.04-1.7-.04-1.7c-.01-.48-.2-.87-.71-.86-.36,0-.63.27-.71.57-.02.07-.03.16-.03.25l.05,1.79h-.54s-.06-2.16-.06-2.16c0-.31-.02-.56-.05-.81h.48s.04.48.04.48h.01c.14-.29.48-.57.97-.59.41-.01,1.06.22,1.08,1.24Zm3.46-.71c-.04-.36-.05-.6-.06-.82l-.47.05.02.45h-.01c-.15-.23-.46-.47-.98-.41-.68.07-1.27.71-1.17,1.71.09.82.68,1.39,1.41,1.31.46-.05.75-.3.89-.6h.01s.04.33.04.33c.08.75-.29,1.08-.84,1.14-.37.04-.68-.04-.89-.14l-.09.42c.26.13.66.18,1.01.14.37-.04.78-.17,1.04-.47.26-.29.35-.72.28-1.4l-.18-1.72Zm-.45,1.24c-.08.36-.36.59-.69.63-.58.06-.93-.39-.99-.97-.07-.69.25-1.16.76-1.21.39-.04.68.19.81.49.03.07.05.15.06.24l.06.53c0,.09,0,.2-.01.29Zm5.83-.67l.2.39c-.17.14-.53.32-1.02.43-1.14.26-2.16-.27-2.46-1.59-.29-1.27.38-2.32,1.63-2.6.5-.11.85-.08,1-.04l-.03.45c-.22-.05-.52-.06-.85.02-.95.21-1.44.96-1.2,2.02.22.99.94,1.5,1.92,1.27.32-.07.63-.21.81-.36Zm1.32-2.99c-.79.25-1.23,1-.93,1.95.28.9,1.05,1.27,1.82,1.03.69-.22,1.27-.9.94-1.95-.27-.87-1.01-1.29-1.83-1.03Zm.79,2.59c-.5.16-1.01-.2-1.21-.82-.17-.54-.08-1.19.53-1.38.61-.19,1.04.34,1.19.82.2.64-.02,1.22-.52,1.37Zm4.36-2.13c.12.28.22.53.33.74l-.44.18-.21-.44h-.01c-.04.28-.21.69-.7.89-.43.18-1.05.15-1.44-.82l-.66-1.61.5-.2.62,1.53c.21.52.52.81.97.63.34-.14.47-.47.47-.73,0-.09-.02-.18-.06-.27l-.69-1.69.5-.2.82,2.01Zm2.8-2.46l.8,1.59-.48.24-.78-1.53c-.22-.43-.56-.7-1.01-.47-.32.16-.45.51-.4.82,0,.07.04.16.08.24l.81,1.6-.48.24-.98-1.94c-.14-.27-.26-.5-.39-.71l.43-.22.25.42h.01c0-.32.19-.73.62-.95.37-.19,1.05-.26,1.51.65Zm3.23-.46l.29.3c-.08.14-.3.38-.64.59-.77.47-1.58.25-2.06-.53-.47-.78-.28-1.68.55-2.18.27-.17.56-.24.72-.26l.11.42c-.15,0-.36.05-.61.2-.58.35-.64.98-.32,1.51.36.59.96.72,1.46.42.26-.16.4-.33.49-.47Zm-.22-2.82l1.67,2.47-.45.3-1.67-2.47.45-.3Zm-.97-.35c-.11-.16-.07-.36.09-.47.17-.11.36-.06.46.09.11.15.08.35-.1.47-.16.11-.35.06-.46-.09Zm1.34-1.62l2.57,3.53-.44.32-2.57-3.53.44-.32Zm6.3-.28l.36.25c-.08.2-.31.54-.69.87-.88.77-2.02.8-2.92-.22-.86-.97-.78-2.22.18-3.07.39-.34.71-.47.86-.51l.19.41c-.22.06-.48.2-.74.42-.73.64-.8,1.54-.08,2.35.67.76,1.54.86,2.3.2.24-.22.45-.49.54-.71Zm1.7-1.43c-.38.39-.92.51-1.45.01l1.46-1.5s-.09-.11-.17-.19c-.39-.38-1.19-.79-1.86-.09-.6.62-.46,1.49.18,2.12.64.63,1.46.65,2.1,0,.33-.34.49-.64.56-.84l-.34-.2c-.08.21-.19.42-.46.7Zm-1.78-1.47c.42-.44.91-.17,1.15.07l-1.1,1.13c-.24-.29-.43-.82-.05-1.21Zm2.5-1.15l1.2,1.03-.35.41-1.55-1.33c-.27-.23-.5-.42-.72-.59l.31-.36.46.37.02-.02c-.22-.36-.19-.77.04-1.05.04-.05.07-.08.11-.1l.39.33s-.09.07-.13.13c-.25.29-.21.68.05,1,.05.06.11.12.18.18Zm2.85-1.69l.34.23c-.03.11-.11.26-.23.43-.15.2-.34.31-.54.32-.22.02-.46-.09-.74-.31l-1.29-.99-.28.37-.33-.25.28-.37-.57-.44.21-.51.68.52.47-.61.33.25-.47.61,1.27.98c.29.23.52.27.71.03.09-.11.14-.21.16-.27Zm-1.32-2.56l2.43,1.72-.31.44-2.43-1.72.31-.44Zm-1.12-.46c.12-.17.31-.19.47-.08.15.1.2.3.07.47-.11.16-.31.18-.46.07-.16-.11-.19-.31-.08-.47Zm2.87-2.25l2.53,1.58-.28.45-2.18-1.36-.63,1.01,2.18,1.36-.28.45-2.18-1.36-.22.35-.35-.22.22-.35-.14-.08c-.67-.42-.86-1.08-.41-1.79.15-.23.39-.47.57-.54l.27.35c-.15.06-.34.22-.48.44-.3.49-.05.84.35,1.09l.13.08.92-1.47Zm3.57-1.43l.4.11c0,.16-.06.48-.25.84-.42.79-1.23,1.03-2.04.6-.81-.43-1.1-1.29-.65-2.15.15-.28.35-.5.49-.59l.31.3c-.13.08-.28.23-.42.49-.32.6-.05,1.17.5,1.46.61.32,1.19.13,1.47-.39.14-.27.17-.49.18-.66Zm-1.69-1.71l.38.03c-.04-.25,0-.55.11-.8.25-.56.68-.44.9-.34l.06.02c-.47,1.05-.37,1.79.29,2.09.39.17.91.07,1.15-.49.17-.39.11-.77-.04-1.01v-.02s.37.11.37.11l.2-.45c-.2-.05-.44-.14-.67-.24l-1.02-.45c-.55-.24-1.2-.29-1.57.54-.15.34-.2.71-.15,1Zm1.8-.94l.47.21c.05.02.1.06.15.1.2.18.32.51.16.86-.11.25-.36.4-.68.26-.53-.23-.35-.89-.1-1.42Zm-.77-1.98l-.67-.25.05-.55.8.3.27-.73.39.14-.27.73,1.5.56c.35.13.58.1.68-.18.05-.13.07-.24.08-.31l.39.12c0,.11-.03.28-.1.48-.09.24-.23.4-.42.47-.2.09-.47.05-.8-.08l-1.52-.57-.16.43-.39-.14.16-.43Zm-.38-2.44c.06-.19.24-.27.42-.21.18.05.28.23.21.43-.06.18-.24.26-.42.21-.18-.06-.28-.24-.22-.43Zm3.86,1.54l-2.83-.92.17-.51,2.83.92-.17.51Zm-.97-1.71c.91.24,1.64-.21,1.84-.99.18-.7-.09-1.56-1.15-1.83-.88-.23-1.63.17-1.84,1-.21.8.19,1.58,1.16,1.83Zm-.77-1.71c.16-.62.84-.7,1.33-.57.65.17,1.02.67.89,1.17-.13.51-.7.75-1.34.59-.55-.14-1.05-.56-.89-1.18Zm.97-2.02c-.3-.05-.55-.09-.8-.11l.08-.47.49.05h0c-.25-.21-.47-.59-.38-1.08.07-.41.42-.99,1.43-.82l1.75.31-.09.53-1.69-.3c-.47-.08-.9.02-.99.53-.06.35.14.67.42.81.06.04.15.06.24.08l1.76.31-.09.53-2.14-.37Z"/>
</svg>